<svg width="110" height="110" viewBox="0 0 110 110" fill="none" xmlns="http://www.w3.org/2000/svg">
<ellipse cx="54.3246" cy="61.6261" rx="42.2524" ry="42.1684" fill="white"/>
<path d="M12.6536 74.3941C6.94832 73.6824 1.59965 71.1913 0.173337 68.7002C-1.25298 72.6148 6.59174 82.2232 6.59174 82.2232C6.59174 82.2232 5.52201 84.7143 0.173337 87.2054C6.59174 92.1876 21.9246 93.2552 21.9246 93.2552C21.9246 93.2552 19.7851 89.3406 17.6457 85.0702C15.5062 81.8674 13.7233 78.3087 12.6536 74.3941Z" fill="#3CA482"/>
<path d="M14.0794 78.3094C12.6531 78.3094 10.157 78.3094 9.44388 79.7329C8.73073 80.8005 9.0873 82.9357 12.2965 84.7151C13.3662 85.071 18.3583 86.1386 18.3583 86.1386L18.0018 85.4268C16.2189 82.9358 15.1491 80.8005 14.0794 78.3094Z" fill="#006233"/>
<path d="M54.0172 105C30.1264 105 10.5146 85.4273 10.5146 61.584C10.5146 37.7408 30.1264 18.168 54.0172 18.168C77.9079 18.168 97.5197 37.7408 97.5197 61.584C97.8763 85.4273 78.2645 105 54.0172 105ZM54.0172 19.5914C30.8396 19.5914 11.941 38.4525 11.941 61.584C11.941 84.7155 30.8396 103.577 54.0172 103.577C77.1947 103.577 96.0934 84.7155 96.0934 61.584C96.0934 38.0966 77.1947 19.5914 54.0172 19.5914Z" fill="#3CA482"/>
<path d="M80.7593 96.1022C99.3013 94.3228 105.363 104.643 105.363 104.643C105.363 104.643 103.937 94.3228 100.014 90.4082C101.797 89.3406 106.789 88.273 109.642 88.6289C101.797 81.1556 92.5264 81.1556 92.5264 81.1556C92.5264 81.1556 86.8211 92.1876 80.7593 96.1022Z" fill="#3CA482"/>
<path d="M105.364 104.644C105.364 104.644 103.938 94.3234 100.016 90.4088C101.799 89.3412 106.791 88.2736 109.643 88.6295" fill="#3CA582"/>
<path d="M80.7593 96.1028C80.7593 96.1028 97.5185 96.1028 96.8053 92.1882C96.8053 91.8323 96.0921 87.5619 89.3172 87.2061C85.0382 93.2558 80.7593 96.1028 80.7593 96.1028Z" fill="#006233"/>
<path d="M55.086 104.999C54.3728 104.999 53.6597 104.999 52.59 104.999C41.1795 104.643 32.9782 100.372 32.6216 100.372L33.3347 98.949C33.3347 98.949 41.8926 102.864 52.59 103.575C67.2097 104.287 78.9767 98.5931 87.8912 87.2053C96.8056 73.3264 98.2319 59.0916 92.1701 45.2127C87.5346 34.8925 80.403 28.4869 80.403 28.4869L81.4728 27.4192C81.8294 27.0634 89.3175 33.469 93.953 44.1451C98.2319 54.1094 101.085 69.4118 89.6741 87.5611C78.6201 101.796 65.0702 104.999 55.086 104.999Z" fill="#3CA482"/>
<path d="M42.2495 5C42.2495 5 45.8153 5 56.1561 24.5728C68.6363 48.416 82.5428 29.555 82.5428 29.555C82.5428 29.555 94.6665 21.37 83.9691 12.8291C76.1244 6.42348 64.0008 5.71174 61.8613 5.71174L42.2495 5Z" fill="#3CA582"/>
<path d="M11.9404 84.3591C11.9404 84.3591 19.4286 86.8501 30.4825 86.4943C46.8851 85.7825 65.4271 75.4623 73.985 74.0389C90.7442 70.4802 96.4494 75.1065 96.4494 75.1065V91.4764C96.4494 91.4764 93.9534 80.4445 68.2798 91.4764C42.6061 103.932 20.8549 99.3056 20.8549 99.3056L11.9404 84.3591Z" fill="#3CA582"/>
<path d="M34.0483 96.8139C33.6917 96.8139 32.622 97.1698 31.5522 97.1698C30.1259 97.1698 29.4128 96.8139 28.6996 96.1021C27.9865 95.3904 27.6299 94.6787 27.6299 93.6111C27.6299 91.12 29.4128 90.0524 31.9088 90.0524C32.9785 90.0524 33.6917 90.4082 34.0483 90.4082L33.3351 91.4758C32.9785 91.12 32.622 91.12 31.5522 91.12C30.1259 91.12 29.0562 91.8317 29.0562 93.2552C29.0562 94.6787 30.1259 95.7463 31.1957 95.7463C31.5522 95.7463 31.9088 95.7463 31.9088 95.7463V94.3228H30.8391V92.8993H33.6917L34.0483 96.8139Z" fill="white"/>
<path d="M36.9015 89.6977L37.2581 93.9681C37.2581 95.3916 37.9713 95.7474 38.6844 95.7474C39.3976 95.7474 40.1107 95.0357 39.7542 93.6122L39.3976 89.3418H41.1805L41.5371 93.2564C41.8936 95.3916 40.8239 96.815 38.6844 96.815C36.9015 96.815 35.8318 96.1033 35.4752 93.6122L35.1187 89.6977H36.9015Z" fill="white"/>
<path d="M44.7453 93.9669V95.7462L42.9624 96.1021L43.6756 88.6288L45.815 88.2729L49.3808 95.0345L47.5979 95.3903L46.5282 93.611L44.7453 93.9669ZM46.1716 92.5434L45.4585 91.1199C45.1019 90.764 45.1019 90.0523 44.7453 89.6964C44.7453 90.0523 44.7453 90.764 44.7453 91.1199V92.5434H46.1716Z" fill="white"/>
<path d="M48.6675 87.9172C49.0241 87.5614 49.7372 87.5614 50.807 87.2055C51.8767 86.8496 52.5898 86.8496 53.303 87.2055C53.6596 87.5614 54.3727 87.9172 54.3727 88.2731C54.7293 88.9848 54.3727 90.0525 53.6596 90.4083C54.3727 90.4083 54.7293 90.7642 55.0859 91.4759C55.4425 92.1877 56.1556 92.8994 56.1556 93.2553L54.7293 93.6111C54.7293 93.6111 54.3727 92.8994 53.6596 92.1877C53.303 91.4759 52.9464 91.1201 52.2333 91.4759H51.8767L52.5898 94.3229L51.1635 94.6788L48.6675 87.9172ZM51.1635 90.4083L51.8767 90.0525C52.5898 89.6966 52.9464 89.3407 52.9464 88.629C52.5898 87.9172 52.2333 87.9172 51.5201 87.9172C51.1635 87.9172 50.807 88.2731 50.807 88.2731L51.1635 90.4083Z" fill="white"/>
<path d="M58.2961 90.4081L58.6526 92.1875L57.2263 92.8992L56.5132 85.426L58.6526 84.7142L63.2882 90.764L61.5053 91.4757L60.4355 90.0523L58.2961 90.4081ZM59.3658 88.2729L58.2961 86.8495C57.9395 86.4936 57.5829 86.1377 57.5829 85.7818C57.5829 86.1377 57.5829 86.8495 57.9395 87.2053V88.6288L59.3658 88.2729Z" fill="white"/>
<path d="M64.0001 89.6962L61.1475 83.2905L62.9304 82.5788L65.4264 84.3581C66.1396 85.0699 66.8527 85.4257 67.5659 86.1375C67.2093 85.4257 66.8527 84.3581 66.4961 83.2905L65.4264 81.5112L66.8527 80.7994L69.3488 87.561L67.9224 88.2727L65.4264 86.1375C64.7132 85.4257 64.0001 84.714 63.2869 84.3581C63.6435 85.0699 64.0001 86.1375 64.3567 87.2051L65.0698 89.3403L64.0001 89.6962Z" fill="white"/>
<path d="M70.0618 81.1569L68.2789 81.8686L67.9224 80.4451L73.271 78.6658L73.6276 80.0892L71.8447 80.801L73.9842 86.139L72.5579 86.8508L70.0618 81.1569Z" fill="white"/>
<path d="M79.3344 81.1567L76.8383 81.8684L77.1949 83.6477L80.0475 82.936L80.4041 84.3595L76.1252 85.0712L74.3423 77.9538L78.6212 76.8862L78.9778 78.3097L76.1252 79.0214L76.4817 80.4449L78.9778 79.7332L79.3344 81.1567Z" fill="white"/>
<path d="M85.0395 80.0884L82.5434 80.4443L82.9 82.2236L85.7526 81.8677V83.2912L81.1171 84.003L80.0474 76.8856L84.3263 76.1738V77.5973L81.4737 77.9532L81.8303 79.3766L84.3263 79.0208L85.0395 80.0884Z" fill="white"/>
<path d="M83.2566 38.8068C82.5434 34.5364 85.396 33.1129 86.1092 32.7571C86.4658 32.0453 88.9618 29.5542 93.9539 29.1984V30.266C88.6052 30.6218 86.8223 33.4688 86.8223 33.4688V33.8247H86.4658C86.4658 33.8247 83.6131 34.5364 84.3263 38.451L83.2566 38.8068Z" fill="#3CA482"/>
<path d="M89.6751 30.2673C89.6751 30.2673 86.4659 18.8795 98.5895 20.6588C106.791 23.1499 110 21.3706 110 21.3706C110 21.3706 106.791 23.5058 102.155 29.9114C95.0237 39.164 89.6751 30.2673 89.6751 30.2673Z" fill="#3CA582"/>
<path d="M67.21 63.0069C67.21 63.0069 68.6363 58.3806 68.2797 48.4163C67.9231 33.1139 83.6125 36.6726 83.6125 36.6726C83.6125 36.6726 95.3796 47.7046 80.0468 55.5337C69.3494 59.8041 67.21 63.0069 67.21 63.0069Z" fill="#3CA582"/>
<path fill-rule="evenodd" clip-rule="evenodd" d="M33.6769 48.653C32.5137 48.653 31.5872 49.038 30.8975 49.8081C30.2078 50.5673 29.863 51.603 29.863 52.9153C29.863 54.2168 30.2181 55.2525 30.9284 56.0226C31.6387 56.7926 32.5548 57.1776 33.6769 57.1776C34.6136 57.1776 35.5298 56.8794 36.4254 56.2829L37.0739 57.9585C36.0342 58.6634 34.8349 59.0159 33.4761 59.0159C31.7159 59.0159 30.3056 58.4682 29.2454 57.3728C28.1851 56.2666 27.655 54.7807 27.655 52.9153C27.655 51.039 28.1748 49.5532 29.2145 48.4578C30.2542 47.3624 31.6747 46.8147 33.4761 46.8147C34.8349 46.8147 36.0342 47.1672 37.0739 47.8721L36.4254 49.5478C35.5298 48.9513 34.6136 48.653 33.6769 48.653ZM21.2343 48.8157V51.7277H25.7585V53.4684H21.2343V57.0149H26.0673V58.8532H19.0726V46.9774H26.0673V48.8157H21.2343ZM44.0005 46.8147C42.2917 46.8147 40.9227 47.3678 39.8933 48.4741C38.8742 49.5695 38.3646 51.0499 38.3646 52.9153C38.3646 54.7807 38.8742 56.2666 39.8933 57.3728C40.9227 58.4682 42.2917 59.0159 44.0005 59.0159C45.7093 59.0159 47.0733 58.4682 48.0924 57.3728C49.1217 56.2666 49.6364 54.7807 49.6364 52.9153C49.6364 51.0499 49.1217 49.5695 48.0924 48.4741C47.0733 47.3678 45.7093 46.8147 44.0005 46.8147ZM44.0005 57.1451C42.9506 57.1451 42.1168 56.7763 41.4991 56.0388C40.8815 55.2905 40.5727 54.2493 40.5727 52.9153C40.5727 51.5813 40.8815 50.5456 41.4991 49.8081C42.1168 49.0597 42.9506 48.6856 44.0005 48.6856C45.0505 48.6856 45.8843 49.0597 46.502 49.8081C47.1196 50.5456 47.4284 51.5813 47.4284 52.9153C47.4284 54.2493 47.1196 55.2905 46.502 56.0388C45.8843 56.7763 45.0505 57.1451 44.0005 57.1451ZM21.4174 66.0119C22.0477 66.0119 22.6387 66.1339 23.1902 66.3779L23.4539 65.4994C22.8296 65.2445 22.1417 65.1171 21.3901 65.1171C20.6628 65.1171 20.0961 65.2635 19.69 65.5564C19.29 65.8492 19.09 66.2396 19.09 66.7277C19.09 67.1669 19.2627 67.5384 19.6082 67.842C19.9597 68.1457 20.5234 68.3979 21.2992 68.5985C21.6871 68.7016 21.9538 68.8209 22.0992 68.9564C22.2508 69.092 22.3265 69.2764 22.3265 69.5096C22.3265 69.7644 22.2326 69.9624 22.0447 70.1033C21.8629 70.2389 21.5931 70.3067 21.2356 70.3067C20.587 70.3067 19.9718 70.1305 19.39 69.778L19.0718 70.689C19.7021 71.0415 20.4143 71.2177 21.2083 71.2177C21.9901 71.2177 22.5872 71.0713 22.9993 70.7785C23.4114 70.4802 23.6175 70.0518 23.6175 69.4933C23.6175 69.0107 23.4418 68.6175 23.0902 68.3138C22.7447 68.0102 22.1477 67.7526 21.2992 67.5411C20.6749 67.3838 20.3628 67.1127 20.3628 66.7277C20.3628 66.5108 20.4537 66.3372 20.6355 66.2071C20.8173 66.0769 21.078 66.0119 21.4174 66.0119ZM26.194 67.5736V66.1176H29.0397V65.1985H24.9212V71.1364H29.0397V70.2172H26.194V68.444H28.8578V67.5736H26.194ZM31.727 68.8181V71.1364H30.4724V65.2391C31.0906 65.1578 31.7573 65.1171 32.4725 65.1171C33.3635 65.1171 34.0302 65.2662 34.4726 65.5645C34.9151 65.8573 35.1363 66.2722 35.1363 66.809C35.1363 67.1995 35.0181 67.5411 34.7817 67.8339C34.5514 68.1267 34.2362 68.3301 33.8362 68.444V68.4602C34.1271 68.6121 34.3787 68.9347 34.5908 69.4282L35.3181 71.1364H34.0089L33.318 69.4526C33.2089 69.1923 33.0846 69.0215 32.9452 68.9402C32.8058 68.8588 32.5664 68.8181 32.227 68.8181H31.727ZM31.727 67.9559H32.2634C33.3422 67.9559 33.8817 67.6116 33.8817 66.9229C33.8817 66.3101 33.3816 66.0037 32.3816 66.0037C32.1331 66.0037 31.9149 66.02 31.727 66.0525V67.9559ZM41.0295 66.142V65.1985H35.9383V66.142H37.8384V71.1364H39.1294V66.142H41.0295ZM42.5111 71.1364V65.1985H43.9021V71.1364H42.5111ZM49.6351 65.1985H45.6076V71.1364H46.8804V68.5579H49.4533V67.6794H46.8804V66.1176H49.6351V65.1985ZM51.2073 71.1364V65.1985H52.5983V71.1364H51.2073ZM55.8039 66.6138C56.21 66.2288 56.7554 66.0363 57.4403 66.0363C57.9919 66.0363 58.5313 66.1854 59.0586 66.4836L59.4405 65.6458C58.8283 65.2934 58.1222 65.1171 57.3221 65.1171C56.2615 65.1171 55.4251 65.391 54.8129 65.9387C54.2007 66.4864 53.8947 67.2293 53.8947 68.1674C53.8947 69.1001 54.2068 69.8431 54.8311 70.3962C55.4554 70.9439 56.2857 71.2177 57.3221 71.2177C58.1222 71.2177 58.8283 71.0415 59.4405 70.689L59.0586 69.8512C58.5313 70.1494 57.9919 70.2986 57.4403 70.2986C56.7797 70.2986 56.2403 70.1061 55.8221 69.721C55.4038 69.336 55.1947 68.8181 55.1947 68.1674C55.1947 67.5113 55.3978 66.9934 55.8039 66.6138ZM62.4995 65.1985H63.8633L66.1725 71.1364H64.8088L64.336 69.7048H61.9995L61.5177 71.1364H60.1994L62.4995 65.1985ZM62.2813 68.8344H64.0451L63.1723 66.199H63.1541L62.2813 68.8344ZM71.1046 66.142V65.1985H66.0133V66.142H67.9134V71.1364H69.2044V66.142H71.1046ZM73.6772 66.1176V67.5736H76.341V68.444H73.6772V70.2172H76.5228V71.1364H72.4044V65.1985H76.5228V66.1176H73.6772ZM79.7738 71.2177C80.889 71.2177 81.7466 70.9493 82.3467 70.4124C82.9528 69.8756 83.2558 69.1001 83.2558 68.0861C83.2558 67.1425 82.9528 66.4132 82.3467 65.898C81.7406 65.3774 80.8829 65.1171 79.7738 65.1171C79.1253 65.1171 78.5192 65.1578 77.9555 65.2391V71.0957C78.5192 71.177 79.1253 71.2177 79.7738 71.2177ZM79.8374 66.0281C81.3102 66.0281 82.0467 66.7141 82.0467 68.0861C82.0467 68.8398 81.8618 69.3984 81.4921 69.7617C81.1284 70.125 80.5769 70.3067 79.8374 70.3067C79.6071 70.3067 79.398 70.2904 79.2101 70.2579V66.0769C79.398 66.0444 79.6071 66.0281 79.8374 66.0281Z" fill="#006233"/>
</svg>
