<svg width="110" height="110" viewBox="0 0 110 110" fill="none" xmlns="http://www.w3.org/2000/svg">
<ellipse cx="55" cy="54.47" rx="39.5161" ry="39.75" fill="white"/>
<path d="M34.2281 98.7499H33.916C25.57 94.6422 18.5248 88.2151 13.5876 80.2048C8.65045 72.1945 6.02092 62.925 6.00026 53.458C5.96824 43.4805 8.86592 33.7225 14.3186 25.446C19.7713 17.1695 27.5282 10.755 36.5862 7.03208C36.6795 6.99158 36.7797 6.97047 36.881 6.96998C36.9823 6.96949 37.0827 6.98962 37.1763 7.02921C37.27 7.0688 37.3549 7.12705 37.4263 7.20056C37.4976 7.27407 37.5539 7.36136 37.5919 7.45735C37.6635 7.64134 37.6639 7.84627 37.5931 8.03055C37.5222 8.21484 37.3854 8.36468 37.2105 8.44966C28.6723 11.989 21.3255 17.9893 16.0647 25.7197C10.804 33.4502 7.85625 42.5771 7.58063 51.9891C7.305 61.401 9.71333 70.6918 14.5123 78.7299C19.3113 86.768 26.2939 93.2066 34.6096 97.2614C34.787 97.3529 34.9224 97.5114 34.9872 97.7034C35.0519 97.8953 35.0409 98.1055 34.9564 98.2892C34.8941 98.4316 34.7913 98.5517 34.6615 98.6338C34.5317 98.716 34.3807 98.7564 34.2281 98.7499Z" fill="#3CA482"/>
<path d="M75.9115 98.6791C75.7697 98.6762 75.6318 98.6311 75.5148 98.5492C75.3978 98.4674 75.3066 98.3524 75.2526 98.2184C75.206 98.1283 75.1779 98.0294 75.1702 97.9278C75.1625 97.8261 75.1753 97.724 75.2078 97.6276C75.2403 97.5313 75.2919 97.4427 75.3592 97.3676C75.4266 97.2924 75.5083 97.2322 75.5994 97.1906C83.8698 93.1479 90.819 86.746 95.6088 78.7572C100.399 70.7684 102.824 61.534 102.593 52.1678C102.362 42.8016 99.4846 33.7037 94.3072 25.9716C89.1298 18.2395 81.8739 12.2034 73.4147 8.59151C73.2335 8.51294 73.0889 8.3658 73.0114 8.18087C72.9338 7.99593 72.9292 7.78752 72.9986 7.5992C73.0366 7.50321 73.0929 7.41591 73.1642 7.3424C73.2356 7.2689 73.3205 7.21065 73.4141 7.17106C73.5078 7.13147 73.6082 7.11133 73.7095 7.11183C73.8108 7.11232 73.911 7.13343 74.0042 7.17392C82.7049 10.9109 90.1644 17.1362 95.4862 25.1016C100.808 33.067 103.766 42.4336 104.004 52.0757C104.242 61.7177 101.75 71.2248 96.8282 79.4544C91.9062 87.684 84.7634 94.2858 76.2583 98.4665C76.1709 98.5769 76.048 98.6522 75.9115 98.6791V98.6791Z" fill="#3CA482"/>
<path d="M39.0825 98.4673L43.1051 99.3887V100.239L40.0534 99.5305L39.4986 102.047L42.3075 102.72L42.1341 103.535L39.3252 102.862L38.5623 106.406L37.5913 106.158L39.0825 98.4673Z" fill="#3CA482"/>
<path d="M46.5387 100.026C47.1616 99.9689 47.7884 99.9689 48.4113 100.026C49.2094 99.9977 49.9889 100.276 50.596 100.806C50.8744 101.067 51.0753 101.403 51.1755 101.775C51.2757 102.148 51.2713 102.541 51.1627 102.911C51.0541 103.281 50.8458 103.612 50.5616 103.867C50.2774 104.121 49.9288 104.289 49.5557 104.35C49.8456 104.52 50.0894 104.762 50.265 105.053C50.4406 105.344 50.5424 105.675 50.5614 106.016C50.6512 106.751 50.8138 107.476 51.0468 108.178H50.0065C49.8145 107.567 49.6866 106.937 49.625 106.299C49.4517 105.201 49.0702 104.775 48.1686 104.669H47.2669L47.0589 108.036H46.0879L46.5387 100.026ZM47.3016 103.57H48.3073C49.3476 103.57 50.0759 103.074 50.1105 102.188C50.1452 101.302 49.4863 100.735 48.446 100.629H47.6137L47.3016 103.57Z" fill="#3CA482"/>
<path d="M58.9187 103.818L55.9364 104.102L56.2139 106.901L59.5083 106.582V107.433L55.2429 107.858L54.5493 100.062L58.6413 99.6718V100.487L55.4856 100.806L55.7284 103.287L58.676 102.968L58.9187 103.818Z" fill="#3CA482"/>
<path d="M66.9291 102.046L64.0509 102.825L64.7444 105.519L67.9348 104.668L68.1429 105.519L63.9815 106.582L62.0742 99.0688L66.0622 98.0056L66.2703 98.8207L63.2533 99.6358L63.8428 102.01L66.7211 101.266L66.9291 102.046Z" fill="#3CA482"/>
<path d="M48.2726 9.90325C47.5739 10.323 46.8124 10.6223 46.0186 10.7892C45.495 10.9333 44.9482 10.9668 44.4116 10.8875C43.875 10.8083 43.3598 10.6181 42.8976 10.3285C42.0304 9.66763 41.4465 8.69 41.2677 7.59968C41.1415 7.04204 41.1338 6.46324 41.2451 5.90229C41.3563 5.34135 41.5839 4.81128 41.9125 4.34782C42.2411 3.88436 42.6631 3.49827 43.1501 3.21558C43.6371 2.93288 44.1777 2.76014 44.7355 2.70901C45.3987 2.56656 46.0836 2.56656 46.7468 2.70901V3.595C46.1657 3.45071 45.5593 3.45071 44.9782 3.595C44.5564 3.64578 44.1503 3.78913 43.7877 4.01523C43.4252 4.24132 43.1147 4.54482 42.8776 4.90495C42.6405 5.26508 42.4823 5.67332 42.4139 6.10172C42.3455 6.53013 42.3686 6.96857 42.4814 7.38704C42.5264 7.79705 42.6543 8.19302 42.8569 8.54984C43.0596 8.90666 43.3327 9.21653 43.6587 9.45979C43.9848 9.70305 44.3568 9.87439 44.7511 9.96293C45.1454 10.0515 45.5534 10.0553 45.9492 9.97413C46.4073 9.90691 46.8454 9.73752 47.2323 9.47798L46.7815 7.13896L45.221 7.45792L45.0476 6.64281L47.6138 6.07577L48.2726 9.90325Z" fill="#3CA482"/>
<path d="M56.1792 6.50084C56.1792 5.36677 56.1792 4.0555 56.1792 2.95687C55.9138 3.99126 55.5896 5.00893 55.2082 6.00468L53.8557 9.90304H53.0928L51.8097 6.07556C51.3876 5.09234 51.0172 4.08678 50.7 3.06319V3.06319C50.7 4.0555 50.7 5.40221 50.7 6.60715L50.5266 10.1511H49.5557L49.9024 2H51.0815L52.4339 5.86292C52.7807 6.85523 53.0235 7.74122 53.2315 8.55634C53.4396 7.74122 53.717 6.85523 54.0638 5.86292L55.5896 2H56.8727L57.3929 10.0094H56.3872L56.1792 6.50084Z" fill="#3CA482"/>
<path d="M65.993 7.45728C65.9726 7.99831 65.838 8.52845 65.5984 9.01137C65.3588 9.49428 65.0199 9.91857 64.605 10.2552C64.19 10.5917 63.7087 10.8327 63.1941 10.9615C62.6795 11.0902 62.1438 11.1038 61.6235 11.0012C61.1203 10.9214 60.6405 10.7294 60.2181 10.4386C59.7957 10.1479 59.4412 9.76571 59.1797 9.31916C58.9182 8.8726 58.7561 8.37267 58.705 7.85488C58.6539 7.33708 58.715 6.81414 58.884 6.32321C58.9207 5.78827 59.066 5.26699 59.3106 4.79257C59.5552 4.31815 59.8938 3.90098 60.3048 3.56761C60.7158 3.23424 61.1903 2.99198 61.6979 2.85625C62.2056 2.72052 62.7353 2.6943 63.2534 2.77925C63.7566 2.85905 64.2365 3.05113 64.6588 3.34185C65.0812 3.63256 65.4357 4.01478 65.6972 4.46133C65.9588 4.90789 66.1208 5.40782 66.1719 5.92561C66.223 6.4434 66.1619 6.96635 65.993 7.45728V7.45728ZM59.959 6.42953C59.7627 7.15306 59.848 7.92616 60.1971 8.58682C60.5462 9.24747 61.132 9.74441 61.8316 9.97349C63.4268 10.2925 64.6058 8.94574 64.9179 7.17376C65.1234 6.45009 65.0422 5.67286 64.6919 5.00982C64.3415 4.34679 63.7501 3.85112 63.0453 3.6298C61.4848 3.31084 60.2711 4.69299 59.959 6.42953Z" fill="#3CA482"/>
<path d="M55.0003 94.1425C47.2094 94.1424 39.5931 91.7836 33.1129 87.3637C26.6327 82.9439 21.5789 76.6611 18.5896 69.3085C15.6003 61.9559 14.8095 53.863 16.3168 46.0514C17.8242 38.2399 21.5622 31.0598 27.0591 25.4174C32.556 19.7751 39.5654 15.9235 47.2024 14.3487C54.8393 12.774 62.7617 13.5467 69.9693 16.5694C77.1769 19.5921 83.3468 24.7292 87.7001 31.3323C92.0533 37.9354 94.3949 45.7085 94.4291 53.6704C94.4474 58.9756 93.4413 64.2324 91.4684 69.1395C89.4955 74.0467 86.5946 78.5078 82.9319 82.2674C79.2693 86.027 74.9168 89.0111 70.1238 91.0489C65.3308 93.0866 60.1915 94.1379 55.0003 94.1425V94.1425ZM55.0003 15.1121C47.4964 15.1122 40.1614 17.3885 33.9246 21.6527C27.6877 25.9169 22.8298 31.9771 19.9662 39.0654C17.1025 46.1537 16.3621 53.9512 17.8387 61.47C19.3153 68.9887 22.9425 75.8904 28.2607 81.3005C33.5789 86.7107 40.3488 90.3858 47.7126 91.8604C55.0765 93.3349 62.7029 92.5425 69.6257 89.5835C76.5485 86.6245 82.456 81.6321 86.6 75.2388C90.7439 68.8455 92.9376 61.3391 92.9033 53.6704C92.8941 43.4 88.8978 33.5529 81.7916 26.2906C74.6854 19.0283 65.05 14.9443 55.0003 14.9349V15.1121Z" fill="#3CA482"/>
<path d="M54.9996 18.728C48.2385 18.7351 41.6311 20.7904 36.0128 24.6343C30.3944 28.4782 26.0173 33.9381 23.4346 40.3238C20.852 46.7095 20.1798 53.7343 21.503 60.5104C22.8263 67.2864 26.0855 73.5094 30.8688 78.3928C35.6521 83.2762 41.7447 86.6007 48.3764 87.9462C55.0082 89.2916 61.8814 88.5975 68.1272 85.9517C74.3731 83.3059 79.7112 78.8271 83.4667 73.0814C87.2223 67.3358 89.2268 60.5812 89.2268 53.6715C89.2268 49.0797 88.3413 44.5329 86.6208 40.2911C84.9003 36.0492 82.3786 32.1955 79.1998 28.9502C76.0211 25.705 72.2476 23.1318 68.0952 21.3778C63.9428 19.6238 59.4928 18.7234 54.9996 18.728V18.728ZM62.4207 21.7759C62.4207 21.7759 72.2693 47.1861 57.2884 52.5375C56.8067 46.4291 57.1921 40.2816 58.4328 34.2861C55.6796 39.6489 54.1167 45.5659 53.8553 51.616C53.8553 51.616 41.9954 36.4124 62.4207 21.7759ZM27.7427 38.2553C35.9961 38.2553 45.8446 45.3432 50.006 50.4465C50.5674 51.0848 50.9907 51.8369 51.248 52.6539C51.5054 53.4708 51.591 54.3341 51.4994 55.1871C51.4077 56.0402 51.1408 56.8639 50.7161 57.6043C50.2915 58.3447 49.7186 58.9851 49.035 59.4836L36.1001 46.9026C39.7413 51.1199 47.6132 61.3974 47.6132 61.3974C46.3939 63.2303 45.3928 65.2052 44.6309 67.2804C27.1532 62.496 27.6734 38.2553 27.6734 38.2553H27.7427ZM49.9713 84.3268C61.4844 63.5238 71.4717 55.16 71.4717 55.16C59.7852 61.7518 49.3471 79.9678 49.3471 79.9678C47.3971 77.8524 46.2054 75.1247 45.9661 72.2288C45.7268 69.3329 46.4541 66.4395 48.0294 64.0199C60.1667 45.4141 83.1235 48.4974 83.1235 48.4974C82.0485 88.048 49.902 84.1496 49.902 84.1496L49.9713 84.3268Z" fill="#3CA482"/>
</svg>
