<svg width="110" height="110" viewBox="0 0 110 110" fill="none" xmlns="http://www.w3.org/2000/svg">
<circle cx="55" cy="54" r="42" fill="white"/>
<path d="M97.9922 55.8042C97.8306 64.2828 95.1639 72.5243 90.3277 79.4914C85.4915 86.4585 78.7019 91.84 70.8133 94.9586C62.9247 98.0772 54.2896 98.7935 45.9946 97.0176C37.6997 95.2416 30.1155 91.0526 24.1966 84.9777C18.2777 78.9029 14.2885 71.2136 12.731 62.8776C11.1735 54.5415 12.1173 45.9312 15.4436 38.1302C18.77 30.3291 24.3302 23.6859 31.4247 19.0365C38.5191 14.3871 46.8307 11.9393 55.3136 12.0011C61.0028 12.0426 66.6272 13.2123 71.861 15.4424C77.0947 17.6726 81.8337 20.9188 85.8034 24.9931C89.7731 29.0673 92.8945 33.8886 94.9868 39.1775C97.079 44.4664 98.1006 50.1178 97.9922 55.8042ZM54.9922 13.7825C46.8493 13.777 38.8869 16.1812 32.1085 20.6919C25.33 25.2026 20.0388 31.618 16.9016 39.1298C13.7644 46.6416 12.9215 54.9136 14.4792 62.9034C16.0369 70.8933 19.9255 78.2435 25.6549 84.0278C31.3843 89.8121 38.6983 93.7717 46.6751 95.4077C54.6519 97.0437 62.9346 96.2828 70.4795 93.2209C78.0245 90.1591 84.494 84.9333 89.073 78.202C93.6519 71.4707 96.1353 63.5352 96.2103 55.3954C96.2488 49.9543 95.2119 44.5593 93.1592 39.5199C91.1064 34.4804 88.0783 29.8959 84.2485 26.0295C80.4188 22.1631 75.8628 19.0908 70.8422 16.9891C65.8216 14.8875 60.4352 13.7977 54.9922 13.7825" fill="#3CA482"/>
<path d="M14.9141 54.9863C14.9199 47.0915 17.2656 39.3754 21.655 32.8123C26.0445 26.2492 32.2808 21.1334 39.5766 18.1109C46.8724 15.0884 54.9005 14.2946 62.6472 15.8299C70.394 17.3652 77.5119 21.1606 83.1024 26.737C88.6929 32.3134 92.5052 39.4206 94.058 47.1613C95.6107 54.902 94.8343 62.9291 91.8267 70.2291C88.8191 77.529 83.7153 83.7744 77.1596 88.1767C70.6039 92.579 62.8903 94.9408 54.9929 94.9639C49.7338 94.9754 44.5241 93.9499 39.662 91.946C34.7999 89.9421 30.381 86.9991 26.6582 83.2857C22.9354 79.5723 19.9818 75.1613 17.9666 70.3053C15.9513 65.4493 14.914 60.2436 14.9141 54.9863V54.9863ZM15.6444 54.9863C15.6394 62.7262 17.9238 70.2947 22.2103 76.7402C26.4967 83.1857 32.594 88.2203 39.7351 91.2109C46.8763 94.2016 54.7426 95.0147 62.3449 93.548C69.9471 92.0814 76.9458 88.4005 82.4609 82.9681C87.976 77.5358 91.7612 70.5946 93.3406 63.0175C94.9199 55.4404 94.2229 47.5656 91.3372 40.3834C88.4514 33.2012 83.5057 27.0323 77.1221 22.6524C70.7385 18.2726 63.202 15.8774 55.4603 15.768C50.2712 15.714 45.1229 16.6881 40.3125 18.6341C35.5021 20.5801 31.125 23.4594 27.434 27.1058C23.7429 30.7521 20.811 35.0933 18.8075 39.8787C16.804 44.664 15.7686 49.7987 15.7612 54.9863" fill="#3CA482"/>
<path d="M65.976 64.0391H61.9448C61.6526 59.3667 61.6526 54.6652 61.4482 49.9637C61.2437 50.6937 61.0684 51.3654 60.8639 52.037L57.3585 63.4842C57.337 63.6032 57.2702 63.7093 57.1722 63.7801C57.0741 63.8509 56.9524 63.8809 56.8327 63.8639C56.0147 63.8639 55.226 63.8639 54.4081 63.8639C54.0867 63.8639 53.9699 63.8639 53.8823 63.455C52.743 59.1623 51.4285 54.8988 50.5813 50.5185C50.5593 50.3741 50.5097 50.2354 50.4352 50.1097C50.2308 54.782 49.9971 59.4251 49.7926 64.1267H45.9658L47.0467 45.963H52.5969C53.2104 48.0072 53.8238 50.0805 54.4081 52.1538C54.9923 54.2272 55.4305 56.3005 55.9563 58.4323C55.9563 58.0234 56.1608 57.673 56.2484 57.3226C57.3293 53.6431 58.4101 49.9637 59.5202 46.2842C59.5202 46.2842 59.7246 45.963 59.8415 45.963C61.5358 45.963 63.2301 45.963 65.012 45.963L65.976 64.0391" fill="#3CA482"/>
<path d="M43.9506 46.6059C43.6585 47.7155 43.3663 48.796 43.1034 49.8473C42.2271 49.6429 41.3507 49.3801 40.5036 49.2632C39.1985 49.034 37.8577 49.114 36.5892 49.4969C35.6669 49.7537 34.838 50.2702 34.2009 50.9846C33.5639 51.6991 33.1457 52.5815 32.9961 53.5267C32.7766 54.6059 32.7766 55.7182 32.9961 56.7974C33.2523 57.952 33.8905 58.9864 34.8075 59.7336C35.7246 60.4808 36.8669 60.8969 38.0498 60.9149C38.6924 60.9149 39.3643 60.9149 40.007 60.9149C40.6496 60.9149 40.5036 60.7396 40.5036 60.36C40.5036 59.2503 40.5036 58.1407 40.5036 57.0018H37.7869V53.7896H44.5056C44.5056 53.9356 44.5056 54.0816 44.5056 54.2276V62.9882C44.5056 63.2218 44.5056 63.4554 44.2135 63.543C41.1641 64.5743 37.8895 64.746 34.7488 64.0395C32.9845 63.6101 31.4142 62.6041 30.287 61.181C29.1598 59.7579 28.5402 57.9993 28.5267 56.1841C28.3788 54.384 28.7221 52.5775 29.5199 50.957C30.1443 49.6375 31.0887 48.4949 32.2672 47.6331C33.4456 46.7712 34.8208 46.2173 36.2678 46.0218C38.5852 45.5633 40.9785 45.6635 43.2495 46.3138L44.0382 46.6059" fill="#3CA482"/>
<path d="M67.7866 46.1378L70.0944 45.9042C72.2566 45.6554 74.4444 45.7441 76.5794 46.167C77.5748 46.3497 78.4931 46.8253 79.2164 47.5328C79.9398 48.2403 80.4355 49.1477 80.6399 50.1385C80.9212 51.1737 80.912 52.2663 80.6131 53.2965C80.3142 54.3268 79.7373 55.2548 78.9456 55.9789C77.7582 56.9702 76.2835 57.5538 74.7391 57.6434C73.8043 57.6434 72.8695 57.6434 71.8179 57.6434V64.0971H67.7866V46.1378ZM71.8471 51.7738C71.8471 52.5331 71.8471 53.2923 71.8471 54.0516C71.8471 54.0516 71.8471 54.4312 72.0808 54.4312C73.146 54.6429 74.2511 54.51 75.2357 54.0516C75.7607 53.7882 76.185 53.36 76.4435 52.8326C76.702 52.3052 76.7806 51.7076 76.667 51.1314C76.6428 50.5905 76.4266 50.0759 76.0573 49.6799C75.6879 49.2839 75.1895 49.0324 74.6514 48.9704C73.8151 48.9116 72.9756 48.9116 72.1392 48.9704C71.8471 48.9704 71.8179 49.1749 71.8179 49.4085V51.7446" fill="#3CA482"/>
<path d="M76.8433 65.9076C74.8291 69.9769 71.7172 73.4023 67.8587 75.7972C64.0003 78.1922 59.549 79.4613 55.0073 79.4613C50.4656 79.4613 46.0143 78.1922 42.1559 75.7972C38.2975 73.4023 35.1856 69.9769 33.1714 65.9076C33.7848 65.9076 34.3691 65.9076 34.9533 65.9076C34.9533 65.9076 35.2454 66.1412 35.3623 66.2872C37.35 69.7253 40.2076 72.5801 43.6482 74.5648C47.0887 76.5496 50.9912 77.5944 54.9635 77.5944C58.9358 77.5944 62.8383 76.5496 66.2788 74.5648C69.7194 72.5801 72.5771 69.7253 74.5647 66.2872C74.639 66.1138 74.7672 65.969 74.9303 65.8743C75.0935 65.7796 75.2829 65.7401 75.4703 65.7616C75.9275 65.7914 76.3861 65.7914 76.8433 65.7616" fill="#3CA482"/>
<path d="M76.7262 43.8603H74.9442C74.7605 43.7852 74.6066 43.6518 74.5061 43.4807C72.8333 40.6477 70.5599 38.2155 67.8457 36.3554C64.2651 33.8465 60.0076 32.4821 55.6351 32.4423C51.6156 32.3004 47.6323 33.2455 44.1053 35.178C40.5783 37.1105 37.6384 39.9587 35.5957 43.4223C35.5173 43.6006 35.3849 43.75 35.2173 43.8495C35.0497 43.949 34.8552 43.9936 34.661 43.9771C34.1941 43.9469 33.7257 43.9469 33.2588 43.9771C34.6113 41.2191 36.4863 38.7497 38.7798 36.7058C42.5509 33.3228 47.2948 31.2174 52.3342 30.6902C57.2577 30.1424 62.2311 31.1099 66.5898 33.4633C70.9485 35.8167 74.4848 39.444 76.7262 43.8603Z" fill="#3CA482"/>
<path d="M89.4038 48.212L83.5614 48.6792C83.5614 48.1244 83.5614 47.628 83.3569 47.0147L91.2442 46.5475C91.2442 47.2775 91.4486 48.0076 91.5071 48.7084C91.5071 48.7084 91.3026 49.0005 91.1565 49.0589C89.6375 49.7305 88.2353 50.3437 86.5118 51.0154L87.7679 51.2198L91.5947 51.8623C91.7408 51.8623 91.9452 52.0667 91.9452 52.1835C91.9452 52.8551 92.1205 53.5268 92.2082 54.2568L84.3794 55.8045C84.3794 55.2205 84.2333 54.6948 84.1457 54.0524L89.988 53.0887H89.5499L84.2625 52.1543C84.1957 52.1294 84.135 52.0905 84.0846 52.0401C84.0342 51.9897 83.9953 51.929 83.9704 51.8623C83.6783 50.7818 83.7075 50.7526 84.7007 50.3437L89.1701 48.5916H89.3746" fill="#3CA482"/>
<path d="M30.9507 65.9669C31.0495 65.9202 31.1571 65.8954 31.2664 65.8941C31.3756 65.8929 31.4838 65.9152 31.5836 65.9595C31.6834 66.0039 31.7725 66.0692 31.8448 66.1511C31.917 66.233 31.9708 66.3295 32.0023 66.4341C33.7825 70.1085 36.431 73.2943 39.7189 75.7162C43.0068 78.138 46.8352 79.723 50.8732 80.3343C56.2865 81.2423 61.8483 80.3801 66.7323 77.8758C71.6162 75.3715 75.5615 71.3589 77.9819 66.4341C78.2448 65.9377 78.5077 65.7917 79.0043 65.9377C76.8889 70.6451 73.434 74.6258 69.0703 77.3833C64.7067 80.1408 59.6275 81.5531 54.4663 81.444C49.5154 81.2968 44.704 79.7698 40.5748 77.0351C36.4457 74.3005 33.1629 70.467 31.0967 65.9669" fill="#3CA482"/>
<path d="M78.8875 43.8317C78.686 43.8976 78.4667 43.8826 78.276 43.79C78.0852 43.6974 77.9379 43.5343 77.8651 43.3352C76.0847 39.7199 73.4535 36.5904 70.1972 34.2151C66.9409 31.8399 63.1568 30.2898 59.1695 29.6979C53.7865 28.7726 48.2486 29.6015 43.3728 32.0622C38.497 34.523 34.5415 38.4852 32.09 43.3644C32.066 43.4636 32.0198 43.5561 31.9548 43.6347C31.8898 43.7134 31.8078 43.7763 31.7148 43.8185C31.6219 43.8607 31.5206 43.8812 31.4186 43.8784C31.3165 43.8757 31.2165 43.8497 31.126 43.8025C33.2281 39.2386 36.5949 35.3728 40.8274 32.663C45.0598 29.9532 49.9806 28.5129 55.0068 28.5129C60.0329 28.5129 64.9537 29.9532 69.1861 32.663C73.4186 35.3728 76.7854 39.2386 78.8875 43.8025" fill="#3CA482"/>
<path d="M27.8255 79.9836L26.5986 78.8447L32.2073 73.3256C32.5871 73.676 33.0253 74.0848 33.405 74.4936C33.7848 74.9025 33.405 74.8149 33.405 74.9609C32.85 76.8006 32.2658 78.6403 31.7107 80.4509L35.6543 76.8298L36.6768 77.8519L31.1265 83.4003C30.7467 83.0206 30.3086 82.5826 29.8996 82.1154C29.839 81.9554 29.839 81.7789 29.8996 81.6189C30.3962 79.8376 30.922 78.0271 31.4186 76.3334L27.8255 79.9836Z" fill="#3CA482"/>
<path d="M90.2219 66.6382C89.959 67.2515 89.7253 67.8063 89.4624 68.3319C89.4157 68.4076 89.3516 68.471 89.2753 68.5167C89.1991 68.5625 89.1129 68.5892 89.0242 68.5947L83.5031 69.1204L88.2939 71.1061L87.622 72.6538L80.3774 69.5292C80.6111 69.0036 80.7864 68.4779 81.0493 68.0107C81.0974 67.9387 81.1626 67.8797 81.2391 67.8389C81.3155 67.7982 81.4009 67.7769 81.4875 67.7771L87.1254 67.3099C87.2295 67.3455 87.3426 67.3455 87.4467 67.3099L82.3054 65.1489C82.5391 64.6233 82.7436 64.1268 82.9481 63.6012L90.2219 66.7258" fill="#3CA482"/>
<path d="M77.7197 36.5894L84.2632 32.4427C85.2198 33.4755 85.9818 34.6725 86.5125 35.9762C86.6806 36.4169 86.7595 36.8867 86.7445 37.3581C86.7296 37.8295 86.6211 38.2933 86.4254 38.7225C86.2298 39.1518 85.9508 39.5379 85.6047 39.8585C85.2586 40.179 84.8523 40.4277 84.4093 40.5901C83.7076 40.9899 82.8924 41.1439 82.0932 41.0275C81.294 40.9111 80.5566 40.531 79.9983 39.9477C79.0568 38.9741 78.2864 37.8486 77.7197 36.6186V36.5894ZM84.1172 34.6621L79.823 37.4071C80.378 38.4584 81.0499 39.3344 82.306 39.2468C82.8945 39.2451 83.4687 39.0657 83.9534 38.7322C84.4382 38.3988 84.8109 37.9267 85.0227 37.3779C85.1599 36.8847 85.1501 36.3623 84.9944 35.8746C84.8387 35.387 84.544 34.9554 84.1464 34.6329" fill="#3CA482"/>
<path d="M73.8049 25.1708C73.8016 26.131 73.4987 27.0663 72.9384 27.8462C72.3781 28.6262 71.5883 29.212 70.6792 29.5219C70.0162 29.6926 69.3196 29.6824 68.6619 29.4924C68.0043 29.3023 67.4096 28.9394 66.94 28.4414C66.4772 28.0003 66.1511 27.4353 66.0009 26.8139C65.8507 26.1924 65.8826 25.5409 66.0929 24.9372C66.2456 24.1044 66.6445 23.3366 67.2382 22.7328C67.8318 22.1289 68.5928 21.7169 69.4231 21.5497C69.957 21.4616 70.5038 21.4894 71.026 21.6314C71.5482 21.7734 72.0338 22.0262 72.4495 22.3725C72.8653 22.7189 73.2016 23.1507 73.4354 23.6386C73.6693 24.1265 73.7953 24.659 73.8049 25.2V25.1708ZM71.9645 25.2C72.028 24.8329 71.9748 24.4552 71.8123 24.12C71.6499 23.7847 71.3864 23.5088 71.0589 23.3311C70.7606 23.1674 70.4174 23.1046 70.0805 23.152C69.7435 23.1994 69.431 23.3544 69.1894 23.5939C68.7493 23.9442 68.3926 24.388 68.1451 24.893C67.8975 25.398 67.7653 25.9517 67.758 26.5141C67.7217 26.8503 67.7926 27.1895 67.9604 27.4831C68.1283 27.7767 68.3846 28.0099 68.6928 28.1494C68.9936 28.2547 69.3194 28.2665 69.627 28.1831C69.9347 28.0997 70.2099 27.925 70.4163 27.6822C70.8205 27.3639 71.1559 26.9668 71.4019 26.515C71.648 26.0632 71.7996 25.5662 71.8477 25.054" fill="#3CA482"/>
<path d="M73.1626 30.8949C73.1803 30.2454 73.3423 29.608 73.6368 29.0289C73.9314 28.4497 74.3512 27.9433 74.8657 27.5464C75.3802 27.1494 75.9766 26.8719 76.6117 26.7338C77.2468 26.5958 77.9046 26.6007 78.5376 26.7482C79.11 26.9052 79.6359 27.1983 80.0704 27.6024C80.505 28.0065 80.8354 28.5097 81.0334 29.069C81.2314 29.6284 81.2911 30.2273 81.2075 30.8147C81.1239 31.4021 80.8994 31.9606 80.5532 32.4426C80.184 33.1181 79.6388 33.6811 78.9753 34.0719C78.3118 34.4626 77.5549 34.6665 76.7849 34.6619C75.8325 34.5919 74.9386 34.1762 74.2714 33.4931C73.6043 32.81 73.2099 31.9067 73.1626 30.9533V30.8949ZM79.4724 29.9604C79.4852 29.7041 79.4375 29.4483 79.3331 29.2138C79.2287 28.9793 79.0706 28.7727 78.8715 28.6107C78.6724 28.4486 78.4379 28.3357 78.1871 28.281C77.9363 28.2263 77.6761 28.2314 77.4275 28.2959C76.8152 28.4996 76.2628 28.8514 75.8194 29.3202C75.376 29.7889 75.0554 30.3599 74.8861 30.9825C74.8325 31.2347 74.8373 31.4958 74.9 31.746C74.9627 31.9961 75.0817 32.2286 75.248 32.4257C75.4142 32.6229 75.6233 32.7795 75.8592 32.8837C76.0952 32.9878 76.3519 33.0367 76.6096 33.0266C77.3362 32.8955 78.0054 32.5455 78.5275 32.0236C79.0496 31.5017 79.3996 30.8328 79.5308 30.1064" fill="#3CA482"/>
<path d="M27.8837 66.9008C29.154 67.9278 30.031 69.3615 30.3667 70.9598C30.4568 71.9349 30.1807 72.9085 29.5921 73.6913C29.0035 74.474 28.1446 75.0097 27.1826 75.1941C26.6857 75.3122 26.1698 75.3265 25.6671 75.2361C25.1645 75.1456 24.6859 74.9524 24.2614 74.6685C22.9796 73.7454 22.1012 72.3656 21.8076 70.8138L23.0929 70.405C23.4143 71.0766 23.648 71.7191 23.9985 72.3031C24.2085 72.7317 24.5546 73.0787 24.9826 73.29C25.4106 73.5013 25.8966 73.565 26.3647 73.4712C26.8667 73.4265 27.3445 73.2352 27.7386 72.9212C28.1328 72.6072 28.4259 72.1843 28.5815 71.7051C28.7372 71.2259 28.7485 70.7116 28.614 70.226C28.4795 69.7404 28.2053 69.3051 27.8253 68.9741L26.4231 69.821C26.5984 70.1422 26.7736 70.4926 27.0073 70.8722L25.7804 71.5731L24.2906 69.0325L27.8837 66.9008" fill="#3CA482"/>
<path d="M39.773 79.9545C40.2988 80.2173 40.7662 80.3925 41.2044 80.6553C41.2678 80.7095 41.3188 80.7766 41.3541 80.8522C41.3894 80.9277 41.4081 81.01 41.4089 81.0933C41.4089 81.5898 41.2628 82.057 41.1752 82.5242C40.9123 83.6923 41.1752 84.0136 42.256 84.51C42.665 83.5755 43.1032 82.6703 43.5706 81.7358L45.1772 82.495C44.0672 84.8312 42.9863 87.1674 41.8763 89.5327C40.5096 89.1779 39.2282 88.5523 38.1079 87.693C37.795 87.4469 37.5674 87.1086 37.4573 86.726C37.3472 86.3435 37.3602 85.936 37.4945 85.5613C37.5925 85.1705 37.807 84.8188 38.1096 84.5528C38.4122 84.2868 38.7886 84.1191 39.1888 84.072H39.5978C38.9551 82.7287 39.5978 81.4438 39.773 80.0421V79.9545ZM40.7662 87.7514C41.0876 87.0798 41.3797 86.4665 41.6718 85.7949C40.9999 85.5029 40.4157 85.0356 39.6854 85.5029C39.5067 85.6053 39.3668 85.7639 39.2876 85.9541C39.2083 86.1442 39.1942 86.3551 39.2472 86.5541C39.4225 87.3426 40.1236 87.4594 40.7662 87.7514" fill="#3CA482"/>
<path d="M65.4795 19.7693C65.2458 20.2074 65.0413 20.6454 64.8953 20.9666C64.1633 20.7019 63.4111 20.4968 62.646 20.3534C62.2898 20.308 61.9281 20.3433 61.5874 20.4566C61.2468 20.5698 60.9359 20.7582 60.6779 21.0077C60.4199 21.2572 60.2212 21.5615 60.0967 21.8982C59.9722 22.2348 59.9249 22.595 59.9585 22.9523C59.9503 23.283 60.0099 23.6119 60.1336 23.9187C60.2573 24.2255 60.4426 24.5037 60.6779 24.7362C60.9133 24.9687 61.1937 25.1507 61.502 25.2707C61.8104 25.3908 62.14 25.4466 62.4707 25.4345C62.7044 25.4345 62.8212 25.4345 62.8797 25.1133C62.9381 24.7921 62.8797 24.2956 63.1134 23.8576L61.9449 23.6824L62.2078 22.3391L65.129 22.9231C64.8369 24.2372 64.6032 25.5221 64.311 26.7778C64.311 26.7778 64.0773 27.0114 63.9605 27.0406C62.7644 27.1579 61.5571 27.0083 60.4259 26.6026C59.7012 26.3535 59.0792 25.872 58.6566 25.233C58.2339 24.594 58.0344 23.8333 58.0889 23.0692C58.051 22.2367 58.2799 21.414 58.7423 20.7207C59.2046 20.0273 59.8763 19.4997 60.6595 19.2145C61.4661 18.9778 62.3142 18.9179 63.1461 19.0388C63.9779 19.1598 64.7738 19.4588 65.4795 19.9153" fill="#3CA482"/>
<path d="M22.9179 53.2635L25.8391 53.5555C25.8391 54.1687 25.8391 54.7236 25.8391 55.3368L22.4797 55.0448L18.5069 54.6652C18.1563 54.6652 18.0102 54.6652 18.0687 54.1979C18.1262 53.0537 18.2432 51.9133 18.4192 50.7813C18.4648 50.5213 18.5618 50.273 18.7045 50.0509C18.8473 49.8288 19.0328 49.6374 19.2504 49.4878C19.468 49.3383 19.7133 49.2336 19.9718 49.1799C20.2303 49.1262 20.497 49.1246 20.7562 49.1752C21.1409 49.2428 21.4996 49.4147 21.7932 49.6722C22.0868 49.9297 22.3041 50.2628 22.4213 50.6353C22.9065 50.1488 23.5478 49.8489 24.2324 49.7884L26.2772 49.438C26.2772 49.9928 26.2772 50.5185 26.2772 51.0441C26.2458 51.1085 26.2008 51.1653 26.1454 51.2107C26.0899 51.2561 26.0253 51.2889 25.9559 51.3069L24.32 51.5989C23.2684 51.7742 22.9763 52.1246 23.0055 53.2635H22.9179ZM21.6325 53.2635C21.6325 52.5042 21.9247 51.7742 21.2236 51.2485C21.0583 51.1275 20.8588 51.0623 20.6539 51.0623C20.4491 51.0623 20.2496 51.1275 20.0843 51.2485C19.4708 51.6865 19.5293 52.3582 19.5293 53.059L21.6325 53.2635Z" fill="#3CA482"/>
<path d="M86.0444 75.2816L84.9343 76.7125C83.8243 75.8364 82.7727 74.9895 81.6918 74.1719C81.3281 73.8727 80.9369 73.6087 80.5233 73.3834C80.2507 73.2647 79.9465 73.2397 79.6581 73.3124C79.3698 73.3851 79.1137 73.5513 78.93 73.785C78.7463 74.0187 78.6454 74.3068 78.6429 74.604C78.6405 74.9012 78.7368 75.1909 78.9167 75.4276C79.1202 75.6895 79.3557 75.925 79.6178 76.1284L83.1816 79.0486L82.0424 80.4795C80.6986 79.399 79.2964 78.377 78.0403 77.2089C77.6024 76.8322 77.2731 76.3454 77.0864 75.7988C76.8998 75.2522 76.8627 74.6657 76.9788 74.1C77.095 73.5342 77.3603 73.0098 77.7472 72.5809C78.1341 72.152 78.6286 71.8343 79.1796 71.6605C79.5859 71.5127 80.0224 71.4674 80.4504 71.5285C80.8784 71.5896 81.2847 71.7553 81.6334 72.0109C82.539 72.6242 83.4153 73.2958 84.2625 73.9675L85.9568 75.2816" fill="#3CA482"/>
<path d="M46.3753 90.8463L44.6226 90.4958C44.8855 89.1818 45.1484 87.8677 45.4113 86.612C45.4625 86.2778 45.5307 85.9464 45.6158 85.6191C45.6734 85.1785 45.8308 84.7569 46.0761 84.3863C46.3214 84.0157 46.6481 83.706 47.0312 83.4807C47.4143 83.2554 47.8438 83.1205 48.287 83.0862C48.7302 83.0519 49.1754 83.1192 49.5886 83.2829C49.9669 83.3531 50.3275 83.4972 50.6499 83.7071C50.9723 83.917 51.25 84.1884 51.4672 84.5059C51.6843 84.8234 51.8366 85.1806 51.9152 85.557C51.9939 85.9335 51.9974 86.3218 51.9256 86.6996C51.9396 86.933 51.9396 87.167 51.9256 87.4004C51.6626 88.8313 51.3705 90.3206 51.0784 91.7223L49.2965 91.4011C49.5594 90.0578 49.8515 88.7437 50.0852 87.4588C50.1772 86.9381 50.2261 86.4107 50.2313 85.8819C50.2311 85.6024 50.1354 85.3314 49.9601 85.1136C49.7848 84.8959 49.5404 84.7445 49.2673 84.6846C48.9836 84.5853 48.6729 84.5962 48.397 84.7153C48.121 84.8343 47.8998 85.0527 47.7775 85.3271C47.5646 85.824 47.4078 86.3431 47.3101 86.8748C47.0472 88.0429 46.8135 89.2402 46.5798 90.4374C46.5798 90.4374 46.5798 90.6711 46.5798 90.8463" fill="#3CA482"/>
<path d="M28.5261 42.488C28.3216 43.1597 28.1171 43.7437 27.9419 44.2986H26.2183C26.1605 44.281 26.0995 44.2765 26.0398 44.2853C25.98 44.2941 25.9229 44.3161 25.8726 44.3496C25.8223 44.3831 25.7801 44.4273 25.749 44.4791C25.7178 44.5308 25.6986 44.5889 25.6925 44.649C25.5173 45.233 25.3128 45.7879 25.1083 46.4011L26.5397 47.3648C26.7734 47.5108 26.861 47.6276 26.7442 47.9196C26.6273 48.2116 26.452 48.7957 26.2768 49.3213L19.5288 44.5906C19.7625 43.9189 19.967 43.2473 20.2007 42.5756C20.2336 42.5181 20.2801 42.4694 20.3361 42.4337C20.3921 42.3981 20.4559 42.3767 20.522 42.3712H28.5261V42.488ZM21.2523 44.1233L23.9106 45.8463L24.4364 44.1233H21.2523Z" fill="#3CA482"/>
<path d="M83.1528 62.9876C83.1528 62.3744 83.3281 61.8196 83.4157 61.2647C83.4157 61.2647 83.6786 61.0603 83.8247 61.0311L85.1977 60.8267C85.2836 60.8013 85.3626 60.7565 85.4284 60.6957C85.4943 60.635 85.5452 60.5599 85.5774 60.4763C85.7002 59.9681 85.7784 59.4503 85.8111 58.9286C85.7982 58.8345 85.7655 58.7442 85.7152 58.6636C85.6648 58.5831 85.598 58.5141 85.519 58.4613C85.182 58.2494 84.8186 58.0825 84.4382 57.9649C84.3605 57.9487 84.2873 57.916 84.2233 57.8691C84.1594 57.8222 84.1062 57.7621 84.0675 57.6929C84.0287 57.6237 84.0053 57.547 83.9987 57.468C83.9921 57.389 84.0025 57.3095 84.0292 57.2348C84.0292 56.826 84.1752 56.4172 84.2629 55.95H84.6134L91.3322 59.1914C91.5951 59.1914 91.6827 59.425 91.6243 59.717C91.5659 60.009 91.4782 60.8267 91.3614 61.3523C91.2445 61.878 91.1861 61.7028 91.0401 61.7028C88.5084 62.1116 85.9669 62.4912 83.4157 62.8416H83.1528V62.9876ZM86.9212 60.5931L90.0761 60.2134L87.1549 58.9286L86.892 60.5931" fill="#3CA482"/>
<path d="M73.3376 87.196L71.3512 88.218L65.5088 82.3776L66.9694 81.6184C67.0426 81.5844 67.1224 81.5668 67.2031 81.5668C67.2838 81.5668 67.3636 81.5844 67.4368 81.6184C67.7873 81.9688 68.1087 82.3484 68.4884 82.6697C68.5661 82.7061 68.6509 82.725 68.7367 82.725C68.8225 82.725 68.9073 82.7061 68.985 82.6697C69.4524 82.4652 69.8906 82.2024 70.3872 81.9688C70.436 81.9533 70.4808 81.9273 70.5184 81.8927C70.5561 81.858 70.5857 81.8156 70.6052 81.7682C70.6247 81.7209 70.6336 81.6699 70.6312 81.6188C70.6289 81.5677 70.6154 81.5177 70.5917 81.4724C70.5917 81.0051 70.4164 80.5671 70.2995 80.1291C70.1827 79.691 70.2995 79.691 70.5625 79.5742L71.877 78.9026C72.4028 81.6184 72.8994 84.305 73.4252 87.0208L73.3376 87.196ZM71.6433 86.1155C71.4388 85.1518 71.2343 84.2174 71.0006 83.1953L69.5108 83.9837L71.5849 86.1739" fill="#3CA482"/>
<path d="M45.7902 23.9742C45.9655 24.5875 46.1408 25.1423 46.2869 25.7264L49.3833 24.8795C49.3833 25.3467 49.6462 25.814 49.7923 26.2812L44.9431 27.6537L42.8398 20.032L47.5138 18.7471C47.5138 19.2143 47.7767 19.6523 47.9227 20.1488L45.0015 20.9956C45.1476 21.4921 45.2644 21.9885 45.4105 22.5141L48.3317 21.7841L48.7114 23.1858L45.9363 23.9742" fill="#3CA482"/>
<path d="M26.3353 59.8927L26.5982 61.6448L18.857 62.7253C18.3546 61.2916 18.2338 59.7519 18.5065 58.2574C18.6372 57.842 18.892 57.4766 19.2367 57.2104C19.5814 56.9441 19.9994 56.7898 20.4344 56.7681C20.9191 56.6666 21.4236 56.7258 21.8716 56.9365C22.3196 57.1473 22.6867 57.4982 22.9175 57.9362C23.2372 58.6745 23.5008 59.436 23.7062 60.2139L26.3353 59.8927V59.8927ZM19.8502 60.7688L21.3692 60.5643C22.2748 60.4183 22.3624 60.2431 22.0119 59.3671L21.8366 59.0458C21.6806 58.8589 21.4688 58.7268 21.2322 58.669C20.9956 58.6112 20.7468 58.6307 20.5221 58.7246C20.288 58.7792 20.0806 58.9145 19.9363 59.1067C19.7921 59.299 19.7202 59.5359 19.7334 59.7759C19.7075 60.1551 19.7075 60.5356 19.7334 60.9148" fill="#3CA482"/>
<path d="M61.2442 89.8832C62.5879 89.8832 63.844 89.7372 64.4283 88.2771C64.5796 87.7674 64.5889 87.226 64.455 86.7114C64.3212 86.1967 64.0493 85.7284 63.6688 85.3569C62.4419 84.3349 61.2442 84.8605 59.9881 85.5029C59.8128 85.0649 59.6083 84.6561 59.4038 84.2472C60.1735 83.6323 61.115 83.2711 62.0986 83.2136C63.0823 83.156 64.0595 83.405 64.8957 83.926C65.5496 84.4444 66.0346 85.1455 66.2888 85.9402C66.543 86.7349 66.5549 87.5872 66.3232 88.3887C66.0914 89.1902 65.6264 89.9047 64.9872 90.4412C64.3481 90.9778 63.5638 91.3121 62.734 91.4017H62.5003C61.1565 91.6354 60.8936 91.4018 61.2442 89.9708" fill="#3CA482"/>
<path d="M43.2488 26.6021L44.0959 27.6825C43.492 28.4427 42.6724 29.0028 41.7445 29.2894C40.8167 29.576 39.8239 29.5757 38.8962 29.2887C38.0559 28.8453 37.3741 28.152 36.945 27.3046C36.5159 26.4571 36.3607 25.4974 36.5008 24.5579C36.7551 23.6089 37.3004 22.7633 38.0602 22.1401C38.8199 21.5168 39.7558 21.1471 40.7366 21.0829C40.7366 21.5209 40.941 21.9589 41.0579 22.4262C39.7141 22.7474 38.4872 23.1854 38.1367 24.7039C38.0867 25.2813 38.1998 25.8611 38.4632 26.3774C38.7266 26.8936 39.1296 27.3256 39.6265 27.6241C40.6197 28.1498 41.7298 27.8286 43.1319 26.6021" fill="#3CA482"/>
<path d="M30.2494 36.7063L31.5055 37.1735C31.3993 38.1126 31.0142 38.9983 30.3999 39.7166C29.7855 40.4349 28.97 40.9527 28.0585 41.2034C27.1092 41.3172 26.1487 41.1195 25.3215 40.6403C24.4943 40.161 23.8453 39.426 23.4722 38.546C23.182 37.5937 23.1979 36.5743 23.5175 35.6314C23.8372 34.6885 24.4446 33.8695 25.2542 33.2897L26.2474 34.3117C25.2834 35.2754 24.3486 36.3267 25.0789 37.7868C25.3091 38.2886 25.6869 38.7083 26.1618 38.99C26.6367 39.2717 27.1863 39.4021 27.7372 39.3637C29.3146 39.3637 29.782 38.0204 30.2494 36.7355" fill="#3CA482"/>
<path d="M74.3019 82.6994L73.3379 81.5606L75.5288 79.7792L73.5424 77.2971L74.9445 76.1874L79.9106 82.3198L76.1422 85.24C75.8501 84.8604 75.558 84.4808 75.2075 84.0719L77.5444 82.1738L76.4636 80.8013L74.2435 82.5826" fill="#3CA482"/>
<path d="M28.8479 31.1577L27.3289 32.6178L26.248 31.5958L30.4546 27.2155L31.5646 28.2667L30.0748 29.8436C31.5938 31.3037 32.996 32.7638 34.6611 34.2531L33.2881 35.3628L28.8479 31.1577Z" fill="#3CA482"/>
<path d="M53.2391 92.0142V90.4665H55.3424C55.3424 88.3056 55.1963 86.2322 55.1379 84.0713H56.9198C56.9198 86.2322 56.9198 88.3056 57.1535 90.4373H59.2568C59.2568 90.9046 59.2568 91.3426 59.2568 91.8974L53.1807 92.1019" fill="#3CA482"/>
<path d="M38.2828 31.3037L36.7346 32.4426L31.9438 26.1057L33.4044 25.0253L38.2828 31.3037Z" fill="#3CA482"/>
<path d="M37.8151 78.4647L39.3049 79.4576L34.8355 85.9696L33.3457 85.006C34.8647 82.845 36.2669 80.6841 37.8151 78.5231" fill="#3CA482"/>
<path d="M43.1029 69.1495C43.3571 69.1653 43.6118 69.1298 43.852 69.0452C44.0921 68.9605 44.3128 68.8284 44.5009 68.6568C44.6889 68.4852 44.8405 68.2774 44.9466 68.046C45.0527 67.8146 45.1112 67.5643 45.1186 67.3098C45.586 68.3319 46.2286 68.9451 47.4263 68.5655V68.7115C47.238 68.9772 47.0331 69.2308 46.8129 69.4708C46.6791 69.5749 46.5876 69.7241 46.5553 69.8905C46.5231 70.057 46.5523 70.2295 46.6376 70.376C46.6376 70.6388 46.7836 70.9309 46.9005 71.3105C46.3747 71.1353 45.9073 70.814 45.4691 70.8725C45.0309 70.9309 44.6804 71.3105 44.1254 71.6317C44.2335 71.4015 44.2919 71.1511 44.2968 70.8969C44.3017 70.6426 44.2529 70.3902 44.1537 70.156C44.0545 69.9218 43.9071 69.7112 43.721 69.5377C43.5349 69.3643 43.3144 69.2321 43.0737 69.1495" fill="#3CA482"/>
<path d="M47.4848 41.2034C47.2412 41.1377 46.9869 41.1211 46.7368 41.1548C46.4867 41.1884 46.2458 41.2716 46.0282 41.3994C45.8106 41.5272 45.6207 41.697 45.4695 41.899C45.3184 42.101 45.209 42.3311 45.1479 42.5759C45.133 42.3226 45.0682 42.0748 44.9573 41.8466C44.8464 41.6184 44.6915 41.4144 44.5015 41.2462C44.3115 41.078 44.0902 40.9489 43.8502 40.8664C43.6102 40.7839 43.3563 40.7496 43.103 40.7654C43.5628 40.5657 43.9267 40.1949 44.1176 39.7315C44.3085 39.2681 44.3113 38.7486 44.1254 38.2832C44.2838 38.4781 44.4793 38.6396 44.7005 38.7584C44.9217 38.8772 45.1644 38.951 45.4143 38.9755C45.6643 38.9999 45.9166 38.9745 46.1567 38.9008C46.3968 38.8271 46.6198 38.7065 46.813 38.546C46.5388 38.9761 46.4464 39.4973 46.5559 39.9954C46.6654 40.4935 46.9679 40.9278 47.3972 41.2034" fill="#3CA482"/>
<path d="M66.8814 40.8819C66.6319 40.8566 66.38 40.8852 66.1425 40.9656C65.905 41.046 65.6875 41.1764 65.5048 41.3481C65.322 41.5197 65.1782 41.7285 65.0831 41.9604C64.988 42.1923 64.9438 42.4419 64.9534 42.6924H64.8073C64.6144 42.4374 64.448 42.1635 64.3107 41.8748C64.2486 41.7294 64.141 41.6081 64.0041 41.5291C63.8671 41.4501 63.7082 41.4177 63.5512 41.4367C63.2117 41.4789 62.8683 41.4789 62.5288 41.4367C62.7391 41.3079 62.9197 41.1362 63.0591 40.9328C63.1984 40.7294 63.2932 40.4989 63.3373 40.2563C63.3814 40.0138 63.3739 39.7647 63.3151 39.5252C63.2563 39.2858 63.1476 39.0615 62.9962 38.8669H63.1423C63.4412 38.966 63.7338 39.083 64.0186 39.2174C64.1521 39.3216 64.3166 39.3782 64.486 39.3782C64.6554 39.3782 64.8199 39.3216 64.9534 39.2174C65.1579 39.0422 65.4208 38.8961 65.859 38.6041C65.7491 38.8388 65.6885 39.0935 65.6809 39.3524C65.6732 39.6114 65.7187 39.8692 65.8145 40.11C65.9103 40.3507 66.0544 40.5693 66.2378 40.7523C66.4213 40.9352 66.6403 41.0787 66.8814 41.1739" fill="#3CA482"/>
<path d="M66.7938 69.2076C66.4432 69.4996 65.9466 69.7332 65.7713 70.1128C65.6661 70.5938 65.6661 71.0919 65.7713 71.5729C65.3916 71.3101 64.9826 70.9013 64.5737 70.8721C64.1647 70.8429 63.6681 71.1349 63.0546 71.3393C63.2136 71.1422 63.3271 70.9125 63.3872 70.6666C63.4473 70.4207 63.4524 70.1645 63.4022 69.9164C63.352 69.6683 63.2477 69.4342 63.0967 69.231C62.9458 69.0277 62.7519 68.8602 62.5288 68.7403V68.7403C62.733 68.7258 62.938 68.7258 63.1423 68.7403C63.4092 68.8046 63.6906 68.7649 63.9293 68.6293C64.168 68.4937 64.3462 68.2724 64.4276 68.0103C64.5589 67.7771 64.7053 67.5528 64.8658 67.3386C65.0118 68.5651 65.5961 69.2076 66.823 69.1491V69.3244" fill="#3CA482"/>
<path d="M56.4238 70.2008C56.2941 70.416 56.2115 70.6562 56.1812 70.9056C56.151 71.155 56.1739 71.408 56.2484 71.6479C56.3229 71.8878 56.4473 72.1093 56.6134 72.2978C56.7796 72.4862 56.9838 72.6374 57.2125 72.7414C56.959 72.6909 56.6976 72.6952 56.446 72.7541C56.1943 72.813 55.9581 72.925 55.7533 73.0827C55.5486 73.2404 55.3799 73.44 55.2588 73.6683C55.1376 73.8965 55.0667 74.148 55.0508 74.4059C54.7587 73.8511 54.6126 73.2963 54.2621 73.0334C53.9116 72.7706 53.3565 72.829 52.7139 72.7122C52.9535 72.6256 53.1704 72.486 53.3486 72.304C53.5268 72.1219 53.6616 71.902 53.7431 71.6607C53.8245 71.4193 53.8504 71.1627 53.8189 70.91C53.7873 70.6572 53.6992 70.4148 53.561 70.2008V70.2008C53.8522 70.3292 54.1351 70.4755 54.4082 70.6389C54.5363 70.7294 54.6894 70.778 54.8463 70.778C55.0033 70.778 55.1563 70.7294 55.2845 70.6389C55.5474 70.4637 55.8395 70.3468 56.1317 70.1716H56.2777" fill="#3CA482"/>
<path d="M53.5609 39.9183C53.7041 39.6969 53.7954 39.446 53.8281 39.1845C53.8608 38.9229 53.8341 38.6573 53.7498 38.4075C53.6656 38.1577 53.5261 37.9301 53.3416 37.7417C53.1572 37.5533 52.9326 37.4089 52.6846 37.3193C52.9475 37.3193 53.0351 37.3193 53.1227 37.3193C53.5257 37.3557 53.928 37.2416 54.2517 36.9989C54.5754 36.7562 54.7976 36.4021 54.8755 36.0052C54.8755 36.0052 54.8755 36.0052 54.8755 35.8008C54.9888 35.9667 55.0866 36.1426 55.1676 36.3264C55.2244 36.6155 55.3885 36.8724 55.6268 37.0457C55.8652 37.219 56.1603 37.2959 56.4529 37.2609H57.154C56.1608 37.9033 55.7518 38.6626 56.3068 39.7431H56.1608C55.9271 39.7431 55.6642 39.5386 55.4305 39.3926C55.2812 39.2612 55.089 39.1887 54.8901 39.1887C54.6911 39.1887 54.499 39.2612 54.3496 39.3926L53.4441 39.8599" fill="#3CA482"/>
<path d="M53.9407 23.0105C53.7364 23.019 53.5326 22.9846 53.3425 22.9094C53.1524 22.8343 52.9801 22.7201 52.837 22.5742C52.6938 22.4283 52.5828 22.254 52.5113 22.0625C52.4397 21.8711 52.4092 21.6667 52.4217 21.4627C52.5123 21.1454 52.7039 20.8663 52.9675 20.6676C53.231 20.4688 53.5521 20.3613 53.8823 20.3613C54.2124 20.3613 54.5335 20.4688 54.797 20.6676C55.0606 20.8663 55.2522 21.1454 55.3429 21.4627C55.347 21.6619 55.3103 21.8599 55.2351 22.0444C55.1598 22.2289 55.0476 22.396 54.9053 22.5356C54.763 22.6751 54.5936 22.784 54.4077 22.8556C54.2217 22.9272 54.023 22.9601 53.8238 22.952" fill="#3CA482"/>
</svg>
