<svg width="110" height="110" viewBox="0 0 110 110" fill="none" xmlns="http://www.w3.org/2000/svg">
<circle cx="55.0708" cy="53.9517" r="44.5059" fill="white"/>
<path d="M20.3977 44.0756H17.8105V64.2064H20.3977V44.0756Z" fill="#3CA482"/>
<path d="M42.2574 56.9769V51.3829C42.3656 49.4356 41.8954 47.5001 40.9075 45.827C40.5349 45.2132 40.0136 44.7064 39.3934 44.3549C38.7732 44.0034 38.0746 43.8188 37.3643 43.8188C36.6539 43.8188 35.9553 44.0034 35.3351 44.3549C34.7149 44.7064 34.1936 45.2132 33.821 45.827C32.8649 47.5118 32.4092 49.4413 32.5086 51.3829V56.9769C32.3957 58.9248 32.8663 60.8616 33.8585 62.5329C34.2172 63.1559 34.7326 63.6709 35.3519 64.0253C35.9712 64.3797 36.6721 64.5607 37.383 64.5498C38.0932 64.5568 38.7926 64.3741 39.4113 64.0201C40.0299 63.6661 40.5459 63.1532 40.9075 62.5329C41.8997 60.8616 42.3703 58.9248 42.2574 56.9769V56.9769ZM39.6702 56.9769C39.7447 58.1386 39.5388 59.3012 39.0703 60.3638C38.9248 60.694 38.6879 60.9742 38.3883 61.1701C38.0887 61.3661 37.7394 61.4694 37.383 61.4674C37.0301 61.4744 36.6821 61.3821 36.3777 61.2007C36.0733 61.0194 35.8243 60.756 35.6582 60.4399C35.2189 59.3692 35.0266 58.2108 35.0958 57.0531V51.3449C35.0323 50.1999 35.2245 49.0551 35.6582 47.9961C35.8062 47.6598 36.049 47.3756 36.3559 47.1792C36.6629 46.9828 37.0203 46.883 37.383 46.8925C37.7384 46.8952 38.0857 47.0004 38.3844 47.1958C38.6832 47.3912 38.921 47.6687 39.0703 47.9961C39.5342 49.0467 39.7401 50.1958 39.6702 51.3449V56.9769Z" fill="#3CA482"/>
<path d="M43.7202 50.2406H46.2699C46.2388 49.3994 46.366 48.5599 46.6448 47.7671C46.9073 47.1202 47.2822 46.7777 47.7697 46.7777C47.9992 46.7851 48.2213 46.8614 48.4082 46.9968C48.595 47.1323 48.7382 47.3208 48.8195 47.5388C49.0691 48.2064 49.1838 48.9182 49.157 49.6318C49.1292 50.3562 49.0031 51.0734 48.782 51.7628C48.483 52.7064 48.1068 53.6229 47.6572 54.5027L43.9077 61.5809V64.2447H52.0816V61.2003H47.2447L49.082 57.3949C49.833 56.0578 50.4968 54.6721 51.0692 53.2469C51.4834 52.168 51.6871 51.0178 51.6692 49.8601C51.8402 48.2557 51.5264 46.6365 50.7693 45.2174C50.4485 44.7217 50.0077 44.3179 49.489 44.0447C48.9703 43.7715 48.3912 43.6381 47.8072 43.6572C47.1866 43.658 46.5782 43.8325 46.049 44.1615C45.5198 44.4905 45.0903 44.9612 44.8076 45.5219C44.0089 46.9573 43.6316 48.5946 43.7202 50.2406V50.2406Z" fill="#3CA482"/>
<path d="M59.0552 57.2427C59.8062 55.9055 60.47 54.5199 61.0424 53.0947C61.4566 52.0158 61.6603 50.8656 61.6424 49.7079C61.7487 48.1425 61.3965 46.5801 60.63 45.2174C60.3092 44.7217 59.8684 44.3179 59.3497 44.0447C58.831 43.7715 58.2519 43.6381 57.6679 43.6572C57.0473 43.658 56.439 43.8325 55.9097 44.1615C55.3805 44.4905 54.951 44.9612 54.6683 45.5219C53.8929 46.9099 53.5284 48.4954 53.6184 50.0884H56.1681C56.137 49.2472 56.2642 48.4077 56.543 47.6149C56.8055 46.9679 57.1804 46.6254 57.6679 46.6254C57.8987 46.6277 58.1232 46.7019 58.311 46.838C58.4988 46.9742 58.6408 47.1657 58.7177 47.3865C58.9673 48.0542 59.0821 48.766 59.0552 49.4795C59.0456 50.2059 58.9189 50.9257 58.6802 51.6106C58.3812 52.5541 58.005 53.4706 57.5554 54.3505L53.8059 61.4287V64.2447H62.2423V61.2003H57.2179L59.0552 57.2427Z" fill="#3CA482"/>
<path d="M67.6796 43.8097C67.0441 43.8289 66.4266 44.0279 65.8966 44.3842C65.3666 44.7406 64.9452 45.2402 64.68 45.8266C63.8443 47.5645 63.4572 49.4893 63.5551 51.4206V56.9385C63.4512 58.8622 63.8523 60.7795 64.7175 62.4944C64.961 63.0935 65.3743 63.6057 65.905 63.9662C66.4357 64.3266 67.0598 64.519 67.6984 64.519C68.3369 64.519 68.9611 64.3266 69.4917 63.9662C70.0224 63.6057 70.4357 63.0935 70.6792 62.4944C71.5087 60.768 71.8956 58.857 71.8041 56.9385V51.4206C71.902 49.4893 71.515 47.5645 70.6792 45.8266C70.414 45.2402 69.9927 44.7406 69.4627 44.3842C68.9327 44.0279 68.3151 43.8289 67.6796 43.8097V43.8097ZM69.2169 57.2429C69.2512 58.3116 69.1118 59.3787 68.8045 60.4014C68.542 61.1245 68.167 61.505 67.7171 61.505C67.2672 61.505 66.8172 61.1245 66.5548 60.4014C66.2627 59.376 66.1361 58.3094 66.1798 57.2429V51.0781C66.1382 50.0242 66.2648 48.9705 66.5548 47.9576C66.8172 47.2346 67.1922 46.8541 67.6796 46.8541C68.1671 46.8541 68.542 47.2346 68.8045 47.9576C69.1097 48.9678 69.2491 50.022 69.2169 51.0781V57.2429Z" fill="#3CA482"/>
<path d="M77.5411 43.809C76.2934 41.0659 74.58 38.567 72.4793 36.4264C69.421 33.3286 65.6301 31.0796 61.4699 29.8951C57.3096 28.7105 52.9194 28.6299 48.7197 29.6611C44.5199 30.6924 40.6515 32.8008 37.4849 35.7844C34.3182 38.7681 31.9595 42.527 30.6347 46.7011C30.483 46.2535 30.2683 45.8306 29.9973 45.4453C29.6456 44.9305 29.1741 44.5118 28.6246 44.2264C28.0752 43.9409 27.4648 43.7976 26.8477 43.809C26.2624 43.8134 25.6863 43.9568 25.1654 44.2277C24.6445 44.4987 24.1934 44.8896 23.8481 45.3692C22.9543 46.5162 22.4775 47.9408 22.4982 49.403C22.4355 50.7531 22.8037 52.0877 23.5481 53.2084C24.3838 54.2498 25.433 55.0939 26.6227 55.682C27.2181 55.9861 27.7229 56.4459 28.085 57.0139C28.3952 57.5965 28.5381 58.2557 28.4975 58.9166C28.5185 59.5637 28.3766 60.2055 28.085 60.7813C27.9579 60.9972 27.7761 61.1747 27.5585 61.2951C27.3408 61.4156 27.0954 61.4747 26.8477 61.4663C26.5455 61.4837 26.2445 61.4144 25.9793 61.2664C25.714 61.1183 25.4952 60.8974 25.3479 60.6291C24.9262 59.8217 24.7194 58.9166 24.748 58.0033H22.3108C22.1503 59.7349 22.6168 61.4665 23.6231 62.8743C24.013 63.373 24.509 63.7757 25.0738 64.0525C25.6387 64.3293 26.2579 64.4729 26.8852 64.4726C27.4767 64.489 28.0637 64.3631 28.598 64.1051C29.1324 63.8472 29.599 63.4645 29.9598 62.9885C30.1697 62.7198 30.3461 62.4258 30.4847 62.1132C31.6913 66.0652 33.8127 69.6667 36.6714 72.6162C39.5866 75.5793 43.1741 77.7705 47.1187 78.9974C51.0634 80.2242 55.2446 80.4493 59.295 79.6527C63.3454 78.856 67.1411 77.0622 70.3486 74.4286C73.5562 71.7951 76.0775 68.4024 77.6911 64.5487C78.3034 64.4949 78.8904 64.276 79.3914 63.9147C79.8924 63.5534 80.2892 63.0628 80.5408 62.4937C81.3703 60.7673 81.7572 58.8563 81.6656 56.9378V51.4199C81.7635 49.4886 81.3765 47.5638 80.5408 45.8259C80.2756 45.2394 79.8542 44.7399 79.3242 44.3835C78.7942 44.0272 78.1766 43.8282 77.5411 43.809V43.809ZM78.366 61.0096C78.283 61.1497 78.1683 61.2677 78.0313 61.3537C77.8944 61.4397 77.7392 61.4914 77.5786 61.5043C77.0912 61.5043 76.7163 61.1238 76.4163 60.4007C76.1243 59.3753 75.9976 58.3087 76.0413 57.2422V51.0774C75.9997 50.0235 76.1263 48.9698 76.4163 47.9569C76.6788 47.2339 77.0537 46.8533 77.5411 46.8533C77.742 46.8646 77.9362 46.9303 78.1036 47.0436C78.5792 48.6583 78.9056 50.3145 79.0785 51.9907V57.0519C78.9353 58.3869 78.6972 59.7095 78.366 61.0096V61.0096ZM27.1476 52.5615C26.54 52.1657 26.0067 51.6632 25.5729 51.0774C25.2242 50.5934 25.0519 50.0016 25.0854 49.403C25.0707 48.7688 25.2125 48.1408 25.4979 47.5764C25.6026 47.3523 25.7669 47.1623 25.9722 47.0278C26.1776 46.8933 26.4159 46.8197 26.6602 46.8153C26.9312 46.808 27.1986 46.8793 27.4311 47.0209C27.6635 47.1624 27.8514 47.3683 27.9725 47.6144C28.3452 48.3543 28.5136 49.1827 28.46 50.0119H29.6973C29.4593 51.3432 29.3339 52.6927 29.3224 54.0456C28.6777 53.4395 27.944 52.9388 27.1476 52.5615V52.5615ZM30.1848 50.0119H30.9722C31.019 49.2183 30.9431 48.4222 30.7472 47.6525C31.9087 43.5545 34.0761 39.8228 37.0464 36.807C39.3377 34.4792 42.0585 32.6327 45.0534 31.3728C48.0483 30.1129 51.2584 29.4644 54.5004 29.4644C57.7423 29.4644 60.9525 30.1129 63.9473 31.3728C66.9422 32.6327 69.6631 34.4792 71.9544 36.807C73.9824 38.8605 75.6443 41.2553 76.8662 43.8851C76.3677 44.028 75.9037 44.2743 75.5036 44.6083C75.1035 44.9424 74.7759 45.3569 74.5415 45.8259C73.7058 47.5638 73.3188 49.4886 73.4167 51.4199V56.9378C73.3128 58.8615 73.7139 60.7788 74.579 62.4937C74.8182 63.0166 75.1784 63.4731 75.6289 63.8243C76.0793 64.1754 76.6067 64.4109 77.1662 64.5106C75.5475 68.2473 73.0546 71.5264 69.9038 74.0633C66.7531 76.6003 63.0399 78.3183 59.0865 79.0683C55.1331 79.8183 51.0591 79.5775 47.2182 78.3669C43.3773 77.1563 39.8857 75.0125 37.0464 72.1215C34.0687 69.1717 31.8979 65.4867 30.7472 61.4282C30.9852 60.6395 31.0991 59.8175 31.0846 58.9927C31.1123 57.6572 30.7749 56.34 30.1098 55.1873L29.8098 54.8067" fill="#3CA482"/>
<path d="M87.4021 43.8097C86.772 43.8315 86.1605 44.032 85.637 44.3885C85.1135 44.7449 84.6988 45.2431 84.44 45.8266C83.5913 47.561 83.1913 49.486 83.2776 51.4206V56.9385C83.1977 58.8603 83.5975 60.7714 84.44 62.4945C84.6961 63.0907 85.1142 63.6006 85.6454 63.9645C86.1766 64.3285 86.7989 64.5313 87.4396 64.5494C88.0749 64.5287 88.6912 64.3244 89.2159 63.9603C89.7407 63.5963 90.1521 63.0877 90.4017 62.4945C91.2312 60.768 91.6181 58.857 91.5266 56.9385V51.4206C91.6245 49.4893 91.2374 47.5645 90.4017 45.8266C90.1365 45.2402 89.7151 44.7406 89.1851 44.3842C88.6551 44.0279 88.0376 43.8289 87.4021 43.8097V43.8097ZM88.9394 57.2429C88.9657 58.3264 88.8136 59.4068 88.4895 60.4395C88.227 61.1625 87.852 61.5431 87.4021 61.5431C86.9521 61.5431 86.5397 61.1625 86.2772 60.4395C85.9513 59.421 85.8116 58.3505 85.8648 57.281V51.0781C85.8232 50.0242 85.9498 48.9705 86.2397 47.9576C86.5022 47.2346 86.8772 46.8541 87.3646 46.8541C87.852 46.8541 88.227 47.2346 88.4895 47.9576C88.7947 48.9678 88.9341 50.022 88.9019 51.0781L88.9394 57.2429Z" fill="#3CA482"/>
<path d="M52.681 35.7037L54.5183 34.7523L56.318 35.7037L55.9806 33.6487L57.4429 32.2027L55.4182 31.8982L54.5183 30.0336L53.5809 31.8982L51.5562 32.2027L53.0185 33.6487L52.681 35.7037Z" fill="#3CA482"/>
<path d="M41.7325 38.4059L43.0823 37.6829L44.4322 38.4059L44.1697 36.8837L45.2945 35.7801L43.7572 35.5518L43.0823 34.1438L42.4074 35.5518L40.8701 35.7801L41.995 36.8837L41.7325 38.4059Z" fill="#3CA482"/>
<path d="M64.5675 38.4059L65.9173 37.6829L67.2671 38.4059L67.0047 36.8837L68.1295 35.7801L66.5922 35.5518L65.9173 34.1438L65.2424 35.5518L63.7051 35.7801L64.8299 36.8837L64.5675 38.4059Z" fill="#3CA482"/>
<path d="M55.4182 73.3394L54.5183 71.5128L53.5809 73.3394L51.5562 73.6439L53.0185 75.128L52.681 77.1449L54.5183 76.1935L56.318 77.1449L55.9806 75.128L57.4429 73.6439L55.4182 73.3394Z" fill="#3CA482"/>
<path d="M43.7572 71.0567L43.0823 69.6487L42.4074 71.0567L40.8701 71.247L41.995 72.3506L41.7325 73.9108L43.0823 73.1497L44.4322 73.9108L44.1697 72.3506L45.2945 71.247L43.7572 71.0567Z" fill="#3CA482"/>
<path d="M66.5922 71.0567L65.9173 69.6487L65.2424 71.0567L63.7051 71.247L64.8299 72.3506L64.5675 73.9108L65.9173 73.1497L67.2671 73.9108L67.0047 72.3506L68.1295 71.247L66.5922 71.0567Z" fill="#3CA482"/>
<path d="M92.8014 38.1008C88.6188 27.9586 80.6724 19.8937 70.6792 15.6487C60.5157 11.2933 49.0641 11.2117 38.8412 15.4218C28.6184 19.6319 20.4608 27.7891 16.1613 38.1008C12.3775 47.127 11.81 57.2091 14.5562 66.6139C17.3024 76.0188 23.1908 84.1591 31.2092 89.6355C39.2277 95.1119 48.8754 97.5825 58.494 96.6225C68.1126 95.6625 77.1013 91.3319 83.915 84.3751C89.7736 78.4404 93.7501 70.8635 95.3336 62.6177C96.9171 54.372 96.0353 45.8341 92.8014 38.1008V38.1008ZM92.239 70.6374C90.1951 75.5595 87.2279 80.0314 83.5026 83.8043C79.7785 87.577 75.374 90.5872 70.5293 92.671C65.5851 94.8124 60.2726 95.9409 54.8973 95.9918C49.5219 96.0426 44.1896 95.0147 39.207 92.9671C34.2243 90.9196 29.6895 87.8928 25.8633 84.0607C22.037 80.2286 18.9947 75.6667 16.9112 70.6374C14.8125 65.5314 13.7319 60.0538 13.7319 54.5213C13.7319 48.9889 14.8125 43.5113 16.9112 38.4052C18.9643 33.4882 21.9303 29.018 25.6475 25.2384C31.3986 19.428 38.7211 15.4831 46.6855 13.9044C54.6498 12.3257 62.8968 13.1845 70.3793 16.3717C80.2211 20.5375 88.0667 28.4456 92.239 38.4052C94.3377 43.5113 95.4183 48.9889 95.4183 54.5213C95.4183 60.0538 94.3377 65.5314 92.239 70.6374V70.6374Z" fill="#3CA482"/>
<path d="M28.7223 32.2788L30.0721 33.801C30.7153 34.5033 31.5512 34.9937 32.4718 35.209C32.8089 35.2835 33.1586 35.2756 33.492 35.1859C33.8255 35.0961 34.1331 34.9272 34.3895 34.693C34.6459 34.4588 34.8438 34.166 34.9667 33.8389C35.0896 33.5117 35.1341 33.1596 35.0964 32.8116C34.904 32.0037 34.4563 31.2819 33.8216 30.7566V30.7566L32.8842 31.746C33.1949 32.0297 33.4384 32.3809 33.5966 32.7735C33.6132 32.9123 33.5982 33.0531 33.5527 33.185C33.5071 33.317 33.4324 33.4366 33.3342 33.5346C33.1964 33.6311 33.0329 33.6829 32.8655 33.6829C32.6981 33.6829 32.5346 33.6311 32.3968 33.5346C31.9056 33.3573 31.4669 33.0561 31.122 32.6593L29.7346 31.3274C29.3307 30.9577 29.0108 30.5032 28.7973 29.9955C28.7053 29.8615 28.656 29.7022 28.656 29.5389C28.656 29.3756 28.7053 29.2162 28.7973 29.0822C28.8866 28.961 29.0081 28.868 29.1475 28.8141C29.2869 28.7602 29.4385 28.7476 29.5847 28.7778C29.9886 28.8866 30.3531 29.1112 30.6345 29.4247L31.5719 28.4353C31.0182 27.8192 30.2805 27.4047 29.4722 27.2556C29.1312 27.2177 28.7863 27.2635 28.4665 27.3894C28.1468 27.5152 27.8615 27.7173 27.6349 27.9786C27.4066 28.2537 27.2549 28.5858 27.1955 28.9404C27.1362 29.2951 27.1714 29.6593 27.2975 29.9955C27.5469 30.8795 28.0414 31.6721 28.7223 32.2788V32.2788Z" fill="#3CA482"/>
<path d="M40.871 29.1964L40.0086 27.8265L37.8714 29.2725L36.6341 27.3698L38.3963 26.1521L37.5339 24.7821L35.7342 25.9999L34.6843 24.3635L36.8215 22.9174L35.9216 21.5475L32.6221 23.7927L37.5714 31.4036L40.871 29.1964Z" fill="#3CA482"/>
<path d="M43.9826 27.7123L42.7453 24.4396L43.4952 24.1732C43.6092 24.1064 43.7385 24.0712 43.8702 24.0712C44.0018 24.0712 44.1311 24.1064 44.2451 24.1732C44.5082 24.3914 44.7035 24.6821 44.8075 25.0104L44.995 25.5432C44.995 25.8095 45.2575 26.0759 45.37 26.3804C45.4588 26.6129 45.6159 26.8122 45.8199 26.9512L47.2447 26.4945C47.0505 26.3609 46.8951 26.177 46.7948 25.9618C46.6592 25.7326 46.5461 25.4904 46.4573 25.2387L46.2323 24.6679C46.0898 24.2232 45.8457 23.819 45.5199 23.4882C45.3912 23.3456 45.2348 23.2314 45.0606 23.1529C44.8864 23.0743 44.6982 23.033 44.5076 23.0316C44.7253 22.7317 44.8553 22.3756 44.8825 22.0041C44.9081 21.4303 44.7826 20.8599 44.519 20.3516C44.2554 19.8433 43.8632 19.4154 43.3827 19.1119C43.103 18.9711 42.795 18.8978 42.4828 18.8978C42.1706 18.8978 41.8626 18.9711 41.5829 19.1119L39.5957 19.873L42.8203 28.3972L43.9826 27.7123ZM41.358 20.7102L41.9954 20.4438C42.1094 20.377 42.2387 20.3419 42.3703 20.3419C42.502 20.3419 42.6313 20.377 42.7453 20.4438C42.986 20.6436 43.1677 20.907 43.2702 21.2049C43.3593 21.4897 43.3593 21.7954 43.2702 22.0802C43.2369 22.1978 43.1746 22.3048 43.0894 22.3914C43.0041 22.4779 42.8986 22.541 42.7828 22.5749L42.1079 22.8413L41.358 20.7102Z" fill="#3CA482"/>
<path d="M48.8574 18.503L50.0197 25.9237L51.4071 25.6953L50.2447 18.2747L51.8195 18.0083L51.5945 16.41L47.0576 17.1331L47.3201 18.7314L48.8574 18.503Z" fill="#3CA482"/>
<path d="M55.1353 16.2862L54.9893 25.4181L56.3764 25.4409L56.5225 16.3091L55.1353 16.2862Z" fill="#3CA482"/>
<path d="M60.8182 22.233L63.0304 22.6516L63.2929 21.0153L61.1182 20.6347L61.5306 18.4656L64.1178 18.9603L64.4177 17.324L60.4432 16.601L58.7935 25.5818L60.1808 25.8482L60.8182 22.233Z" fill="#3CA482"/>
<path d="M67.9096 18.4793L64.7949 27.0479L66.0965 27.5352L69.2112 18.9666L67.9096 18.4793Z" fill="#3CA482"/>
<path d="M71.7669 30.4909L72.5543 29.0449L70.3421 27.751L71.467 25.7722L73.3042 26.8758L74.1291 25.4677L72.2919 24.3642L73.2293 22.6898L75.479 23.9836L76.2664 22.5756L72.8168 20.5587L68.3174 28.4741L71.7669 30.4909Z" fill="#3CA482"/>
<path d="M80.9907 26.4569L79.3409 24.9347L73.4917 31.6703L75.1415 33.1925C75.4028 33.4797 75.7369 33.6884 76.1072 33.7958C76.4776 33.9032 76.8699 33.9051 77.2412 33.8014C78.1411 33.545 78.9486 33.0295 79.5659 32.3173L80.6533 31.0995C81.3124 30.423 81.7565 29.5613 81.9281 28.626C81.9959 28.2111 81.9433 27.7852 81.7769 27.4001C81.6105 27.015 81.3373 26.6873 80.9907 26.4569ZM80.0909 28.626C79.9432 29.1302 79.6723 29.5884 79.3034 29.9579L78.2161 31.1756C77.8818 31.5764 77.4574 31.8897 76.9788 32.0889C76.8306 32.1758 76.6624 32.2215 76.4913 32.2215C76.3202 32.2215 76.1521 32.1758 76.0039 32.0889L75.404 31.5181L79.1535 27.1799L79.7534 27.7507C79.9134 27.8281 80.0461 27.9536 80.1333 28.1102C80.2205 28.2668 80.2581 28.4469 80.2408 28.626H80.0909Z" fill="#3CA482"/>
<path d="M30.859 79.8856C30.7122 79.8993 30.5648 79.8663 30.4372 79.7913C30.3096 79.7164 30.2081 79.603 30.1466 79.467C30.053 79.3195 30.0032 79.1478 30.0032 78.9723C30.0032 78.7969 30.053 78.6251 30.1466 78.4776C30.3942 78.0134 30.7399 77.6105 31.159 77.2979L32.6588 76.0802C33.0496 75.7513 33.4936 75.4938 33.9711 75.3191C34.3836 75.3191 34.6836 75.3191 34.871 75.5474C34.974 75.6571 35.0485 75.791 35.0877 75.9372C35.127 76.0833 35.1299 76.2371 35.096 76.3846C34.9306 76.7729 34.6569 77.1036 34.3086 77.336L35.171 78.4396C35.8414 77.9672 36.3416 77.2858 36.5958 76.4988C36.6442 76.1621 36.6152 75.8186 36.5112 75.4951C36.4071 75.1716 36.2307 74.8769 35.9959 74.6341C35.7746 74.3557 35.4844 74.142 35.155 74.015C34.8255 73.8879 34.4687 73.8521 34.1211 73.9111C33.1896 74.0517 32.3176 74.4612 31.6089 75.0908L30.1466 76.2705C29.3855 76.8322 28.8102 77.6151 28.4969 78.5157C28.363 78.8609 28.3203 79.2355 28.3729 79.6026C28.4255 79.9697 28.5717 80.3165 28.7968 80.6087C28.9985 80.8673 29.2548 81.0768 29.5468 81.2217C29.8388 81.3665 30.1591 81.4432 30.4841 81.4459C31.3183 81.3807 32.1024 81.0165 32.6963 80.4184V80.4184L31.9464 79.467C31.6182 79.6851 31.2472 79.8279 30.859 79.8856V79.8856Z" fill="#3CA482"/>
<path d="M38.8455 79.9231L40.8702 81.4834L41.8451 80.1895L38.6955 77.754L33.2212 85.0224L36.3708 87.4579L37.3457 86.1641L35.3209 84.5658L36.6707 82.7772L38.358 84.0711L39.3704 82.7772L37.6456 81.4834L38.8455 79.9231Z" fill="#3CA482"/>
<path d="M45.2199 81.9404L43.2701 81.0652L39.7456 89.4752L41.0204 90.046L42.4078 86.8114L43.0827 87.1159C43.2086 87.1662 43.3197 87.2487 43.4051 87.3554C43.4905 87.4621 43.5473 87.5893 43.5701 87.7247C43.6683 88.047 43.6683 88.3919 43.5701 88.7141L43.3451 89.2088C43.2227 89.4922 43.1224 89.7848 43.0452 90.0841C42.9775 90.3202 42.9775 90.571 43.0452 90.8071L44.3575 91.416C44.2854 91.1806 44.2854 90.9284 44.3575 90.693C44.4168 90.4348 44.4919 90.1806 44.5825 89.9319L44.8075 89.3991C45.0157 88.9724 45.1308 88.5051 45.1449 88.0292C45.1454 87.6338 44.998 87.2529 44.7325 86.9636C45.0904 86.8981 45.426 86.7409 45.7073 86.507C46.0319 86.2361 46.2781 85.8811 46.4197 85.4795C46.7442 84.8332 46.8242 84.0886 46.6447 83.3865C46.5489 83.0419 46.3676 82.728 46.1182 82.4748C45.8687 82.2217 45.5594 82.0377 45.2199 81.9404V81.9404ZM44.9199 84.9467C44.806 85.2182 44.6087 85.4451 44.3575 85.5937C44.2471 85.6505 44.1251 85.6801 44.0013 85.6801C43.8775 85.6801 43.7555 85.6505 43.6451 85.5937L43.0077 85.3273L43.9451 83.1582L44.5825 83.4246C44.7029 83.4669 44.8091 83.5429 44.8887 83.644C44.9684 83.745 45.0182 83.8668 45.0324 83.9954C45.0849 84.3169 45.0459 84.6469 44.9199 84.9467V84.9467Z" fill="#3CA482"/>
<path d="M48.3691 84.9088L49.9064 85.1752L48.5941 92.5578L49.9814 92.8241L51.2938 85.4416L52.8686 85.7079L53.1685 84.1097L48.6316 83.2725L48.3691 84.9088Z" fill="#3CA482"/>
<path d="M56.2441 84.0624L54.8569 84.0813L54.9779 93.2136L56.3651 93.1946L56.2441 84.0624Z" fill="#3CA482"/>
<path d="M62.6933 86.9637L60.5186 87.4204L60.1061 85.2513L62.6933 84.7185L62.3558 83.1202L58.3813 83.9574L60.2186 92.9003L61.6059 92.6339L60.856 89.0187L63.0308 88.562L62.6933 86.9637Z" fill="#3CA482"/>
<path d="M65.348 81.8587L64.0679 82.4014L67.5362 90.8288L68.8164 90.2862L65.348 81.8587Z" fill="#3CA482"/>
<path d="M72.554 86.4679L71.3167 84.5651L73.1164 83.3474L72.2166 81.9774L70.4168 83.1952L69.3669 81.5588L71.5041 80.1128L70.6043 78.7428L67.3047 80.95L72.2541 88.5989L75.5911 86.3918L74.6912 85.0218L72.554 86.4679Z" fill="#3CA482"/>
<path d="M79.0036 77.7917L77.8412 76.6501C77.1596 75.9883 76.2972 75.5506 75.3665 75.3943C75.0174 75.3192 74.6551 75.3357 74.3139 75.4423C73.9728 75.5488 73.664 75.7418 73.4168 76.0032L71.917 77.6776L78.5536 83.8424L80.0534 82.168C80.2941 81.9001 80.4621 81.5734 80.541 81.2199C80.6199 80.8663 80.6069 80.498 80.5034 80.1511C80.2673 79.221 79.7412 78.3934 79.0036 77.7917V77.7917ZM79.0036 81.0644L78.4786 81.6733L74.2042 77.8678L74.7291 77.259C74.8599 77.1415 75.0194 77.0619 75.1909 77.0284C75.3624 76.995 75.5396 77.0089 75.704 77.0687C76.1971 77.227 76.6466 77.5007 77.0163 77.8678L78.2162 78.9714C78.6111 79.3107 78.9197 79.7414 79.1161 80.2272C79.1489 80.3778 79.1419 80.5346 79.0958 80.6816C79.0497 80.8287 78.9662 80.9607 78.8536 81.0644H79.0036Z" fill="#3CA482"/>
<path d="M97.7882 40.2707C96.2509 35.4378 96.6258 29.5774 93.7387 25.5817C90.8516 21.5859 85.2273 20.1018 81.2528 17.1716C77.2783 14.2414 74.2412 9.25627 69.4793 7.69603C64.7174 6.1358 59.5806 8.34296 54.4813 8.34296C49.3819 8.34296 44.0951 6.17385 39.4832 7.69603C34.8713 9.21821 31.7217 14.2414 27.7472 17.1716C23.7727 20.1018 18.1484 21.5479 15.2613 25.5817C12.3742 29.6154 12.7491 35.4378 11.2118 40.2707C9.67453 45.1036 6 49.3657 6 54.5411C6 59.7165 9.74952 64.245 11.2118 68.8116C12.6741 73.3781 12.3742 79.4668 15.2613 83.4625C18.1484 87.4583 23.7727 88.9424 27.7472 91.8726C31.7217 94.8028 34.7588 99.7879 39.5207 101.348C44.2826 102.908 49.4194 100.701 54.5187 100.701C59.6181 100.701 64.9424 102.87 69.5168 101.348C74.0912 99.826 77.2408 94.6886 81.2528 91.8726C85.2648 89.0566 90.8516 87.4963 93.7387 83.4625C96.6258 79.4288 96.2509 73.6064 97.7882 68.8116C99.3255 64.0167 103 59.6785 103 54.5411C103 49.4038 99.2505 44.9133 97.7882 40.2707ZM84.9648 85.4414C78.8842 91.5686 71.144 95.7201 62.7304 97.3669C54.3168 99.0138 45.6106 98.0814 37.7209 94.6886C29.923 91.3396 23.2727 85.7289 18.6036 78.5599C13.9346 71.3909 11.4545 62.9825 11.4743 54.3889C11.4731 47.1554 13.2371 40.0343 16.6086 33.6614C19.9802 27.2885 24.8544 21.8622 30.796 17.8672C36.7375 13.8723 43.5614 11.4329 50.6583 10.767C57.7552 10.1011 64.9041 11.2294 71.4666 14.0511C79.2703 17.4027 85.9247 23.0192 90.5942 30.1957C95.2638 37.3722 97.7404 45.7888 97.7132 54.3889C97.7292 60.1323 96.6204 65.8216 94.4512 71.1262C92.2819 76.4309 89.0956 81.2451 85.0773 85.2892L84.9648 85.4414ZM94.6761 33.8014C92.7054 29.8723 90.1789 26.2569 87.177 23.0701C90.1789 26.2569 92.7054 29.8723 94.6761 33.8014ZM36.9335 12.3387C42.4981 9.97847 48.469 8.76312 54.5 8.76312C60.531 8.76312 66.5019 9.97847 72.0665 12.3387L72.8914 12.7192L72.0665 12.3387C64.3171 9.02473 55.8077 7.9812 47.5035 9.32645C39.1994 10.6717 31.4329 14.3519 25.085 19.9496C28.6202 16.8023 32.6178 14.2344 36.9335 12.3387V12.3387ZM73.7913 13.1378L73.2663 12.9095L73.7913 13.1378ZM15.6363 31.2898C16.918 29.0727 18.3858 26.972 20.0232 25.0108L20.9981 23.755L19.9107 25.0108C18.3122 26.9764 16.8822 29.077 15.6363 31.2898L15.0738 32.2412L15.6363 31.2898ZM11.5493 68.5832C8.72359 59.4804 8.72359 49.716 11.5493 40.6132C8.72359 49.716 8.72359 59.4804 11.5493 68.5832L12.1117 70.2196L11.5493 68.5832ZM12.0367 39.0149L11.6243 40.2707L12.0367 39.0149ZM15.7862 78.2491C16.1987 78.896 16.6111 79.581 17.0611 80.2279C16.7236 79.4668 16.3112 78.896 15.8987 78.2491H15.7862ZM20.9981 85.2892L20.2107 84.3759L20.9981 85.2892ZM19.7607 83.8431C18.9455 82.8835 18.182 81.88 17.4735 80.8368C18.2184 81.8828 19.0196 82.8864 19.8732 83.8431H19.7607ZM24.7476 88.8282C27.5872 91.3642 30.7227 93.5368 34.0839 95.2975C30.7227 93.5368 27.5872 91.3642 24.7476 88.8282V88.8282ZM87.252 86.0883C90.2539 82.9014 92.7803 79.286 94.7511 75.3569C92.7458 79.2933 90.1812 82.9091 87.1395 86.0883H87.252ZM98.838 63.522C98.9254 63.1847 98.988 62.8412 99.0255 62.4945C99.4914 59.8696 99.7298 57.2083 99.7379 54.5411C99.7348 51.8896 99.5216 49.2426 99.1005 46.6258C99.5216 49.2426 99.7348 51.8896 99.7379 54.5411C99.7421 57.2072 99.5163 59.8685 99.063 62.4945C98.9765 62.8453 98.8637 63.1887 98.7255 63.522H98.838ZM98.838 45.5222C98.838 45.8266 98.838 46.1311 99.0255 46.4355C98.838 46.1311 98.8005 45.8266 98.7255 45.5222H98.838Z" fill="#3CA482"/>
</svg>
