<svg width="110" height="110" viewBox="0 0 110 110" fill="none" xmlns="http://www.w3.org/2000/svg">
<circle cx="54.5001" cy="54.5" r="48.3072" fill="white"/>
<path fill-rule="evenodd" clip-rule="evenodd" d="M41.3673 51.1662C49.8025 53.8938 56.874 61.7229 57.5306 69.4004C61.5209 58.5912 52.5301 47.378 34.7505 47.2264C36.7709 52.6815 36.2658 57.9346 39.8015 62.8341C43.3372 67.7336 48.8933 70.8147 54.9546 71.1178C54.5 63.2887 49.0449 55.106 41.3673 51.1662Z" fill="#3CA582"/>
<path fill-rule="evenodd" clip-rule="evenodd" d="M66.9254 44.2465C61.7228 47.2771 58.1366 53.4899 58.7427 58.7429C54.4999 52.1261 58.8943 43.3373 70.7137 40.6603C70.158 44.6001 71.2188 48.0348 69.6024 51.823C67.9356 55.6113 64.7029 58.4399 60.7126 59.5511C59.9045 54.197 62.3795 47.9843 66.9254 44.2465Z" fill="#3CA582"/>
<path fill-rule="evenodd" clip-rule="evenodd" d="M50.3582 41.3673C53.9444 43.3372 56.4699 47.4285 56.1164 50.9642C58.8439 46.4183 55.7123 40.6096 47.6812 39.0438C48.1357 41.6704 47.4791 43.9938 48.6408 46.5193C49.8026 49.0448 52.0755 50.9137 54.8031 51.5704C55.2577 47.9336 53.4898 43.7918 50.3582 41.3673Z" fill="#3CA582"/>
<path d="M27.9819 30.1542C28.7901 30.7098 29.1942 31.3159 29.2447 31.9725C29.2952 32.6292 29.0931 33.3363 28.5375 34.094C27.9819 34.8516 27.3253 35.2557 26.5171 35.3567C25.7595 35.4577 24.9513 35.2052 24.1431 34.5991L22.0722 33.0332C21.2641 32.4271 20.8095 31.72 20.6579 30.9623C20.5064 30.2047 20.759 29.447 21.2641 28.7399C21.8197 27.9822 22.4763 27.5276 23.1329 27.4266C23.7896 27.2751 24.4967 27.5276 25.2544 28.0832V28.1338L24.2947 29.447C23.8401 29.0934 23.4865 28.9419 23.1834 28.9924C22.8804 28.9924 22.5773 29.1945 22.3248 29.5985C22.0722 29.9521 22.0217 30.2552 22.1227 30.6088C22.2237 30.9623 22.5268 31.3159 23.0319 31.72L25.1028 33.2858C25.6079 33.6394 26.0625 33.8414 26.4161 33.8414C26.7697 33.8414 27.1232 33.6899 27.3758 33.2858C27.6283 32.9322 27.7294 32.6292 27.6283 32.3766C27.5778 32.1241 27.3253 31.7705 26.8707 31.4674L27.9819 30.1542Z" fill="#3CA582"/>
<path d="M31.77 25.1031L29.8001 26.871L31.4669 28.7399L33.8409 26.6184L34.6996 27.6286L31.0628 30.8613L25.3047 24.3455L28.9414 21.1633L29.8001 22.1735L27.4261 24.2444L28.8909 25.9113L30.8608 24.1434L31.77 25.1031Z" fill="#3CA582"/>
<path d="M35.5081 23.0322L37.2254 26.0628L35.7607 26.9215L31.4673 19.3955L33.7402 18.0822C34.4979 17.6781 35.205 17.5266 35.8617 17.6781C36.5183 17.8297 37.0234 18.2337 37.4275 18.9409C37.6295 19.345 37.7306 19.6985 37.7306 20.1026C37.7306 20.5067 37.579 20.8098 37.3265 21.1633C37.7811 21.0623 38.1851 21.1128 38.5387 21.3149C38.8923 21.5169 39.1953 21.8705 39.4479 22.3251L39.751 22.8807C39.852 23.0827 40.0035 23.2848 40.2055 23.4868C40.4076 23.6888 40.5591 23.7899 40.7612 23.8404L40.8117 23.9414L39.2964 24.8001C39.0943 24.7496 38.9428 24.598 38.7408 24.396C38.5892 24.1434 38.3872 23.9414 38.2862 23.6888L37.9831 23.1837C37.7811 22.7797 37.5285 22.5271 37.2254 22.4261C36.9224 22.3251 36.6698 22.3251 36.3668 22.5271L35.5081 23.0322ZM34.8515 21.8705L35.6596 21.4159C35.9627 21.2138 36.1647 21.0118 36.2152 20.7087C36.2658 20.4057 36.2152 20.1026 36.0132 19.749C35.8112 19.3955 35.5586 19.1429 35.3061 19.0419C35.003 18.9409 34.7504 18.9409 34.3969 19.1429L33.5887 19.648L34.8515 21.8705Z" fill="#3CA582"/>
<path d="M44.0948 15.0516L42.1754 15.7082L44.5494 22.6786L42.9331 23.2342L40.5591 16.2638L38.6902 16.9205L38.2861 15.6577L43.6907 13.7888L44.0948 15.0516Z" fill="#3CA582"/>
<path d="M49.4487 21.5674L47.7819 21.8704L46.2666 13.3342L47.9334 13.0311L49.4487 21.5674Z" fill="#3CA582"/>
<path d="M55.6109 17.5266L52.8833 17.6276L52.9843 21.2644L51.3175 21.3149L51.0649 12.5766L56.0149 12.4756L56.0655 13.7889L52.7823 13.8394L52.8328 16.2639L55.6109 16.2133V17.5266Z" fill="#3CA582"/>
<path d="M59.2982 21.5674L57.6313 21.3654L58.7426 12.7281L60.4094 12.9302L59.2982 21.5674Z" fill="#3CA582"/>
<path d="M66.2687 19.3449L63.6927 18.6378L62.9855 21.0622L66.0666 21.9209L65.7131 23.1837L61.0156 21.8199L63.3896 13.4857L68.0365 14.799L67.683 16.0617L64.6524 15.2031L64.0462 17.3245L66.6223 18.0316L66.2687 19.3449Z" fill="#3CA582"/>
<path d="M66.9756 23.6384L71.0164 15.9608L73.3904 17.2236C74.1985 17.6277 74.7036 18.2843 74.9057 19.1935C75.1077 20.0521 74.9562 20.9613 74.5016 21.921L73.845 23.1838C73.3399 24.1435 72.6832 24.7496 71.8246 25.0527C70.9659 25.3557 70.1577 25.3052 69.3496 24.9011L66.9756 23.6384ZM71.8751 17.9307L69.0465 23.2848L69.9052 23.7394C70.3093 23.9414 70.7133 23.8909 71.1174 23.6384C71.572 23.3858 71.9256 22.9312 72.2286 22.3756L72.8853 21.1129C73.1883 20.5067 73.3399 19.9511 73.2894 19.446C73.2388 18.9409 73.0368 18.5873 72.6832 18.3853L71.8751 17.9307Z" fill="#3CA582"/>
<path d="M78.4415 31.9219L77.2798 30.7096L82.4318 25.6586L81.3206 24.5474L82.2298 23.6382L84.7553 25.7596L78.4415 31.9219Z" fill="#3CA582"/>
<path d="M85.7655 36.771C84.9068 37.3266 84.0986 37.5286 83.341 37.4276C82.5833 37.3266 81.9772 36.9225 81.5731 36.2659C81.1185 35.5587 81.0175 34.9021 81.2701 34.1444C81.4721 33.4373 82.0277 32.7807 82.8864 32.2251L84.9068 30.9623C85.7655 30.4067 86.5736 30.2046 87.3313 30.3057C88.0889 30.4067 88.6951 30.8108 89.0991 31.4674C89.5537 32.124 89.6548 32.8312 89.4022 33.5888C89.1497 34.296 88.6446 34.9526 87.7859 35.5082L85.7655 36.771ZM87.0282 33.9929C87.5333 33.6899 87.8364 33.3868 87.9879 33.0332C88.1395 32.7302 88.19 32.4271 87.9879 32.1745C87.8364 31.922 87.5333 31.7705 87.1798 31.821C86.8262 31.8715 86.4221 32.023 85.917 32.3261L83.644 33.7404C83.1389 34.0434 82.8359 34.397 82.6338 34.7001C82.4823 35.0031 82.4823 35.3062 82.6338 35.5587C82.7854 35.8113 83.0379 35.9123 83.442 35.9123C83.7956 35.8618 84.2502 35.7103 84.7048 35.4072L87.0282 33.9929Z" fill="#3CA582"/>
<path d="M88.5943 43.5394C87.6346 43.893 86.8265 43.9435 86.0688 43.6909C85.3617 43.4384 84.8566 42.9333 84.5535 42.1756C84.2504 41.418 84.3009 40.7108 84.6545 40.0542C85.0081 39.3975 85.6647 38.8924 86.6244 38.4884L88.8469 37.6297C89.8066 37.2761 90.6147 37.2256 91.3724 37.4782C92.0795 37.7307 92.5846 38.2358 92.8877 38.9935C93.1908 39.7511 93.1402 40.4583 92.7867 41.1149C92.4331 41.7715 91.7765 42.2766 90.8168 42.6807L88.5943 43.5394ZM90.3117 41.0644C90.8673 40.8623 91.2208 40.6098 91.4734 40.3572C91.7259 40.0542 91.7765 39.8016 91.6754 39.4986C91.5744 39.1955 91.3219 39.044 90.9683 38.9935C90.6147 38.943 90.1601 39.044 89.6045 39.246L87.1295 40.2057C86.5739 40.4077 86.1698 40.6603 85.9678 40.9128C85.7152 41.1654 85.6647 41.4685 85.7657 41.7715C85.8668 42.0746 86.1193 42.2261 86.4729 42.2766C86.8265 42.3271 87.281 42.2261 87.8367 42.0241L90.3117 41.0644Z" fill="#3CA582"/>
<path d="M88.6446 49.247C89.1497 49.1965 89.6043 49.247 89.9579 49.4995C90.3115 49.7521 90.564 50.1562 90.6145 50.7118C90.665 51.2674 90.564 51.722 90.261 52.025C89.9579 52.3786 89.5538 52.5807 89.0487 52.6312L88.5941 52.6817C88.089 52.7322 87.6344 52.6817 87.2808 52.4291C86.9273 52.1766 86.6747 51.7725 86.6242 51.2674C86.5737 50.7118 86.6747 50.2572 86.9778 49.9541C87.2809 49.6005 87.6849 49.3985 88.19 49.348L88.6446 49.247ZM86.9778 47.8832L87.2808 47.0245L94.5038 49.7521L94.2008 50.6108L86.9778 47.8832ZM88.3416 50.3582C88.1395 50.4087 87.9375 50.4592 87.7859 50.6108C87.6344 50.7623 87.5839 50.9138 87.5839 51.0653C87.6344 51.3179 87.7354 51.4189 87.887 51.5199C88.0385 51.5704 88.2405 51.621 88.4931 51.5704L88.9477 51.5199C89.2002 51.4694 89.3518 51.4189 89.5033 51.2674C89.6548 51.1159 89.7053 50.9643 89.7053 50.7623C89.7053 50.5602 89.6043 50.4087 89.4023 50.3582C89.2508 50.2572 89.0487 50.2572 88.7962 50.2572L88.3416 50.3582ZM92.9885 44.9031C93.4936 44.8526 93.9482 44.9031 94.3018 45.1557C94.7059 45.4082 94.9079 45.8123 94.9584 46.3174C95.0089 46.873 94.9079 47.3276 94.6048 47.6307C94.3018 47.9842 93.8977 48.1863 93.3926 48.2368L92.938 48.2873C92.4329 48.3378 91.9783 48.2873 91.6247 48.0347C91.2712 47.7822 91.0186 47.3781 90.9681 46.873C90.9176 46.3174 91.0186 45.8628 91.3217 45.5597C91.6247 45.2062 92.0288 45.0041 92.5339 44.9536L92.9885 44.9031ZM92.6854 46.0648C92.4329 46.1153 92.2814 46.1659 92.1298 46.3174C91.9783 46.4689 91.9278 46.6204 91.9783 46.8225C91.9783 47.0245 92.0793 47.1255 92.2814 47.2266C92.4329 47.3276 92.6349 47.3276 92.8875 47.2771L93.3421 47.2266C93.5946 47.1761 93.7462 47.1255 93.8977 46.974C94.0492 46.8225 94.0997 46.671 94.0997 46.4689C94.0492 46.2669 93.9482 46.1153 93.7967 46.0648C93.6451 45.9638 93.3926 45.9638 93.1905 45.9638L92.6854 46.0648Z" fill="#3CA582"/>
<path d="M16.567 65.5111C15.6578 65.7132 14.9001 65.6122 14.294 65.2081C13.6879 64.804 13.2838 64.1979 13.0818 63.3392C12.8797 62.4805 13.0313 61.7734 13.4353 61.1673C13.8394 60.5611 14.4961 60.1571 15.4052 59.955L17.5772 59.5004C18.4864 59.2984 19.244 59.3994 19.8501 59.8035C20.4563 60.2076 20.8604 60.8137 21.0624 61.6724C21.2139 62.531 21.1129 63.2382 20.7088 63.8443C20.3047 64.4504 19.6481 64.8545 18.7389 65.0566L16.567 65.5111ZM18.4359 63.5918C18.9915 63.4907 19.3956 63.2887 19.6481 62.9856C19.9007 62.6826 19.9512 62.329 19.9007 61.9249C19.7996 61.5208 19.5976 61.2178 19.244 61.0662C18.8905 60.9147 18.4864 60.9147 17.8802 61.0157L15.7083 61.4703C15.1527 61.5714 14.6981 61.7734 14.4961 62.0765C14.2435 62.329 14.193 62.6826 14.2435 63.1372C14.3445 63.5412 14.5466 63.8443 14.9001 64.0464C15.2537 64.1979 15.7083 64.2484 16.2639 64.0969L18.4359 63.5918Z" fill="#3CA582"/>
<path d="M18.0316 68.5922L15.102 69.7539L14.5464 68.3396L21.8704 65.41L22.729 67.582C23.0321 68.2891 23.0321 68.9457 22.8301 69.5014C22.628 70.057 22.1734 70.5116 21.4663 70.7641C21.0622 70.9156 20.7086 70.9662 20.3551 70.9156C20.0015 70.8651 19.6984 70.7136 19.3954 70.4105C19.3954 70.8146 19.2943 71.2187 19.0923 71.4713C18.8398 71.7743 18.5367 71.9764 18.0821 72.1784L17.5265 72.3804C17.3244 72.4815 17.1224 72.5825 16.9204 72.734C16.7183 72.8855 16.5668 73.0371 16.5163 73.1886L16.4153 73.2391L15.8091 71.7743C15.8597 71.6228 16.0112 71.4713 16.2637 71.3197C16.5163 71.1682 16.7183 71.0672 16.9709 70.9662L17.476 70.7641C17.8296 70.6126 18.1326 70.4105 18.2336 70.2085C18.3852 69.956 18.3852 69.7034 18.2841 69.4508L18.0316 68.5922ZM19.1428 68.1376L19.4459 68.8952C19.5469 69.1983 19.7489 69.4003 20.0015 69.4508C20.254 69.5519 20.5571 69.5014 20.8602 69.3498C21.2137 69.1983 21.4663 69.0468 21.5673 68.7942C21.7188 68.5417 21.7188 68.2891 21.6178 67.9861L21.3148 67.2284L19.1428 68.1376Z" fill="#3CA582"/>
<path d="M21.0626 78.9974C20.6586 78.9974 20.2545 78.8458 19.8504 78.5933C19.4463 78.3407 19.0422 77.9367 18.6887 77.381C18.2341 76.6739 18.0825 75.9668 18.2341 75.2596C18.3856 74.5525 18.8402 73.9969 19.6484 73.4918L21.6688 72.229C22.4264 71.7239 23.1841 71.5724 23.8407 71.7239C24.5478 71.8754 25.1035 72.33 25.5075 72.9867C25.9621 73.6938 26.1137 74.3504 26.0126 74.9566C25.9116 75.5627 25.5075 76.0173 24.8509 76.4214H24.8004L24.1943 75.2091C24.5478 75.0071 24.7499 74.7545 24.8004 74.502C24.8509 74.2494 24.8004 73.9969 24.5984 73.6433C24.3963 73.2897 24.0933 73.1382 23.7902 73.0877C23.4366 73.0372 23.0325 73.1887 22.5779 73.4412L20.507 74.704C20.0019 75.0071 19.7494 75.3101 19.5978 75.6637C19.4968 76.0173 19.5473 76.3203 19.7494 76.6739C19.9009 76.9265 20.0524 77.078 20.204 77.2295C20.3555 77.3305 20.507 77.381 20.6586 77.4316L22.0223 76.5729L21.4162 75.5627L22.3254 75.0071L23.7397 77.28L21.0626 78.9974Z" fill="#3CA582"/>
<path d="M25.2044 82.7856L23.8912 81.3208L22.3254 82.1289L21.2646 80.9672L28.6391 77.3304L29.6999 78.4922L25.255 85.4121L24.1942 84.3009L25.2044 82.7856ZM25.0024 80.7651L25.9116 81.7753L27.3764 79.6034L25.0024 80.7651Z" fill="#3CA582"/>
<path d="M31.0633 90.1602L29.8511 89.251L31.0128 83.7454H30.9623L27.8812 87.7357L26.6689 86.8265L31.5179 80.5632L32.7302 81.4724L31.5684 86.978H31.6189L34.7001 82.9877L35.9123 83.8969L31.0633 90.1602Z" fill="#3CA582"/>
<path d="M34.4475 92.13L33.1343 91.3723L37.0741 84.5029L38.3873 85.2606L34.4475 92.13Z" fill="#3CA582"/>
<path d="M42.1249 92.9383C41.8219 93.7464 41.3673 94.2515 40.8117 94.5041C40.2561 94.7061 39.5994 94.7061 38.8418 94.3525C38.0841 94.0495 37.5285 93.5444 37.276 92.8877C37.0234 92.2311 37.0739 91.4735 37.377 90.6148L38.2862 88.4428C38.6397 87.5842 39.1448 87.0286 39.751 86.7255C40.4076 86.4224 41.0642 86.4224 41.8219 86.776C42.63 87.0791 43.1351 87.5337 43.3877 88.0893C43.6402 88.6449 43.6402 89.3015 43.2867 90.1097L41.9229 89.5541C42.1249 89.0995 42.1754 88.6954 42.0744 88.4428C41.9734 88.1903 41.7714 87.9883 41.3673 87.8367C41.0137 87.6852 40.7107 87.7357 40.4076 87.8872C40.1045 88.0893 39.852 88.4428 39.6499 88.9479L38.7408 91.1199C38.5387 91.6755 38.4377 92.0796 38.5387 92.4332C38.6397 92.7867 38.8418 92.9888 39.2459 93.1908C39.5994 93.3423 39.9025 93.3423 40.1045 93.2413C40.3571 93.1403 40.5591 92.8372 40.7612 92.3321L42.1249 92.9383Z" fill="#3CA582"/>
<path d="M48.4389 93.9484L48.0348 96.7769L46.5195 96.5749L47.5802 88.6953L50.1563 89.0489C50.9139 89.1499 51.52 89.453 51.9241 90.0086C52.3282 90.5137 52.4797 91.1703 52.3787 91.928C52.2777 92.6856 51.9746 93.2412 51.4695 93.6453C50.9644 94.0494 50.3078 94.2009 49.5501 94.0999L48.4389 93.9484ZM48.5905 92.7866L49.7017 92.9382C50.0552 92.9887 50.3078 92.8877 50.5098 92.6856C50.7119 92.4836 50.8634 92.1805 50.9139 91.7764C50.9644 91.3724 50.9139 91.0693 50.7624 90.7662C50.6109 90.5137 50.3583 90.3116 50.0552 90.2611L48.944 90.1096L48.5905 92.7866Z" fill="#3CA582"/>
<path d="M55.3084 94.0999L55.4095 97.282L53.8942 97.3325L53.6416 89.4024L55.9651 89.3014C56.7227 89.3014 57.3794 89.4529 57.8339 89.857C58.2885 90.2611 58.5411 90.8167 58.5411 91.5744C58.5411 91.9784 58.4906 92.332 58.2885 92.6351C58.0865 92.9381 57.8339 93.1907 57.4804 93.3927C57.8845 93.4937 58.1875 93.7463 58.3896 94.0494C58.5916 94.3524 58.6926 94.7565 58.6926 95.2616V95.8172C58.6926 96.0193 58.7431 96.2718 58.7936 96.5244C58.8442 96.7769 58.9452 96.9284 59.0967 97.0295V97.1305L57.5309 97.181C57.3794 97.08 57.3288 96.8779 57.2783 96.6254C57.2278 96.3728 57.2278 96.1203 57.1773 95.8172V95.2616C57.1773 94.8575 57.0763 94.5545 56.8743 94.3524C56.7227 94.1504 56.4702 94.0494 56.1671 94.0494L55.3084 94.0999ZM55.2579 92.9381L56.0661 92.8876C56.3692 92.8876 56.6217 92.7866 56.8237 92.5846C56.9753 92.3825 57.0763 92.0795 57.0763 91.7259C57.0763 91.3723 56.9753 91.0693 56.7732 90.8672C56.6217 90.6652 56.3692 90.5641 56.0156 90.5641L55.2074 90.6147L55.2579 92.9381Z" fill="#3CA582"/>
<path d="M65.9657 92.8372C66.1678 93.7464 66.0667 94.504 65.7132 95.1606C65.3091 95.7668 64.703 96.1708 63.8443 96.3729C62.9856 96.5749 62.2785 96.4739 61.6724 96.0698C61.0662 95.6657 60.6622 95.0091 60.4601 94.0999L59.955 91.928C59.753 91.0188 59.854 90.2612 60.2076 89.6045C60.6117 88.9984 61.2178 88.5438 62.0259 88.3923C62.8846 88.1902 63.5918 88.2913 64.2484 88.6953C64.8545 89.0994 65.3091 89.7561 65.5111 90.6652L65.9657 92.8372ZM63.9958 91.0188C63.8443 90.4632 63.6423 90.0591 63.3897 89.8066C63.0867 89.554 62.7331 89.5035 62.329 89.6045C61.9249 89.7055 61.6219 89.9076 61.4703 90.2612C61.3188 90.6147 61.3188 91.0693 61.4198 91.6249L61.9249 93.7969C62.0764 94.3525 62.2785 94.7566 62.531 95.0091C62.8341 95.2617 63.1877 95.3122 63.5918 95.2112C63.9958 95.1101 64.2989 94.9081 64.4504 94.5545C64.602 94.2009 64.602 93.7464 64.5009 93.1907L63.9958 91.0188Z" fill="#3CA582"/>
<path d="M68.8452 94.8576L65.6631 87.5841L67.8855 86.6244C68.6432 86.3214 69.3503 86.3214 70.108 86.6749C70.8656 87.0285 71.4213 87.6346 71.7748 88.5438L72.2799 89.7561C72.684 90.6652 72.7345 91.4734 72.482 92.2311C72.2294 92.9887 71.7243 93.5443 71.0172 93.8979L68.8452 94.8576ZM67.5825 88.0892L69.8049 93.1402L70.6131 92.7867C70.9667 92.6351 71.1687 92.3321 71.2192 91.8775C71.2697 91.4229 71.1687 90.9178 70.9667 90.3622L70.4616 89.1499C70.209 88.5943 69.906 88.1902 69.5524 87.9377C69.1988 87.6851 68.7947 87.6346 68.4412 87.7862L67.5825 88.0892Z" fill="#3CA582"/>
<path d="M75.8154 81.9774L78.745 86.2708C79.2501 87.0284 79.4522 87.7356 79.3006 88.4427C79.1491 89.1499 78.745 89.7055 78.0884 90.1601C77.4318 90.6147 76.7246 90.7662 76.0175 90.6652C75.3103 90.5136 74.7042 90.1096 74.1991 89.3519L71.2695 85.0585L72.5323 84.1999L75.4619 88.4932C75.7649 88.9478 76.068 89.2004 76.4216 89.3519C76.7751 89.4529 77.0782 89.4024 77.4318 89.2004C77.7348 88.9983 77.9369 88.6953 77.9369 88.3417C77.9369 87.9881 77.8359 87.5841 77.5328 87.1295L74.6032 82.8361L75.8154 81.9774Z" fill="#3CA582"/>
<path d="M84.0487 81.624C84.7053 82.2301 84.9579 82.8362 84.9579 83.4423C84.9579 84.0485 84.6548 84.6546 84.0487 85.2102C83.4426 85.8163 82.7859 86.0689 82.0788 86.0689C81.3717 86.0689 80.715 85.7153 80.0584 85.0587L78.3916 83.3918C77.7349 82.7352 77.4319 82.0786 77.3813 81.3714C77.3813 80.6643 77.6339 80.0581 78.24 79.452C78.8461 78.8459 79.4523 78.5428 80.1089 78.5428C80.715 78.5428 81.3211 78.8459 81.9273 79.452V79.5025L80.8665 80.5127C80.513 80.1592 80.2099 79.9571 79.9069 79.9571C79.6543 79.9571 79.3512 80.0581 79.0482 80.3612C78.7956 80.6138 78.6946 80.9168 78.7451 81.2704C78.7956 81.624 79.0482 81.9775 79.4523 82.3816L81.1191 84.0485C81.5232 84.4525 81.8767 84.7051 82.2303 84.7556C82.5839 84.8061 82.887 84.7051 83.19 84.402C83.4426 84.1495 83.5941 83.8969 83.5436 83.6444C83.5436 83.3918 83.3415 83.0888 82.988 82.6847L84.0487 81.624Z" fill="#3CA582"/>
<path d="M84.4021 74.0979L83.2909 75.5627L88.6955 79.553L87.7863 80.7652L82.3817 76.7749L81.321 78.1892L80.3613 77.482L83.3919 73.3402L84.4021 74.0979Z" fill="#3CA582"/>
<path d="M54.5 104C27.2245 104 5 81.7755 5 54.5C5 27.2245 27.2245 5 54.5 5C81.7755 5 104 27.2245 104 54.5C104 81.7755 81.7755 104 54.5 104ZM54.5 7.82857C28.7398 7.82857 7.82857 28.7398 7.82857 54.5C7.82857 80.2602 28.7398 101.171 54.5 101.171C80.2602 101.171 101.171 80.2097 101.171 54.5C101.171 28.7903 80.2097 7.82857 54.5 7.82857Z" fill="#3CA582"/>
<path d="M54.5001 82.6847C38.943 82.6847 26.3154 70.0571 26.3154 54.5C26.3154 38.9429 38.943 26.3153 54.5001 26.3153C70.0573 26.3153 82.6848 38.9429 82.6848 54.5C82.6848 70.0571 70.0573 82.6847 54.5001 82.6847ZM54.5001 28.3862C40.1047 28.3862 28.3863 40.1046 28.3863 54.5C28.3863 68.8954 40.1047 80.6138 54.5001 80.6138C68.8955 80.6138 80.6139 68.8954 80.6139 54.5C80.6139 40.1046 68.8955 28.3862 54.5001 28.3862Z" fill="#3CA582"/>
<path d="M18.486 46.9235C19.6297 46.9235 20.5569 45.9963 20.5569 44.8525C20.5569 43.7088 19.6297 42.7816 18.486 42.7816C17.3422 42.7816 16.415 43.7088 16.415 44.8525C16.415 45.9963 17.3422 46.9235 18.486 46.9235Z" fill="#3CA582"/>
<path d="M91.9279 65.7637C93.0716 65.7637 93.9988 64.8365 93.9988 63.6927C93.9988 62.549 93.0716 61.6218 91.9279 61.6218C90.7841 61.6218 89.8569 62.549 89.8569 63.6927C89.8569 64.8365 90.7841 65.7637 91.9279 65.7637Z" fill="#3CA582"/>
</svg>
