<svg width="109" height="108" fill="none" xmlns="http://www.w3.org/2000/svg"><g clip-path="url(#icon_dose)"><path d="M99.497 14.036c10.667 11.13 6.189 28.418 4.436 43.734-1.884 16.462.585 38.272-14.583 44.941-15 6.595-28.128-11.637-42.245-19.956-9.799-5.775-19.917-10.103-25.54-19.99C13.386 48.38.87 31.038 9.76 17.08c8.94-14.036 29.969-8.384 46.6-8.949 15.26-.517 32.572-5.119 43.138 5.905z" fill="#E0E9F4"/><path d="M73.357 4.137c15.217 2.397 29.982 12.508 34.451 27.25 4.193 13.83-6.307 26.668-14.498 38.573-6.912 10.045-15.215 18.943-27.062 21.828-13.14 3.2-26.915 1.642-38.1-5.96-13.632-9.264-29.6-22.078-27.131-38.374 2.408-15.903 23.238-18.788 37.038-27.051C49.75 13.4 59.892 2.017 73.357 4.137z" fill="#3CA582"/><path fill-rule="evenodd" clip-rule="evenodd" d="M70.108 28.052c2.561-2.533 6.793-2.454 9.453.175 2.659 2.63 2.738 6.816.177 9.349L72.01 45.22l-.095-.094a1.19 1.19 0 01-.069.073c-1.04.998-4.006-.357-6.625-3.026-2.619-2.67-3.9-5.642-2.86-6.64.122-.117.271-.202.443-.256l7.305-7.225zm8.988 8.889l-6.921 6.845c-.203-1.383-1.375-3.378-3.19-5.227-1.704-1.736-3.554-2.916-4.926-3.254l6.691-6.618c2.22-2.195 5.888-2.127 8.192.152 2.305 2.28 2.374 5.907.154 8.102zm-16.075-.61l-.035-.036c-.037.07-.07.189-.063.39.01.304.11.73.339 1.26.455 1.057 1.345 2.362 2.586 3.626 1.24 1.264 2.531 2.182 3.587 2.664.529.242.955.354 1.263.373.302.018.422-.054.47-.1.047-.046.124-.162.114-.46-.01-.306-.11-.73-.339-1.261-.455-1.058-1.345-2.362-2.585-3.626-1.24-1.264-2.532-2.183-3.588-2.665-.529-.241-.955-.353-1.263-.372a1.07 1.07 0 00-.293.016l-.193.19zm6.262 27.117c-1.6 1.462-4.068 1.69-5.453 1.69-.21 0-.393-.005-.547-.012v1.875c1.855-.466 3.636-.281 3.748-.269a.424.424 0 01.386.353c.02.156.478 3.843-1.799 5.924-1.6 1.463-4.067 1.69-5.452 1.69-.35 0-.63-.014-.81-.027L57.51 76.36v2.222c0 .224-.198.404-.442.404s-.442-.18-.442-.404v-2.257l-1.843-1.653c-.18.013-.46.028-.813.028-1.384 0-3.852-.228-5.452-1.69-2.276-2.082-1.82-5.77-1.799-5.925a.424.424 0 01.386-.353c.112-.012 1.894-.197 3.748.27v-1.876a12.12 12.12 0 01-.547.013c-1.384 0-3.852-.228-5.452-1.691-2.276-2.081-1.82-5.768-1.798-5.924a.424.424 0 01.385-.353c.171-.019 4.205-.437 6.481 1.644 2.05 1.874 1.884 5.049 1.815 5.776v2.686c.665.251 1.307.604 1.849 1.1 2.002 1.83 1.89 4.902 1.82 5.722l1.22 1.094v-5.236c-.68-.532-3.14-2.633-3.14-5.224 0-2.943 3.175-5.255 3.31-5.352a.475.475 0 01.545 0c.136.097 3.31 2.409 3.31 5.352 0 2.59-2.46 4.692-3.14 5.224v5.26l1.22-1.116c-.07-.816-.184-3.892 1.82-5.725.542-.495 1.184-.848 1.85-1.099v-2.686c-.07-.727-.236-3.902 1.814-5.776 2.276-2.08 6.31-1.663 6.48-1.644a.424.424 0 01.386.353c.021.155.478 3.843-1.798 5.924zm-19.986-4.062c-1.61-1.471-4.402-1.484-5.391-1.438-.05.904-.036 3.457 1.573 4.929 1.349 1.232 3.526 1.441 4.78 1.45l-3.183-2.91a.38.38 0 010-.57.471.471 0 01.625 0l3.182 2.908c-.009-1.145-.238-3.136-1.586-4.369zm3.664 9.562c-1.61-1.472-4.402-1.485-5.391-1.438-.05.903-.036 3.456 1.573 4.928 1.349 1.232 3.526 1.442 4.78 1.45l-3.183-2.91a.38.38 0 010-.57.472.472 0 01.625 0l3.182 2.909c-.009-1.146-.237-3.137-1.586-4.37zm4.108-8.717c-.735.606-2.7 2.42-2.7 4.502 0 1.743 1.378 3.299 2.258 4.114v-4.114c0-.224.197-.404.441-.404.245 0 .442.18.442.404v4.114c.88-.816 2.258-2.371 2.258-4.114 0-2.081-1.964-3.896-2.7-4.502zm7.925 12.207c1.61-1.472 1.624-4.025 1.573-4.928-.989-.047-3.781-.034-5.391 1.438-1.348 1.232-1.577 3.223-1.586 4.369l3.182-2.91a.471.471 0 01.625 0 .38.38 0 010 .571l-3.182 2.91c1.252-.008 3.43-.218 4.779-1.45zm5.237-14.49c-.989-.046-3.781-.033-5.391 1.438-1.348 1.233-1.577 3.224-1.586 4.37l3.182-2.91a.471.471 0 01.625 0 .38.38 0 010 .571l-3.182 2.91c1.253-.009 3.43-.218 4.779-1.45 1.61-1.472 1.624-4.025 1.573-4.929zM39.704 68.79c0 8.753 7.79 15.874 17.365 15.874s17.365-7.12 17.365-15.874c0-.223-.198-.404-.442-.404s-.442.181-.442.404c0 8.308-7.394 15.067-16.481 15.067-9.088 0-16.482-6.76-16.482-15.067 0-.223-.197-.404-.442-.404-.244 0-.441.181-.441.404zm17.365 12.603c-7.602 0-13.786-5.654-13.786-12.603 0-.223.198-.404.442-.404s.441.181.441.404c0 6.504 5.789 11.795 12.903 11.795 7.114 0 12.902-5.291 12.902-11.795 0-.223.198-.404.442-.404s.442.181.442.404c0 6.95-6.184 12.603-13.786 12.603zM33.513 28.25c-2.66 2.63-2.739 6.815-.178 9.348l7.724 7.64.005.004c1.025 1.014 4.01-.297 6.67-2.927s3.984-5.583 2.96-6.597l-7.729-7.644c-2.561-2.533-6.793-2.454-9.452.176zm15.613 7.187l-6.803-6.728c-2.22-2.195-5.887-2.127-8.192.152-2.304 2.28-2.373 5.907-.154 8.102l6.803 6.729c.277-1.372 1.46-3.282 3.244-5.046 1.784-1.764 3.715-2.935 5.102-3.209zm.88.962c.047.046.122.163.108.462-.015.305-.121.728-.358 1.255-.471 1.051-1.38 2.342-2.64 3.588-1.26 1.245-2.565 2.145-3.627 2.61-.533.235-.961.34-1.269.355-.303.014-.42-.06-.468-.107-.047-.046-.122-.163-.108-.463.015-.304.122-.727.358-1.255.472-1.05 1.381-2.341 2.64-3.587 1.26-1.245 2.565-2.145 3.627-2.611.533-.234.961-.34 1.27-.354.302-.014.42.06.467.107zm11.157 7.77c0 .858-.706 1.57-1.596 1.57-.89 0-1.596-.712-1.596-1.57 0-.858.706-1.569 1.596-1.569.89 0 1.596.711 1.596 1.57zm.836 0c0 1.328-1.089 2.405-2.432 2.405s-2.432-1.077-2.432-2.405c0-1.328 1.089-2.405 2.432-2.405S62 42.842 62 44.17zm-9.013 5.419a1.1 1.1 0 001.11-1.088 1.1 1.1 0 00-1.11-1.088 1.1 1.1 0 00-1.11 1.088 1.1 1.1 0 001.11 1.088zm0 .836a1.935 1.935 0 001.945-1.924 1.935 1.935 0 00-1.945-1.924A1.935 1.935 0 0051.04 48.5c0 1.063.871 1.924 1.946 1.924zm2.479 3.954c0 1.514 1.19 2.746 2.651 2.746 1.463 0 2.652-1.232 2.652-2.746 0-1.515-1.19-2.747-2.652-2.747-1.462 0-2.651 1.232-2.651 2.747zm.78 0c0-1.07.84-1.94 1.871-1.94 1.032 0 1.872.87 1.872 1.94 0 1.069-.84 1.938-1.872 1.938s-1.871-.87-1.871-1.938z" fill="#fff"/><path d="M79.56 28.227l-.21.214.21-.213zm-9.452-.175l-.21-.213.21.213zm9.63 9.524l.211.213-.21-.213zM72.01 45.22l-.21.213.21.209.211-.209-.21-.213zm-.095-.094l.21-.214-.228-.226-.21.245.228.195zm-.069.073l-.208-.217.208.217zm-6.625-3.026l.214-.21-.214.21zm-2.86-6.64l.208.217-.208-.217zm.443-.256l.09.286.07-.021.05-.052-.21-.213zm9.372 8.51l-.297.043.086.587.422-.417-.211-.214zm6.921-6.846l-.21-.213.21.213zm-10.11 1.618l-.215.21.214-.21zm-4.927-3.254l-.21-.214-.381.377.52.128.071-.291zm6.691-6.618l-.21-.213.21.213zm8.192.152l-.21.213.21-.213zm-15.956 7.456l.21-.213-.289-.286-.188.36.267.14zm.035.036l-.21.213.21.209.211-.209-.21-.213zm-.098.354l-.3.01.3-.01zm.339 1.26l.275-.119-.275.119zm2.586 3.626l.214-.21-.214.21zm3.587 2.664l.124-.273-.124.273zm1.263.373l-.018.3.018-.3zm.47-.1l-.208-.216.208.216zm.114-.46l.3-.01-.3.01zm-.339-1.261l-.275.119.275-.119zm-2.585-3.626l-.215.21.215-.21zm-3.588-2.665l-.124.273.124-.273zm-1.263-.372l.018-.3-.018.3zm-.293.016l-.065-.293-.084.02-.062.06.211.213zm6.069 27.308l.202.221-.202-.221zm-6 1.678l.014-.3-.313-.013v.313h.3zm0 1.875h-.3v.385l.374-.094-.074-.291zm3.748-.269l-.033.298.033-.298zm.386.353l-.297.039.297-.04zm-1.799 5.924l-.202-.222.203.222zm-6.262 1.663l.022-.299-.129-.01-.095.088.202.221zM57.51 76.36l-.202-.222-.098.09v.132h.3zm-.884-.035h.3v-.134l-.1-.09-.2.224zm-1.843-1.653l.2-.223-.095-.085-.127.009.022.3zm-6.265-1.663l.202-.221-.202.221zm-1.799-5.924l.297.04-.297-.04zm.386-.353l-.033-.298.033.298zm3.748.27l-.073.29.373.094V67h-.3zm0-1.876h.3v-.313l-.314.014.014.3zm-5.999-1.678l.203-.221-.203.22zm-1.798-5.924l.297.04v-.001l-.297-.04zm.385-.353l-.032-.298.032.298zm6.481 1.644l.203-.221-.203.221zm1.815 5.776l-.299-.028-.001.014v.014h.3zm0 2.686h-.3v.208l.194.073.106-.28zm1.849 1.1l-.203.22.203-.22zm1.82 5.722l-.3-.026-.012.15.111.099.2-.223zm1.22 1.094l-.2.224.5.448v-.672h-.3zm0-5.236h.3v-.147l-.114-.09-.185.237zm.17-10.576l-.175-.244.175.244zm.545 0l.176-.244-.176.244zm.17 10.576l-.185-.237-.116.09v.147h.3zm0 5.26h-.3v.68l.502-.458-.203-.222zm1.22-1.116l.203.221.11-.1-.013-.147-.3.026zm1.82-5.725l.203.222-.203-.222zm1.85-1.099l.105.28.194-.073v-.207h-.3zm0-2.686h.3v-.014l-.002-.014-.299.028zm1.814-5.776l.202.222-.202-.222zm6.48-1.644l-.033.298.034-.298zm.386.353l-.297.039.297-.04zm-27.175.424l-.014-.3-.27.013-.016.27.3.017zm5.391 1.438l.203-.22-.203.22zm-3.818 3.49l-.202.222.202-.221zm4.78 1.45l-.003.3.78.006-.575-.527-.203.221zm-3.183-2.909l.202-.221-.202.221zm0-.57l.202.22-.202-.22zm.625 0l-.203.22.203-.22zm3.182 2.908l-.202.222.508.464-.006-.688-.3.002zM47.57 67.51l-.014-.3-.27.013-.016.27.3.017zm5.391 1.438l.203-.222-.203.222zm-3.818 3.49l-.202.221.202-.221zm4.78 1.45l-.003.3.78.005-.575-.527-.203.222zm-3.183-2.91l.202-.221-.202.221zm0-.57l.202.22-.202-.22zm.625 0l-.203.22.203-.22zm3.182 2.909l-.202.221.508.464-.006-.688-.3.003zM57.07 60.23l.19-.232-.19-.157-.191.157.19.232zm-.442 8.616l-.204.22.504.467v-.687h-.3zm.883 0h-.3v.687l.504-.467-.204-.22zm9.057-1.337l.3-.017-.016-.27-.27-.013-.014.3zm-1.573 4.928l.202.221-.202-.221zm-3.818-3.49l-.202-.222.202.222zm-1.586 4.369l-.3-.003-.005.688.507-.464-.202-.221zm3.182-2.91l.203.222-.203-.222zm.625 0l-.202.222.202-.222zm0 .571l-.202-.221.202.221zm-3.182 2.91l-.203-.222-.576.527.78-.005-.002-.3zm4.625-14.502l-.203-.221.203.221zm5.391-1.438l.3-.017-.016-.27-.27-.012-.014.3zm-6.977 5.807l-.3-.002-.005.688.507-.464-.202-.222zm3.182-2.909l.203.221-.203-.221zm.625 0l-.202.221.202-.221zm0 .571l-.202-.221.202.221zm-3.182 2.91l-.203-.222-.576.526.78-.005-.001-.3zm4.779-1.45l-.203-.222.203.222zM33.335 37.599l.211-.213-.21.213zm.178-9.348l-.211-.213.21.213zm7.546 16.987l.212-.212-.001-.001-.211.213zm.005.005l-.211.213.211-.213zm6.67-2.927l.211.213-.21-.213zm2.96-6.597l.211-.213-.21.213zm-7.729-7.644l.211-.213-.21.213zm-.642.635l-.21.214.21-.214zm6.803 6.728l.058.295.556-.11-.403-.398-.21.213zm-14.995-6.576l-.21-.213.21.213zm-.154 8.102l-.21.214.21-.214zm6.803 6.729l-.21.213.394.39.11-.544-.294-.06zm3.244-5.046l.211.213-.21-.213zm6.09-1.785l.3.014-.3-.014zm-.108-.462l.211-.214-.21.214zm-.25 1.717l.274.123-.274-.123zm-6.267 6.199l.12.275-.12-.275zm-1.269.354l.014.3-.014-.3zm-.575-.57l-.3-.014.3.014zm.357-1.255l-.274-.122.274.123zm2.64-3.587l-.21-.213.21.213zm3.627-2.611l-.12-.275.12.275zm1.27-.354l-.014-.3.013.3zm30.233-8.279c-2.769-2.738-7.19-2.831-9.875-.175l.422.426c2.437-2.41 6.48-2.346 9.03.176l.423-.427zm.177 9.775c2.688-2.658 2.593-7.035-.177-9.775l-.422.427c2.548 2.52 2.612 6.514.177 8.922l.422.426zm-7.729 7.644l7.73-7.644-.423-.426-7.729 7.644.422.426zm-.517-.094l.095.094.422-.426-.095-.095-.422.427zm.35.076c.031-.03.06-.062.089-.094l-.456-.39a.696.696 0 01-.049.051l.416.433zm-7.047-3.032c1.329 1.354 2.754 2.384 3.994 2.95.62.283 1.207.457 1.721.489.515.03.99-.08 1.332-.407l-.416-.433c-.178.171-.463.266-.88.24-.415-.025-.928-.17-1.508-.434-1.157-.529-2.524-1.51-3.815-2.825l-.428.42zm-2.853-7.066c-.343.328-.47.797-.453 1.309.017.511.175 1.098.443 1.72.535 1.243 1.534 2.683 2.863 4.037l.428-.42c-1.29-1.315-2.24-2.696-2.74-3.855-.25-.581-.38-1.091-.394-1.501-.013-.41.09-.687.268-.857l-.415-.433zm.56-.326a1.41 1.41 0 00-.56.326l.415.433a.81.81 0 01.325-.187l-.18-.572zm7.184-7.152l-7.305 7.225.422.426 7.305-7.225-.422-.426zm2.489 16.16l6.921-6.845-.422-.426-6.921 6.845.422.427zm-3.615-5.23c1.797 1.832 2.918 3.77 3.107 5.06l.594-.086c-.217-1.476-1.44-3.527-3.273-5.394l-.428.42zm-4.784-3.173c1.296.32 3.1 1.457 4.784 3.173l.428-.42c-1.723-1.756-3.62-2.979-5.068-3.336l-.144.583zm6.552-7.122l-6.69 6.617.421.427 6.691-6.618-.422-.426zm8.614.152c-2.414-2.388-6.27-2.47-8.614-.152l.422.426c2.096-2.072 5.575-2.019 7.77.152l.422-.426zm.154 8.528c2.346-2.32 2.262-6.14-.154-8.528l-.422.426c2.194 2.17 2.248 5.605.154 7.676l.422.426zm-16.532-.645l.035.035.422-.426-.035-.036-.422.427zm.448.166c-.005-.167.023-.23.029-.241l-.533-.277c-.067.129-.103.302-.096.537l.6-.019zm.314 1.151c-.22-.51-.306-.897-.314-1.151l-.6.02c.012.355.126.818.363 1.368l.551-.237zm2.525 3.534c-1.221-1.244-2.087-2.518-2.525-3.534l-.55.237c.473 1.1 1.387 2.434 2.646 3.718l.429-.42zm3.497 2.602c-1.014-.463-2.276-1.357-3.497-2.602l-.428.42c1.259 1.284 2.58 2.227 3.676 2.728l.25-.546zm1.157.346c-.258-.016-.647-.113-1.157-.346l-.249.546c.549.25 1.013.377 1.37.4l.036-.6zm.244-.016c.032-.032.007.032-.244.016l-.036.6c.354.02.567-.06.695-.183l-.415-.433zm.022-.235a.663.663 0 01-.02.221c-.01.028-.015.026-.002.014l.415.433c.129-.124.218-.335.207-.688l-.6.02zm-.314-1.151c.22.51.306.897.314 1.15l.6-.018c-.011-.356-.126-.82-.363-1.37l-.551.238zm-2.525-3.535c1.222 1.245 2.088 2.52 2.525 3.535l.551-.238c-.474-1.1-1.388-2.434-2.647-3.717l-.429.42zm-3.497-2.602c1.014.464 2.276 1.358 3.497 2.602l.429-.42c-1.26-1.283-2.58-2.227-3.677-2.727l-.25.545zm-1.157-.345c.258.015.647.113 1.157.345l.25-.545c-.55-.251-1.013-.377-1.37-.4l-.037.6zm-.21.01a.779.779 0 01.21-.01l.036-.6c-.148-.008-.272 0-.376.023l.13.586zm-.047.11l.193-.19-.422-.427-.193.19.422.427zm.598 28.895c1.394 0 3.965-.225 5.655-1.77l-.405-.443c-1.51 1.38-3.873 1.613-5.25 1.613v.6zm-.56-.013c.157.007.346.013.56.013v-.6c-.204 0-.383-.006-.533-.012l-.027.599zm.313 1.575v-1.875h-.6v1.875h.6zm3.481-.567c-.123-.014-1.947-.203-3.854.276l.147.582c1.802-.453 3.54-.273 3.641-.262l.066-.596zm.65.612a.724.724 0 00-.65-.612L67 67.03c.082.01.117.063.12.094l.596-.078zm-1.893 6.184c1.211-1.107 1.683-2.629 1.855-3.864.173-1.238.05-2.229.039-2.32l-.595.078c.008.064.125.995-.038 2.16-.163 1.167-.6 2.53-1.666 3.503l.405.443zM60.166 75c1.393 0 3.965-.225 5.655-1.77l-.405-.443c-1.51 1.38-3.874 1.613-5.25 1.613v.6zm-.831-.028c.186.013.472.028.83.028v-.6c-.342 0-.613-.014-.787-.027l-.043.599zm-1.623 1.61l1.847-1.688-.405-.443-1.846 1.688.404.442zm.098 2V76.36h-.6v2.222h.6zm-.742.704c.384 0 .742-.29.742-.704h-.6c0 .033-.038.104-.142.104v.6zm-.742-.704c0 .414.358.704.742.704v-.6c-.104 0-.142-.071-.142-.104h-.6zm0-2.257v2.257h.6v-2.257h-.6zm-1.744-1.43l1.844 1.653.4-.446-1.843-1.653-.4.447zm-.611.105c.36 0 .647-.015.833-.029l-.043-.598a10.82 10.82 0 01-.79.027v.6zm-5.656-1.77c1.69 1.545 4.262 1.77 5.656 1.77v-.6c-1.377 0-3.74-.232-5.25-1.612l-.406.443zm-1.893-6.184a9.361 9.361 0 00.038 2.32c.172 1.236.644 2.757 1.855 3.865l.405-.443c-1.065-.974-1.503-2.337-1.666-3.504a8.78 8.78 0 01-.038-2.16l-.594-.078zm.65-.612a.724.724 0 00-.65.612l.595.078c.004-.03.038-.084.12-.094l-.065-.596zm3.854.276c-1.907-.479-3.73-.29-3.854-.276l.066.596c.101-.01 1.84-.19 3.642.262l.146-.582zm-.373-1.584v1.875h.6v-1.875h-.6zm-.246.313c.214 0 .402-.006.56-.013l-.028-.6a11.7 11.7 0 01-.532.013v.6zm-5.655-1.77c1.69 1.545 4.261 1.77 5.654 1.77v-.6c-1.376 0-3.74-.232-5.25-1.612l-.404.442zm-1.894-6.185a9.361 9.361 0 00.038 2.321c.173 1.236.645 2.757 1.856 3.864l.405-.442c-1.066-.974-1.503-2.337-1.666-3.505a8.778 8.778 0 01-.038-2.159l-.595-.079zm.65-.611a.724.724 0 00-.65.611l.595.079c.004-.031.039-.085.121-.094l-.066-.596zm6.716 1.72c-1.206-1.102-2.859-1.53-4.197-1.685a12.167 12.167 0 00-2.518-.035l.065.596a11.58 11.58 0 012.383.035c1.29.15 2.793.555 3.863 1.533l.404-.443zm1.912 6.027a9.633 9.633 0 00-.117-2.541c-.213-1.155-.703-2.488-1.794-3.485l-.405.443c.959.876 1.41 2.067 1.609 3.15a9.05 9.05 0 01.11 2.376l.597.057zm.001 2.657v-2.686h-.6v2.686h.6zm1.751.878c-.576-.527-1.253-.897-1.945-1.159l-.212.562c.639.241 1.245.576 1.752 1.04l.405-.443zm1.917 5.97a9.648 9.648 0 00-.137-2.566c-.22-1.135-.714-2.43-1.78-3.404l-.404.443c.936.856 1.388 2.012 1.594 3.076a9.05 9.05 0 01.129 2.399l.598.051zm1.122.845l-1.221-1.095-.4.447 1.22 1.095.401-.447zm-.5-5.013v5.236h.6v-5.236h-.6zm-3.142-5.224c0 1.389.658 2.626 1.378 3.566a10.93 10.93 0 001.88 1.894l.369-.473a10.34 10.34 0 01-1.773-1.785c-.681-.891-1.254-2-1.254-3.202h-.6zm3.436-5.596a10.7 10.7 0 00-1.76 1.659c-.828.978-1.676 2.36-1.676 3.937h.6c0-1.367.74-2.612 1.534-3.55a10.144 10.144 0 011.652-1.559l-.35-.487zm.895 0a.775.775 0 00-.895 0l.35.487c.055-.04.14-.04.196 0l.35-.487zm3.436 5.596c0-1.577-.847-2.959-1.676-3.937a10.731 10.731 0 00-1.76-1.659l-.35.487c.058.042.864.628 1.652 1.56.794.937 1.534 2.182 1.534 3.549h.6zm-3.257 5.46c.35-.274 1.158-.95 1.88-1.894.719-.94 1.377-2.177 1.377-3.566h-.6c0 1.201-.572 2.31-1.254 3.202a10.334 10.334 0 01-1.772 1.785l.37.473zm.115 5.024v-5.26h-.6v5.26h.6zm.72-1.337l-1.222 1.116.405.443 1.221-1.117-.405-.442zm1.819-5.725c-1.067.975-1.56 2.272-1.78 3.408a9.65 9.65 0 00-.136 2.564l.598-.052a9.053 9.053 0 01.127-2.398c.206-1.064.658-2.222 1.596-3.08l-.405-.442zm1.945-1.159c-.691.261-1.369.632-1.945 1.159l.405.443c.507-.464 1.113-.799 1.752-1.04l-.212-.562zm-.194-2.404v2.685h.6v-2.686h-.6zm1.913-5.998c-1.091.997-1.582 2.33-1.795 3.485a9.637 9.637 0 00-.117 2.54l.598-.056a9.036 9.036 0 01.11-2.376c.199-1.083.65-2.274 1.608-3.15l-.404-.443zm6.716-1.721a12.133 12.133 0 00-2.519.035c-1.338.156-2.99.582-4.197 1.686l.404.443c1.07-.978 2.573-1.383 3.863-1.534a11.521 11.521 0 012.382-.034l.067-.596zm.65.611a.724.724 0 00-.65-.611l-.066.596c.082.01.117.063.121.094l.595-.079zm-1.894 6.185c1.211-1.107 1.683-2.629 1.856-3.864a9.404 9.404 0 00.038-2.32l-.595.078c.008.064.125.995-.038 2.16-.163 1.167-.6 2.53-1.666 3.503l.405.443zM43.92 58.248c.482-.023 1.403-.03 2.396.146.998.177 2.034.533 2.779 1.214l.405-.443c-.865-.79-2.03-1.176-3.079-1.362a11.804 11.804 0 00-2.53-.154l.03.599zm1.762 4.407c-.742-.678-1.127-1.616-1.319-2.518a8.516 8.516 0 01-.157-2.172l-.6-.034a9.112 9.112 0 00.17 2.33c.206.97.633 2.043 1.5 2.837l.406-.443zm4.578 1.371a10.37 10.37 0 01-2.286-.257c-.842-.201-1.67-.545-2.292-1.114l-.405.443c.725.663 1.661 1.04 2.558 1.254.9.215 1.781.27 2.421.274l.004-.6zm-3.386-2.387l3.182 2.909.405-.443-3.183-2.91-.404.444zm0-1.014a.68.68 0 000 1.014l.404-.443a.086.086 0 01-.032-.064c0-.018.007-.042.032-.064l-.404-.443zm1.03 0a.771.771 0 00-1.03 0l.405.442a.172.172 0 01.22 0l.404-.442zm3.182 2.909l-3.183-2.91-.405.444 3.183 2.909.405-.443zm-1.991-3.926c1.249 1.142 1.48 3.017 1.488 4.15l.6-.005c-.009-1.157-.236-3.264-1.683-4.588l-.405.443zm-1.511 8.201a11.21 11.21 0 012.396.146c.998.177 2.034.534 2.779 1.214l.404-.443c-.865-.79-2.03-1.176-3.078-1.362a11.808 11.808 0 00-2.53-.154l.029.6zm1.762 4.407c-.742-.677-1.127-1.616-1.319-2.517a8.515 8.515 0 01-.157-2.173l-.6-.033a9.117 9.117 0 00.17 2.33c.206.969.633 2.042 1.5 2.836l.406-.443zm4.578 1.372a10.36 10.36 0 01-2.286-.258c-.842-.2-1.67-.544-2.292-1.114l-.405.443c.725.663 1.661 1.04 2.558 1.255.9.214 1.781.27 2.421.274l.004-.6zM50.537 71.2l3.183 2.91.405-.444-3.183-2.91-.405.444zm0-1.014a.68.68 0 000 1.014l.405-.443a.087.087 0 01-.032-.064c0-.018.007-.042.032-.064l-.405-.443zm1.03 0a.771.771 0 00-1.03 0l.405.442a.172.172 0 01.22 0l.405-.442zm3.183 2.91l-3.183-2.91-.405.443 3.183 2.909.405-.443zm-1.991-3.927c1.249 1.142 1.48 3.017 1.488 4.15l.6-.005c-.009-1.157-.236-3.264-1.684-4.588l-.404.443zm1.91-4.436c0-.949.45-1.86 1.016-2.626a9.662 9.662 0 011.574-1.645L56.878 60c-.378.311-1.073.934-1.676 1.751-.6.813-1.133 1.85-1.133 2.983h.6zm2.162 3.894a8.813 8.813 0 01-1.41-1.651c-.438-.682-.752-1.45-.752-2.243h-.6c0 .95.374 1.83.846 2.567a9.389 9.389 0 001.508 1.767l.408-.44zm-.504-3.894v4.114h.6v-4.114h-.6zm.742-.704c-.384 0-.742.29-.742.704h.6c0-.033.037-.104.142-.104v-.6zm.741.704c0-.414-.358-.704-.742-.704v.6c.105 0 .142.07.142.104h.6zm0 4.114v-4.114h-.6v4.114h.6zm1.658-4.114c0 .793-.314 1.561-.751 2.243-.436.68-.981 1.253-1.41 1.651l.407.44c.45-.418 1.035-1.03 1.508-1.767.472-.736.846-1.618.846-2.567h-.6zm-2.59-4.27a9.66 9.66 0 011.575 1.644c.565.766 1.015 1.677 1.015 2.626h.6c0-1.133-.532-2.17-1.133-2.983A10.261 10.261 0 0057.26 60l-.381.462zm9.39 7.063a8.511 8.511 0 01-.158 2.172c-.192.902-.577 1.84-1.319 2.518l.405.443c.869-.794 1.295-1.867 1.5-2.836a9.03 9.03 0 00.17-2.33l-.598.033zm-4.89 1.643c.745-.68 1.781-1.037 2.779-1.214a11.208 11.208 0 012.396-.146l.028-.6a11.82 11.82 0 00-2.529.155c-1.048.186-2.213.571-3.078 1.362l.404.443zm-1.488 4.15c.009-1.133.24-3.008 1.488-4.15l-.404-.443c-1.448 1.324-1.675 3.43-1.684 4.588l.6.005zm2.68-3.133l-3.183 2.91.405.442 3.183-2.91-.405-.442zm1.03 0a.771.771 0 00-1.03 0l.405.442a.172.172 0 01.22 0l.405-.442zm0 1.014a.68.68 0 000-1.014l-.405.443a.086.086 0 01.032.064.086.086 0 01-.032.064l.405.443zm-3.183 2.91L63.6 71.2l-.405-.443-3.183 2.91.405.442zm4.374-1.894c-.622.57-1.45.913-2.292 1.114-.84.2-1.674.254-2.287.258l.004.6c.64-.004 1.523-.06 2.422-.274.897-.214 1.833-.591 2.558-1.255l-.404-.443zm.251-12.608c.745-.68 1.78-1.037 2.779-1.214a11.207 11.207 0 012.396-.146l.028-.6a11.804 11.804 0 00-2.529.155c-1.048.186-2.213.571-3.078 1.362l.404.443zm-1.488 4.15c.008-1.133.24-3.008 1.488-4.15l-.404-.443c-1.448 1.324-1.675 3.43-1.684 4.588l.6.005zm2.68-3.134l-3.183 2.91.405.443 3.183-2.91-.405-.443zm1.03 0a.771.771 0 00-1.03 0l.405.443a.172.172 0 01.22 0l.405-.442zm0 1.015a.68.68 0 000-1.015l-.405.444a.086.086 0 01.032.064.086.086 0 01-.032.064l.405.443zm-3.183 2.909l3.183-2.91-.405-.442-3.183 2.909.405.443zm4.374-1.893c-.622.57-1.45.913-2.292 1.114-.84.2-1.673.253-2.286.257l.004.6c.64-.004 1.522-.06 2.421-.273.897-.214 1.833-.592 2.558-1.255l-.405-.443zm1.477-4.69a8.51 8.51 0 01-.158 2.172c-.192.902-.577 1.84-1.319 2.518l.405.443c.869-.794 1.295-1.867 1.5-2.836a9.03 9.03 0 00.17-2.33l-.599.033zM57.069 84.363c-9.436 0-17.065-7.011-17.065-15.574h-.6c0 8.944 7.95 16.174 17.665 16.174v-.6zM74.134 68.79c0 8.563-7.63 15.574-17.065 15.574v.6c9.715 0 17.665-7.23 17.665-16.174h-.6zm-.142-.104c.104 0 .142.072.142.104h.6c0-.413-.358-.704-.742-.704v.6zm-.142.104c0-.032.038-.104.142-.104v-.6c-.384 0-.742.29-.742.704h.6zM57.069 84.156c9.227 0 16.781-6.869 16.781-15.367h-.6c0 8.117-7.233 14.766-16.181 14.766v.6zM40.287 68.788c0 8.498 7.554 15.367 16.782 15.367v-.6c-8.948 0-16.182-6.65-16.182-14.767h-.6zm-.142-.104c.105 0 .142.072.142.104h.6c0-.413-.358-.704-.742-.704v.6zm-.141.104c0-.032.037-.104.142-.104v-.6c-.384 0-.742.29-.742.704h.6zm2.979 0c0 7.14 6.344 12.903 14.086 12.903v-.6c-7.462 0-13.486-5.544-13.486-12.303h-.6zm.742-.704c-.384 0-.742.29-.742.704h.6c0-.032.037-.104.142-.104v-.6zm.742.704c0-.413-.358-.704-.742-.704v.6c.104 0 .142.072.142.104h.6zm12.602 11.495c-6.975 0-12.602-5.182-12.602-11.495h-.6c0 6.694 5.948 12.095 13.202 12.095v-.6zM69.67 68.789c0 6.313-5.627 11.495-12.602 11.495v.6c7.254 0 13.202-5.4 13.202-12.095h-.6zm.742-.704c-.384 0-.742.29-.742.704h.6c0-.032.038-.104.142-.104v-.6zm.742.704c0-.413-.358-.704-.742-.704v.6c.105 0 .142.072.142.104h.6zM57.069 81.692c7.741 0 14.086-5.763 14.086-12.903h-.6c0 6.759-6.024 12.303-13.486 12.303v.6zM33.546 37.386c-2.434-2.408-2.37-6.402.178-8.922l-.422-.426c-2.77 2.74-2.865 7.117-.178 9.775l.422-.427zm7.724 7.639l-7.724-7.639-.422.427 7.724 7.639.422-.427zm.006.006l-.005-.005-.424.425.006.005.423-.425zm6.247-2.928c-1.31 1.295-2.692 2.257-3.857 2.768-.584.256-1.1.393-1.515.413-.416.019-.7-.08-.876-.254l-.422.427c.337.332.81.45 1.325.426.516-.024 1.106-.189 1.729-.462 1.248-.548 2.69-1.557 4.038-2.892l-.422-.426zm2.96-6.17c.175.173.274.451.255.86-.02.41-.157.919-.416 1.496-.517 1.152-1.489 2.518-2.799 3.814l.422.426c1.349-1.334 2.37-2.76 2.924-3.995.277-.617.444-1.201.468-1.712.024-.512-.095-.983-.432-1.316l-.422.427zm-7.729-7.644l7.73 7.644.421-.427-7.729-7.644-.422.427zm-9.03.175c2.55-2.522 6.593-2.585 9.03-.175l.422-.427c-2.685-2.656-7.105-2.563-9.874.176l.422.426zm8.388.46l6.803 6.728.422-.427-6.803-6.728-.422.427zm-7.77.152c2.195-2.171 5.675-2.225 7.77-.152l.422-.427c-2.344-2.318-6.2-2.235-8.614.152l.422.427zm-.154 7.675c-2.093-2.07-2.04-5.506.154-7.675l-.422-.427c-2.415 2.39-2.5 6.209-.154 8.529l.422-.427zm6.803 6.728l-6.803-6.728-.422.427 6.803 6.728.422-.427zm2.822-5.045c-1.802 1.782-3.033 3.743-3.327 5.2l.588.118c.26-1.288 1.396-3.146 3.161-4.892l-.422-.426zm5.255-3.29c-1.47.29-3.452 1.507-5.255 3.29l.422.426c1.765-1.745 3.645-2.87 4.95-3.127l-.117-.589zm1.346 1.733c.016-.353-.07-.565-.197-.69l-.422.426c-.012-.012-.007-.014.002.013.01.031.023.098.017.222l.6.029zm-.384 1.363c.245-.547.367-1.008.383-1.364l-.599-.028c-.012.254-.104.64-.331 1.147l.547.245zm-2.703 3.678c1.278-1.265 2.213-2.585 2.703-3.678l-.547-.245c-.453 1.009-1.338 2.27-2.578 3.496l.422.427zm-3.718 2.673c1.104-.485 2.44-1.409 3.718-2.673l-.422-.427c-1.24 1.227-2.516 2.102-3.537 2.55l.241.55zm-1.375.378c.357-.016.823-.136 1.375-.378l-.24-.55c-.514.225-.904.317-1.163.329l.028.6zm-.693-.193c.126.125.339.21.693.193l-.028-.6c-.25.013-.275-.051-.243-.02l-.422.427zm-.196-.69c-.017.353.07.565.196.69l.422-.426c.013.012.007.014-.001-.014a.662.662 0 01-.018-.221l-.6-.029zm.383-1.363c-.245.547-.366 1.008-.383 1.363l.6.029c.011-.254.103-.64.33-1.147l-.547-.245zm2.704-3.678c-1.279 1.265-2.213 2.585-2.704 3.678l.548.245c.453-1.009 1.337-2.27 2.577-3.496l-.421-.427zm3.717-2.673c-1.104.485-2.439 1.408-3.717 2.673l.421.427c1.24-1.227 2.516-2.102 3.537-2.55l-.241-.55zm1.376-.378c-.358.016-.823.136-1.376.378l.241.55c.513-.225.904-.317 1.162-.329l-.027-.6zm.692.192c-.126-.124-.338-.209-.692-.192l.027.599c.251-.012.275.052.243.02l.422-.427zm9.35 9.853a1.883 1.883 0 001.896-1.869h-.6c0 .69-.569 1.27-1.296 1.27v.6zm-1.896-1.869c0 1.026.843 1.87 1.896 1.87v-.6c-.727 0-1.296-.58-1.296-1.27h-.6zm1.896-1.869a1.883 1.883 0 00-1.896 1.87h.6c0-.69.57-1.27 1.296-1.27v-.6zm1.896 1.87c0-1.027-.843-1.87-1.896-1.87v.6c.727 0 1.296.58 1.296 1.27h.6zm-1.896 2.704c1.506 0 2.732-1.208 2.732-2.705h-.6c0 1.16-.951 2.105-2.132 2.105v.6zm-2.732-2.705c0 1.497 1.227 2.705 2.732 2.705v-.6c-1.18 0-2.132-.945-2.132-2.105h-.6zm2.732-2.705c-1.505 0-2.732 1.208-2.732 2.705h.6c0-1.16.952-2.105 2.132-2.105v-.6zM62.3 44.17c0-1.497-1.226-2.705-2.732-2.705v.6c1.18 0 2.132.946 2.132 2.105h.6zm-8.504 4.33a.799.799 0 01-.81.789v.6c.786 0 1.41-.628 1.41-1.388h-.6zm-.81-.787c.459 0 .81.364.81.788h.6c0-.76-.624-1.388-1.41-1.388v.6zm-.809.788a.8.8 0 01.81-.788v-.6a1.4 1.4 0 00-1.41 1.388h.6zm.81.788a.799.799 0 01-.81-.788h-.6a1.4 1.4 0 001.41 1.388v-.6zm1.645-.788c0 .894-.733 1.624-1.645 1.624v.6a2.235 2.235 0 002.245-2.224h-.6zm-1.645-1.624c.912 0 1.645.73 1.645 1.624h.6a2.235 2.235 0 00-2.245-2.224v.6zM51.34 48.5c0-.894.734-1.624 1.646-1.624v-.6A2.235 2.235 0 0050.74 48.5h.6zm1.646 1.624c-.912 0-1.646-.73-1.646-1.624h-.6a2.235 2.235 0 002.246 2.224v-.6zm5.13 6.7c-1.286 0-2.351-1.088-2.351-2.446h-.6c0 1.67 1.314 3.046 2.951 3.046v-.6zm2.352-2.446c0 1.358-1.065 2.446-2.352 2.446v.6c1.638 0 2.952-1.376 2.952-3.046h-.6zm-2.352-2.447c1.287 0 2.352 1.088 2.352 2.447h.6c0-1.67-1.314-3.047-2.952-3.047v.6zm-2.351 2.447c0-1.36 1.065-2.447 2.351-2.447v-.6c-1.637 0-2.951 1.376-2.951 3.047h.6zm2.351-2.24c-1.207 0-2.171 1.015-2.171 2.24h.6c0-.914.715-1.64 1.571-1.64v-.6zm2.172 2.24c0-1.225-.964-2.24-2.172-2.24v.6c.857 0 1.572.726 1.572 1.64h.6zm-2.172 2.238c1.208 0 2.172-1.014 2.172-2.238h-.6c0 .913-.715 1.638-1.572 1.638v.6zm-2.171-2.238c0 1.224.964 2.238 2.171 2.238v-.6c-.856 0-1.571-.725-1.571-1.638h-.6z" fill="#fff"/></g><defs><clipPath id="icon_dose"><path fill="#fff" transform="translate(.762)" d="M0 0h108v108H0z"/></clipPath></defs></svg>