<svg width="109" height="108" viewBox="0 0 109 108" fill="none" xmlns="http://www.w3.org/2000/svg">
<g clip-path="url(#icon_dose)">
<path d="M99.4966 14.0361C110.164 25.1658 105.686 42.4535 103.933 57.7696C102.049 74.2321 104.518 96.0418 89.3497 102.711C74.3506 109.306 61.2215 91.0738 47.1054 82.755C37.3063 76.9803 27.1879 72.6524 21.5655 62.765C13.3855 48.3802 0.870369 31.038 9.75942 17.0803C18.6985 3.04398 39.7276 8.69569 56.3591 8.13149C71.6196 7.6138 88.9312 3.01228 99.4966 14.0361Z" fill="#E0E9F4"></path>
<path d="M73.3568 4.13732C88.574 6.53366 103.339 16.6452 107.808 31.3874C112.001 45.2173 101.501 58.0546 93.3098 69.9599C86.3982 80.0047 78.0951 88.9032 66.2484 91.788C53.1079 94.9878 39.333 93.4298 28.1474 85.8277C14.5162 76.5636 -1.45114 63.7499 1.01656 47.4544C3.4249 31.5509 24.2549 28.6663 38.0549 20.4029C49.7499 13.4 59.8915 2.01684 73.3568 4.13732Z" fill="#3CA582"></path>
<path fill-rule="evenodd" clip-rule="evenodd" d="M70.1084 28.0519C72.6695 25.5189 76.9015 25.5975 79.5606 28.2275C82.2198 30.8575 82.2993 35.0429 79.7381 37.5759L72.0092 45.22L71.9138 45.1256C71.8921 45.151 71.8692 45.1753 71.845 45.1985C70.8053 46.1965 67.8393 44.8418 65.2201 42.1728C62.601 39.5038 61.3206 36.5312 62.3602 35.5332C62.4824 35.416 62.6312 35.3312 62.8029 35.2772L70.1084 28.0519ZM79.0962 36.941L72.1748 43.7863C71.9719 42.4033 70.7998 40.4082 68.9851 38.5589C67.2813 36.8227 65.4307 35.6427 64.0591 35.3046L70.7504 28.6868C72.97 26.4916 76.6377 26.5597 78.9423 28.839C81.2469 31.1183 81.3158 34.7457 79.0962 36.941ZM63.0214 36.3309L62.9855 36.2954C62.9491 36.3653 62.9167 36.4836 62.9231 36.6846C62.9329 36.9895 63.0333 37.4143 63.2618 37.9447C63.7173 39.0023 64.6073 40.3066 65.8476 41.5705C67.088 42.8345 68.3795 43.7533 69.4347 44.2352C69.964 44.4769 70.3903 44.5889 70.6981 44.6076C71.0003 44.626 71.1198 44.5539 71.1675 44.5081C71.2152 44.4623 71.2917 44.3464 71.2821 44.0471C71.2723 43.7423 71.1719 43.3175 70.9434 42.787C70.4879 41.7294 69.5979 40.4252 68.3576 39.1612C67.1172 37.8973 65.8257 36.9785 64.7705 36.4965C64.2412 36.2548 63.8148 36.1429 63.5071 36.1241C63.3798 36.1164 63.2849 36.1247 63.2142 36.1403L63.0214 36.3309ZM69.2826 63.4478C67.6829 64.9101 65.2152 65.1386 63.8304 65.1386C63.6207 65.1386 63.4371 65.1333 63.2835 65.1263V67.0009C65.1377 66.5349 66.919 66.7196 67.0314 66.732C67.2336 66.7543 67.3929 66.8999 67.4173 67.0847C67.4379 67.2407 67.8948 70.9281 65.6185 73.0089C64.0186 74.4715 61.5507 74.6998 60.1659 74.6998C59.8152 74.6998 59.5363 74.6853 59.3562 74.6723L57.51 76.36V78.5824C57.51 78.8055 57.3123 78.9863 57.0682 78.9863C56.8241 78.9863 56.6263 78.8055 56.6263 78.5824V76.3251L54.7827 74.6722C54.6027 74.6853 54.3226 74.7 53.9705 74.7C52.5857 74.7 50.1178 74.4718 48.5179 73.0091C46.2415 70.9282 46.6984 67.2408 46.7191 67.0849C46.7435 66.9001 46.9027 66.7545 47.1049 66.7322C47.2174 66.7199 48.9988 66.5354 50.8529 67.0012V65.1265C50.6996 65.1334 50.5162 65.1388 50.3065 65.1388C48.9219 65.1388 46.4542 64.9105 44.8542 63.4479C42.5779 61.367 43.0348 57.6796 43.0555 57.5237C43.0799 57.3389 43.2391 57.1933 43.4413 57.171C43.6124 57.1523 47.6456 56.7344 49.9221 58.8152C51.9719 60.6889 51.8055 63.8638 51.737 64.5915V67.2772C52.4022 67.5284 53.044 67.881 53.5859 68.3763C55.5883 70.2066 55.4759 73.2789 55.4057 74.0986L56.6268 75.1934V69.9565C55.9462 69.4249 53.4853 67.3237 53.4853 64.7326C53.4853 61.7897 56.6606 59.4778 56.7958 59.3807C56.9559 59.2658 57.1813 59.2658 57.3414 59.3807C57.4765 59.4778 60.6519 61.7897 60.6519 64.7326C60.6519 67.3237 58.1911 69.4249 57.5104 69.9565V75.2173L58.7317 74.101C58.6616 73.2852 58.5467 70.2086 60.5512 68.3763C61.0931 67.8808 61.7348 67.5283 62.4001 67.277V64.5915C62.3315 63.8638 62.1652 60.6889 64.215 58.8152C66.4913 56.7341 70.5248 57.1518 70.6956 57.1708C70.8978 57.1931 71.057 57.3387 71.0814 57.5236C71.1021 57.6795 71.559 61.3669 69.2826 63.4478ZM49.2971 59.3865C47.6875 57.915 44.8945 57.902 43.906 57.9483C43.8551 58.8522 43.8698 61.4052 45.4792 62.8766C46.8276 64.1091 49.0052 64.318 50.2583 64.3264L47.076 61.4173C46.9033 61.2596 46.9033 61.0038 47.076 60.8461C47.2483 60.6883 47.5283 60.6883 47.7008 60.8461L50.8833 63.7554C50.8744 62.6102 50.6455 60.6191 49.2971 59.3865ZM52.9611 68.9477C51.3515 67.4764 48.5589 67.4631 47.57 67.5095C47.5191 68.4133 47.5336 70.9664 49.1432 72.4378C50.4916 73.6703 52.6695 73.8797 53.9224 73.8877L50.7397 70.9783C50.5671 70.8206 50.5671 70.5648 50.7397 70.4071C50.9121 70.2493 51.192 70.2493 51.3646 70.4071L54.5472 73.3166C54.5384 72.1714 54.3095 70.1803 52.9611 68.9477ZM57.0685 60.2309C56.3336 60.8368 54.3689 62.6515 54.3689 64.7326C54.3689 66.4756 55.747 68.0316 56.6267 68.847V64.7326C56.6267 64.5094 56.8244 64.3286 57.0685 64.3286C57.3126 64.3286 57.5104 64.5094 57.5104 64.7326V68.847C58.3901 68.0314 59.7682 66.4756 59.7682 64.7326C59.7682 62.6517 57.8036 60.8369 57.0685 60.2309ZM64.9939 72.4378C66.6035 70.9664 66.618 68.4133 66.5671 67.5095C65.5782 67.4633 62.7858 67.4762 61.176 68.9477C59.8277 70.1803 59.5987 72.1712 59.5898 73.3166L62.7725 70.4071C62.9448 70.2493 63.2248 70.2493 63.3973 70.4071C63.57 70.5648 63.57 70.8206 63.3973 70.9783L60.2145 73.8879C61.4674 73.8798 63.6455 73.6704 64.9939 72.4378ZM70.2311 57.9483C69.2423 57.902 66.4496 57.915 64.8399 59.3865C63.4917 60.6191 63.2626 62.6102 63.2538 63.7554L66.4365 60.846C66.6088 60.6881 66.8888 60.6881 67.0613 60.846C67.234 61.0037 67.234 61.2594 67.0613 61.4171L63.8788 64.3264C65.1316 64.3181 67.3094 64.1092 68.6578 62.8766C70.2675 61.4052 70.282 58.8522 70.2311 57.9483ZM39.7037 68.7892C39.7037 77.5423 47.4936 84.6634 57.0687 84.6634C66.6438 84.6634 74.4338 77.5424 74.4338 68.7892C74.4338 68.5661 74.236 68.3853 73.9919 68.3853C73.7478 68.3853 73.55 68.5661 73.55 68.7892C73.55 77.0968 66.1565 83.8555 57.0687 83.8555C47.9809 83.8555 40.5874 77.0968 40.5874 68.7892C40.5874 68.5661 40.3896 68.3853 40.1455 68.3853C39.9014 68.3853 39.7037 68.5661 39.7037 68.7892ZM57.0689 81.3916C49.4672 81.3916 43.2828 75.7382 43.2828 68.7892C43.2828 68.566 43.4806 68.3852 43.7247 68.3852C43.9688 68.3852 44.1665 68.566 44.1665 68.7892C44.1665 75.2926 49.9545 80.5838 57.0689 80.5838C64.1833 80.5838 69.9713 75.2928 69.9713 68.7892C69.9713 68.566 70.169 68.3852 70.4131 68.3852C70.6572 68.3852 70.855 68.566 70.855 68.7892C70.855 75.7382 64.6706 81.3916 57.0689 81.3916ZM33.5129 28.2509C30.8537 30.8809 30.7742 35.0663 33.3354 37.5993L41.059 45.2382L41.0643 45.2434C42.0888 46.2566 45.0749 44.946 47.7341 42.316C50.3933 39.686 51.7185 36.7327 50.6941 35.7194L42.9651 28.0753C40.404 25.5423 36.1721 25.6209 33.5129 28.2509ZM49.1261 35.4385L42.3232 28.7103C40.1035 26.515 36.4358 26.5831 34.1312 28.8624C31.8266 31.1417 31.7577 34.7691 33.9774 36.9644L40.7803 43.6926C41.057 42.3206 42.2405 40.411 44.0242 38.6468C45.808 36.8827 47.7389 35.7122 49.1261 35.4385ZM50.0062 36.3997C50.0532 36.4462 50.1279 36.5632 50.1138 36.8624C50.0994 37.167 49.9927 37.5903 49.7562 38.1173C49.2847 39.168 48.3751 40.459 47.1158 41.7045C45.8565 42.95 44.5512 43.8496 43.4888 44.3158C42.9559 44.5497 42.528 44.6553 42.22 44.6696C41.9175 44.6835 41.7992 44.6096 41.7521 44.5631C41.7051 44.5166 41.6304 44.3996 41.6445 44.1005C41.6589 43.7958 41.7657 43.3726 42.0022 42.8455C42.4736 41.7948 43.3832 40.5038 44.6426 39.2584C45.9019 38.0129 47.2072 37.1133 48.2695 36.647C48.8024 36.4131 49.2304 36.3075 49.5384 36.2933C49.8409 36.2793 49.9592 36.3532 50.0062 36.3997ZM61.163 44.1701C61.163 45.028 60.4572 45.7392 59.5671 45.7392C58.6771 45.7392 57.9713 45.028 57.9713 44.1701C57.9713 43.3121 58.6771 42.601 59.5671 42.601C60.4572 42.601 61.163 43.3121 61.163 44.1701ZM61.999 44.1701C61.999 45.4984 60.9102 46.5752 59.5671 46.5752C58.224 46.5752 57.1353 45.4984 57.1353 44.1701C57.1353 42.8417 58.224 41.7649 59.5671 41.7649C60.9102 41.7649 61.999 42.8417 61.999 44.1701ZM52.9859 49.589C53.6073 49.589 54.0953 49.0932 54.0953 48.5009C54.0953 47.9087 53.6073 47.4128 52.9859 47.4128C52.3644 47.4128 51.8764 47.9087 51.8764 48.5009C51.8764 49.0932 52.3644 49.589 52.9859 49.589ZM52.9859 50.4251C54.0603 50.4251 54.9314 49.5636 54.9314 48.5009C54.9314 47.4382 54.0603 46.5768 52.9859 46.5768C51.9114 46.5768 51.0404 47.4382 51.0404 48.5009C51.0404 49.5636 51.9114 50.4251 52.9859 50.4251ZM55.4646 54.3786C55.4646 55.8932 56.6542 57.1253 58.1164 57.1253C59.5786 57.1253 60.7681 55.8932 60.7681 54.3786C60.7681 52.864 59.5786 51.6319 58.1164 51.6319C56.6542 51.6319 55.4646 52.864 55.4646 54.3786ZM56.2446 54.3786C56.2446 53.3095 57.0842 52.4397 58.1164 52.4397C59.1485 52.4397 59.9882 53.3095 59.9882 54.3786C59.9882 55.4477 59.1485 56.3174 58.1164 56.3174C57.0842 56.3174 56.2446 55.4477 56.2446 54.3786Z" fill="white"></path>
<path d="M79.5606 28.2275L79.3497 28.4408L79.3497 28.4408L79.5606 28.2275ZM70.1084 28.0519L69.8974 27.8386L69.8974 27.8386L70.1084 28.0519ZM79.7381 37.5759L79.9491 37.7892L79.9491 37.7892L79.7381 37.5759ZM72.0092 45.22L71.7982 45.4333L72.0092 45.6419L72.2202 45.4333L72.0092 45.22ZM71.9138 45.1256L72.1248 44.9123L71.8956 44.6857L71.6859 44.9305L71.9138 45.1256ZM71.845 45.1985L71.6372 44.9821L71.6372 44.9821L71.845 45.1985ZM65.2201 42.1728L65.4343 41.9627L65.4343 41.9627L65.2201 42.1728ZM62.3602 35.5332L62.568 35.7497L62.568 35.7497L62.3602 35.5332ZM62.8029 35.2772L62.8929 35.5634L62.9622 35.5416L63.0138 35.4905L62.8029 35.2772ZM72.1748 43.7863L71.878 43.8299L71.9641 44.4167L72.3858 43.9996L72.1748 43.7863ZM79.0962 36.941L78.8852 36.7277L78.8852 36.7277L79.0962 36.941ZM68.9851 38.5589L68.7709 38.769L68.7709 38.769L68.9851 38.5589ZM64.0591 35.3046L63.8481 35.0913L63.4675 35.4678L63.9873 35.5959L64.0591 35.3046ZM70.7504 28.6868L70.5394 28.4735L70.5394 28.4735L70.7504 28.6868ZM78.9423 28.839L78.7314 29.0523L78.7314 29.0523L78.9423 28.839ZM62.9855 36.2954L63.1965 36.0821L62.9074 35.7961L62.7195 36.1567L62.9855 36.2954ZM63.0214 36.3309L62.8105 36.5442L63.0214 36.7529L63.2324 36.5442L63.0214 36.3309ZM62.9231 36.6846L62.6233 36.6942L62.6233 36.6943L62.9231 36.6846ZM63.2618 37.9447L63.5373 37.826L63.5373 37.826L63.2618 37.9447ZM65.8476 41.5705L66.0617 41.3604L66.0617 41.3604L65.8476 41.5705ZM69.4347 44.2352L69.5594 43.9623L69.5594 43.9623L69.4347 44.2352ZM70.6981 44.6076L70.6799 44.9071L70.6799 44.9071L70.6981 44.6076ZM71.1675 44.5081L70.9598 44.2917L70.9597 44.2917L71.1675 44.5081ZM71.2821 44.0471L71.5819 44.0375L71.5819 44.0375L71.2821 44.0471ZM70.9434 42.787L70.6679 42.9057L70.6679 42.9057L70.9434 42.787ZM68.3576 39.1612L68.1434 39.3714L68.1434 39.3714L68.3576 39.1612ZM64.7705 36.4965L64.6458 36.7694L64.6458 36.7694L64.7705 36.4965ZM63.5071 36.1241L63.5253 35.8247L63.5253 35.8247L63.5071 36.1241ZM63.2142 36.1403L63.1494 35.8474L63.0648 35.8661L63.0032 35.927L63.2142 36.1403ZM69.2826 63.4478L69.4851 63.6692L69.4851 63.6692L69.2826 63.4478ZM63.2835 65.1263L63.297 64.8266L62.9835 64.8125V65.1263H63.2835ZM63.2835 67.0009H62.9835V67.3856L63.3566 67.2918L63.2835 67.0009ZM67.0314 66.732L66.9984 67.0302L66.9985 67.0302L67.0314 66.732ZM67.4173 67.0847L67.1198 67.124L67.1199 67.1242L67.4173 67.0847ZM65.6185 73.0089L65.4161 72.7875L65.4161 72.7875L65.6185 73.0089ZM59.3562 74.6723L59.3777 74.3731L59.249 74.3639L59.1538 74.4509L59.3562 74.6723ZM57.51 76.36L57.3076 76.1385L57.21 76.2277V76.36H57.51ZM56.6263 76.3251H56.9263V76.1911L56.8266 76.1017L56.6263 76.3251ZM54.7827 74.6722L54.9829 74.4488L54.888 74.3637L54.7609 74.373L54.7827 74.6722ZM48.5179 73.0091L48.7203 72.7877L48.7203 72.7877L48.5179 73.0091ZM46.7191 67.0849L47.0165 67.1243L47.0165 67.1242L46.7191 67.0849ZM47.1049 66.7322L47.0724 66.434L47.0721 66.434L47.1049 66.7322ZM50.8529 67.0012L50.7798 67.2922L51.1529 67.3859V67.0012H50.8529ZM50.8529 65.1265H51.1529V64.8126L50.8393 64.8268L50.8529 65.1265ZM44.8542 63.4479L45.0567 63.2265L45.0567 63.2265L44.8542 63.4479ZM43.0555 57.5237L43.3529 57.5632L43.3529 57.563L43.0555 57.5237ZM43.4413 57.171L43.4087 56.8728L43.4084 56.8728L43.4413 57.171ZM49.9221 58.8152L50.1245 58.5937L50.1245 58.5937L49.9221 58.8152ZM51.737 64.5915L51.4383 64.5634L51.437 64.5774V64.5915H51.737ZM51.737 67.2772H51.437V67.4846L51.631 67.5578L51.737 67.2772ZM53.5859 68.3763L53.3835 68.5978L53.3835 68.5978L53.5859 68.3763ZM55.4057 74.0986L55.1068 74.073L55.094 74.2221L55.2054 74.322L55.4057 74.0986ZM56.6268 75.1934L56.4266 75.4168L56.9268 75.8653V75.1934H56.6268ZM56.6268 69.9565H56.9268V69.8102L56.8115 69.7201L56.6268 69.9565ZM56.7958 59.3807L56.6209 59.1369L56.6208 59.137L56.7958 59.3807ZM57.3414 59.3807L57.5166 59.1371L57.5163 59.1369L57.3414 59.3807ZM57.5104 69.9565L57.3257 69.7201L57.2104 69.8102V69.9565H57.5104ZM57.5104 75.2173H57.2104V75.8979L57.7128 75.4388L57.5104 75.2173ZM58.7317 74.101L58.9341 74.3224L59.0433 74.2227L59.0306 74.0753L58.7317 74.101ZM60.5512 68.3763L60.7536 68.5978L60.7536 68.5977L60.5512 68.3763ZM62.4001 67.277L62.5061 67.5577L62.7001 67.4844V67.277H62.4001ZM62.4001 64.5915H62.7001V64.5774L62.6988 64.5634L62.4001 64.5915ZM64.215 58.8152L64.4174 59.0366L64.4174 59.0366L64.215 58.8152ZM70.6956 57.1708L70.6623 57.469L70.6627 57.469L70.6956 57.1708ZM71.0814 57.5236L70.784 57.5628L70.784 57.563L71.0814 57.5236ZM43.906 57.9483L43.8919 57.6487L43.6217 57.6613L43.6065 57.9315L43.906 57.9483ZM49.2971 59.3865L49.4996 59.1651L49.4996 59.1651L49.2971 59.3865ZM45.4792 62.8766L45.2768 63.098L45.2768 63.098L45.4792 62.8766ZM50.2583 64.3264L50.2563 64.6264L51.0368 64.6316L50.4607 64.105L50.2583 64.3264ZM47.076 61.4173L47.2784 61.1959L47.2783 61.1957L47.076 61.4173ZM47.076 60.8461L47.2783 61.0676L47.2786 61.0673L47.076 60.8461ZM47.7008 60.8461L47.4982 61.0674L47.4983 61.0675L47.7008 60.8461ZM50.8833 63.7554L50.6809 63.9768L51.1886 64.4409L51.1833 63.7531L50.8833 63.7554ZM47.57 67.5095L47.5559 67.2098L47.2857 67.2225L47.2704 67.4926L47.57 67.5095ZM52.9611 68.9477L53.1635 68.7262L53.1635 68.7262L52.9611 68.9477ZM49.1432 72.4378L48.9408 72.6592L48.9408 72.6592L49.1432 72.4378ZM53.9224 73.8877L53.9205 74.1877L54.7007 74.1928L54.1248 73.6663L53.9224 73.8877ZM50.7397 70.9783L50.9422 70.7569L50.942 70.7568L50.7397 70.9783ZM50.7397 70.4071L50.9421 70.6287L50.9424 70.6284L50.7397 70.4071ZM51.3646 70.4071L51.162 70.6285L51.1621 70.6286L51.3646 70.4071ZM54.5472 73.3166L54.3448 73.538L54.8525 74.0021L54.8472 73.3143L54.5472 73.3166ZM57.0685 60.2309L57.2594 59.9994L57.0685 59.842L56.8777 59.9994L57.0685 60.2309ZM56.6267 68.847L56.4227 69.067L56.9267 69.5342V68.847H56.6267ZM57.5104 68.847H57.2104V69.5343L57.7144 69.067L57.5104 68.847ZM66.5671 67.5095L66.8666 67.4926L66.8514 67.2225L66.5811 67.2098L66.5671 67.5095ZM64.9939 72.4378L65.1963 72.6592L65.1963 72.6592L64.9939 72.4378ZM61.176 68.9477L60.9736 68.7262L60.9735 68.7263L61.176 68.9477ZM59.5898 73.3166L59.2898 73.3143L59.2845 74.0021L59.7922 73.538L59.5898 73.3166ZM62.7725 70.4071L62.9749 70.6286L62.9752 70.6284L62.7725 70.4071ZM63.3973 70.4071L63.1948 70.6285L63.195 70.6287L63.3973 70.4071ZM63.3973 70.9783L63.195 70.7568L63.1949 70.7569L63.3973 70.9783ZM60.2145 73.8879L60.012 73.6665L59.4361 74.1929L60.2164 74.1879L60.2145 73.8879ZM64.8399 59.3865L64.6375 59.165L64.6375 59.1651L64.8399 59.3865ZM70.2311 57.9483L70.5306 57.9315L70.5154 57.6613L70.2451 57.6487L70.2311 57.9483ZM63.2538 63.7554L62.9538 63.7531L62.9485 64.4409L63.4562 63.9768L63.2538 63.7554ZM66.4365 60.846L66.6389 61.0674L66.6391 61.0672L66.4365 60.846ZM67.0613 60.846L66.8588 61.0673L66.859 61.0675L67.0613 60.846ZM67.0613 61.4171L66.859 61.1956L66.8589 61.1957L67.0613 61.4171ZM63.8788 64.3264L63.6764 64.105L63.1004 64.6315L63.8808 64.6264L63.8788 64.3264ZM68.6578 62.8766L68.4554 62.6552L68.4554 62.6552L68.6578 62.8766ZM33.3354 37.5993L33.5463 37.386L33.5463 37.386L33.3354 37.5993ZM33.5129 28.2509L33.3019 28.0376L33.3019 28.0376L33.5129 28.2509ZM41.059 45.2382L41.2708 45.0256L41.27 45.0249L41.059 45.2382ZM41.0643 45.2434L40.8526 45.4559L40.8533 45.4567L41.0643 45.2434ZM47.7341 42.316L47.9451 42.5293L47.9451 42.5293L47.7341 42.316ZM50.6941 35.7194L50.905 35.5061L50.905 35.5061L50.6941 35.7194ZM42.9651 28.0753L43.1761 27.862L43.1761 27.862L42.9651 28.0753ZM42.3232 28.7103L42.1122 28.9236L42.3232 28.7103ZM49.1261 35.4385L49.1841 35.7328L49.7395 35.6232L49.337 35.2252L49.1261 35.4385ZM34.1312 28.8624L33.9203 28.6491L33.9203 28.6491L34.1312 28.8624ZM33.9774 36.9644L33.7664 37.1777L33.7664 37.1777L33.9774 36.9644ZM40.7803 43.6926L40.5693 43.9059L40.9644 44.2967L41.0743 43.7519L40.7803 43.6926ZM44.0242 38.6468L44.2352 38.8601L44.2352 38.8601L44.0242 38.6468ZM50.1138 36.8624L50.4135 36.8765L50.4135 36.8765L50.1138 36.8624ZM50.0062 36.3997L50.2172 36.1864L50.2172 36.1864L50.0062 36.3997ZM49.7562 38.1173L50.0299 38.2401L50.0299 38.2401L49.7562 38.1173ZM43.4888 44.3158L43.6094 44.5906L43.6094 44.5906L43.4888 44.3158ZM42.22 44.6696L42.2338 44.9692L42.2338 44.9692L42.22 44.6696ZM41.6445 44.1005L41.3449 44.0863L41.3449 44.0863L41.6445 44.1005ZM42.0022 42.8455L41.7285 42.7227L41.7285 42.7227L42.0022 42.8455ZM44.6426 39.2584L44.4316 39.0451L44.4316 39.0451L44.6426 39.2584ZM48.2695 36.647L48.149 36.3723L48.149 36.3723L48.2695 36.647ZM49.5384 36.2933L49.5246 35.9936L49.5246 35.9936L49.5384 36.2933ZM79.7716 28.0142C77.003 25.276 72.5828 25.1827 69.8974 27.8386L70.3193 28.2652C72.7563 25.8551 76.7999 25.919 79.3497 28.4408L79.7716 28.0142ZM79.9491 37.7892C82.6366 35.1312 82.5417 30.7539 79.7716 28.0142L79.3497 28.4408C81.8979 30.961 81.962 34.9545 79.5272 37.3626L79.9491 37.7892ZM72.2202 45.4333L79.9491 37.7892L79.5272 37.3626L71.7982 45.0067L72.2202 45.4333ZM71.7029 45.3389L71.7982 45.4333L72.2202 45.0067L72.1248 44.9123L71.7029 45.3389ZM72.0527 45.4149C72.084 45.3849 72.1136 45.3535 72.1417 45.3208L71.6859 44.9305C71.6706 44.9485 71.6544 44.9656 71.6372 44.9821L72.0527 45.4149ZM65.006 42.3829C66.3347 43.7369 67.7603 44.7674 69.0002 45.3337C69.6192 45.6164 70.2066 45.7901 70.7213 45.8215C71.2358 45.8529 71.7114 45.7426 72.0527 45.4149L71.6372 44.9821C71.4588 45.1534 71.1737 45.248 70.7578 45.2226C70.3421 45.1973 69.8293 45.0527 69.2495 44.7879C68.0917 44.2591 66.7247 43.2777 65.4343 41.9627L65.006 42.3829ZM62.1525 35.3168C61.8104 35.6451 61.6839 36.1141 61.7003 36.626C61.7167 37.1373 61.8752 37.7243 62.1426 38.3451C62.6782 39.5886 63.6774 41.029 65.006 42.3829L65.4343 41.9627C64.1437 40.6476 63.1931 39.2672 62.6937 38.1077C62.4435 37.5269 62.3131 37.0168 62.3 36.6067C62.2869 36.1972 62.3902 35.9203 62.568 35.7497L62.1525 35.3168ZM62.7129 34.991C62.5019 35.0573 62.3115 35.1642 62.1525 35.3168L62.568 35.7497C62.6533 35.6677 62.7605 35.605 62.8929 35.5634L62.7129 34.991ZM69.8974 27.8386L62.5919 35.0639L63.0138 35.4905L70.3193 28.2652L69.8974 27.8386ZM72.3858 43.9996L79.3071 37.1543L78.8852 36.7277L71.9638 43.573L72.3858 43.9996ZM68.7709 38.769C70.5685 40.6009 71.6887 42.5397 71.878 43.8299L72.4716 43.7428C72.2551 42.267 71.0311 40.2156 69.1992 38.3488L68.7709 38.769ZM63.9873 35.5959C65.2828 35.9152 67.0864 37.0525 68.7709 38.769L69.1992 38.3488C67.4761 36.593 65.5786 35.3701 64.1309 35.0134L63.9873 35.5959ZM70.5394 28.4735L63.8481 35.0913L64.27 35.5179L70.9613 28.9001L70.5394 28.4735ZM79.1533 28.6257C76.7393 26.2382 72.8833 26.1554 70.5394 28.4735L70.9613 28.9001C73.0568 26.8277 76.5361 26.8812 78.7314 29.0523L79.1533 28.6257ZM79.3071 37.1543C81.6531 34.8341 81.5689 31.0148 79.1533 28.6257L78.7314 29.0523C80.925 31.2219 80.9785 34.6573 78.8852 36.7277L79.3071 37.1543ZM62.7745 36.5087L62.8105 36.5442L63.2324 36.1176L63.1965 36.0821L62.7745 36.5087ZM63.223 36.675C63.2176 36.5078 63.2459 36.4448 63.2515 36.434L62.7195 36.1567C62.6522 36.2857 62.6157 36.4593 62.6233 36.6942L63.223 36.675ZM63.5373 37.826C63.3174 37.3156 63.2311 36.9292 63.223 36.675L62.6233 36.6943C62.6347 37.0497 62.7491 37.5129 62.9862 38.0634L63.5373 37.826ZM66.0617 41.3604C64.8405 40.1159 63.9747 38.8416 63.5373 37.826L62.9862 38.0634C63.4598 39.163 64.3741 40.4973 65.6335 41.7806L66.0617 41.3604ZM69.5594 43.9623C68.5452 43.4991 67.283 42.6048 66.0617 41.3604L65.6335 41.7806C66.893 43.0641 68.2138 44.0074 69.3101 44.5081L69.5594 43.9623ZM70.7164 44.3082C70.4581 44.2924 70.0691 44.1951 69.5594 43.9623L69.3101 44.5081C69.859 44.7588 70.3226 44.8853 70.6799 44.9071L70.7164 44.3082ZM70.9597 44.2917C70.9923 44.2604 70.9671 44.3235 70.7164 44.3082L70.6799 44.9071C71.0336 44.9286 71.2472 44.8474 71.3752 44.7246L70.9597 44.2917ZM70.9822 44.0567C70.9862 44.1807 70.9716 44.2478 70.9615 44.2784C70.9524 44.306 70.947 44.3039 70.9598 44.2917L71.3752 44.7246C71.5039 44.6011 71.5932 44.3902 71.5819 44.0375L70.9822 44.0567ZM70.6679 42.9057C70.8878 43.4162 70.9741 43.8025 70.9822 44.0567L71.5819 44.0375C71.5705 43.682 71.4561 43.2188 71.219 42.6683L70.6679 42.9057ZM68.1434 39.3714C69.3647 40.6159 70.2305 41.8901 70.6679 42.9057L71.219 42.6683C70.7453 41.5688 69.8311 40.2345 68.5717 38.9511L68.1434 39.3714ZM64.6458 36.7694C65.66 37.2326 66.9222 38.1269 68.1434 39.3714L68.5717 38.9511C67.3122 37.6677 65.9913 36.7243 64.8951 36.2237L64.6458 36.7694ZM63.4888 36.4236C63.7471 36.4393 64.1361 36.5366 64.6458 36.7694L64.8951 36.2237C64.3462 35.973 63.8826 35.8465 63.5253 35.8247L63.4888 36.4236ZM63.2789 36.4332C63.3167 36.4249 63.3829 36.4171 63.4888 36.4236L63.5253 35.8247C63.3767 35.8156 63.2531 35.8245 63.1494 35.8474L63.2789 36.4332ZM63.2324 36.5442L63.4251 36.3536L63.0032 35.927L62.8105 36.1176L63.2324 36.5442ZM63.8304 65.4386C65.2237 65.4386 67.7953 65.2138 69.4851 63.6692L69.0802 63.2263C67.5705 64.6065 65.2066 64.8386 63.8304 64.8386V65.4386ZM63.2699 65.426C63.4274 65.4331 63.6156 65.4386 63.8304 65.4386V64.8386C63.6258 64.8386 63.4467 64.8334 63.297 64.8266L63.2699 65.426ZM63.5835 67.0009V65.1263H62.9835V67.0009H63.5835ZM67.0644 66.4338C66.9409 66.4202 65.117 66.2308 63.2104 66.7099L63.3566 67.2918C65.1585 66.839 66.8971 67.019 66.9984 67.0302L67.0644 66.4338ZM67.7147 67.0455C67.67 66.7069 67.3861 66.4693 67.0643 66.4338L66.9985 67.0302C67.0811 67.0393 67.1157 67.0929 67.1198 67.124L67.7147 67.0455ZM65.8209 73.2304C67.0321 72.1232 67.504 70.6015 67.6764 69.3665C67.8493 68.1279 67.7269 67.1374 67.7147 67.0453L67.1199 67.1242C67.1283 67.188 67.2447 68.1192 67.0821 69.2835C66.9191 70.4514 66.4813 71.8138 65.4161 72.7875L65.8209 73.2304ZM60.1659 74.9998C61.5592 74.9998 64.131 74.7752 65.8209 73.2304L65.4161 72.7875C63.9062 74.1678 61.5422 74.3998 60.1659 74.3998V74.9998ZM59.3347 74.9716C59.5208 74.9849 59.807 74.9998 60.1659 74.9998V74.3998C59.8234 74.3998 59.5517 74.3856 59.3777 74.3731L59.3347 74.9716ZM57.7125 76.5814L59.5586 74.8938L59.1538 74.4509L57.3076 76.1385L57.7125 76.5814ZM57.81 78.5824V76.36H57.21V78.5824H57.81ZM57.0682 79.2863C57.452 79.2863 57.81 78.996 57.81 78.5824H57.21C57.21 78.615 57.1725 78.6863 57.0682 78.6863V79.2863ZM56.3263 78.5824C56.3263 78.996 56.6843 79.2863 57.0682 79.2863V78.6863C56.9639 78.6863 56.9263 78.615 56.9263 78.5824H56.3263ZM56.3263 76.3251V78.5824H56.9263V76.3251H56.3263ZM54.5824 74.8955L56.4261 76.5484L56.8266 76.1017L54.9829 74.4488L54.5824 74.8955ZM53.9705 75C54.3308 75 54.6183 74.9849 54.8044 74.9714L54.7609 74.373C54.5871 74.3856 54.3143 74.4 53.9705 74.4V75ZM48.3154 73.2305C50.0054 74.7755 52.5772 75 53.9705 75V74.4C52.5942 74.4 50.2302 74.1681 48.7203 72.7877L48.3154 73.2305ZM46.4217 67.0455C46.4095 67.1375 46.2871 68.128 46.46 69.3666C46.6324 70.6017 47.1043 72.1234 48.3154 73.2305L48.7203 72.7877C47.6551 71.814 47.2173 70.4515 47.0542 69.2837C46.8917 68.1194 47.008 67.1882 47.0165 67.1243L46.4217 67.0455ZM47.0721 66.434C46.7502 66.4695 46.4664 66.7071 46.4217 67.0457L47.0165 67.1242C47.0206 67.0931 47.0553 67.0395 47.1378 67.0304L47.0721 66.434ZM50.926 66.7103C49.0195 66.2313 47.1954 66.4205 47.0724 66.434L47.1375 67.0304C47.2393 67.0193 48.9781 66.8395 50.7798 67.2922L50.926 66.7103ZM50.5529 65.1265V67.0012H51.1529V65.1265H50.5529ZM50.3065 65.4388C50.5213 65.4388 50.7093 65.4333 50.8665 65.4262L50.8393 64.8268C50.69 64.8336 50.5111 64.8388 50.3065 64.8388V65.4388ZM44.6518 63.6693C46.3417 65.2142 48.9134 65.4388 50.3065 65.4388V64.8388C48.9304 64.8388 46.5666 64.6068 45.0567 63.2265L44.6518 63.6693ZM42.7581 57.4843C42.7459 57.5763 42.6235 58.5668 42.7964 59.8054C42.9688 61.0405 43.4407 62.5622 44.6518 63.6693L45.0567 63.2265C43.9915 62.2528 43.5537 60.8903 43.3906 59.7225C43.2281 58.5582 43.3444 57.627 43.3529 57.5632L42.7581 57.4843ZM43.4084 56.8728C43.0866 56.9083 42.8027 57.1459 42.7581 57.4845L43.3529 57.563C43.357 57.5319 43.3917 57.4783 43.4742 57.4692L43.4084 56.8728ZM50.1245 58.5937C48.9177 57.4907 47.2653 57.0639 45.927 56.9078C44.5815 56.7509 43.5056 56.8622 43.4087 56.8728L43.474 57.4692C43.5481 57.4611 44.5744 57.3541 45.8574 57.5038C47.1476 57.6542 48.6501 58.0589 49.7197 59.0366L50.1245 58.5937ZM52.0356 64.6197C52.0713 64.2408 52.1319 63.2349 51.9189 62.0788C51.7063 60.9243 51.2155 59.591 50.1245 58.5937L49.7197 59.0366C50.6785 59.913 51.1294 61.1041 51.3289 62.1874C51.5281 63.2691 51.4712 64.2145 51.4383 64.5634L52.0356 64.6197ZM52.037 67.2772V64.5915H51.437V67.2772H52.037ZM53.7883 68.1549C53.2118 67.6279 52.5345 67.2577 51.8429 66.9965L51.631 67.5578C52.27 67.7992 52.8762 68.134 53.3835 68.5978L53.7883 68.1549ZM55.7046 74.1242C55.741 73.6991 55.7882 72.6958 55.5675 71.5593C55.3471 70.4241 54.8541 69.1291 53.7883 68.1549L53.3835 68.5978C54.3201 69.4538 54.772 70.6102 54.9785 71.6736C55.1847 72.7357 55.1406 73.6784 55.1068 74.073L55.7046 74.1242ZM56.8271 74.97L55.606 73.8752L55.2054 74.322L56.4266 75.4168L56.8271 74.97ZM56.3268 69.9565V75.1934H56.9268V69.9565H56.3268ZM53.1853 64.7326C53.1853 66.1219 53.8434 67.3588 54.5626 68.2991C55.2843 69.2429 56.0913 69.919 56.4422 70.193L56.8115 69.7201C56.4817 69.4625 55.718 68.8222 55.0391 67.9346C54.3577 67.0437 53.7853 65.9344 53.7853 64.7326H53.1853ZM56.6208 59.137C56.5435 59.1925 55.694 59.8112 54.8609 60.7957C54.0327 61.7743 53.1853 63.1561 53.1853 64.7326H53.7853C53.7853 63.3662 54.5256 62.1206 55.3189 61.1833C56.1072 60.2517 56.9129 59.6659 56.9708 59.6243L56.6208 59.137ZM57.5163 59.1369C57.2517 58.947 56.8856 58.947 56.6209 59.1369L56.9707 59.6244C57.0263 59.5845 57.111 59.5845 57.1666 59.6244L57.5163 59.1369ZM60.9519 64.7326C60.9519 63.156 60.1045 61.7743 59.2763 60.7957C58.4432 59.8112 57.5937 59.1925 57.5166 59.1371L57.1663 59.6242C57.2242 59.6659 58.03 60.2517 58.8183 61.1833C59.6116 62.1206 60.3519 63.3662 60.3519 64.7326H60.9519ZM57.6951 70.193C58.0459 69.919 58.8529 69.2429 59.5747 68.2991C60.2939 67.3588 60.9519 66.1219 60.9519 64.7326H60.3519C60.3519 65.9344 59.7795 67.0437 59.0981 67.9346C58.4193 68.8222 57.6556 69.4625 57.3257 69.7201L57.6951 70.193ZM57.8104 75.2173V69.9565H57.2104V75.2173H57.8104ZM58.5293 73.8796L57.308 74.9959L57.7128 75.4388L58.9341 74.3224L58.5293 73.8796ZM60.3488 68.1549C59.2818 69.1302 58.7889 70.4268 58.5689 71.5628C58.3486 72.7002 58.3964 73.7036 58.4328 74.1267L59.0306 74.0753C58.9969 73.6827 58.9521 72.7398 59.158 71.6769C59.3641 70.6126 59.816 69.4548 60.7536 68.5978L60.3488 68.1549ZM62.2941 66.9964C61.6026 67.2575 60.9253 67.6277 60.3487 68.155L60.7536 68.5977C61.2609 68.1339 61.8671 67.799 62.5061 67.5577L62.2941 66.9964ZM62.1001 64.5915V67.277H62.7001V64.5915H62.1001ZM64.0125 58.5937C62.9216 59.591 62.4307 60.9243 62.2181 62.0788C62.0052 63.2349 62.0657 64.2408 62.1014 64.6197L62.6988 64.5634C62.6659 64.2145 62.609 63.2691 62.8082 62.1874C63.0077 61.1041 63.4586 59.913 64.4174 59.0366L64.0125 58.5937ZM70.7289 56.8727C70.6314 56.8618 69.5555 56.7505 68.2101 56.9075C66.8717 57.0636 65.2193 57.4905 64.0125 58.5937L64.4174 59.0366C65.487 58.0588 66.9895 57.654 68.2796 57.5034C69.5628 57.3537 70.589 57.4608 70.6623 57.469L70.7289 56.8727ZM71.3788 57.4843C71.3341 57.1457 71.0503 56.9081 70.7284 56.8726L70.6627 57.469C70.7452 57.4781 70.7799 57.5317 70.784 57.5628L71.3788 57.4843ZM69.4851 63.6692C70.6962 62.562 71.1681 61.0403 71.3405 59.8053C71.5134 58.5667 71.391 57.5762 71.3788 57.4841L70.784 57.563C70.7925 57.6269 70.9088 58.558 70.7463 59.7223C70.5832 60.8902 70.1454 62.2526 69.0802 63.2263L69.4851 63.6692ZM43.9201 58.248C44.4022 58.2254 45.3233 58.2175 46.3163 58.3936C47.3141 58.5705 48.3502 58.9273 49.0947 59.6079L49.4996 59.1651C48.6345 58.3742 47.4693 57.9887 46.421 57.8028C45.368 57.6161 44.3984 57.6249 43.8919 57.6487L43.9201 58.248ZM45.6817 62.6552C44.9404 61.9775 44.5548 61.039 44.3634 60.1373C44.1725 59.2377 44.1809 58.4024 44.2055 57.9652L43.6065 57.9315C43.5802 58.398 43.5705 59.2912 43.7765 60.2619C43.9821 61.2305 44.4086 62.3042 45.2768 63.098L45.6817 62.6552ZM50.2603 64.0264C49.6473 64.0223 48.814 63.969 47.9741 63.7687C47.1318 63.5679 46.3044 63.2244 45.6816 62.6552L45.2768 63.098C46.0025 63.7613 46.938 64.1385 47.8349 64.3523C48.7341 64.5667 49.6162 64.6221 50.2563 64.6264L50.2603 64.0264ZM46.8735 61.6387L50.0559 64.5478L50.4607 64.105L47.2784 61.1959L46.8735 61.6387ZM46.8737 60.6246C46.5707 60.9012 46.5707 61.3622 46.8737 61.6388L47.2783 61.1957C47.2534 61.173 47.2464 61.1497 47.2464 61.1317C47.2464 61.1137 47.2534 61.0904 47.2783 61.0676L46.8737 60.6246ZM47.9033 60.6248C47.6162 60.3621 47.1604 60.3619 46.8733 60.6249L47.2786 61.0673C47.3362 61.0146 47.4403 61.0144 47.4982 61.0674L47.9033 60.6248ZM51.0857 63.534L47.9032 60.6247L47.4983 61.0675L50.6809 63.9768L51.0857 63.534ZM49.0947 59.6079C50.3436 60.7496 50.5745 62.6247 50.5833 63.7577L51.1833 63.7531C51.1743 62.5957 50.9475 60.4887 49.4996 59.1651L49.0947 59.6079ZM47.584 67.8092C48.0663 67.7866 48.9874 67.7788 49.9804 67.9549C50.9781 68.1318 52.0142 68.4886 52.7587 69.1691L53.1635 68.7262C52.2984 67.9355 51.1333 67.55 50.0852 67.3641C49.0322 67.1773 48.0625 67.1861 47.5559 67.2098L47.584 67.8092ZM49.3456 72.2164C48.6043 71.5387 48.2187 70.6002 48.0273 69.6985C47.8364 68.7989 47.8449 67.9636 47.8695 67.5264L47.2704 67.4926C47.2442 67.9592 47.2344 68.8524 47.4404 69.8231C47.646 70.7917 48.0725 71.8654 48.9408 72.6592L49.3456 72.2164ZM53.9244 73.5877C53.3115 73.5838 52.4782 73.5304 51.6382 73.3301C50.7959 73.1292 49.9684 72.7856 49.3456 72.2164L48.9408 72.6592C49.6664 73.3225 50.602 73.6998 51.499 73.9137C52.3983 74.1282 53.2804 74.1836 53.9205 74.1877L53.9244 73.5877ZM50.5373 71.1997L53.72 74.1092L54.1248 73.6663L50.9422 70.7569L50.5373 71.1997ZM50.5374 70.1856C50.2345 70.4623 50.2345 70.9232 50.5375 71.1998L50.942 70.7568C50.9172 70.734 50.9102 70.7107 50.9102 70.6927C50.9102 70.6747 50.9172 70.6514 50.9421 70.6287L50.5374 70.1856ZM51.5671 70.1858C51.28 69.9231 50.8242 69.923 50.5371 70.1859L50.9424 70.6284C51 70.5756 51.1041 70.5755 51.162 70.6285L51.5671 70.1858ZM54.7497 73.0952L51.567 70.1857L51.1621 70.6286L54.3448 73.538L54.7497 73.0952ZM52.7587 69.1691C54.0076 70.3108 54.2385 72.1859 54.2472 73.3189L54.8472 73.3143C54.8383 72.1569 54.6114 70.0498 53.1635 68.7262L52.7587 69.1691ZM54.6689 64.7326C54.6689 63.7841 55.1187 62.8729 55.6845 62.1067C56.2473 61.3445 56.9019 60.7571 57.2594 60.4623L56.8777 59.9994C56.5003 60.3105 55.805 60.9334 55.2018 61.7503C54.6015 62.5633 54.0689 63.6 54.0689 64.7326H54.6689ZM56.8306 68.627C56.4015 68.2292 55.8565 67.6557 55.4205 66.9757C54.9834 66.294 54.6689 65.5259 54.6689 64.7326H54.0689C54.0689 65.6823 54.4435 66.5636 54.9154 67.2996C55.3883 68.0372 55.9722 68.6493 56.4227 69.067L56.8306 68.627ZM56.3267 64.7326V68.847H56.9267V64.7326H56.3267ZM57.0685 64.0286C56.6847 64.0286 56.3267 64.319 56.3267 64.7326H56.9267C56.9267 64.6999 56.9642 64.6286 57.0685 64.6286V64.0286ZM57.8104 64.7326C57.8104 64.319 57.4524 64.0286 57.0685 64.0286V64.6286C57.1729 64.6286 57.2104 64.6999 57.2104 64.7326H57.8104ZM57.8104 68.847V64.7326H57.2104V68.847H57.8104ZM59.4682 64.7326C59.4682 65.5259 59.1537 66.294 58.7166 66.9756C58.2806 67.6556 57.7356 68.2291 57.3064 68.627L57.7144 69.067C58.1649 68.6493 58.7488 68.0371 59.2217 67.2995C59.6936 66.5636 60.0682 65.6823 60.0682 64.7326H59.4682ZM56.8777 60.4623C57.2353 60.7571 57.8898 61.3446 58.4527 62.1069C59.0184 62.873 59.4682 63.7842 59.4682 64.7326H60.0682C60.0682 63.6001 59.5357 62.5634 58.9353 61.7504C58.3321 60.9336 57.6369 60.3106 57.2594 59.9994L56.8777 60.4623ZM66.2676 67.5264C66.2922 67.9636 66.3007 68.7989 66.1097 69.6985C65.9184 70.6002 65.5328 71.5387 64.7915 72.2164L65.1963 72.6592C66.0646 71.8654 66.4911 70.7917 66.6967 69.8231C66.9027 68.8524 66.8929 67.9592 66.8666 67.4926L66.2676 67.5264ZM61.3784 69.1691C62.123 68.4885 63.159 68.1318 64.1568 67.9549C65.1497 67.7788 66.0707 67.7866 66.5531 67.8092L66.5811 67.2098C66.0746 67.1862 65.105 67.1774 64.052 67.3641C63.0038 67.5499 61.8387 67.9354 60.9736 68.7262L61.3784 69.1691ZM59.8898 73.3189C59.8986 72.1857 60.1296 70.3108 61.3784 69.1691L60.9735 68.7263C59.5258 70.0498 59.2988 72.1567 59.2898 73.3143L59.8898 73.3189ZM62.5701 70.1857L59.3874 73.0952L59.7922 73.538L62.9749 70.6286L62.5701 70.1857ZM63.5998 70.1858C63.3128 69.9231 62.8569 69.923 62.5699 70.1859L62.9752 70.6284C63.0328 70.5756 63.1369 70.5755 63.1948 70.6285L63.5998 70.1858ZM63.5996 71.1998C63.9026 70.9232 63.9026 70.4623 63.5996 70.1856L63.195 70.6287C63.2199 70.6514 63.2268 70.6747 63.2268 70.6927C63.2268 70.7107 63.2199 70.734 63.195 70.7568L63.5996 71.1998ZM60.4169 74.1093L63.5997 71.1997L63.1949 70.7569L60.012 73.6665L60.4169 74.1093ZM64.7915 72.2164C64.1687 72.7857 63.3411 73.1293 62.4988 73.3302C61.6587 73.5306 60.8254 73.584 60.2125 73.5879L60.2164 74.1879C60.8565 74.1838 61.7387 74.1284 62.638 73.9139C63.535 73.6999 64.4706 73.3226 65.1963 72.6592L64.7915 72.2164ZM65.0423 59.6079C65.7869 58.9273 66.8229 58.5705 67.8207 58.3936C68.8137 58.2175 69.7348 58.2254 70.217 58.248L70.2451 57.6487C69.7386 57.6249 68.769 57.6161 67.716 57.8028C66.6678 57.9887 65.5026 58.3742 64.6375 59.165L65.0423 59.6079ZM63.5538 63.7577C63.5625 62.6247 63.7936 60.7496 65.0424 59.6079L64.6375 59.1651C63.1898 60.4887 62.9627 62.5956 62.9538 63.7531L63.5538 63.7577ZM66.2341 60.6245L63.0514 63.534L63.4562 63.9768L66.6389 61.0674L66.2341 60.6245ZM67.2638 60.6246C66.9767 60.3619 66.5209 60.3618 66.2338 60.6247L66.6391 61.0672C66.6967 61.0144 66.8008 61.0143 66.8588 61.0673L67.2638 60.6246ZM67.2636 61.6386C67.5665 61.362 67.5665 60.9011 67.2636 60.6244L66.859 61.0675C66.8839 61.0902 66.8908 61.1135 66.8908 61.1315C66.8908 61.1495 66.8839 61.1728 66.859 61.1956L67.2636 61.6386ZM64.0812 64.5478L67.2637 61.6385L66.8589 61.1957L63.6764 64.105L64.0812 64.5478ZM68.4554 62.6552C67.8327 63.2245 67.0052 63.568 66.1629 63.7688C65.3229 63.9691 64.4897 64.0224 63.8768 64.0264L63.8808 64.6264C64.5207 64.6222 65.4028 64.5669 66.302 64.3525C67.199 64.1386 68.1346 63.7614 68.8603 63.098L68.4554 62.6552ZM69.9315 57.9652C69.9562 58.4024 69.9646 59.2377 69.7737 60.1373C69.5823 61.039 69.1967 61.9775 68.4554 62.6552L68.8603 63.098C69.7286 62.3043 70.1551 61.2305 70.3606 60.2619C70.5666 59.2912 70.5569 58.398 70.5306 57.9315L69.9315 57.9652ZM57.0687 84.3634C47.6334 84.3634 40.0037 77.3518 40.0037 68.7892H39.4037C39.4037 77.7327 47.3539 84.9634 57.0687 84.9634V84.3634ZM74.1338 68.7892C74.1338 77.352 66.5041 84.3634 57.0687 84.3634V84.9634C66.7836 84.9634 74.7338 77.7329 74.7338 68.7892H74.1338ZM73.9919 68.6853C74.0962 68.6853 74.1338 68.7566 74.1338 68.7892H74.7338C74.7338 68.3756 74.3758 68.0853 73.9919 68.0853V68.6853ZM73.85 68.7892C73.85 68.7566 73.8876 68.6853 73.9919 68.6853V68.0853C73.608 68.0853 73.25 68.3756 73.25 68.7892H73.85ZM57.0687 84.1555C66.2963 84.1555 73.85 77.2873 73.85 68.7892H73.25C73.25 76.9063 66.0168 83.5555 57.0687 83.5555V84.1555ZM40.2874 68.7892C40.2874 77.2873 47.8411 84.1555 57.0687 84.1555V83.5555C48.1207 83.5555 40.8874 76.9063 40.8874 68.7892H40.2874ZM40.1455 68.6853C40.2499 68.6853 40.2874 68.7566 40.2874 68.7892H40.8874C40.8874 68.3756 40.5294 68.0853 40.1455 68.0853V68.6853ZM40.0037 68.7892C40.0037 68.7566 40.0412 68.6853 40.1455 68.6853V68.0853C39.7617 68.0853 39.4037 68.3756 39.4037 68.7892H40.0037ZM42.9828 68.7892C42.9828 75.9287 49.3274 81.6916 57.0689 81.6916V81.0916C49.607 81.0916 43.5828 75.5478 43.5828 68.7892H42.9828ZM43.7247 68.0852C43.3408 68.0852 42.9828 68.3756 42.9828 68.7892H43.5828C43.5828 68.7565 43.6204 68.6852 43.7247 68.6852V68.0852ZM44.4665 68.7892C44.4665 68.3756 44.1085 68.0852 43.7247 68.0852V68.6852C43.829 68.6852 43.8665 68.7565 43.8665 68.7892H44.4665ZM57.0689 80.2838C50.0943 80.2838 44.4665 75.1022 44.4665 68.7892H43.8665C43.8665 75.4831 49.8147 80.8838 57.0689 80.8838V80.2838ZM69.6713 68.7892C69.6713 75.1023 64.0436 80.2838 57.0689 80.2838V80.8838C64.3231 80.8838 70.2713 75.4832 70.2713 68.7892H69.6713ZM70.4131 68.0852C70.0293 68.0852 69.6713 68.3756 69.6713 68.7892H70.2713C70.2713 68.7565 70.3088 68.6852 70.4131 68.6852V68.0852ZM71.155 68.7892C71.155 68.3756 70.797 68.0852 70.4131 68.0852V68.6852C70.5175 68.6852 70.555 68.7565 70.555 68.7892H71.155ZM57.0689 81.6916C64.8104 81.6916 71.155 75.9287 71.155 68.7892H70.555C70.555 75.5478 64.5309 81.0916 57.0689 81.0916V81.6916ZM33.5463 37.386C31.1115 34.978 31.1756 30.9844 33.7239 28.4642L33.3019 28.0376C30.5318 30.7773 30.437 35.1547 33.1244 37.8126L33.5463 37.386ZM41.27 45.0249L33.5463 37.386L33.1244 37.8126L40.8481 45.4515L41.27 45.0249ZM41.2761 45.0309L41.2708 45.0256L40.8473 45.4507L40.8526 45.4559L41.2761 45.0309ZM47.5232 42.1027C46.213 43.3985 44.8313 44.3596 43.6656 44.8712C43.0818 45.1274 42.5669 45.2644 42.1509 45.2836C41.7346 45.3028 41.4511 45.204 41.2753 45.0301L40.8533 45.4567C41.1898 45.7894 41.6636 45.9067 42.1785 45.883C42.6936 45.8592 43.2836 45.6941 43.9068 45.4206C45.1551 44.8727 46.5961 43.8635 47.9451 42.5293L47.5232 42.1027ZM50.4831 35.9327C50.6583 36.106 50.7574 36.3843 50.738 36.7936C50.7187 37.2035 50.5807 37.7116 50.3217 38.2886C49.8048 39.4407 48.8334 40.8068 47.5232 42.1027L47.9451 42.5293C49.294 41.1952 50.3148 39.7697 50.8692 38.5343C51.1459 37.9175 51.3133 37.333 51.3374 36.8219C51.3615 36.3103 51.2421 35.8395 50.905 35.5061L50.4831 35.9327ZM42.7542 28.2886L50.4831 35.9327L50.905 35.5061L43.1761 27.862L42.7542 28.2886ZM33.7239 28.4642C36.2737 25.9424 40.3173 25.8785 42.7542 28.2886L43.1761 27.862C40.4907 25.2062 36.0705 25.2994 33.3019 28.0376L33.7239 28.4642ZM42.1122 28.9236L48.9151 35.6518L49.337 35.2252L42.5341 28.497L42.1122 28.9236ZM34.3422 29.0757C36.5374 26.9046 40.0168 26.8512 42.1122 28.9236L42.5341 28.497C40.1902 26.1788 36.3343 26.2616 33.9203 28.6491L34.3422 29.0757ZM34.1883 36.7511C32.095 34.6808 32.1485 31.2453 34.3422 29.0757L33.9203 28.6491C31.5047 31.0382 31.4204 34.8575 33.7664 37.1777L34.1883 36.7511ZM40.9912 43.4793L34.1883 36.7511L33.7664 37.1777L40.5693 43.9059L40.9912 43.4793ZM43.8133 38.4335C42.011 40.216 40.78 42.1769 40.4862 43.6333L41.0743 43.7519C41.3341 42.4643 42.47 40.606 44.2352 38.8601L43.8133 38.4335ZM49.068 35.1442C47.5978 35.4342 45.6159 36.6507 43.8133 38.4335L44.2352 38.8601C46.0001 37.1147 47.8799 35.9901 49.1841 35.7328L49.068 35.1442ZM50.4135 36.8765C50.4301 36.524 50.344 36.3118 50.2172 36.1864L49.7953 36.613C49.7827 36.6006 49.7881 36.5986 49.7968 36.6263C49.8064 36.6571 49.82 36.7243 49.8142 36.8482L50.4135 36.8765ZM50.0299 38.2401C50.2753 37.6932 50.3967 37.2318 50.4135 36.8765L49.8142 36.8482C49.8022 37.1023 49.7101 37.4873 49.4825 37.9945L50.0299 38.2401ZM47.3268 41.9178C48.6054 40.6532 49.5397 39.3326 50.0299 38.2401L49.4825 37.9945C49.0297 39.0035 48.1448 40.2648 46.9049 41.4912L47.3268 41.9178ZM43.6094 44.5906C44.7131 44.1061 46.0481 43.1824 47.3268 41.9178L46.9049 41.4912C45.665 42.7175 44.3893 43.593 43.3683 44.0411L43.6094 44.5906ZM42.2338 44.9692C42.5913 44.9527 43.0568 44.8331 43.6094 44.5906L43.3683 44.0411C42.8551 44.2664 42.4646 44.3579 42.2061 44.3699L42.2338 44.9692ZM41.5412 44.7764C41.6674 44.9012 41.8798 44.9856 42.2338 44.9692L42.2061 44.3699C41.9552 44.3815 41.931 44.318 41.9631 44.3498L41.5412 44.7764ZM41.3449 44.0863C41.3283 44.4388 41.4144 44.651 41.5412 44.7764L41.9631 44.3498C41.9757 44.3623 41.9703 44.3642 41.9616 44.3365C41.9519 44.3058 41.9384 44.2385 41.9442 44.1146L41.3449 44.0863ZM41.7285 42.7227C41.4831 43.2696 41.3616 43.7311 41.3449 44.0863L41.9442 44.1146C41.9562 43.8606 42.0483 43.4755 42.2759 42.9683L41.7285 42.7227ZM44.4316 39.0451C43.153 40.3097 42.2187 41.6303 41.7285 42.7227L42.2759 42.9683C42.7286 41.9593 43.6135 40.698 44.8535 39.4717L44.4316 39.0451ZM48.149 36.3723C47.0453 36.8567 45.7103 37.7804 44.4316 39.0451L44.8535 39.4717C46.0934 38.2454 47.369 37.3699 48.3901 36.9217L48.149 36.3723ZM49.5246 35.9936C49.167 36.0101 48.7016 36.1298 48.149 36.3723L48.3901 36.9217C48.9033 36.6965 49.2937 36.6049 49.5522 36.593L49.5246 35.9936ZM50.2172 36.1864C50.091 36.0616 49.8786 35.9773 49.5246 35.9936L49.5522 36.593C49.8032 36.5814 49.8274 36.6448 49.7953 36.613L50.2172 36.1864ZM59.5671 46.0392C60.6203 46.0392 61.463 45.1963 61.463 44.1701H60.863C60.863 44.8597 60.2942 45.4392 59.5671 45.4392V46.0392ZM57.6713 44.1701C57.6713 45.1963 58.514 46.0392 59.5671 46.0392V45.4392C58.8401 45.4392 58.2713 44.8597 58.2713 44.1701H57.6713ZM59.5671 42.301C58.514 42.301 57.6713 43.1438 57.6713 44.1701H58.2713C58.2713 43.4805 58.8401 42.901 59.5671 42.901V42.301ZM61.463 44.1701C61.463 43.1438 60.6203 42.301 59.5671 42.301V42.901C60.2942 42.901 60.863 43.4805 60.863 44.1701H61.463ZM59.5671 46.8752C61.0728 46.8752 62.299 45.6672 62.299 44.1701H61.699C61.699 45.3296 60.7477 46.2752 59.5671 46.2752V46.8752ZM56.8353 44.1701C56.8353 45.6672 58.0615 46.8752 59.5671 46.8752V46.2752C58.3866 46.2752 57.4353 45.3296 57.4353 44.1701H56.8353ZM59.5671 41.4649C58.0615 41.4649 56.8353 42.6729 56.8353 44.1701H57.4353C57.4353 43.0105 58.3866 42.0649 59.5671 42.0649V41.4649ZM62.299 44.1701C62.299 42.6729 61.0728 41.4649 59.5671 41.4649V42.0649C60.7477 42.0649 61.699 43.0105 61.699 44.1701H62.299ZM53.7953 48.5009C53.7953 48.9251 53.444 49.289 52.9859 49.289V49.889C53.7706 49.889 54.3953 49.2613 54.3953 48.5009H53.7953ZM52.9859 47.7128C53.444 47.7128 53.7953 48.0768 53.7953 48.5009H54.3953C54.3953 47.7406 53.7706 47.1128 52.9859 47.1128V47.7128ZM52.1764 48.5009C52.1764 48.0768 52.5277 47.7128 52.9859 47.7128V47.1128C52.2011 47.1128 51.5764 47.7406 51.5764 48.5009H52.1764ZM52.9859 49.289C52.5277 49.289 52.1764 48.9251 52.1764 48.5009H51.5764C51.5764 49.2613 52.2011 49.889 52.9859 49.889V49.289ZM54.6314 48.5009C54.6314 49.3948 53.8978 50.1251 52.9859 50.1251V50.7251C54.2229 50.7251 55.2314 49.7324 55.2314 48.5009H54.6314ZM52.9859 46.8768C53.8978 46.8768 54.6314 47.607 54.6314 48.5009H55.2314C55.2314 47.2694 54.2229 46.2768 52.9859 46.2768V46.8768ZM51.3404 48.5009C51.3404 47.607 52.0739 46.8768 52.9859 46.8768V46.2768C51.7488 46.2768 50.7404 47.2694 50.7404 48.5009H51.3404ZM52.9859 50.1251C52.0739 50.1251 51.3404 49.3948 51.3404 48.5009H50.7404C50.7404 49.7324 51.7488 50.7251 52.9859 50.7251V50.1251ZM58.1164 56.8253C56.8297 56.8253 55.7646 55.7375 55.7646 54.3786H55.1646C55.1646 56.0488 56.4786 57.4253 58.1164 57.4253V56.8253ZM60.4681 54.3786C60.4681 55.7375 59.403 56.8253 58.1164 56.8253V57.4253C59.7541 57.4253 61.0681 56.0488 61.0681 54.3786H60.4681ZM58.1164 51.9319C59.403 51.9319 60.4681 53.0197 60.4681 54.3786H61.0681C61.0681 52.7084 59.7541 51.3319 58.1164 51.3319V51.9319ZM55.7646 54.3786C55.7646 53.0197 56.8297 51.9319 58.1164 51.9319V51.3319C56.4786 51.3319 55.1646 52.7084 55.1646 54.3786H55.7646ZM58.1164 52.1397C56.9087 52.1397 55.9446 53.1538 55.9446 54.3786H56.5446C56.5446 53.4651 57.2598 52.7397 58.1164 52.7397V52.1397ZM60.2882 54.3786C60.2882 53.1538 59.3241 52.1397 58.1164 52.1397V52.7397C58.973 52.7397 59.6882 53.4651 59.6882 54.3786H60.2882ZM58.1164 56.6174C59.3241 56.6174 60.2882 55.6034 60.2882 54.3786H59.6882C59.6882 55.2921 58.973 56.0174 58.1164 56.0174V56.6174ZM55.9446 54.3786C55.9446 55.6034 56.9087 56.6174 58.1164 56.6174V56.0174C57.2598 56.0174 56.5446 55.2921 56.5446 54.3786H55.9446Z" fill="white"></path>
</g>
<defs>
<clipPath id="icon_dose">
<rect width="108" height="108" fill="white" transform="translate(0.762207)"></rect>
</clipPath>
</defs>
</svg>