<svg width="109" height="108" fill="none" xmlns="http://www.w3.org/2000/svg"><path d="M62.217 21.728c7.594 2.614 15.495 3.645 21.933 8.446 7.564 5.64 15.222 12.058 17.756 21.147 2.729 9.79 3.975 22.784-3.633 29.524-7.991 7.079-20.685-.418-31.214 1.345-6.488 1.086-11.41 7.254-17.978 6.89-7.04-.388-12.664-5.125-18.612-8.912-8.224-5.236-21.453-7.679-22.648-17.355-1.195-9.673 13.067-13.78 17.748-22.329 4.728-8.636.628-22.755 9.392-27.241 8.683-4.444 18.033 5.31 27.256 8.485z" fill="#E0E9F4"/><path d="M73.811 29.84c7.607 5.582 20.215 3.424 25.109 11.491 4.97 8.194 2.795 19.284-1.14 28.022-3.657 8.116-12.022 12.39-19.345 17.452-6.871 4.75-13.633 9.39-21.828 11.008-9.478 1.87-20.1 4.058-28.251-1.127-8.208-5.22-9.48-16.236-13.187-25.229-3.928-9.53-11.892-18.854-9.074-28.769 2.82-9.92 14.494-13.678 22.856-19.714 8.008-5.781 15.103-16.23 24.866-14.736C63.759 9.76 65.702 23.89 73.811 29.84z" fill="#3CA582"/><path fill-rule="evenodd" clip-rule="evenodd" d="M44.724 37.794c2.327.011 3.245-2.552 3.281-2.66a.283.283 0 00.003-.175c-.031-.11-.84-2.68-3.167-2.688a5.653 5.653 0 00-1.895.343c.409-.518.73-1.101.949-1.726.767-2.26-1.316-3.903-1.404-3.97a.262.262 0 00-.163-.056c-.111 0-2.764.036-3.535 2.31a6.003 6.003 0 00-.297 1.947 5.664 5.664 0 00-1.296-1.44c-1.85-1.409-4.052.14-4.143.209a.282.282 0 00-.105.14c-.036.107-.867 2.7.986 4.107.198.147.405.28.62.4-.872.164-2.288.67-2.817 2.232a6.007 6.007 0 00-.297 1.946 5.666 5.666 0 00-1.296-1.44c-1.85-1.408-4.052.14-4.144.209a.282.282 0 00-.104.14c-.036.108-.868 2.7.986 4.107a5.473 5.473 0 001.712.859 5.727 5.727 0 00-1.748.84c-1.902 1.387-1.2 3.946-1.159 4.096v.003a.25.25 0 00.098.141c.368.26.77.463 1.196.605 1.81.614 3.182-.164 4.292-1.761-.082 1.958.533 3.397 2.335 4.009a4.61 4.61 0 001.315.244.245.245 0 00.163-.053c.094-.067 2.247-1.688 1.576-3.958a5.822 5.822 0 00-.874-1.729c.6.23 1.236.353 1.88.363 1.918.01 2.878-1.73 3.177-2.403.367.109.747.171 1.13.186a.246.246 0 00.163-.053c.094-.068 2.247-1.689 1.576-3.958a5.821 5.821 0 00-.874-1.73 5.5 5.5 0 001.88.364zm-3.813 4.628c.439.142.825.185.994.197.348-.288 1.792-1.614 1.297-3.286a5.995 5.995 0 00-1.55-2.455 10.391 10.391 0 01-1.463-1.015l.804 2.741a.283.283 0 01-.05.287.27.27 0 01-.273.086.267.267 0 01-.193-.208l-.284-.96c-.562-1.899-.585-1.979-.607-1.979h-.003c-.002.001-.005.002-.008 0-.51 1.305-.862 2.88-.638 4.275 1.245.55 1.82 1.888 1.974 2.317zm-2.556-2.501a6.917 6.917 0 01-.026-1.004 6.392 6.392 0 01-.8.956c.087-.005.173-.007.26-.008.2.001.389.02.566.056zm-1.992.139a2.65 2.65 0 00.308-.193 6.178 6.178 0 001.842-2.33c.121-.59.29-1.169.505-1.732l-2.013 1.466a3.09 3.09 0 01-.162 1.212 5.966 5.966 0 01-.95 1.725 5.68 5.68 0 01.47-.148zm.54-3.385l1.011-.734c.907-.658.966-.7.96-.72l-.003-.004a.019.019 0 01-.003-.007 9.341 9.341 0 00-2.593.189c.25.344.494.776.629 1.276zm5.326-9.253c.334.289 1.723 1.623 1.155 3.296-.513 1.513-1.877 2.802-3.196 3.66a.022.022 0 00-.01-.005l-.004-.002c-.018-.012.009-.091.36-1.123l.001-.001.62-1.823a.273.273 0 00-.166-.349.273.273 0 00-.343.176l-.928 2.733a10.909 10.909 0 00-.582-1.692 6.255 6.255 0 01.17-2.957c.566-1.669 2.481-1.884 2.923-1.913zm-7.964 6.268c-1.364-1.048-.946-2.968-.834-3.406.367-.244 2.068-1.203 3.44-.161 1.242.945 1.995 2.645 2.36 4.184-.003.002-.004.004-.005.006l-.003.004c-.014.01-.07-.032-.749-.549a547.04 547.04 0 00-1.67-1.27.268.268 0 00-.37.065.28.28 0 00.043.38l2.239 1.701c-.59-.026-1.181 0-1.768.076a5.789 5.789 0 01-2.683-1.03zm5.3 1.582a.273.273 0 01-.165-.349.273.273 0 01.344-.176c.14.048.215.204.166.349a.273.273 0 01-.344.176zm.839.039v-.005c.006-.02.077-.019 1.024-.013l2.004.01a.28.28 0 00.265-.276.268.268 0 00-.254-.277l-2.809-.022c.497-.335.967-.71 1.405-1.124a5.983 5.983 0 012.795-.792c1.707-.005 2.478 1.8 2.631 2.22-.171.422-1.004 2.207-2.734 2.197-1.552.008-3.139-.893-4.328-1.91v-.008zm-4.072 3.001c.568-1.673-.821-3.007-1.155-3.296-.442.029-2.357.245-2.923 1.913a6.255 6.255 0 00-.17 2.957c.24.546.434 1.112.582 1.692l.927-2.732a.273.273 0 01.344-.176.273.273 0 01.166.349l-.62 1.823c-.352 1.032-.38 1.111-.362 1.123l.003.002h.003l.008.005c1.32-.857 2.684-2.146 3.197-3.66zm-9.953-.434c-.112.439-.53 2.359.834 3.406a5.788 5.788 0 002.683 1.03 10.24 10.24 0 011.768-.075l-2.24-1.702a.28.28 0 01-.043-.38.268.268 0 01.37-.064c.785.594 1.314.997 1.67 1.27h.001c.679.516.735.56.748.548.001 0 .002 0 .002-.002l.002-.002a.017.017 0 01.005-.005c-.365-1.54-1.118-3.24-2.36-4.185-1.372-1.041-3.073-.083-3.44.161zm-.192 9.396c.37.242 2.023 1.215 3.432.187a6.176 6.176 0 001.842-2.329c.12-.59.29-1.17.505-1.732l-2.313 1.683a.264.264 0 01-.357-.073.282.282 0 01.047-.37c.67-.489 1.16-.845 1.519-1.104.907-.658.966-.702.96-.72a.017.017 0 00-.003-.004.018.018 0 01-.003-.007c-1.545-.097-3.391.151-4.659 1.072-1.41 1.025-1.07 2.956-.97 3.397zm6.16-4.757a.273.273 0 00.167.35.275.275 0 00.344-.177.273.273 0 00-.166-.348.273.273 0 00-.344.175zm2.506 7.697c.348-.289 1.792-1.615 1.296-3.286a5.995 5.995 0 00-1.548-2.456 10.405 10.405 0 01-1.464-1.014l.804 2.74a.283.283 0 01-.05.287.27.27 0 01-.273.086.267.267 0 01-.193-.208l-.284-.96c-.562-1.898-.586-1.979-.608-1.978h-.01c-.581 1.487-.958 3.328-.508 4.849.492 1.673 2.397 1.907 2.838 1.94zm-1.502-7.31v.009c1.189 1.018 2.776 1.919 4.328 1.91 1.73.01 2.563-1.774 2.734-2.196-.153-.42-.924-2.226-2.631-2.22-.977.028-1.937.3-2.796.792a10.97 10.97 0 01-1.404 1.123l2.809.023a.268.268 0 01.254.276.28.28 0 01-.265.276 871.98 871.98 0 01-2.004-.01c-.947-.005-1.018-.006-1.024.013v.005zM61.963 31.48c1.958.868 4.65 2.256 5.432 4.283.668 1.733-.6 4.158-2.067 4.828.051 1.228-.097 2.735-.606 4.577.779-.957 1.713-1.83 2.827-2.498-.075-1.515.858-3.49 2.365-4.061 2.045-.775 4.884.289 6.841 1.157.203.09.294.326.203.526-.875 1.942-2.275 4.611-4.32 5.386-.864.327-1.896.185-2.803-.216-.976-.433-1.804-1.169-2.114-1.947-2.15 1.389-3.558 3.612-4.449 5.587-.09.2-.328.29-.53.2a.398.398 0 01-.204-.526c1.586-3.517 2.038-6.097 1.99-7.978-.692.069-1.498-.081-2.232-.406-.906-.402-1.701-1.072-2.03-1.927-.782-2.028.29-4.843 1.166-6.784a.404.404 0 01.531-.201zm4.68 4.568c.456 1.183-.39 2.998-1.388 3.67-.233-1.803-.901-2.883-1.278-3.493l-.043-.068c-.062-.1-.111-.179-.135-.24a.404.404 0 00-.52-.23.398.398 0 00-.232.516c.041.103.126.248.244.439.356.575.993 1.604 1.185 3.36-1.198.135-3.008-.653-3.459-1.822-.63-1.636.208-4.022.986-5.806 1.78.815 4.01 2.038 4.64 3.674zm5.609 6.102a8.521 8.521 0 00-3.825.953c.01.036.023.072.036.105.434 1.127 2.557 2.228 3.888 1.724 1.65-.625 2.883-2.835 3.705-4.6-1.799-.773-4.204-1.604-5.855-.979-1.008.383-1.736 1.752-1.84 2.883 1.122-.53 2.406-.857 3.876-.884.22-.004.44.169.445.39.004.22-.136.401-.358.406l-.072.002zm-22.706 3.74l-.238-.05-.05-.236c-.015-.068-.344-1.675.511-2.523.855-.847 2.476-.52 2.544-.506l.238.05.05.235c.014.068.344 1.675-.511 2.523-.477.473-1.193.58-1.744.58-.437 0-.77-.067-.8-.073zm2.364-2.63c-.46-.05-1.226-.04-1.614.344-.388.384-.397 1.144-.347 1.6.46.05 1.227.04 1.614-.344.388-.384.397-1.144.347-1.6zm5.614 2.131c-.038-.058-.951-1.425-2.16-1.425s-2.122 1.367-2.16 1.425l-.133.202.133.202c.038.058.951 1.426 2.16 1.426s2.122-1.368 2.16-1.426l.133-.202-.133-.202zm-2.16 1.09c-.548 0-1.096-.53-1.386-.888.29-.358.838-.888 1.386-.888.548 0 1.097.53 1.386.888-.29.358-.838.889-1.386.889zm-6.625 2.745l.238-.05.05-.236c.015-.068.344-1.675-.51-2.523-.856-.847-2.477-.52-2.545-.506l-.238.05-.05.235c-.014.068-.344 1.675.511 2.523.477.473 1.193.58 1.744.58.437 0 .77-.067.8-.073zm-2.364-2.63c.46-.05 1.227-.04 1.614.344.388.384.397 1.144.347 1.6-.46.05-1.227.04-1.614-.344-.388-.384-.397-1.144-.347-1.6zm.423 3.87l-.238.049-.05.236c-.014.068-.343 1.675.511 2.523.477.473 1.193.58 1.745.58.436 0 .77-.067.8-.074l.237-.05.05-.235c.015-.068.344-1.675-.51-2.523-.856-.847-2.476-.521-2.545-.507zm2.364 2.63c-.46.05-1.224.042-1.614-.345-.387-.384-.397-1.144-.347-1.6.46-.05 1.227-.04 1.614.343.388.385.397 1.145.347 1.602zM51.673 51l-.203.132-.204-.132c-.059-.038-1.438-.944-1.438-2.142 0-1.199 1.38-2.105 1.438-2.143l.204-.131.203.131c.059.038 1.438.944 1.438 2.143 0 1.198-1.38 2.104-1.438 2.142zm-.204-3.517c-.36.287-.895.831-.895 1.375 0 .543.535 1.087.896 1.374.36-.287.896-.83.896-1.374 0-.544-.535-1.087-.897-1.375zm1.703 4.373c-1.208 0-2.122 1.367-2.16 1.425l-.133.202.133.202c.038.058.952 1.426 2.16 1.426 1.209 0 2.122-1.368 2.16-1.426l.133-.202-.132-.202c-.039-.058-.952-1.425-2.16-1.425zm0 2.516c-.548 0-1.097-.532-1.387-.89.289-.357.836-.887 1.387-.887.549 0 1.097.531 1.387.889-.289.358-.835.888-1.387.888zm3.956-6.512l.238.05.05.235c.014.068.344 1.675-.511 2.523-.477.473-1.193.58-1.745.58-.436 0-.77-.067-.8-.073l-.237-.05-.05-.236c-.015-.068-.344-1.675.51-2.523.855-.847 2.476-.52 2.545-.506zm-2.365 2.63c.46.049 1.227.04 1.615-.344.387-.385.397-1.144.346-1.6-.46-.05-1.226-.041-1.613.343-.39.387-.399 1.145-.348 1.6zm22.721 22.49H28.162l4.546 7.267c.675 1.076 2.29 1.984 3.528 1.984h33.187c1.239 0 2.854-.908 3.528-1.984l4.533-7.266zm-50.32 0h-.206a1.268 1.268 0 01-1.272-1.26c0-.696.57-1.262 1.272-1.262h51.724c.702 0 1.272.566 1.272 1.261 0 .696-.57 1.262-1.272 1.262h-.2l-4.81 7.71c-.824 1.313-2.73 2.381-4.249 2.381H36.236c-1.519 0-3.424-1.068-4.248-2.38l-4.823-7.711zm47.706-.84H26.958a.422.422 0 01-.424-.42c0-.233.19-.421.424-.421h51.724c.234 0 .424.188.424.42 0 .233-.19.42-.424.42H74.87zM26.35 58.302a1.649 1.649 0 00-2.118 1.647c.042 1.133 1.166 1.922 2.236 1.57l3.767-1.238c.383.014.762.036 1.137.067l-1.438.537a.435.435 0 00-.25.568.45.45 0 00.574.261l1.718-.641-1.47 2.116c-.312.45-.96.433-1.284.022a.8.8 0 01-.117-.796.45.45 0 00-.248-.58.435.435 0 00-.574.237c-.632 1.58 1.24 2.997 2.575 2.02l.014-.01.076-.057c.163-.131.288-.311 1.274-1.737l1.165-1.682c.987.17 1.938.396 2.852.667l-2.521.622c-1.097.27-1.597 1.526-.997 2.498.54.874 1.677 1.06 2.436.506l.05-.037c.113-.085.207-.192 1.306-1.44l1.402-1.588c1.08.401 2.097.859 3.047 1.347l-2.643.257a1.652 1.652 0 00-1.347 2.322c.44 1.012 1.693 1.348 2.55.72l.012-.008c.032-.023.062-.048 1.227-1.03l1.7-1.434a31.234 31.234 0 014.933 3.578c.19.168.482.148.642-.048a.431.431 0 00-.046-.595 32.324 32.324 0 00-5.174-3.75l-.42-2.569a.452.452 0 00-.509-.374.433.433 0 00-.365.5l.204 1.244-1.79-1.92a.793.793 0 01.097-1.185.808.808 0 011.183.272.447.447 0 00.6.185c.783-.416-.644-2.003-2.049-1.333-.953.455-1.225 1.66-.6 2.504l.023.03c.044.06.095.114.65.71l.004.003.66.708a27.071 27.071 0 00-2.399-1.01l-1.175-3.73c-.343-1.086-1.63-1.551-2.563-.925-.932.628-.975 1.986-.085 2.705l1.512 1.22a25.447 25.447 0 00-2.314-.502l-1.596-3.592c-.463-1.043-1.794-1.358-2.646-.628-.853.73-.74 2.088.224 2.702l1.98 1.261c-.374-.032-.61-.042-.787-.05a5.6 5.6 0 01-.32-.02c-.305-.03-.603-.117-1.843-.479a538.55 538.55 0 00-2.142-.618zm12.071 6.016c-.897.087-.946 1.36-.084 1.57.25.062.504.004.698-.16l1.97-1.66-2.584.25zm-3.591-5.994l2.042 1.649-.786-2.493c-.272-.866-1.532-.697-1.56.186a.807.807 0 00.304.658zm-.885 4.43a.771.771 0 00-.538.468c-.325.816.755 1.512 1.346.843l1.705-1.93-2.513.619zm-1.805-3.88l-1.063-2.393a.812.812 0 00-.559-.465c-.863-.205-1.359.96-.59 1.449l2.212 1.408zm-6.676 1.696a.798.798 0 00.714.108l2.456-.807-2.512-.72c-.867-.248-1.39.904-.658 1.419zm41.74-7.199c-3.664 0-6.645 2.956-6.645 6.589 0 3.633 2.98 6.589 6.645 6.589 3.664 0 6.644-2.956 6.644-6.589 0-3.633-2.98-6.589-6.644-6.589zm0 12.544c-3.312 0-6.006-2.671-6.006-5.955 0-3.284 2.694-5.955 6.006-5.955 3.311 0 6.005 2.671 6.005 5.955 0 3.284-2.694 5.955-6.005 5.955zm-.305-6.946a.32.32 0 00.61 0l.82-2.612a1.15 1.15 0 00-.176-1.04 1.17 1.17 0 00-.95-.477 1.17 1.17 0 00-.949.476 1.15 1.15 0 00-.176 1.04l.82 2.613zm-.13-3.277a.536.536 0 01.435-.218.536.536 0 01.515.694l-.515 1.64-.516-1.64a.526.526 0 01.081-.476zm-.515 8.914c.225.303.571.476.95.476a1.17 1.17 0 001.126-1.517l-.82-2.612a.32.32 0 00-.611 0l-.82 2.612a1.15 1.15 0 00.175 1.041zm.435-.852l.515-1.64.515 1.64a.536.536 0 01-.515.694.536.536 0 01-.515-.694zm-2.932-.651a1.169 1.169 0 01-.263-2.31l2.691-.602a.321.321 0 01.347.151c.07.12.053.272-.041.374l-1.871 2.01a1.17 1.17 0 01-.863.377zm1.568-2.07l-1.69.378a.533.533 0 00.059 1.054.537.537 0 00.456-.169l1.175-1.262zm2.55-1.456a.32.32 0 00.348.151l2.691-.602a1.16 1.16 0 00.82-.671 1.168 1.168 0 00-.95-1.63 1.173 1.173 0 00-.996.368l-1.87 2.01a.315.315 0 00-.043.374zm2.383-1.954a.536.536 0 01.457-.17.534.534 0 01.059 1.055l-1.69.377 1.174-1.262zm.393 5.484c-.328 0-.636-.134-.863-.377l-1.87-2.01a.315.315 0 01-.043-.374c.07-.12.211-.18.348-.15l2.691.6c.37.084.669.328.82.672a1.169 1.169 0 01-1.084 1.638zm-1.568-2.07l1.175 1.263a.538.538 0 00.457.17.535.535 0 00.058-1.055l-1.69-.377zm-2.898-1.309a.324.324 0 00.347-.15.315.315 0 00-.041-.374l-1.871-2.01a1.173 1.173 0 00-.997-.37 1.169 1.169 0 00-.13 2.303l2.692.601zm-2.492-2.274a.536.536 0 01.456.169l1.176 1.263-1.69-.378a.533.533 0 01-.35-.79.535.535 0 01.409-.264z" fill="#fff"/><path d="M48.005 35.134l-.19-.064.19.064zm-3.28 2.66l-.004.2h.002l.001-.2zm3.283-2.835l-.193.054.002.006.19-.06zm-3.167-2.688l.001-.2h-.002l.001.2zm-1.895.343l-.157-.124-.438.553.663-.242-.068-.188zm.949-1.726l.189.066v-.002l-.19-.064zm-1.404-3.97l-.123.157.123-.158zm-.163-.056v.2h.001l-.001-.2zm-3.535 2.31l-.19-.064v.002l.19.062zm-.297 1.947l-.169.106.38.602-.01-.711-.2.003zm-1.296-1.44l.124-.157-.003-.002-.12.159zm-4.143.209l.115.163.005-.003-.12-.16zm-.105.14l.19.064-.19-.064zm.986 4.107l-.121.159.001.001.12-.16zm.62.4l.037.197.545-.103-.485-.269-.097.175zm-2.817 2.232l-.19-.065v.002l.19.063zm-.297 1.946l-.169.107.38.602-.01-.712-.2.003zm-1.296-1.44l.123-.157-.002-.002-.121.16zm-4.144.209l.116.163.004-.003-.12-.16zm-.104.14l.19.064-.19-.064zm.986 4.107l-.121.16h.001l.12-.16zm1.712.859l.055.192.662-.188-.66-.196-.057.192zm-1.748.84l-.116-.163-.002.001.117.162zm-1.159 4.096l.193-.053-.193.053zm0 .003l.195-.05-.001-.003-.193.053zm.098.141l.115-.163-.115.163zm1.196.605l.064-.19-.064.19zm4.292-1.761l.2.008.029-.687-.393.565.164.114zm2.335 4.009l.064-.19-.064.19zm1.315.244l.01-.2h-.002l-.008.2zm.163-.053l-.117-.162-.007.005.124.157zm1.576-3.958l.191-.056v-.003l-.191.06zm-.874-1.729l.071-.187-.639-.244.407.55.16-.119zm1.88.363l-.003.2h.002l.001-.2zm3.177-2.403l.057-.191-.168-.05-.072.16.183.081zm1.13.186l.01-.2h-.002l-.008.2zm.163-.053l-.117-.163-.007.006.124.157zm1.576-3.958l.192-.057-.001-.002-.191.06zm-.874-1.73l.071-.186-.638-.245.406.55.16-.118zm-.939 5.19l-.015.199.08.005.063-.05-.128-.155zm-.994-.198l-.188.068.034.092.093.03.061-.19zm2.29-3.089l.192-.057-.002-.006-.19.063zm-1.548-2.455l.138-.145-.018-.017-.02-.012-.1.174zm-1.464-1.015l.128-.154-.503-.416.184.627.191-.057zm.804 2.741l-.192.057.003.008.002.007.187-.072zm-.05.287l.15.13-.15-.13zm-.273.086l.051-.194-.05.194zm-.193-.208l.196-.04-.002-.008-.002-.01-.192.058zm-.284-.96l.192-.057-.192.056zm0 0l-.192.056.192-.056zm-.607-1.979l-.004-.2h-.01l-.012.002.026.198zm-.003 0l-.026-.198-.01.002.036.197zm-.008 0l.064-.189-.18-.061-.07.178.186.073zm-.638 4.275l-.197.032.017.107.1.044.08-.183zm-.608-1.188l.2.009.029-.688-.393.565.164.114zm.026 1.004l-.038.196.266.053-.029-.27-.199.021zm-.826-.048l-.139-.144-.385.373.535-.03-.01-.199zm.26-.008v-.2h-.001l.001.2zm-1.118.002l.118.162.005-.004-.123-.158zm-.309.193l.052.193.022-.006.02-.01-.094-.177zm2.151-2.522l.182.083.01-.02.004-.023-.196-.04zm.505-1.733l.187.072.241-.63-.545.397.117.161zm-2.013 1.466l-.118-.162-.09.065.008.11.2-.013zm-.162 1.212l.188.066.001-.002-.19-.064zm-.95 1.725l-.156-.124-.438.553.663-.241-.068-.188zm2.021-4.267l.118.162-.118-.162zm-1.01.734l-.193.052.075.28.235-.17-.117-.162zm1.01-.734l.118.162.002-.002-.12-.16zm0 0l-.117-.162-.003.002.12.16zm.96-.72l-.188.07.187-.07zm-.003-.004l.165-.113-.165.113zm-.003-.007l.194-.046-.034-.144-.148-.01-.012.2zm-2.593.189l-.044-.195-.296.067.179.246.161-.118zm7.11-4.681l.189.064-.19-.064zm-1.156-3.296l.13-.151-.061-.054-.082.005.013.2zm-2.041 6.955l-.13.152.113.097.126-.081-.11-.168zm-.01-.004l.056-.192-.055.192zm-.004-.002l.11-.167-.11.167zm.36-1.123l-.188-.067v.002l.189.065zm0 0l.19.066v-.004l-.19-.062zm0 0l-.188-.066-.001.003.19.063zm.001-.001l.19.065-.19-.065zm.62-1.823l.19.064-.19-.064zm-.166-.349l-.064.19.064-.19zm-.343.176l.189.064-.19-.064zm-.928 2.733l-.193.05.166.653.217-.639-.19-.064zm-.582-1.692l-.197.036.004.023.01.021.183-.08zm.17-2.957l-.19-.065-.001.006.191.059zm-5.875.949l-.11-.167-.065.043-.019.074.194.05zm.834 3.406l-.122.159.006.004.116-.163zm2.605-3.567l.122-.16-.121.16zm2.361 4.184l.113.165.113-.078-.031-.133-.195.046zm-.005.006l.168.108-.168-.108zm-.003.004l-.123-.158.123.158zm-.749-.549l-.12.159.12-.159zm-1.67-1.27l.12-.16-.005-.004-.115.164zm-.37.065l-.162-.119.161.119zm.043.38l-.128.154.007.005.12-.16zm2.239 1.701l-.009.2.64.028-.51-.387-.121.16zm-1.768.076l-.023.199.024.003.025-.004-.026-.198zm2.452.203l-.19-.064.19.064zm.166.349l-.064.19.064-.19zm.178-.525l.064-.19-.064.19zm.166.349l.19.064-.19-.064zm.494.212l-.197-.036-.003.014v.014l.2.008zm0 .003l-.2-.007v.005l.2.002zm0-.005l-.192-.056-.003.01-.002.01.197.036zm1.024-.013l-.001.2v-.2zm0 0l.001-.2h-.001v.2zm2.004.01v.2h.007l-.007-.2zm.265-.276l-.2-.004.2.004zm-.254-.277l.008-.2h-.006l-.002.2zm-2.809-.022l-.111-.166-.536.36.646.006.001-.2zm1.405-1.124l-.1-.173-.02.011-.018.017.138.145zm2.795-.792v-.2h-.006l.006.2zm2.631 2.22l.186.076.029-.071-.027-.073-.188.069zm-2.734 2.197l.001-.2h-.002l.001.2zm-4.328-1.91l-.19-.065-.043.129.103.088.13-.152zm-5.226-.303l.13-.151-.062-.054-.081.006.013.2zm1.155 3.296l.19.065-.19-.065zm-4.078-1.383l-.19-.064-.001.006.191.058zm-.17 2.957l-.197.037.004.023.01.02.183-.08zm.582 1.692l-.194.05.167.653.217-.638-.19-.065zm.927-2.732l.19.064-.19-.064zm.344-.176l.065-.19-.065.19zm.166.349l.19.064-.19-.064zm-.62 1.823l-.19-.065.19.065zm-.362 1.123l.11-.167-.11.167zm.003.002l.064-.19-.064.19zm.003 0l-.056.193.056-.193zm.008.005l-.13.151.114.098.125-.082-.108-.167zm-5.922-.688l-.122.16.006.003.116-.163zm-.834-3.406l-.11-.166-.065.042-.019.075.194.049zm3.517 4.436l-.023.199.024.003.025-.003-.026-.199zm1.768-.075l-.01.2.64.027-.51-.387-.12.16zm-2.24-1.702l-.127.155.006.004.121-.159zm-.043-.38l.161.119-.16-.119zm.37-.064l.121-.16-.006-.004-.115.163zm1.67 1.27l-.12.158.12-.159zm.001 0l.121-.16-.12.16zm.748.548l-.123-.157.123.157zm.002-.002l-.162-.117.162.117zm.002-.002l.168.108-.169-.108zm.005-.005l.113.164.113-.077-.032-.134-.194.047zm-2.36-4.185l.12-.16-.12.16zm-.2 9.744l.118.162.004-.003-.122-.159zm-3.432-.187l-.195.044.018.079.067.044.11-.167zm5.274-2.142l.182.083.01-.02.004-.023-.196-.04zm.505-1.732l.187.071.24-.63-.545.397.118.162zm-2.313 1.683l.104.17.007-.003.006-.005-.117-.162zm-.31-.444l-.118-.162-.007.006-.007.006.132.15zm1.519-1.103l-.117-.162.117.162zm.96-.72l-.188.07.187-.07zm-.003-.004l.165-.114-.165.114zm-.003-.007l.194-.046-.034-.145-.148-.009-.012.2zm-4.659 1.072l.118.162-.118-.162zm5.357-1.01l.064-.19-.064.19zm-.166-.35l-.19-.064.19.064zm.51.173l-.19-.064.19.064zm-.166-.348l-.065.189.065-.19zm3.457 4.586l.192-.057-.002-.006-.19.063zm-1.296 3.286l-.015.199.08.006.062-.051-.127-.154zm-.252-5.742l.138-.145-.018-.017-.02-.012-.1.174zm-1.464-1.014l.128-.154-.504-.417.184.627.192-.056zm.804 2.74l-.192.057.002.008.003.008.187-.072zm-.05.287l-.152-.131.151.13zm-.273.086l-.05.194.05-.194zm-.193-.208l.196-.039-.002-.009-.002-.009-.192.057zm-.284-.96l-.194.049.002.008.192-.057zm0 0l.194-.049-.002-.008-.192.057zm-.608-1.978l-.003-.2.003.2zm-.002 0l-.036-.197.036.197zm-.008 0l.064-.19-.18-.06-.07.177.186.073zm-.508 4.849l.192-.056-.192.056zm1.336-5.369l-.2-.002.2.002zm0 0l-.2-.003.2.002zm0 .008l-.19-.064-.044.128.103.088.13-.152zm4.328 1.91l.001-.2h-.002v.2zm2.734-2.196l.186.075.029-.07-.027-.073-.188.068zm-2.631-2.22l-.001-.2h-.005l.006.2zm-2.796.792l-.099-.174-.02.012-.018.016.137.146zm-1.404 1.123l-.112-.166-.535.36.646.006.001-.2zm2.809.023l.008-.2h-.007l-.001.2zm.254.276l.2.005-.2-.005zm-.265.276v.2h.007l-.007-.2zm-2.004-.01v-.2.2zm0 0l-.002.2h.002v-.2zm-1.024.013l.192.057-.192-.057zm34.043-7.137l-.187.072.187-.072zm-5.432-4.283l-.08.183.08-.183zm3.365 9.111l-.083-.182-.122.056.006.134.2-.008zm-.606 4.577l-.193-.053.348.18-.155-.127zm2.827-2.498l.103.172.103-.062-.006-.12-.2.01zm2.365-4.061l.071.187-.07-.187zm6.841 1.157l-.081.182.081-.182zm.203.526l-.182-.082.182.082zm-4.32 5.386l.072.188-.071-.188zm-2.803-.216l.082-.183-.082.183zm-2.114-1.947l.185-.074-.09-.226-.204.132.109.168zm-4.449 5.587l-.182-.082.182.082zm-.53.2l-.082.184.081-.183zm-.204-.526l.183.082-.183-.082zm1.99-7.978l.2-.005-.005-.216-.215.022.02.199zm-2.232-.406l-.08.183.08-.183zm-2.03-1.927l-.188.071.187-.071zm1.166-6.784l-.183-.082.183.082zm3.823 8.038l-.198.026.041.32.269-.18-.112-.166zm1.388-3.67l-.187.071.187-.072zm-2.666.176l-.171.105.17-.105zm0 0l.17-.105-.001-.001-.17.105zm-.043-.068l.17-.105-.17.105zm-.135-.24l-.187.073v.001l.187-.073zm-.52-.23l-.07-.186.07.187zm-.232.516l-.186.071v.001l.187-.072zm.244.439l-.17.105.17-.105zm1.185 3.36l.022.2.198-.023-.022-.198-.198.022zm-3.459-1.822l.187-.072-.187.072zm.986-5.806l.084-.182-.186-.084-.08.186.182.08zm6.424 10.73l-.092-.178-.147.076.048.16.191-.059zm3.825-.954l.004.2h.001l-.005-.2zm-3.789 1.059l-.187.071.187-.072zm3.888 1.723l-.071-.187.07.187zm3.705-4.6l.181.084.087-.187-.19-.081-.078.183zm-5.855-.979l.07.187-.07-.187zm-1.84 2.883l-.2-.018-.032.349.317-.15-.085-.18zm3.876-.884l-.004-.2.004.2zm.445.39l-.2.004.2-.004zm-.358.406l-.004-.2h-.001l.005.2zM49.308 45.84l-.196.042.027.127.128.027.04-.196zm.238.05l.04-.196-.04.196zm-.288-.286l.195-.041-.195.041zm.511-2.523l.14.142-.14-.142zm2.544-.506l-.04.195.04-.195zm.238.05l.196-.042-.027-.128-.128-.027-.041.196zm.05.235l.196-.041-.196.041zm-.511 2.523l-.14-.142.14.142zm-1.794-1.78l-.14-.141.14.142zm1.614-.343l.199-.022-.018-.16-.16-.017-.021.199zm-1.96 1.944l-.2.022.018.16.16.017.021-.199zm1.613-.344l-.14-.142.14.142zm5.961.531l.167-.11-.167.11zm-4.32 0l-.168-.11.167.11zm-.133.202l-.167-.11-.073.11.073.11.167-.11zm.133.202l-.168.11.167-.11zm4.32 0l.167.11-.167-.11zm.133-.202l.167.11.073-.11-.073-.11-.167.11zm-3.68 0l-.155-.126-.102.126.102.126.156-.126zm2.773 0l.156.126.102-.126-.102-.126-.156.126zm-7.773 3.583l.041.196.128-.027.027-.127-.196-.042zm-.238.05l-.04-.196.04.196zm.288-.286l.196.042-.196-.042zm-.51-2.523l-.142.142.141-.142zm-2.545-.506l.04.195-.04-.195zm-.238.05l-.04-.197-.129.027-.027.128.196.041zm-.05.235l-.196-.042.196.042zm.511 2.523l.141-.142-.14.142zm1.744.58v-.2.2zm.05-2.36l-.14.143.14-.142zm-1.614-.343l-.021-.199-.16.017-.018.16.2.022zm1.96 1.944l.022.199.16-.017.018-.16-.2-.022zm-1.613-.344l.14-.142-.14.142zm-.162 2.319l-.04-.196-.128.027-.027.127.195.042zm.238-.05l.04.196h.001l-.04-.196zm-.288.286l-.195-.042.195.042zm.511 2.523l.141-.143-.14.142zm2.544.506l-.04-.195.04.195zm.238-.05l.041.197.128-.027.027-.128-.196-.041zm.05-.235l-.195-.042.195.042zm-.51-2.523l.14-.142-.14.142zm-1.795 1.779l-.14.142.14-.142zm1.614.345l.022.198.16-.017.017-.16-.199-.021zm-1.96-1.945l-.022-.2-.16.018-.017.16.198.022zm1.613.343l.141-.142-.14.142zm2.655-.362l-.109.168.109.07.108-.07-.108-.168zm.203-.132l.109.168-.109-.168zm-.407 0l-.109.168.109-.168zm0-4.285l-.109-.168.109.168zm.204-.131l.108-.168-.108-.07-.109.07.109.168zm.203.131l.109-.167-.109.167zm-.204.768l.125-.156-.124-.1-.125.1.124.156zm0 2.75l-.124.156.125.1.124-.1-.124-.157zm-.457 3.048l-.167-.11.167.11zm-.133.202l-.167-.11-.072.11.072.11.167-.11zm.133.202l-.167.11.167-.11zm4.32 0l.168.11-.167-.11zm.133-.202l.167.11.073-.11-.072-.11-.168.11zm-.132-.202l-.167.11.167-.11zm-3.548.202l-.155-.126-.102.126.102.126.155-.126zm2.774 0l.156.126.101-.125-.102-.126-.155.126zm2.807-5.574l.196-.041-.028-.128-.127-.026-.041.195zm-.238-.05l.04-.195-.04.196zm.288.286l.196-.041-.196.041zm-.511 2.523l-.141-.142.14.142zm-2.544.507l.04-.196-.04.196zm-.238-.05l-.196.042.027.127.128.027.04-.196zm-.05-.236l.195-.041-.195.041zm.51-2.523l.142.142-.141-.142zm1.795 1.78l-.141-.143.14.142zm-1.615.343l-.198.023.017.159.16.017.021-.199zm1.962-1.944l.198-.022-.017-.16-.16-.017-.022.2zm-1.614.344l-.141-.142.14.142zM77.484 72.98l.17.106.19-.306h-.36v.2zm-49.322 0v-.2h-.36l.19.306.17-.106zm4.546 7.266l-.17.106.17-.106zm40.243 0l.17.106-.17-.106zM27.165 72.98l.17-.106-.06-.094h-.11v.2zm51.317 0v-.2h-.111l-.059.094.17.106zm-4.81 7.71l.17.106-.17-.107zm-41.684 0l-.17.106.17-.106zm-7.757-20.74l-.2.007.2-.007zm2.118-1.647l.055-.193-.055.193zm.118 3.218l.063.19-.063-.19zm3.767-1.239l.007-.2h-.036l-.034.01.063.19zm1.137.067l.07.188-.054-.387-.017.2zm-1.438.537l-.07-.188.07.188zm-.25.568l.187-.073-.187.073zm.574.261l.07.188-.07-.188zm1.718-.641l.165.114.364-.525-.599.223.07.188zm-1.47 2.116l.165.114-.164-.114zm-1.284.022l.157-.124-.157.123zm-.117-.796l.186.074-.186-.074zm-.248-.58l.077-.184-.077.185zm-.574.237l.186.075-.186-.075zm2.575 2.02l-.118-.161.118.16zm.014-.01l-.118-.162.117.162zm.076-.057l.125.156-.125-.156zm1.274-1.737l.164.114-.164-.114zm1.165-1.682l.034-.197-.126-.022-.072.105.164.114zm2.852.667l.048.194.715-.176-.706-.21-.057.192zm-2.521.622l.047.194-.047-.194zm-.997 2.498l.17-.105-.17.105zm2.436.506l.118.162-.118-.162zm.05-.037l-.12-.16.12.16zm1.306-1.44l-.15-.132.15.133zm0 0l.15.133-.15-.132zm1.402-1.588l.07-.188-.129-.048-.09.103.15.133zm3.047 1.347l.02.2.677-.066-.605-.311-.092.178zm-2.643.257l.02.199-.02-.2zm-1.347 2.322l-.184.08.184-.08zm2.55.72l-.117-.162-.001.001.118.162zm.012-.008l-.116-.163.116.163zm1.227-1.03l-.129-.154.13.153zm1.7-1.434l.102-.173-.122-.072-.108.092.129.152zm4.933 3.578l-.133.15.133-.15zm.642-.048l.155.126-.155-.126zm-.046-.595l.133-.15-.133.15zm-5.174-3.75l-.197.033.015.092.08.048.102-.173zm-.42-2.569l.197-.032-.198.032zm-.509-.374l-.029-.198.03.198zm-.365.5l.198-.032-.198.033zm.204 1.244l-.147.136.45.484-.106-.652-.197.032zm-1.79-1.92l.147-.137-.147.136zm.097-1.185l-.118-.162.118.162zm1.183.272l.175-.096-.175.096zm.6.185l.095.177-.094-.177zm-2.049-1.333l.086.18-.086-.18zm-.6 2.504l.161-.119-.16.12zm.023.03l-.161.12.16-.12zm.65.71l-.146.136.002.002.145-.138zm0 0l.147-.137-.002-.002-.144.139zm.004.003l.146-.137-.146.137zm.66.708l-.087.18.233-.317-.147.136zm-2.399-1.01l-.19.06.029.095.092.034.07-.188zm-1.175-3.73l-.191.06.19-.06zm-2.563-.925l-.111-.165.111.166zm-.085 2.705l.126-.156-.126.156zm1.512 1.22l-.052.194.177-.35-.125.156zm-2.314-.502l-.183.081.044.098.106.018.033-.197zm-1.596-3.592l.183-.08-.183.08zm-2.646-.628l.13.152-.13-.152zm.224 2.702l.108-.169-.108.169zm1.98 1.261l-.016.2.124-.369-.107.169zm-.787-.05l-.017.2h.008l.01-.2zm0 0l.017-.2h-.008l-.009.2zm-.32-.02l-.02.2.02-.2zm-1.843-.479l-.061.191.005.002.056-.193zm0 0l.06-.19-.005-.002-.055.192zm9.845 6.969l-.048.194.048-.194zm.084-1.57l.02.198-.02-.199zm.614 1.409l-.128-.153.128.153zm1.97-1.66l.129.153.49-.414-.639.062.02.199zm-4.133-4.095l-.126.155.516.417-.2-.632-.19.06zm-2.042-1.65l-.126.157.126-.156zm1.256-.843l.191-.06-.19.06zm-1.56.186l-.2-.006.2.006zm-1.12 5.556l.187.074-.186-.074zm.539-.468l-.048-.194.048.194zm.808 1.31l.15.133-.15-.132zm1.705-1.93l.15.133.424-.48-.622.153.048.194zm-5.381-5.653l-.183.08.183-.08zm1.063 2.392l-.108.169.56.356-.27-.606-.182.081zm-1.622-2.857l.046-.194-.046.194zm-.59 1.449l.107-.17-.108.17zm-3.75 3.213l.062.19-.062-.19zm-.714-.108l-.115.163.115-.163zm3.17-.699l.062.19.618-.203-.625-.18-.055.193zm-2.512-.72l.055-.192-.055.192zm40.776-.182l.191-.06-.19.06zm.61 0l-.19-.06.19.06zm.821-2.612l.191.06-.19-.06zm-.176-1.04l.16-.12-.16.12zm-1.899 0l-.16-.12.16.12zm-.176 1.04l-.19.06.19-.06zm.691-.665l.16.12-.16-.12zm.87 0l.16-.12-.16.12zm.08.476l.19.06-.19-.06zm-.515 1.64l-.191.06.19.608.191-.607-.19-.06zm-.516-1.64l.191-.06-.19.06zm-.434 8.438l.161-.12-.16.12zm1.9 0l-.16-.119.16.12zm.176-1.04l.19-.06-.19.06zm-.82-2.613l-.192.06.191-.06zm-.611 0l.19.06-.19-.06zm-.82 2.612l-.191-.06.19.06zm1.125-1.451l.19-.06-.19-.608-.19.608.19.06zm-.515 1.64l-.191-.06.19.06zm1.03 0l-.19.06.19-.06zm-.08.476l-.16-.119.16.12zm-.87 0l-.16.12.16-.12zm-3.146-1.135l-.022.2.022-.2zm-.89-.577l-.174.1.173-.1zm-.06-1.053l.183.08-.183-.08zm.82-.672l-.043-.195.044.195zm2.692-.602l-.043-.195.043.195zm.347.151l-.172.101.172-.1zm-.041.374l-.147-.137.147.137zm-1.871 2.01l-.147-.136.147.136zm-.985-1.315l.043.196-.043-.196zm1.69-.377l.146.136.44-.472-.63.14.044.196zm-2.066.685l.183.08-.183-.08zm.434.746l-.021.2.022-.2zm.457-.169l-.147-.136.147.136zm3.725-2.719l-.172.1.172-.1zm.348.151l.042.195h.001l-.043-.195zm2.691-.602l-.044-.195.044.196zm.82-.671l.184.08-.183-.08zm-.058-1.053l-.173.1.173-.1zm-.89-.578l-.023.199.022-.199zm-.998.37l-.146-.137.146.136zm-1.87 2.01l.146.136-.147-.136zm2.34-1.581l.147.136-.147-.136zm.457-.17l.022-.198h-.002l-.02.199zm.407.265l.173-.1-.173.1zm.027.482l.183.081-.183-.08zm-.375.308l-.044-.195.044.195zm-1.69.377l-.147-.136-.44.472.63-.14-.044-.196zm.704 3.845l-.146.136.146-.136zm-1.87-2.01l.146-.137-.147.137zm-.043-.374l-.172-.1.172.1zm.348-.15l.043-.196-.043.195zm2.691.6l.044-.194-.044.195zm.82.672l-.182.081.183-.08zm-.058 1.054l-.173-.1.173.1zm-.89.577l.021.2-.022-.2zm-.528-.799l-.146.137.146-.137zm-1.175-1.262l.044-.196-.63-.14.44.472.146-.136zm1.632 1.431l.02.2h.002l-.022-.2zm.434-.746l-.183.08.183-.08zm-.376-.308l.044-.195-.043.195zm-4.588-1.687l-.043.195.043-.195zm.347-.15l-.172-.101.172.1zm-.041-.374l-.147.136.147-.136zm-1.871-2.01l.146-.137-.146.136zm-.997-.37l.022.199-.022-.199zm-.95 1.631l-.183.08.183-.08zm.82.672l.044-.196-.043.196zm.2-1.673l.023.199-.023-.199zm.457.17l.146-.137-.146.136zm1.175 1.262l-.044.195.63.14-.44-.472-.146.137zm-1.69-.378l.043-.195-.044.195zm-.376-.307l.183-.081-.183.08zm.027-.483l-.173-.1.173.1zM47.816 35.07a4.848 4.848 0 01-.748 1.313c-.503.626-1.263 1.216-2.343 1.21l-.002.4c1.247.007 2.11-.68 2.656-1.36.546-.678.794-1.37.816-1.435l-.38-.128zm0-.051a.083.083 0 010 .05l.379.13a.483.483 0 00.004-.3l-.382.12zM44.84 32.47c1.08.004 1.811.599 2.286 1.227.477.63.678 1.275.69 1.316l.384-.109a4.983 4.983 0 00-.755-1.449c-.519-.686-1.355-1.38-2.603-1.385l-.002.4zm-1.826.33a5.453 5.453 0 011.829-.33l-.003-.4a5.852 5.852 0 00-1.963.355l.137.375zm.692-1.979a5.767 5.767 0 01-.917 1.668l.314.247a6.17 6.17 0 00.98-1.783l-.377-.132zm-1.337-3.746c.035.027.557.437.975 1.11.416.67.72 1.583.361 2.638l.38.128c.408-1.205.054-2.244-.402-2.977a4.947 4.947 0 00-1.07-1.216l-.244.317zm-.04-.014c.014 0 .028.004.04.013l.245-.316a.463.463 0 00-.288-.097l.003.4zm-3.347 2.174c.36-1.062 1.159-1.605 1.897-1.885a4.541 4.541 0 011.45-.29l-.002-.4c-.066.001-.784.011-1.59.316-.808.307-1.722.92-2.133 2.13l.378.13zm-.286 1.88a5.806 5.806 0 01.287-1.882l-.38-.124a6.2 6.2 0 00-.306 2.012l.4-.006zm-1.62-1.28c.492.386.915.856 1.251 1.39l.339-.214a5.867 5.867 0 00-1.342-1.49l-.247.314zm-3.9.212a4.603 4.603 0 011.346-.626c.758-.21 1.7-.237 2.557.416l.242-.318c-.992-.756-2.077-.713-2.905-.483a4.981 4.981 0 00-1.48.69l.24.32zm-.034.044a.082.082 0 01.03-.04l-.23-.328a.482.482 0 00-.18.24l.38.128zm.917 3.883c-.86-.653-1.104-1.583-1.123-2.386a4.847 4.847 0 01.206-1.497l-.38-.129a5.235 5.235 0 00-.226 1.636c.02.872.288 1.942 1.281 2.695l.242-.319zm.596.385a5.284 5.284 0 01-.598-.386l-.239.321c.206.153.42.291.643.415l.194-.35zm-2.725 2.47c.494-1.456 1.816-1.939 2.665-2.099l-.074-.393c-.895.169-2.405.699-2.97 2.364l.38.129zm-.286 1.88a5.806 5.806 0 01.287-1.881l-.38-.125a6.202 6.202 0 00-.307 2.012l.4-.006zm-1.62-1.28c.492.386.915.856 1.251 1.39l.338-.213a5.867 5.867 0 00-1.342-1.491l-.247.315zm-3.9.212a4.605 4.605 0 011.346-.626c.758-.21 1.699-.237 2.557.416l.242-.318c-.992-.755-2.077-.712-2.906-.483a4.98 4.98 0 00-1.478.69l.24.321zm-.034.044a.082.082 0 01.03-.04l-.23-.328a.483.483 0 00-.18.24l.38.128zm.917 3.884c-.86-.653-1.104-1.583-1.123-2.386a4.845 4.845 0 01.206-1.498l-.38-.128a5.235 5.235 0 00-.226 1.635c.02.872.288 1.942 1.28 2.695l.243-.318zm1.648.826a5.276 5.276 0 01-1.65-.827l-.239.32c.536.4 1.136.7 1.775.89l.114-.383zm-1.69 1.195a5.527 5.527 0 011.688-.81l-.11-.386a5.923 5.923 0 00-1.81.87l.232.326zm-1.081 3.88a4.823 4.823 0 01-.143-1.518c.055-.796.34-1.717 1.226-2.364l-.235-.323c-1.015.74-1.33 1.793-1.39 2.66-.059.865.134 1.568.156 1.651l.386-.106zm0 .003v-.003l-.386.106.001.003.386-.106zm.02.03a.046.046 0 01-.018-.026l-.388.098a.446.446 0 00.177.256l.228-.328zm1.144.58a4.421 4.421 0 01-1.144-.58l-.23.328c.383.27.803.482 1.248.63l.126-.379zm4.065-1.686c-.543.781-1.138 1.344-1.802 1.641-.657.294-1.4.337-2.262.044l-.128.38c.947.32 1.795.281 2.554-.059.753-.338 1.4-.962 1.966-1.778l-.328-.228zm2.563 3.933c-.858-.29-1.42-.773-1.762-1.405-.345-.638-.477-1.447-.437-2.406l-.4-.017c-.041 1 .093 1.89.485 2.614.395.73 1.042 1.273 1.985 1.593l.129-.379zm1.259.234a4.42 4.42 0 01-1.259-.233l-.129.378c.442.151.904.237 1.372.255l.016-.4zm.031-.01a.045.045 0 01-.03.01l-.018.4a.445.445 0 00.296-.096l-.248-.314zm1.508-3.744c.313 1.058-.03 1.969-.475 2.637a4.765 4.765 0 01-1.026 1.102l.234.325c.057-.042.64-.48 1.124-1.205.486-.727.885-1.761.526-2.972l-.383.113zm-.843-1.667a5.62 5.62 0 01.844 1.67l.382-.119a6.02 6.02 0 00-.905-1.789l-.321.238zm2.044.044a5.304 5.304 0 01-1.812-.35l-.143.374a5.705 5.705 0 001.949.376l.006-.4zm2.992-2.284a4.78 4.78 0 01-.94 1.397c-.491.491-1.162.891-2.054.887l-.002.4c1.026.005 1.794-.46 2.338-1.005a5.18 5.18 0 001.023-1.516l-.365-.163zm1.32.067a4.419 4.419 0 01-1.081-.177l-.113.383c.383.113.778.178 1.179.194l.015-.4zm.031-.01a.045.045 0 01-.03.01l-.018.4a.445.445 0 00.296-.096l-.248-.314zm1.508-3.744c.313 1.058-.029 1.968-.475 2.636a4.765 4.765 0 01-1.026 1.102l.234.325c.058-.041.64-.48 1.124-1.204.486-.727.885-1.761.527-2.973l-.384.114zm-.843-1.668a5.62 5.62 0 01.844 1.67l.382-.118a6.023 6.023 0 00-.904-1.79l-.322.238zm2.044.045a5.304 5.304 0 01-1.812-.35l-.143.373a5.7 5.7 0 001.949.377l.006-.4zM41.92 42.42a4.168 4.168 0 01-.947-.188l-.123.38c.459.15.861.193 1.04.207l.03-.4zm1.09-3.03c.227.764.013 1.455-.312 2.002a4.364 4.364 0 01-.92 1.073l.255.308a4.77 4.77 0 001.009-1.176c.36-.606.62-1.414.351-2.32l-.383.113zm-1.495-2.368a5.793 5.793 0 011.497 2.374l.38-.126a6.194 6.194 0 00-1.601-2.537l-.276.29zm-1.453-1.005c.467.387.966.733 1.492 1.034l.198-.347a10.21 10.21 0 01-1.435-.995l-.255.308zm1.123 2.531l-.804-2.74-.383.112.803 2.74.384-.112zm-.091.473a.483.483 0 00.086-.488l-.373.143c.01.027.005.06-.016.084l.303.261zm-.474.15a.47.47 0 00.474-.15l-.303-.261a.07.07 0 01-.07.023l-.101.387zm-.34-.364a.467.467 0 00.34.363l.101-.387a.067.067 0 01-.048-.053l-.392.077zm-.279-.942l.284.96.384-.113-.284-.96-.384.113zm0 0v.001l.384-.115-.384.115zm-.412-1.835a.194.194 0 01-.161-.083c-.01-.014-.011-.022-.004-.004.011.03.032.093.072.223.078.256.224.75.505 1.7l.384-.114c-.28-.949-.428-1.445-.507-1.703a4.697 4.697 0 00-.08-.248.383.383 0 00-.036-.073.207.207 0 00-.18-.097l.007.4zm.019 0l.003-.001-.05-.397h-.003l.05.397zm-.097-.01c.056.019.103.008.107.008l-.07-.394.027-.003c.02 0 .042.002.064.01l-.128.379zm-.376 4.053c-.217-1.344.123-2.881.627-4.17l-.373-.145c-.516 1.32-.882 2.934-.65 4.378l.396-.063zm1.965 2.281c-.158-.436-.756-1.847-2.082-2.432l-.161.366c1.163.514 1.713 1.779 1.866 2.202l.377-.136zm-2.97-3.445c-.016.36-.008.705.027 1.033l.397-.042a6.702 6.702 0 01-.025-.974l-.4-.017zm-.462 1.108c.293-.283.567-.614.825-.986l-.328-.228a6.2 6.2 0 01-.775.926l.278.288zm.12-.352c-.09 0-.18.004-.27.008l.022.4c.083-.005.167-.007.25-.008l-.002-.4zm.607.06a3.156 3.156 0 00-.605-.06l-.002.4c.188 0 .363.02.529.052l.078-.392zm-1.842-.02a2.26 2.26 0 01-.283.178l.185.354c.113-.06.224-.128.334-.209l-.236-.323zm1.778-2.25a5.977 5.977 0 01-1.782 2.254l.245.316a6.375 6.375 0 001.901-2.404l-.364-.166zm.5-1.721a11.38 11.38 0 00-.514 1.764l.392.08c.119-.58.285-1.148.496-1.701l-.373-.143zm-1.709 1.699l2.014-1.466-.235-.323-2.014 1.465.235.324zm-.09 1.114c.154-.454.2-.887.172-1.29l-.399.028c.025.352-.015.73-.152 1.133l.38.129zm-.981 1.785a6.169 6.169 0 00.98-1.783l-.377-.133a5.765 5.765 0 01-.917 1.668l.314.248zm.26-.465a5.931 5.931 0 00-.486.153l.137.376c.15-.054.3-.102.452-.143l-.104-.386zm1.486-4.088l-1.01.734.234.324 1.01-.734-.234-.324zm0 0l.235.324-.235-.324zm-.003.002l.24.32-.24-.32zm.892-.49a.193.193 0 01.017-.168c.012-.02.024-.029.017-.022a1.95 1.95 0 01-.103.08c-.126.095-.366.269-.82.598l.235.324c.452-.328.695-.505.824-.601.063-.047.105-.08.132-.105a.292.292 0 00.052-.059.208.208 0 00.02-.187l-.374.14zm.02.04c.002.001-.002-.003-.005-.008a.195.195 0 01-.015-.032l.375-.14a.215.215 0 00-.023-.044l-.002-.003-.33.227zm-.033-.075c.01.044.033.074.033.075l.33-.227c-.002-.003.017.023.026.06l-.389.092zm-2.354.338a9.144 9.144 0 012.536-.184l.025-.4a9.546 9.546 0 00-2.649.194l.088.39zm.778 1.029c-.143-.53-.4-.984-.66-1.342l-.323.236c.24.33.47.74.597 1.21l.386-.104zm6.477-5.84c.307-.907.082-1.718-.254-2.329a4.514 4.514 0 00-.96-1.183l-.262.302c.158.137.57.525.871 1.074.301.547.486 1.24.226 2.007l.379.128zm-3.277 3.762c1.335-.867 2.742-2.187 3.277-3.763l-.38-.128c-.491 1.45-1.811 2.709-3.115 3.555l.218.336zm-.174.02c.004.001-.032-.007-.065-.036l.26-.304a.207.207 0 00-.084-.044l-.11.384zm-.06-.027a.211.211 0 00.06.027l.111-.384c-.002 0 .004 0 .011.003a.188.188 0 01.039.02l-.22.334zm.282-1.355c-.175.515-.27.795-.32.947-.024.075-.04.127-.047.163a.3.3 0 00-.008.08.21.21 0 00.093.165l.22-.334a.19.19 0 01.086.147c.002.023-.003.037 0 .027.002-.014.012-.048.037-.124.048-.149.142-.424.318-.942l-.378-.129zm.001-.002l.377.133-.377-.133zm-.001.004l.38.125-.38-.125zm0-.003l.379.13-.378-.13zm.62-1.822c-.274.81-.474 1.397-.62 1.822l.38.13.62-1.824-.38-.128zm-.04-.095c.031.01.056.05.04.095l.38.128a.473.473 0 00-.291-.602l-.129.379zm-.09.05a.074.074 0 01.09-.05l.129-.379a.473.473 0 00-.598.3l.379.13zm-.927 2.733l.927-2.733-.379-.128-.927 2.733.379.128zm-.955-1.676c.235.536.426 1.092.572 1.661l.387-.098a11.068 11.068 0 00-.593-1.724l-.366.161zm.162-3.096a6.454 6.454 0 00-.176 3.052l.394-.072a6.055 6.055 0 01.165-2.863l-.383-.117zm3.1-2.054a4.57 4.57 0 00-1.482.358c-.637.281-1.31.787-1.616 1.69l.379.129c.259-.765.827-1.2 1.399-1.453a4.17 4.17 0 011.347-.325l-.026-.399zm-8.978 3.012a4.913 4.913 0 00-.142 1.54c.055.7.306 1.504 1.048 2.075l.244-.318c-.622-.477-.844-1.156-.893-1.788a4.514 4.514 0 01.13-1.41l-.387-.099zm3.754-.27c-.747-.568-1.582-.586-2.26-.438a4.41 4.41 0 00-1.41.591l.22.333c.172-.114.666-.4 1.276-.534.607-.132 1.309-.108 1.933.366l.241-.319zm2.435 4.297c-.37-1.556-1.137-3.311-2.434-4.298l-.243.319c1.188.903 1.927 2.55 2.287 4.071l.39-.092zm-.032.16c.003-.004-.015.027-.05.051l-.226-.33c-.04.028-.06.063-.061.064l.337.214zm-.048.054a.209.209 0 00.046-.05l.002-.004-.337-.215.008-.011a.191.191 0 01.035-.036l.246.316zm-.993-.548c.338.258.524.4.626.474.05.037.087.063.114.08a.277.277 0 00.068.03c.039.01.115.018.185-.036l-.246-.316a.192.192 0 01.168-.034c.023.006.036.015.03.011a1.37 1.37 0 01-.082-.057c-.099-.072-.28-.21-.62-.47l-.243.318zm-1.67-1.27l1.67 1.27.242-.318a547.04 547.04 0 00-1.67-1.27l-.242.319zm-.089.025c.027-.036.069-.039.095-.02l.23-.328a.468.468 0 00-.647.11l.322.237zm.01.106a.08.08 0 01-.01-.106l-.322-.238a.48.48 0 00.077.653l.255-.309zm2.233 1.697l-2.24-1.701-.241.318 2.239 1.701.242-.318zm-1.863.433a9.945 9.945 0 011.733-.074l.018-.4a10.43 10.43 0 00-1.803.078l.052.396zm-2.825-1.065a5.99 5.99 0 002.776 1.066l.046-.398a5.589 5.589 0 01-2.59-.994l-.232.326zm5.062 1.006a.473.473 0 00.29.602l.13-.379c-.032-.01-.057-.05-.042-.095l-.378-.128zm.597-.301a.473.473 0 00-.597.3l.378.13c.016-.046.06-.062.09-.051l.13-.38zm.291.602a.473.473 0 00-.29-.602l-.13.379c.032.01.057.05.041.095l.38.128zm-.597.301a.473.473 0 00.597-.3l-.379-.13c-.015.046-.059.062-.09.051l-.128.38zm.702-.16v.003l.4.014v-.003l-.4-.014zm.003-.031v.002l.393.072v-.002l-.393-.072zm1.222-.177a68.462 68.462 0 00-.868-.003 1.64 1.64 0 00-.15.006.281.281 0 00-.077.019.21.21 0 00-.122.134l.384.113a.19.19 0 01-.108.122c-.023.01-.04.01-.032.01.01-.002.04-.003.11-.004.134-.002.386 0 .86.003l.003-.4zm-.001 0v.4-.4zm2.005.01l-2.004-.01-.002.4 2.004.01.002-.4zm.064-.08a.08.08 0 01-.072.08l.014.4a.48.48 0 00.458-.472l-.4-.008zm-.062-.073c.032.002.063.03.062.073l.4.008a.468.468 0 00-.446-.48l-.016.4zm-2.802-.022l2.808.022.004-.4-2.809-.022-.003.4zm1.268-1.47c-.43.406-.89.775-1.378 1.104l.223.332a11.29 11.29 0 001.43-1.144l-.275-.291zm2.927-.846a6.184 6.184 0 00-2.889.819l.199.347a5.784 5.784 0 012.702-.766l-.012-.4zm2.825 2.352a4.616 4.616 0 00-.768-1.33c-.448-.53-1.119-1.025-2.052-1.022l.002.4c.774-.002 1.342.404 1.745.88.404.478.625 1.01.698 1.21l.375-.138zM44.73 37.43c.942.005 1.633-.48 2.102-1.003a4.768 4.768 0 00.819-1.318l-.37-.15c-.082.2-.323.728-.747 1.201-.423.472-1.013.874-1.802.87l-.002.4zm-4.457-1.958c1.203 1.03 2.836 1.967 4.46 1.958l-.003-.4c-1.48.008-3.022-.857-4.197-1.862l-.26.304zm-.07-.161c0 .003 0-.024.01-.056l.379.129c.013-.037.012-.07.012-.07l-.4-.004zm-5.157-.142c.158.136.57.524.871 1.073.3.547.486 1.24.226 2.007l.379.129c.307-.907.081-1.718-.254-2.328a4.512 4.512 0 00-.96-1.184l-.262.303zm-2.602 1.825c.259-.764.827-1.2 1.398-1.452a4.168 4.168 0 011.348-.325l-.026-.4a4.57 4.57 0 00-1.483.359c-.637.28-1.31.786-1.616 1.69l.379.128zm-.164 2.857a6.054 6.054 0 01.165-2.863l-.382-.116a6.454 6.454 0 00-.176 3.052l.393-.073zm.58 1.679c-.15-.59-.35-1.167-.593-1.723l-.367.16c.236.536.427 1.092.572 1.662l.388-.099zm.544-2.748l-.927 2.733.379.129.927-2.733-.379-.129zm.597-.3a.473.473 0 00-.597.3l.379.129c.015-.046.059-.061.09-.05l.129-.38zm.291.602a.473.473 0 00-.29-.603l-.129.38c.031.01.056.049.04.094l.38.129zm-.62 1.824l.62-1.824-.378-.129-.62 1.823.378.13zm-.44.891a.19.19 0 01.085.147c.001.023-.003.037 0 .028a1.76 1.76 0 01.037-.125c.047-.148.142-.424.318-.941l-.379-.13c-.175.515-.27.796-.32.948-.024.074-.04.126-.048.162a.298.298 0 00-.007.08.21.21 0 00.093.165l.22-.334zm-.044-.02a.182.182 0 01.044.02l-.22.334a.19.19 0 00.049.024l.127-.379zm-.006-.003h.001l.005.002-.127.38a.077.077 0 00.007.002h.003l.111-.384zm.084.045c-.04-.034-.082-.044-.084-.045l-.11.385c.003 0-.033-.008-.067-.036l.26-.304zm2.877-3.572c-.493 1.451-1.813 2.71-3.116 3.556l.217.335c1.335-.867 2.743-2.187 3.278-3.762l-.38-.129zm-8.808 2.878c-.622-.478-.844-1.157-.893-1.789a4.514 4.514 0 01.13-1.41l-.387-.098a4.917 4.917 0 00-.142 1.54c.055.699.306 1.504 1.048 2.074l.244-.317zm2.584.99a5.588 5.588 0 01-2.59-.995l-.232.326c.822.584 1.775.95 2.776 1.066l.046-.397zm1.753-.077a10.44 10.44 0 00-1.802.077l.052.397c.575-.075 1.155-.1 1.733-.075l.017-.4zm-2.369-1.343l2.24 1.702.242-.319-2.24-1.701-.242.318zm-.083-.657a.479.479 0 00.077.652l.255-.308a.08.08 0 01-.01-.107l-.322-.237zm.646-.11a.468.468 0 00-.646.11l.322.237c.026-.036.068-.038.094-.02l.23-.327zm1.677 1.274l-1.67-1.27-.242.319c.784.595 1.313.997 1.67 1.27l.242-.319zm0 0l-.242.319.242-.32zm.504.55a.192.192 0 01.169-.034c.022.007.035.016.03.012a1.429 1.429 0 01-.082-.057c-.099-.073-.28-.212-.62-.47l-.243.317c.338.258.524.4.626.475.05.036.086.062.114.079a.281.281 0 00.068.03c.038.01.114.019.184-.036l-.246-.315zm-.037.04a.185.185 0 01.037-.04l.246.316a.21.21 0 00.042-.043l-.325-.233zm-.005.007V41.8l.005-.007.325.234a.166.166 0 00.005-.008l.002-.003-.337-.215zm.06-.063c-.04.027-.06.063-.06.063l.337.215c.002-.004-.015.027-.05.051l-.227-.33zm-2.368-3.86c1.188.903 1.927 2.549 2.287 4.07l.39-.092c-.37-1.556-1.138-3.31-2.435-4.297l-.242.318zm-3.207.168c.17-.114.664-.401 1.274-.534.608-.132 1.31-.108 1.933.365l.242-.318c-.748-.568-1.582-.586-2.26-.438a4.41 4.41 0 00-1.41.592l.22.333zM29.5 47.3c-.643.47-1.344.486-1.943.35a4.065 4.065 0 01-1.261-.543l-.22.334c.194.127.723.445 1.392.598.672.153 1.502.143 2.268-.416L29.5 47.3zm1.778-2.25a5.976 5.976 0 01-1.782 2.253l.244.317a6.375 6.375 0 001.902-2.405l-.364-.166zm.5-1.722a11.272 11.272 0 00-.514 1.764l.392.08a10.92 10.92 0 01.496-1.7l-.374-.144zm-2.009 1.917l2.314-1.683-.236-.324-2.313 1.684.235.323zm-.638-.12a.464.464 0 00.625.129l-.209-.341a.064.064 0 01-.088-.017l-.328.228zm.079-.636a.482.482 0 00-.079.635l.328-.228a.082.082 0 01.015-.107l-.264-.3zm1.534-1.115l-1.52 1.103.236.324 1.518-1.104-.235-.323zm.889-.488a.192.192 0 01.017-.169c.012-.02.024-.028.017-.022a54.906 54.906 0 01-.924.679l.235.323c.453-.328.696-.504.825-.6.063-.048.105-.081.132-.105a.298.298 0 00.052-.06.208.208 0 00.02-.187l-.374.14zm.02.04l-.005-.009a.18.18 0 01-.015-.031l.374-.14a.213.213 0 00-.017-.036l-.005-.008a.083.083 0 00-.002-.004l-.33.227zm-.033-.075c.01.043.033.073.033.074l.33-.227c-.002-.002.017.023.026.06l-.39.093zm-4.346 1.188c1.213-.882 3.004-1.13 4.528-1.035l.025-.399c-1.565-.098-3.466.15-4.788 1.11l.235.324zm-.893 3.19a4.367 4.367 0 01-.078-1.41c.075-.633.326-1.311.97-1.78l-.234-.324c-.765.556-1.05 1.356-1.133 2.056a4.765 4.765 0 00.085 1.547l.39-.089zm6.196-4.552c-.031-.01-.056-.05-.04-.095l-.38-.129a.473.473 0 00.291.602l.129-.378zm.09-.05a.074.074 0 01-.09.05l-.129.379a.473.473 0 00.598-.301l-.379-.129zm-.04-.096c.03.01.056.05.04.095l.379.129a.473.473 0 00-.291-.603l-.129.379zm-.09.05a.073.073 0 01.09-.05l.128-.379a.473.473 0 00-.598.301l.38.129zm3.42 4.403c.227.765.013 1.456-.312 2.003a4.365 4.365 0 01-.92 1.072l.254.309c.183-.152.65-.573 1.01-1.177.36-.606.62-1.413.351-2.32l-.383.113zm-1.495-2.367a5.795 5.795 0 011.496 2.373l.38-.125a6.195 6.195 0 00-1.6-2.538l-.276.29zm-1.453-1.005c.467.387.966.733 1.491 1.033l.2-.347a10.21 10.21 0 01-1.436-.994l-.255.308zm1.123 2.53l-.804-2.74-.384.112.804 2.741.384-.113zm-.092.474a.483.483 0 00.087-.489l-.374.144c.01.026.005.06-.015.083l.302.262zm-.473.149a.47.47 0 00.473-.15l-.302-.261a.07.07 0 01-.07.024l-.101.387zm-.34-.363a.467.467 0 00.34.363l.101-.387a.067.067 0 01-.048-.054l-.392.078zm-.279-.942l.284.96.384-.114-.284-.96-.384.114zm-.002-.008l.388-.097-.388.097zm-.41-1.827a.193.193 0 01-.161-.084c-.01-.014-.011-.021-.004-.003.011.03.032.093.072.223.078.256.224.749.505 1.699l.384-.114c-.281-.948-.428-1.444-.507-1.703a4.665 4.665 0 00-.08-.247.383.383 0 00-.036-.074.207.207 0 00-.18-.097l.007.4zm.03-.003l-.007.001a.199.199 0 01-.023.002l-.007-.4a.203.203 0 00-.032.003h-.003l.071.394zm-.108-.008c.055.02.103.009.107.008l-.071-.394a.19.19 0 01.092.007l-.128.38zm-.252 4.603c-.432-1.458-.073-3.247.502-4.72l-.372-.145c-.587 1.503-.983 3.394-.514 4.979l.384-.114zm2.66 1.797a4.084 4.084 0 01-1.33-.337c-.56-.256-1.105-.696-1.33-1.46l-.384.114c.268.909.92 1.423 1.547 1.71a4.464 4.464 0 001.468.372l.03-.399zm-1.316-7.107l-.4-.004.4.004zm-.011.07c.012-.037.011-.07.011-.07l-.4-.003c0 .003 0-.024.01-.055l.379.128zm4.138 1.646c-1.481.008-3.022-.856-4.198-1.862l-.26.304c1.204 1.03 2.837 1.967 4.46 1.958l-.002-.4zm2.55-2.071c-.082.2-.322.728-.746 1.202-.423.472-1.014.874-1.802.869l-.002.4c.941.006 1.633-.479 2.102-1.002a4.769 4.769 0 00.819-1.319l-.371-.15zm-2.446-1.945c.775-.003 1.343.403 1.746.88.404.477.625 1.01.697 1.209l.376-.137a4.615 4.615 0 00-.768-1.331c-.448-.53-1.12-1.025-2.052-1.021l.001.4zm-2.696.765a5.784 5.784 0 012.702-.765l-.012-.4c-1.01.03-2.002.31-2.889.818l.199.347zm-1.392 1.116a11.29 11.29 0 001.43-1.144l-.275-.29c-.43.405-.89.773-1.379 1.102l.224.332zm2.698-.343l-2.808-.023-.003.4 2.808.023.003-.4zm.453.48a.468.468 0 00-.446-.48l-.016.4c.032 0 .063.028.062.072l.4.009zm-.458.471a.48.48 0 00.458-.47l-.4-.008a.078.078 0 01-.072.079l.014.4zm-2.013-.009l2.005.01.002-.4-2.004-.01-.003.4zm.002 0v-.4.4zm-.832-.13a.19.19 0 01-.109.122c-.023.01-.039.01-.031.009.01-.001.04-.003.11-.004.134-.001.386 0 .86.003l.003-.4c-.472-.003-.73-.004-.868-.003a1.576 1.576 0 00-.15.007.282.282 0 00-.077.018.21.21 0 00-.122.135l.384.112zm.007-.05a.187.187 0 01-.007.05l-.384-.113c-.009.03-.008.056-.009.058l.4.005zm34.03-7.216c-.412-1.068-1.319-1.95-2.347-2.668-1.031-.72-2.207-1.29-3.19-1.726l-.162.366c.975.432 2.124.99 3.123 1.688 1.003.7 1.833 1.525 2.203 2.484l.373-.144zm-2.17 5.082c.79-.36 1.503-1.178 1.933-2.114.43-.936.597-2.034.237-2.968l-.373.144c.308.8.176 1.78-.227 2.657-.404.878-1.058 1.608-1.736 1.917l.167.364zm-.496 4.448c.513-1.86.665-3.387.613-4.638l-.4.016c.05 1.205-.095 2.691-.6 4.516l.386.106zm2.531-2.722c-1.138.682-2.088 1.571-2.88 2.543l.31.252c.768-.942 1.685-1.798 2.776-2.452l-.206-.343zm2.398-4.077c-.812.307-1.454.985-1.881 1.767-.428.783-.653 1.692-.614 2.491l.4-.02c-.036-.716.168-1.552.565-2.279.397-.727.976-1.322 1.671-1.585l-.141-.374zm6.992 1.16c-.982-.435-2.195-.924-3.424-1.206-1.225-.281-2.492-.362-3.568.046l.141.374c.969-.367 2.143-.304 3.338-.03 1.19.273 2.376.75 3.351 1.182l.162-.365zm.304.793a.598.598 0 00-.304-.792l-.162.365a.198.198 0 01.102.262l.364.165zm-4.43 5.49c1.076-.408 1.966-1.307 2.69-2.327.726-1.022 1.301-2.19 1.74-3.163l-.364-.165c-.436.967-.999 2.106-1.702 3.097-.706.994-1.538 1.817-2.506 2.184l.142.374zm-2.956-.22c.936.414 2.026.572 2.956.22l-.142-.374c-.799.302-1.775.176-2.651-.212l-.163.365zm-2.22-2.056c.337.843 1.215 1.61 2.22 2.055l.163-.365c-.947-.42-1.726-1.124-2.01-1.838l-.372.148zm-4.08 5.595c.884-1.959 2.272-4.142 4.375-5.501l-.217-.336c-2.195 1.419-3.624 3.681-4.522 5.673l.365.164zm-.794.302c.302.133.659 0 .795-.302l-.365-.164a.204.204 0 01-.268.1l-.162.366zm-.304-.792a.598.598 0 00.304.791l.163-.365a.198.198 0 01-.102-.262l-.365-.164zm1.972-7.891c.047 1.844-.396 4.393-1.972 7.89l.365.165c1.594-3.537 2.056-6.147 2.007-8.065l-.4.01zm-2.113-.228c.76.336 1.601.495 2.333.422l-.04-.398c-.651.065-1.423-.076-2.13-.39l-.163.366zm-2.137-2.039c.356.922 1.202 1.624 2.137 2.039l.163-.366c-.877-.389-1.622-1.027-1.926-1.816l-.373.143zM61.25 31.6c-.439.974-.932 2.177-1.217 3.396-.283 1.215-.365 2.473.047 3.541l.373-.143c-.37-.96-.306-2.123-.03-3.307.276-1.18.756-2.355 1.192-3.322l-.364-.165zm.795-.302a.604.604 0 00-.794.302l.364.165a.204.204 0 01.268-.101l.162-.366zm3.323 8.588c.54-.365 1.023-1.023 1.313-1.735.288-.71.403-1.515.15-2.173l-.374.143c.203.525.122 1.218-.147 1.88-.268.659-.708 1.244-1.166 1.553l.224.332zm-1.56-3.555c.372.602 1.022 1.653 1.25 3.415l.396-.052c-.238-1.846-.924-2.956-1.306-3.573l-.34.21zm-.001-.001l.341-.208v-.001l-.341.209zm-.042-.066l.042.067.34-.211-.042-.068-.34.212zm-.151-.272c.032.081.093.179.152.272l.339-.212a1.649 1.649 0 01-.119-.207l-.372.147zm-.263-.116a.204.204 0 01.262.115l.373-.144a.604.604 0 00-.776-.345l.141.374zm-.116.256a.198.198 0 01.116-.256l-.141-.374a.598.598 0 00-.348.773l.373-.143zm.227.405a3.088 3.088 0 01-.227-.406l-.373.145c.049.124.145.285.26.472l.34-.21zm1.213 3.445c-.196-1.801-.851-2.86-1.213-3.445l-.34.211c.35.566.969 1.565 1.156 3.277l.397-.043zm-3.843-1.729c.25.65.865 1.17 1.546 1.507.684.339 1.475.515 2.12.443l-.043-.398c-.552.062-1.266-.09-1.9-.403-.635-.315-1.15-.774-1.35-1.293l-.373.144zm.99-5.958c-.392.896-.802 1.952-1.034 2.995-.232 1.038-.293 2.09.044 2.963l.373-.144c-.294-.764-.252-1.723-.027-2.732.224-1.005.622-2.034 1.01-2.922l-.367-.16zm5.008 3.683c-.336-.873-1.089-1.616-1.959-2.237-.874-.623-1.89-1.139-2.783-1.548l-.167.364c.886.405 1.875.909 2.718 1.51.847.604 1.524 1.29 1.818 2.054l.373-.143zm1.69 7.304a8.31 8.31 0 013.737-.93l-.008-.4a8.72 8.72 0 00-3.913.975l.184.355zm.13-.144a1.302 1.302 0 01-.03-.091l-.383.115c.012.04.025.08.04.12l.374-.144zm3.63 1.608c-.593.225-1.396.098-2.123-.244-.73-.343-1.316-.87-1.506-1.364l-.374.143c.244.633.937 1.22 1.71 1.583.774.364 1.698.535 2.435.256l-.141-.374zm3.596-4.498c-.41.879-.917 1.859-1.523 2.695-.609.84-1.301 1.51-2.072 1.803l.141.374c.88-.333 1.629-1.079 2.255-1.942.628-.867 1.148-1.874 1.561-2.761l-.362-.17zm-5.603-.707c.771-.292 1.74-.25 2.758-.026 1.014.222 2.052.617 2.947 1.001l.158-.367c-.904-.388-1.969-.795-3.02-1.025-1.046-.23-2.106-.29-2.985.043l.142.374zm-1.712 2.715c.05-.534.247-1.13.553-1.638.308-.51.711-.907 1.159-1.077l-.142-.374c-.56.213-1.025.69-1.36 1.245a4.396 4.396 0 00-.608 1.807l.398.037zm3.673-1.103c-1.498.028-2.81.362-3.958.903l.171.362c1.097-.517 2.353-.838 3.794-.866l-.007-.4zm.649.586c-.007-.355-.343-.591-.649-.586l.007.4c.136-.002.24.107.242.194l.4-.008zm-.553.61c.354-.008.56-.303.553-.61l-.4.008c.003.134-.073.2-.162.202l.009.4zm-.072.002l.073-.002-.011-.4-.073.002.011.4zm-22.99 3.685l.238.05.082-.392-.238-.05-.082.392zm-.205-.39l.05.236.392-.083-.05-.236-.392.083zm.566-2.707c-.48.477-.617 1.153-.64 1.687-.024.54.065.978.074 1.02l.392-.083a4.01 4.01 0 01-.067-.92c.022-.497.149-1.049.523-1.42l-.282-.284zm2.726-.56a4.508 4.508 0 00-1.027-.074c-.538.023-1.219.158-1.699.634l.282.284c.374-.37.932-.497 1.434-.518.498-.022.902.06.928.065l.082-.391zm.238.05l-.238-.05-.082.391.238.05.082-.392zm.205.39l-.05-.236-.392.083.05.236.392-.084zm-.566 2.706c.48-.477.617-1.152.64-1.687a4.4 4.4 0 00-.074-1.02l-.392.084c.006.026.088.426.067.918-.022.498-.149 1.05-.523 1.42l.282.285zm-1.885.638c.565 0 1.35-.107 1.885-.638l-.282-.284c-.419.415-1.066.522-1.603.522v.4zm-.841-.078c.038.008.386.078.84.078v-.4c-.417 0-.736-.064-.758-.07l-.082.392zm.932-2.34c.15-.148.388-.236.668-.278.276-.04.564-.032.783-.008l.043-.398a3.599 3.599 0 00-.885.01c-.315.047-.653.155-.89.39l.28.285zm-.289 1.437a3.121 3.121 0 01.008-.775c.042-.277.131-.513.28-.661l-.28-.284c-.239.236-.348.572-.395.885-.048.317-.037.64-.01.879l.397-.044zm1.274-.464c-.15.149-.388.238-.668.28-.276.04-.564.031-.783.007l-.043.398c.24.026.565.037.885-.01.315-.047.653-.155.89-.39l-.28-.285zm.289-1.436a3.12 3.12 0 01-.008.776c-.042.276-.131.512-.28.66l.28.284c.239-.236.348-.572.395-.885.048-.317.037-.64.01-.879l-.397.044zm3.653.884c.53 0 1.014.302 1.385.639.366.333.594.674.608.696l.334-.22a4.451 4.451 0 00-.673-.772c-.398-.362-.976-.743-1.654-.743v.4zM53.371 45.5c.014-.022.242-.363.608-.696.371-.337.855-.64 1.385-.64v-.4c-.678 0-1.256.382-1.654.744-.401.365-.65.737-.674.772l.335.22zm-.133.202l.133-.202-.335-.22-.132.202.334.22zm.133-.018l-.133-.202-.334.22.132.202.335-.22zm1.993 1.336c-.53 0-1.014-.303-1.385-.64a4.066 4.066 0 01-.608-.696l-.335.22c.024.036.273.408.674.773.398.361.975.743 1.654.743v-.4zm1.993-1.336a4.064 4.064 0 01-.608.697c-.371.336-.855.639-1.385.639v.4c.678 0 1.256-.382 1.654-.743.401-.365.65-.737.673-.773l-.334-.22zm.133-.202l-.133.202.334.22.133-.202-.334-.22zm-.133.018l.133.202.334-.22-.133-.202-.334.22zm-3.535.218c.152.188.374.423.634.614.256.188.572.349.908.349v-.4c-.212 0-.444-.105-.672-.272a3.16 3.16 0 01-.559-.543l-.31.252zm1.542-1.214c-.336 0-.652.16-.908.349-.26.19-.482.426-.634.613l.311.252c.138-.17.335-.379.56-.543.227-.167.459-.271.671-.271v-.4zm1.542.962a3.556 3.556 0 00-.634-.613c-.256-.189-.572-.35-.908-.35v.4c.212 0 .444.105.672.272.224.164.421.373.559.543l.31-.252zm-1.542 1.215c.336 0 .652-.161.908-.35.26-.19.482-.425.634-.613l-.311-.252c-.138.17-.336.38-.56.543-.227.167-.459.272-.671.272v.4zm-6.428 2.298l-.237.05.081.391.238-.05-.082-.39zm-.104-.081l-.05.235.39.084.05-.236-.39-.083zm-.457-2.34c.374.371.5.923.523 1.42.021.493-.06.893-.066.92l.39.083c.01-.042.1-.48.075-1.02-.023-.534-.16-1.21-.64-1.687l-.282.284zm-2.362-.453c.026-.005.43-.087.928-.066.502.022 1.06.148 1.434.52l.282-.285c-.48-.476-1.16-.61-1.7-.634a4.507 4.507 0 00-1.026.074l.082.391zm-.238.05l.238-.05-.082-.391-.238.05.082.39zm.105.081l.05-.235-.392-.083-.05.235.392.083zm.456 2.34c-.374-.371-.5-.923-.523-1.42a4.021 4.021 0 01.067-.92l-.392-.083a4.41 4.41 0 00-.074 1.02c.023.535.16 1.21.64 1.687l.282-.284zm1.603.522c-.537 0-1.184-.107-1.603-.522l-.282.284c.535.53 1.32.638 1.885.638v-.4zm.76-.07c-.023.006-.342.07-.76.07v.4c.455 0 .803-.07.841-.078l-.081-.391zm-.569-2.231c-.238-.236-.576-.344-.891-.39a3.6 3.6 0 00-.885-.01l.043.397c.219-.024.508-.033.783.008.28.042.519.13.668.279l.282-.284zm.405 1.764a3.57 3.57 0 00-.01-.879c-.048-.313-.157-.65-.395-.885l-.282.284c.15.148.24.384.28.66.042.274.033.56.01.776l.397.044zm-1.954-.224c.238.236.576.344.891.39a3.6 3.6 0 00.885.011l-.043-.398a3.175 3.175 0 01-.783-.008c-.28-.041-.518-.13-.668-.279l-.282.284zm-.405-1.764a3.51 3.51 0 00.01.879c.048.313.157.65.395.885l.282-.284c-.15-.148-.239-.384-.28-.66a3.116 3.116 0 01-.009-.776l-.398-.044zm.425 4.136l.238-.05-.082-.39-.238.049.082.392zm.105.082l.05-.236-.391-.083-.05.236.39.083zm.456 2.34c-.374-.371-.5-.923-.522-1.421-.022-.492.06-.893.066-.919l-.392-.083c-.008.042-.098.48-.074 1.02.024.534.16 1.21.64 1.686l.282-.284zm1.604.522c-.538 0-1.185-.107-1.604-.523l-.282.284c.536.531 1.32.639 1.886.639v-.4zm.759-.07a4.02 4.02 0 01-.76.07v.4c.456 0 .804-.07.841-.078l-.081-.391zm.238-.05l-.238.05.081.392.238-.05-.081-.391zm-.105-.08l-.05.235.391.083.05-.236-.391-.083zm-.457-2.34c.374.371.501.923.523 1.42a4.02 4.02 0 01-.066.92l.391.082c.009-.041.098-.479.075-1.02-.024-.534-.16-1.21-.64-1.686l-.283.284zm-2.362-.453c.026-.006.43-.087.928-.066.503.022 1.06.148 1.434.519l.282-.284c-.48-.476-1.16-.611-1.699-.634a4.509 4.509 0 00-1.027.073l.082.392zm.568 2.232c.24.237.578.345.893.392.32.047.643.036.884.01l-.044-.398a3.168 3.168 0 01-.782-.008c-.279-.041-.518-.13-.669-.28l-.282.284zm-.404-1.764a3.52 3.52 0 00.01.879c.047.313.156.649.394.885l.282-.284c-.15-.148-.239-.384-.28-.661a3.115 3.115 0 01-.009-.776l-.397-.043zm1.953.224c-.238-.236-.576-.344-.89-.391a3.605 3.605 0 00-.886-.01l.043.398c.22-.024.508-.033.783.008.28.041.519.13.669.279l.281-.285zm.405 1.764a3.521 3.521 0 00-.01-.879c-.047-.313-.157-.65-.395-.886l-.282.285c.15.148.24.384.281.661.041.273.032.559.008.776l.398.043zm2.217-1.817l.204-.132-.217-.336-.204.132.217.336zm-.42-.132l.203.132.217-.336-.203-.132-.218.336zm-1.53-2.31c0 .674.386 1.248.75 1.642.368.398.743.645.78.668l.217-.336a4.076 4.076 0 01-.703-.604c-.34-.367-.644-.846-.644-1.37h-.4zm1.53-2.31c-.037.023-.412.27-.78.668-.364.394-.75.967-.75 1.642h.4c0-.524.304-1.003.644-1.371.336-.364.68-.589.703-.604l-.218-.335zm.203-.132l-.204.131.218.336.203-.131-.217-.336zm.42.131l-.203-.131-.217.336.204.131.217-.336zm1.53 2.31c0-.674-.386-1.247-.75-1.641a4.456 4.456 0 00-.78-.669l-.216.336c.022.015.366.24.702.604.34.368.644.847.644 1.37h.4zm-1.53 2.31c.037-.022.412-.269.78-.667.364-.394.75-.968.75-1.642h-.4c0 .524-.304 1.002-.644 1.37a4.01 4.01 0 01-.703.604l.218.336zm-1.007-2.31c0-.208.105-.438.273-.663a3.16 3.16 0 01.547-.555l-.25-.312c-.188.15-.426.37-.618.628-.19.254-.352.568-.352.903h.4zm.82 1.219a3.16 3.16 0 01-.547-.555c-.169-.225-.273-.454-.273-.663h-.4c0 .334.162.648.352.903.192.257.43.477.619.628l.25-.313zm.572-1.218c0 .209-.105.438-.273.663a3.159 3.159 0 01-.548.555l.25.313c.188-.15.426-.37.618-.628.19-.255.353-.569.353-.903h-.4zm-.821-1.219c.172.137.382.333.548.555.168.225.273.455.273.664h.4c0-.335-.163-.649-.353-.903a3.552 3.552 0 00-.619-.628l-.25.312zm-.166 5.752a4.06 4.06 0 01.609-.696c.37-.337.854-.64 1.384-.64v-.4c-.678 0-1.256.382-1.653.744-.402.365-.65.737-.674.772l.334.22zm-.133.202l.133-.202-.334-.22-.133.202.334.22zm.133-.018l-.133-.202-.334.22.133.202.334-.22zm1.993 1.336c-.53 0-1.014-.302-1.384-.64a4.06 4.06 0 01-.61-.696l-.333.22c.023.036.272.408.674.773.397.361.975.743 1.653.743v-.4zm1.994-1.336a4.06 4.06 0 01-.61.697c-.37.337-.854.639-1.384.639v.4c.679 0 1.256-.382 1.654-.743a4.45 4.45 0 00.674-.773l-.334-.22zm.132-.202l-.132.202.334.22.133-.202-.335-.22zm-.132.018l.132.202.334-.22-.132-.202-.334.22zm-1.994-1.335c.53 0 1.014.302 1.385.639.366.333.594.674.608.696l.335-.22a4.449 4.449 0 00-.674-.772c-.398-.362-.975-.743-1.654-.743v.4zm-1.542 1.553c.152.187.374.423.633.614.257.188.573.349.91.349v-.4c-.213 0-.446-.105-.673-.272a3.158 3.158 0 01-.56-.543l-.31.252zm1.542-1.214c-.337 0-.653.16-.91.348-.26.19-.48.426-.632.614l.311.251c.137-.17.334-.378.557-.542.227-.167.46-.271.674-.271v-.4zm1.542.963a3.561 3.561 0 00-.633-.614c-.257-.188-.573-.35-.909-.35v.4c.213 0 .445.105.672.272.224.165.422.373.56.544l.31-.252zm-1.542 1.214c.338 0 .654-.16.91-.349.26-.19.481-.426.633-.614l-.312-.25c-.137.17-.334.378-.557.542-.227.166-.46.27-.674.27v.4zm4.235-6.858l-.238-.05-.082.391.238.05.082-.392zm.205.39l-.05-.236-.392.083.05.236.392-.083zm-.566 2.706c.48-.477.617-1.152.64-1.687a4.402 4.402 0 00-.075-1.02l-.39.084c.005.026.087.426.065.919-.022.497-.148 1.049-.522 1.42l.282.284zm-1.886.638c.566 0 1.35-.107 1.886-.638l-.282-.284c-.419.415-1.066.522-1.604.522v.4zm-.84-.077c.038.008.385.077.84.077v-.4c-.417 0-.736-.064-.758-.069l-.082.392zm-.238-.05l.238.05.081-.392-.237-.05-.082.392zm-.205-.39l.05.236.391-.083-.05-.236-.391.083zm.566-2.706c-.48.476-.617 1.152-.64 1.687-.024.54.065.977.074 1.019l.391-.083a4.017 4.017 0 01-.066-.919c.022-.498.148-1.05.523-1.42l-.282-.285zm2.726-.561a4.505 4.505 0 00-1.027-.074c-.538.023-1.219.158-1.699.635l.282.284c.374-.372.931-.498 1.434-.52.498-.02.902.06.928.066l.082-.391zm-.932 2.34c-.15.148-.389.237-.669.278a3.175 3.175 0 01-.783.008l-.043.398a3.6 3.6 0 00.885-.01c.315-.047.654-.154.892-.39l-.282-.285zm.289-1.437c.024.217.033.503-.009.776-.041.276-.13.512-.28.66l.282.284c.238-.236.347-.572.394-.885.048-.317.037-.64.01-.879l-.397.044zm-1.275.464c.15-.148.389-.237.669-.279.275-.04.564-.032.783-.008l.043-.398a3.599 3.599 0 00-.885.01c-.315.047-.653.155-.891.391l.282.284zm-.289 1.436a3.08 3.08 0 01.007-.774c.042-.276.132-.513.282-.662l-.281-.284c-.24.237-.349.573-.396.886-.048.318-.036.64-.01.879l.398-.045zM76.839 73.18h.645v-.4h-.645v.4zm-1.97 0h1.97v-.4h-1.97v.4zm-46.707 0H74.87v-.4H28.162v.4zm4.715 6.96l-4.545-7.266-.34.212 4.546 7.266.34-.212zm3.359 1.89c-.575 0-1.254-.212-1.877-.563-.623-.35-1.167-.825-1.482-1.327l-.339.213c.36.573.961 1.09 1.625 1.463.663.373 1.41.614 2.073.614v-.4zm33.187 0H36.236v.4h33.187v-.4zm3.359-1.89c-.315.502-.859.977-1.481 1.327-.623.35-1.303.563-1.878.563v.4c.664 0 1.41-.241 2.074-.614.663-.373 1.264-.89 1.624-1.464l-.34-.213zm4.533-7.266l-4.533 7.266.339.212 4.533-7.266-.34-.212zm-50.357.306h.207v-.4h-.207v.4zm-1.472-1.462c0 .808.662 1.462 1.472 1.462v-.4a1.068 1.068 0 01-1.072-1.062h-.4zm1.472-1.461c-.81 0-1.472.654-1.472 1.461h.4c0-.583.48-1.061 1.072-1.061v-.4zm51.724 0H26.958v.4h51.724v-.4zm1.472 1.461c0-.807-.661-1.461-1.472-1.461v.4c.593 0 1.072.478 1.072 1.061h.4zm-1.472 1.462c.81 0 1.472-.654 1.472-1.462h-.4c0 .584-.48 1.062-1.072 1.062v.4zm-.2 0h.2v-.4h-.2v.4zm-4.64 7.615l4.81-7.71-.34-.211-4.81 7.71.34.211zm-4.419 2.476c.803 0 1.692-.28 2.483-.724.79-.443 1.501-1.06 1.935-1.751l-.338-.213c-.39.622-1.045 1.196-1.793 1.615-.748.42-1.57.673-2.287.673v.4zm-33.187 0h33.187v-.4H36.236v.4zm-4.418-2.475c.434.692 1.145 1.308 1.936 1.752.79.443 1.68.723 2.482.723v-.4c-.716 0-1.539-.253-2.287-.672-.748-.42-1.402-.994-1.792-1.615l-.339.212zm-4.823-7.71l4.823 7.71.34-.212-4.824-7.71-.339.212zm-.037-.747H74.87v-.4H26.958v.4zm-.624-.62c0 .344.281.62.624.62v-.4a.222.222 0 01-.224-.22h-.4zm.624-.621a.622.622 0 00-.624.62h.4c0-.12.099-.22.224-.22v-.4zm51.724 0H26.958v.4h51.724v-.4zm.624.62a.622.622 0 00-.624-.62v.4c.126 0 .224.1.224.22h.4zm-.624.62a.622.622 0 00.624-.62h-.4c0 .12-.099.22-.224.22v.4zm-1.843 0h1.843v-.4H76.84v.4zm-1.97 0h1.97v-.4h-1.97v.4zM24.433 59.943a1.45 1.45 0 011.863-1.448l.11-.385a1.85 1.85 0 00-2.373 1.847l.4-.014zm1.974 1.387c-.942.31-1.937-.385-1.974-1.387l-.4.014c.047 1.265 1.3 2.147 2.499 1.753l-.125-.38zm3.766-1.238l-3.766 1.239.125.38 3.766-1.239-.125-.38zm1.216.058c-.378-.032-.76-.054-1.146-.068l-.014.4c.38.014.756.035 1.127.067l.033-.399zm-1.384.923l1.438-.536-.14-.375-1.438.536.14.375zm-.133.308a.235.235 0 01.133-.308l-.14-.375a.635.635 0 00-.366.829l.373-.146zm.317.147a.25.25 0 01-.317-.147l-.373.146a.65.65 0 00.83.375l-.14-.374zm1.719-.642l-1.72.642.14.374 1.72-.641-.14-.375zm-1.236 2.418l1.47-2.116-.329-.228-1.47 2.116.329.228zm-1.606.03c.398.51 1.21.54 1.606-.03l-.329-.228c-.229.33-.715.328-.962.012l-.315.247zm-.145-.993a1 1 0 00.145.994l.314-.247a.6.6 0 01-.088-.598l-.371-.149zm-.14-.32a.25.25 0 01.14.32l.371.149a.65.65 0 00-.357-.838l-.153.37zm-.311.127a.235.235 0 01.312-.127l.153-.369a.635.635 0 00-.837.347l.372.149zm2.27 1.784c-1.174.859-2.827-.393-2.27-1.784l-.372-.149c-.707 1.769 1.384 3.35 2.879 2.255l-.236-.322zm.015-.01l-.014.01.236.322.014-.01-.236-.323zm.069-.053c-.02.016-.04.031-.07.052l.236.323c.028-.02.056-.04.084-.062l-.25-.313zm1.234-1.693c-.494.714-.77 1.112-.942 1.349-.173.237-.232.297-.292.344l.25.313c.104-.083.189-.18.365-.421.177-.242.456-.646.948-1.358l-.329-.227zm1.166-1.683c-.486.699-.866 1.249-1.166 1.683l.33.227 1.164-1.682-.328-.228zm3.073.59a24.882 24.882 0 00-2.875-.673l-.068.394c.979.168 1.922.393 2.83.662l.113-.384zm-2.53 1.007l2.52-.622-.095-.388-2.521.621.095.389zm-.874 2.2c-.531-.861-.087-1.964.873-2.2l-.095-.389c-1.232.304-1.788 1.714-1.119 2.798l.34-.21zm2.146.449c-.664.486-1.67.324-2.146-.45l-.341.21c.6.974 1.872 1.186 2.724.563l-.236-.323zm.05-.036l-.05.036.237.323.053-.04-.24-.319zm1.275-1.411c-.55.624-.847.96-1.02 1.153-.176.194-.217.228-.256.258l.241.32c.073-.056.136-.117.31-.31.177-.194.476-.534 1.025-1.157l-.3-.264zm0-.001l.3.266-.3-.266zm1.402-1.589l-1.402 1.59.3.264 1.402-1.589-.3-.265zm3.289 1.303a28.3 28.3 0 00-3.069-1.358l-.14.375c1.071.398 2.082.853 3.026 1.338l.183-.355zm-2.715.633l2.643-.256-.039-.398-2.643.256.039.398zm-1.184 2.044a1.452 1.452 0 011.184-2.044l-.039-.398c-1.264.122-2.02 1.433-1.512 2.601l.367-.16zm2.249.638c-.752.55-1.858.258-2.249-.638l-.367.16c.49 1.125 1.889 1.506 2.852.801l-.236-.323zm.014-.01l-.013.01.233.324.013-.008-.233-.326zm1.215-1.02a88.05 88.05 0 01-1.215 1.02l.232.326c.04-.029.082-.064 1.24-1.041l-.258-.306zm1.7-1.434l-1.7 1.433.257.306 1.7-1.434-.257-.305zm5.194 3.581a31.426 31.426 0 00-4.964-3.6l-.203.344a31.03 31.03 0 014.901 3.555l.266-.299zm.354-.025a.247.247 0 01-.354.025l-.266.3a.647.647 0 00.93-.072l-.31-.253zm-.024-.32a.231.231 0 01.024.32l.31.253a.631.631 0 00-.068-.87l-.266.298zm-5.142-3.725a32.132 32.132 0 015.142 3.726l.266-.299a32.529 32.529 0 00-5.206-3.772l-.202.345zm-.517-2.71l.42 2.57.395-.065-.42-2.57-.395.066zm-.282-.208c.132-.02.26.073.282.209l.395-.065a.652.652 0 00-.735-.54l.058.396zm-.196.27a.233.233 0 01.196-.27l-.058-.396a.633.633 0 00-.533.731l.395-.065zm.203 1.244l-.203-1.244-.395.065.203 1.243.395-.064zM39.79 60.21l1.79 1.92.292-.273-1.79-1.92-.292.273zm.125-1.483a.993.993 0 00-.125 1.483l.292-.273a.593.593 0 01.07-.887l-.237-.322zm1.476.338c-.28-.512-.968-.71-1.476-.337l.236.322a.61.61 0 01.89.207l.35-.192zm.332.105a.248.248 0 01-.332-.105l-.35.192c.168.31.556.432.87.266l-.188-.354zm-1.87-.976c.615-.294 1.24-.097 1.63.231.197.165.314.347.346.488a.255.255 0 01-.004.154.206.206 0 01-.102.102l.188.354a.603.603 0 00.285-.306.652.652 0 00.023-.394c-.059-.253-.24-.504-.478-.704-.479-.402-1.27-.663-2.06-.286l.172.36zm-.525 2.204c-.553-.747-.309-1.806.525-2.204l-.172-.361c-1.071.51-1.371 1.863-.674 2.803l.321-.238zm.022.03l-.022-.03-.321.238.022.03.321-.238zm.637.692c-.563-.603-.602-.645-.638-.693l-.32.24c.054.071.117.138.665.726l.293-.273zm-.002-.002l-.289.277.29-.277zm.005.005l-.003-.003-.292.273.002.003.293-.273zm.66.708l-.66-.708-.293.273.66.708.293-.273zm-2.614-.684c.84.307 1.572.616 2.381 1.001l.172-.361c-.82-.39-1.564-.704-2.415-1.016l-.138.376zm-1.297-3.858l1.175 3.73.382-.12-1.175-3.73-.382.12zm-2.26-.82c.818-.55 1.956-.144 2.26.82l.382-.12c-.382-1.21-1.819-1.735-2.865-1.031l.223.331zm-.071 2.383c-.79-.637-.745-1.833.07-2.383l-.223-.331c-1.048.705-1.09 2.225-.099 3.025l.252-.31zm1.511 1.22l-1.511-1.22-.252.311 1.512 1.221.251-.311zm-2.472-.149c.768.13 1.533.296 2.295.499l.103-.387a25.622 25.622 0 00-2.332-.506l-.066.394zM31.7 56.216l1.596 3.591.366-.162-1.596-3.592-.366.163zm-2.333-.558c.747-.64 1.922-.368 2.333.558l.366-.163c-.516-1.16-2.001-1.52-2.959-.7l.26.305zm.202 2.381c-.856-.544-.948-1.742-.202-2.381l-.26-.304c-.959.821-.826 2.34.247 3.023l.215-.338zm1.98 1.261l-1.98-1.26-.215.337 1.98 1.26.215-.337zm-.904.32c.176.007.409.017.78.048l.033-.398a18.268 18.268 0 00-.795-.05l-.018.4zm-.008-.002l.034-.398-.034.398zm-.324-.02c.103.011.206.016.332.021l.018-.4a4.998 4.998 0 01-.31-.019l-.04.398zm-1.878-.486c1.229.358 1.55.453 1.878.486l.04-.398c-.28-.028-.555-.107-1.806-.472l-.112.384zm-.005-.001l.122-.381-.122.381zm-2.136-.617c.928.266 1.618.466 2.14.618l.113-.384c-.523-.152-1.214-.353-2.143-.619l-.11.385zm12.09 7.2a.598.598 0 01-.466-.628.554.554 0 01.522-.549l-.039-.398c-.563.055-.861.49-.882.928-.02.436.231.904.77 1.036l.095-.388zm.521-.119a.581.581 0 01-.521.12l-.096.388a.982.982 0 00.875-.202l-.258-.306zm1.97-1.66l-1.97 1.66.258.306 1.97-1.66-.258-.306zm-2.435.602l2.583-.25-.039-.398-2.583.25.039.398zm-1.444-4.7l-2.041-1.649-.252.312 2.042 1.648.252-.31zm-1.101-2.277l.785 2.493.382-.12-.786-2.493-.381.12zm-1.17.132a.562.562 0 01.513-.556.589.589 0 01.657.424l.381-.12a.988.988 0 00-1.088-.701c-.433.054-.845.385-.863.94l.4.013zm.23.496a.608.608 0 01-.23-.496l-.4-.012c-.01.319.129.618.378.82l.252-.312zm-1.363 5.128a.571.571 0 01.4-.348l-.096-.388a.972.972 0 00-.676.588l.372.148zm1.01.636c-.219.248-.524.25-.76.1-.237-.151-.371-.434-.25-.736l-.372-.148c-.205.513.04.987.408 1.221.37.235.902.25 1.274-.172l-.3-.265zm1.705-1.93l-1.705 1.93.3.265 1.705-1.93-.3-.265zm-2.315.946l2.513-.62-.096-.388-2.513.62.096.388zm-3.1-6.386l1.064 2.393.366-.163-1.064-2.393-.365.163zm-.421-.351c.19.045.342.172.422.35l.366-.162a1.013 1.013 0 00-.696-.577l-.092.389zm-.437 1.085c-.586-.373-.198-1.236.437-1.085l.092-.39c-1.092-.259-1.694 1.207-.744 1.812l.215-.337zm2.212 1.409l-2.212-1.41-.215.338 2.212 1.409.215-.337zm-6.132 1.784a.598.598 0 01-.536-.083l-.23.328a.998.998 0 00.891.134l-.125-.38zm2.456-.808l-2.456.808.125.38 2.456-.808-.125-.38zm-2.505-.337l2.513.72.11-.385-2.512-.72-.11.385zm-.487 1.062a.587.587 0 01-.204-.748.56.56 0 01.691-.314l.11-.385a.959.959 0 00-1.165.532.986.986 0 00.338 1.242l.23-.327zm35.18-.446c0-3.521 2.89-6.389 6.445-6.389v-.4c-3.773 0-6.845 3.044-6.845 6.789h.4zm6.445 6.389c-3.555 0-6.445-2.868-6.445-6.389h-.4c0 3.745 3.072 6.789 6.845 6.789v-.4zm6.444-6.389c0 3.521-2.89 6.389-6.444 6.389v.4c3.772 0 6.844-3.044 6.844-6.789h-.4zm-6.444-6.389c3.555 0 6.444 2.868 6.444 6.389h.4c0-3.745-3.072-6.789-6.844-6.789v.4zm-6.206 6.39c0 3.395 2.785 6.154 6.206 6.154v-.4c-3.203 0-5.806-2.583-5.806-5.755h-.4zm6.206-6.156c-3.42 0-6.206 2.76-6.206 6.155h.4c0-3.171 2.603-5.755 5.806-5.755v-.4zm6.205 6.155c0-3.395-2.785-6.155-6.205-6.155v.4c3.202 0 5.805 2.584 5.805 5.755h.4zm-6.205 6.155c3.42 0 6.205-2.76 6.205-6.155h-.4c0 3.172-2.603 5.755-5.805 5.755v.4zm0-7.123a.12.12 0 01-.115-.083l-.381.12a.52.52 0 00.496.363v-.4zm.114-.083a.119.119 0 01-.114.083v.4a.52.52 0 00.496-.363l-.382-.12zm.82-2.612l-.82 2.612.382.12.82-2.612-.382-.12zm-.145-.862a.95.95 0 01.145.862l.382.12a1.35 1.35 0 00-.206-1.22l-.321.238zm-.79-.395a.97.97 0 01.79.395l.32-.238a1.37 1.37 0 00-1.11-.557v.4zm-.788.395a.97.97 0 01.789-.395v-.4a1.37 1.37 0 00-1.11.557l.32.238zm-.146.862a.95.95 0 01.146-.862l-.322-.238a1.35 1.35 0 00-.206 1.22l.382-.12zm.82 2.612l-.82-2.612-.382.12.82 2.612.382-.12zm.115-3.635a.736.736 0 00-.596.299l.322.238a.336.336 0 01.274-.137v-.4zm.595.299a.736.736 0 00-.595-.299v.4c.11 0 .209.05.274.137l.321-.238zm.11.655a.727.727 0 00-.11-.655l-.321.238a.327.327 0 01.05.297l.382.12zm-.515 1.64l.516-1.64-.382-.12-.515 1.64.381.12zm-.896-1.64l.515 1.64.381-.12-.515-1.64-.381.12zm.11-.655a.727.727 0 00-.11.655l.381-.12a.326.326 0 01.05-.297l-.32-.238zm.596 9.31a.972.972 0 01-.789-.396l-.321.238a1.37 1.37 0 001.11.557v-.4zm.79-.396a.971.971 0 01-.79.395v.4a1.37 1.37 0 001.11-.557l-.32-.238zm.145-.862a.95.95 0 01-.146.862l.321.238c.263-.354.339-.8.207-1.22l-.382.12zm-.82-2.612l.82 2.612.382-.12-.82-2.612-.382.12zm-.115-.082c.054 0 .1.034.115.082l.381-.12a.52.52 0 00-.496-.362v.4zm-.114.082a.12.12 0 01.114-.082v-.4a.52.52 0 00-.496.362l.382.12zm-.82 2.612l.82-2.612-.382-.12-.82 2.612.381.12zm.145.862a.95.95 0 01-.146-.862l-.381-.12a1.35 1.35 0 00.206 1.22l.321-.238zm.598-2.433l-.515 1.64.382.12.515-1.64-.382-.12zm.897 1.64l-.515-1.64-.382.12.515 1.64.382-.12zm-.11.656a.73.73 0 00.11-.656l-.382.12a.326.326 0 01-.05.297l.321.239zm-.596.298a.736.736 0 00.595-.298l-.32-.239a.336.336 0 01-.275.137v.4zm-.595-.298c.14.19.359.298.595.298v-.4c-.11 0-.21-.05-.274-.137l-.321.239zm-.111-.656a.727.727 0 00.11.655l.322-.238a.327.327 0 01-.05-.297l-.382-.12zm-2.897-.4c.052.006.104.009.156.009v-.4a1.05 1.05 0 01-.112-.006l-.044.397zm-1.042-.675c.222.38.603.627 1.042.675l.044-.397a.969.969 0 01-.74-.48l-.346.202zm-.069-1.235a1.35 1.35 0 00.07 1.235l.345-.202a.95.95 0 01-.049-.872l-.366-.161zm.96-.786a1.365 1.365 0 00-.96.786l.366.161a.966.966 0 01.681-.557l-.087-.39zm2.692-.602l-2.692.602.087.39 2.692-.601-.087-.39zm.563.246a.52.52 0 00-.563-.246l.087.39a.121.121 0 01.13.057l.346-.201zm-.068.61a.515.515 0 00.068-.61l-.345.201a.115.115 0 01-.016.136l.293.273zm-1.871 2.01l1.87-2.01-.292-.273-1.87 2.011.292.272zm-1.01.441a1.37 1.37 0 001.01-.44l-.293-.273a.97.97 0 01-.716.313v.4zm-.078-1.696l1.69-.378-.087-.39-1.69.377.087.39zm-.236.193a.334.334 0 01.236-.193l-.087-.39a.734.734 0 00-.515.421l.366.162zm.017.3a.326.326 0 01-.017-.3l-.366-.162a.726.726 0 00.037.664l.346-.201zm.256.167a.334.334 0 01-.256-.166l-.346.2a.734.734 0 00.559.363l.043-.397zm.288-.107a.337.337 0 01-.288.107l-.043.397a.737.737 0 00.624-.231l-.293-.273zm1.175-1.262l-1.175 1.262.293.273 1.175-1.263-.293-.272zm2.974-1.362a.12.12 0 01-.104-.06l-.345.202a.52.52 0 00.45.258v-.4zm.028-.003a.131.131 0 01-.028.003v.4a.536.536 0 00.113-.013l-.085-.39zm2.69-.602l-2.691.602.087.39 2.692-.601-.088-.39zm.682-.557a.965.965 0 01-.682.557l.088.39c.43-.096.782-.383.96-.785l-.366-.162zm-.049-.872a.95.95 0 01.049.872l.366.162a1.35 1.35 0 00-.07-1.235l-.345.201zm-.74-.48a.969.969 0 01.74.48l.346-.201a1.369 1.369 0 00-1.042-.676l-.044.398zm-.828.307a.973.973 0 01.828-.306l.044-.398a1.373 1.373 0 00-1.165.432l.293.272zm-1.871 2.011l1.87-2.01-.292-.273-1.871 2.01.293.273zm-.016.137a.115.115 0 01.016-.137l-.293-.273a.515.515 0 00-.068.61l.345-.2zm2.605-2.226c-.205 0-.4.084-.541.236l.293.272a.335.335 0 01.248-.108v-.4zm.082.004a.796.796 0 00-.082-.004v.4c.013 0 .026 0 .041.002l.041-.398zm.56.362a.734.734 0 00-.558-.362l-.044.398c.11.012.202.072.257.166l.345-.202zm.037.664a.727.727 0 00-.037-.663l-.346.2a.326.326 0 01.017.302l.366.161zm-.515.422a.734.734 0 00.515-.422l-.366-.161a.334.334 0 01-.236.193l.087.39zm-1.69.378l1.69-.378-.087-.39-1.69.377.087.39zm.985-1.594l-1.175 1.262.293.273 1.175-1.263-.293-.272zm-.47 5.38c.264.283.626.44 1.01.44v-.4a.97.97 0 01-.717-.313l-.293.272zm-1.871-2.011l1.87 2.01.294-.272-1.871-2.01-.293.272zm-.068-.61a.515.515 0 00.068.61l.293-.273a.115.115 0 01-.016-.136l-.345-.202zm.563-.246a.521.521 0 00-.563.245l.345.202a.121.121 0 01.131-.056l.087-.39zm2.692.602L68.266 60l-.087.39 2.691.602.088-.39zm.96.786a1.365 1.365 0 00-.96-.786l-.088.39a.966.966 0 01.682.557l.366-.161zm-.07 1.235a1.35 1.35 0 00.07-1.235l-.366.161a.95.95 0 01-.049.872l.346.202zm-1.04.675c.438-.048.82-.295 1.04-.675l-.345-.202a.969.969 0 01-.74.48l.044.397zm-.157.009c.052 0 .104-.003.156-.009l-.044-.397a1.033 1.033 0 01-.112.006v.4zm-.246-1.143l-1.175-1.263-.293.273 1.175 1.263.293-.273zm.288.106a.339.339 0 01-.288-.106l-.293.273c.161.173.39.256.624.231l-.043-.398zm.256-.166a.335.335 0 01-.256.166l.044.398a.735.735 0 00.558-.362l-.346-.202zm.017-.3a.326.326 0 01-.017.3l.346.202a.726.726 0 00.037-.664l-.366.162zm-.236-.193a.334.334 0 01.236.193l.366-.162a.733.733 0 00-.515-.422l-.087.39zm-1.69-.378l1.69.378.087-.39-1.69-.379-.087.39zm-2.784-1.697a.12.12 0 01-.027-.003l-.087.39a.523.523 0 00.114.013v-.4zm.104-.06a.12.12 0 01-.104.06v.4a.52.52 0 00.45-.258l-.346-.201zm-.016-.136a.116.116 0 01.016.137l.345.201a.515.515 0 00-.068-.61l-.293.272zm-1.87-2.01l1.87 2.01.293-.272-1.87-2.011-.294.273zm-.83-.307a.973.973 0 01.83.306l.292-.272c-.3-.323-.726-.48-1.165-.432l.044.398zm-.74.48a.969.969 0 01.74-.48l-.043-.398a1.37 1.37 0 00-1.042.676l.346.201zm-.048.871a.95.95 0 01.049-.872l-.346-.201a1.35 1.35 0 00-.069 1.235l.366-.162zm.681.557a.965.965 0 01-.68-.557l-.367.162c.178.402.53.69.96.786l.087-.39zm2.692.602l-2.691-.602-.088.39 2.692.602.087-.39zm-2.474-2.282a.75.75 0 00-.084.004l.045.398a.379.379 0 01.039-.002v-.4zm.541.236a.736.736 0 00-.541-.236v.4c.094 0 .183.038.248.108l.293-.272zm1.175 1.262l-1.175-1.262-.293.272 1.175 1.263.293-.273zm-1.88-.046l1.69.378.087-.39-1.69-.378-.087.39zm-.515-.422c.095.217.284.37.515.422l.087-.39a.333.333 0 01-.236-.193l-.366.161zm.037-.663a.726.726 0 00-.037.663l.366-.161a.326.326 0 01.017-.3l-.346-.202zm.559-.363a.735.735 0 00-.56.363l.347.201a.335.335 0 01.256-.166l-.043-.398z" fill="#fff"/></svg>