<svg width="109" height="108" fill="none" xmlns="http://www.w3.org/2000/svg"><path d="M62.429 16.381c11.654 2.18 24.993-8.123 34.694-1.432 9.528 6.573 9.037 20.636 9.666 32.032.622 11.26.633 23.311-6.107 32.452-6.57 8.912-18.682 10.771-28.98 15.139-10.668 4.523-21.371 14.979-32.183 10.798-11-4.254-11.468-19.303-16.688-29.696-3.757-7.48-7.052-14.561-9.544-22.53C9.915 42.362 1.345 31.412 5.73 20.987 10.134 10.515 22.764 4.137 34.29 3.2c10.621-.863 17.67 11.224 28.139 13.181z" fill="#E0E9F4"/><path d="M57.736 1.671c10.406-.245 19.97 5.796 27.5 12.834 7.259 6.785 10.296 16.222 13.534 25.523 3.616 10.388 11.769 21.925 6.322 31.517-5.525 9.729-21.01 6.53-30.974 11.89-9.244 4.97-14.193 18.024-24.739 18.071-10.53.046-17.288-10.673-24.848-17.852C17.473 76.951 10.355 70.35 7.028 61.29 3.398 51.398-.04 39.842 5.05 30.59c5.022-9.127 17.794-9.761 27.029-14.83 8.768-4.812 15.61-13.85 25.657-14.088z" fill="#3CA582"/><path fill-rule="evenodd" clip-rule="evenodd" d="M54.731 19.413v2.043a.5.5 0 01-.498.503.5.5 0 01-.499-.503v-2.043a.5.5 0 01.499-.503.5.5 0 01.498.503zm-7.489 1.028a.496.496 0 01.705 0l2.408 2.426a.505.505 0 010 .71.496.496 0 01-.705 0l-2.408-2.426a.505.505 0 010-.71zm6.99 11.568c-2.474 0-4.487-2.029-4.487-4.522 0-2.493 2.013-4.522 4.487-4.522 2.475 0 4.488 2.029 4.488 4.522 0 2.494-2.013 4.522-4.488 4.522zm3.49-4.522c0-1.94-1.565-3.517-3.49-3.517-1.924 0-3.49 1.578-3.49 3.517 0 1.94 1.566 3.517 3.49 3.517 1.925 0 3.49-1.578 3.49-3.517zM36.555 64.122h-3.138c-1.258 0-2.28-1.048-2.28-2.335v-.978h1.967c.566 0 1.084.213 1.483.564v-.982c-.332-.355-1.18-1.385-1.18-2.639 0-1.526 1.256-2.72 1.31-2.77l.269-.252.269.252c.053.05 1.31 1.244 1.31 2.77 0 1.254-.848 2.284-1.18 2.64v.98a2.24 2.24 0 011.482-.563h1.968v.978c0 1.287-1.023 2.335-2.28 2.335zm.312-2.496h1.17v.16c0 .838-.664 1.52-1.482 1.52h-1.17v-.161c0-.838.665-1.519 1.482-1.519zm-1.881-5.743c.311.382.782 1.088.782 1.87 0 .78-.47 1.487-.782 1.869-.312-.382-.782-1.088-.782-1.87 0-.78.47-1.487.782-1.869zm-1.57 7.422c-.817 0-1.482-.681-1.482-1.518v-.16h1.17c.818 0 1.483.68 1.483 1.518v.16h-1.17zm20.968.817h-3.138c-1.258 0-2.281-1.048-2.281-2.335v-.978h1.968c.566 0 1.084.213 1.483.564v-.982c-.333-.355-1.181-1.385-1.181-2.639 0-1.526 1.257-2.72 1.31-2.77l.27-.252.269.252c.053.05 1.31 1.244 1.31 2.77 0 1.254-.848 2.284-1.18 2.64v.98c.398-.35.916-.563 1.482-.563h1.968v.978c0 1.287-1.023 2.335-2.28 2.335zm.312-2.496h1.17v.16c0 .838-.665 1.52-1.482 1.52h-1.17v-.161c0-.838.664-1.519 1.482-1.519zm-1.882-5.743c.312.382.782 1.088.782 1.87 0 .78-.47 1.487-.782 1.869-.311-.382-.782-1.088-.782-1.87 0-.78.47-1.487.782-1.869zm-1.569 7.422c-.817 0-1.482-.681-1.482-1.518v-.16h1.17c.818 0 1.483.68 1.483 1.518v.16h-1.17zm22.589.817h-3.139c-1.257 0-2.28-1.048-2.28-2.335v-.978h1.968c.566 0 1.084.213 1.483.564v-.982c-.333-.355-1.181-1.385-1.181-2.639 0-1.526 1.257-2.72 1.31-2.77l.27-.252.268.252c.054.05 1.311 1.244 1.311 2.77 0 1.254-.848 2.284-1.18 2.64v.98c.398-.35.916-.563 1.482-.563h1.968v.978c0 1.287-1.023 2.335-2.28 2.335zm.312-2.496h1.17v.16c0 .838-.665 1.52-1.482 1.52h-1.17v-.161c0-.838.664-1.519 1.482-1.519zm-1.882-5.743c.312.382.782 1.088.782 1.87 0 .78-.47 1.487-.782 1.869-.311-.382-.782-1.088-.782-1.87 0-.78.47-1.487.782-1.869zm-1.569 7.422c-.817 0-1.483-.681-1.483-1.518v-.16h1.171c.818 0 1.483.68 1.483 1.518v.16h-1.171zm21.778.817h-3.138c-1.258 0-2.28-1.048-2.28-2.335v-.978h1.967c.566 0 1.084.213 1.483.564v-.982c-.332-.355-1.18-1.385-1.18-2.639 0-1.526 1.256-2.72 1.31-2.77l.269-.252.269.252c.053.05 1.31 1.244 1.31 2.77 0 1.254-.848 2.284-1.18 2.64v.98c.398-.35.916-.563 1.482-.563h1.968v.978c0 1.287-1.023 2.335-2.28 2.335zm.312-2.496h1.17v.16c0 .838-.665 1.52-1.482 1.52h-1.17v-.161c0-.838.665-1.519 1.482-1.519zm-1.881-5.743c.311.382.782 1.088.782 1.87 0 .78-.47 1.487-.782 1.869-.312-.382-.782-1.088-.782-1.87 0-.78.47-1.487.782-1.869zm-1.57 7.422c-.817 0-1.482-.681-1.482-1.518v-.16h1.17c.818 0 1.483.68 1.483 1.518v.16h-1.17zm-7.351 12.25h1.17c1.258 0 2.28-1.047 2.28-2.335v-.977h-1.968c-.565 0-1.083.213-1.482.563v-.981c.332-.355 1.18-1.385 1.18-2.639 0-1.526-1.256-2.72-1.31-2.77l-.269-.252-.269.252c-.053.05-1.31 1.244-1.31 2.77 0 1.254.848 2.284 1.18 2.639v.981a2.238 2.238 0 00-1.482-.563h-1.968v.977c0 1.288 1.022 2.336 2.28 2.336h1.968zm2.653-2.495h-1.17c-.818 0-1.483.68-1.483 1.518v.16h1.17c.818 0 1.483-.68 1.483-1.518v-.16zm-2.27-3.874c0-.781-.47-1.487-.782-1.87-.311.383-.782 1.089-.782 1.87 0 .781.47 1.487.782 1.87.311-.382.782-1.089.782-1.87zm-3.834 4.034c0 .838.665 1.519 1.483 1.519h1.17v-.16c0-.838-.665-1.52-1.482-1.52h-1.17v.161zm-15.999 2.336h1.17c1.258 0 2.28-1.048 2.28-2.336v-.977h-1.967c-.566 0-1.084.213-1.483.563v-.981c.333-.355 1.181-1.385 1.181-2.639 0-1.526-1.257-2.72-1.31-2.77l-.27-.252-.269.252c-.053.05-1.31 1.244-1.31 2.77 0 1.254.848 2.284 1.18 2.639v.981a2.238 2.238 0 00-1.482-.563h-1.968v.977c0 1.288 1.023 2.336 2.28 2.336h1.968zm2.653-2.496h-1.17c-.818 0-1.483.68-1.483 1.518v.16h1.17c.818 0 1.483-.68 1.483-1.518v-.16zm-2.27-3.874c0-.781-.47-1.487-.782-1.87-.311.383-.782 1.089-.782 1.87 0 .781.47 1.487.782 1.87.312-.382.782-1.089.782-1.87zm-3.834 4.034c0 .838.666 1.519 1.483 1.519h1.17v-.16c0-.838-.664-1.52-1.482-1.52h-1.17v.161zm-14.378 2.336h1.17c1.258 0 2.28-1.048 2.28-2.336v-.977h-1.967c-.566 0-1.084.213-1.483.563v-.981c.332-.355 1.18-1.385 1.18-2.639 0-1.526-1.256-2.72-1.31-2.77l-.269-.252-.269.252c-.053.05-1.31 1.244-1.31 2.77 0 1.254.848 2.284 1.18 2.639v.981a2.238 2.238 0 00-1.482-.563h-1.968v.977c0 1.288 1.023 2.336 2.28 2.336h1.968zm2.653-2.496h-1.17c-.818 0-1.483.68-1.483 1.518v.16h1.17c.818 0 1.483-.68 1.483-1.518v-.16zm-2.27-3.874c0-.781-.47-1.487-.782-1.87-.311.383-.782 1.089-.782 1.87 0 .781.47 1.487.782 1.87.312-.382.782-1.089.782-1.87zm-3.834 4.034c0 .838.665 1.519 1.483 1.519h1.17v-.16c0-.838-.665-1.52-1.482-1.52h-1.17v.161zm-22.527-9.098h-3.138c-1.258 0-2.28-1.047-2.28-2.335v-.978h1.967c.566 0 1.084.213 1.483.564v-.981c-.332-.356-1.18-1.386-1.18-2.64 0-1.526 1.256-2.72 1.31-2.77l.269-.252.269.252c.053.05 1.31 1.245 1.31 2.77 0 1.254-.848 2.284-1.18 2.64v.98a2.24 2.24 0 011.482-.563h1.968v.978c0 1.288-1.023 2.335-2.28 2.335zm.312-2.496h1.17v.16c0 .838-.664 1.52-1.482 1.52h-1.17v-.161c0-.838.665-1.519 1.482-1.519zm-1.881-5.743c.311.382.782 1.088.782 1.87 0 .78-.47 1.487-.782 1.869-.312-.382-.782-1.088-.782-1.87 0-.78.47-1.487.782-1.869zm-1.57 7.422c-.817 0-1.482-.68-1.482-1.518v-.16h1.17c.818 0 1.483.68 1.483 1.518v.16h-1.17zm11.288 12.25h1.17c1.258 0 2.28-1.047 2.28-2.335v-.977h-1.967c-.566 0-1.084.213-1.483.563v-.981c.333-.355 1.181-1.385 1.181-2.639 0-1.526-1.257-2.72-1.31-2.77l-.27-.252-.269.252c-.053.05-1.31 1.244-1.31 2.77 0 1.254.848 2.284 1.18 2.639v.981a2.238 2.238 0 00-1.482-.563h-1.968v.977c0 1.288 1.023 2.336 2.28 2.336h1.968zm2.653-2.495h-1.17c-.818 0-1.483.68-1.483 1.518v.16h1.17c.818 0 1.483-.68 1.483-1.518v-.16zm-2.27-3.874c0-.781-.47-1.487-.782-1.87-.311.383-.782 1.089-.782 1.87 0 .781.47 1.487.782 1.87.312-.382.783-1.089.783-1.87zm-3.834 4.034c0 .838.666 1.519 1.483 1.519h1.17v-.16c0-.838-.664-1.52-1.482-1.52h-1.17v.161zm34.687-41.826a.505.505 0 000 .71l2.407 2.426c.195.197.51.197.705 0a.505.505 0 000-.71l-2.407-2.426a.496.496 0 00-.705 0zM47.242 34.53c.195.197.51.197.705 0l2.408-2.426a.505.505 0 000-.71.496.496 0 00-.705 0l-2.408 2.426a.505.505 0 000 .71zm13.276-14.09a.496.496 0 01.705 0 .505.505 0 010 .711l-2.407 2.426a.496.496 0 01-.705 0 .505.505 0 010-.71l2.407-2.426zm-4.186 12.153a.504.504 0 00-.27.657l.382.928a.497.497 0 00.651.272.504.504 0 00.27-.657l-.381-.928a.497.497 0 00-.652-.272zm-4.31-11.799l.382.929a.504.504 0 01-.27.656.497.497 0 01-.652-.272l-.381-.928a.504.504 0 01.27-.657.497.497 0 01.651.272zm-3.507 8.534l-.921.384a.504.504 0 00-.27.657.497.497 0 00.652.271l.92-.384a.504.504 0 00.27-.657.497.497 0 00-.65-.271zm12.356-4.068l-.92.384a.497.497 0 01-.652-.271.504.504 0 01.27-.657l.92-.385a.497.497 0 01.652.272.504.504 0 01-.27.657zm-9.388 7.605l-.382.928a.504.504 0 00.27.657.497.497 0 00.652-.272l.381-.928a.504.504 0 00-.27-.657.497.497 0 00-.651.272zm5.882-11.686l-.382.928a.497.497 0 01-.651.272.504.504 0 01-.27-.656l.381-.929a.497.497 0 01.652-.272c.254.107.375.4.27.657zm-8.468 3.537l-.921-.385a.497.497 0 00-.652.272.504.504 0 00.27.657l.921.384a.497.497 0 00.652-.271.504.504 0 00-.27-.657zm11.053 4.611l.921.385c.255.106.376.4.27.657a.497.497 0 01-.651.271l-.922-.384a.504.504 0 01-.27-.657.497.497 0 01.652-.271zm-6.216 4.188v2.043a.5.5 0 00.499.503.5.5 0 00.498-.503v-2.043a.5.5 0 00-.498-.502.5.5 0 00-.499.502zm-8.01-6.028a.5.5 0 00.498.502h2.028a.5.5 0 00.498-.502.5.5 0 00-.498-.502h-2.028a.5.5 0 00-.498.502zm14.492-.502h2.028a.5.5 0 01.498.502.5.5 0 01-.498.502h-2.028a.5.5 0 01-.498-.502.5.5 0 01.498-.502zm7.367 31.389C51.943 45.654 32.263 39.07 12.18 39.84l-.034-.973a83.616 83.616 0 0140.339 8.645l-.204-.462A95.942 95.942 0 0194.458 39l-.033.972a94.973 94.973 0 00-41.394 7.813 83.915 83.915 0 016.03 3.362 95.91 95.91 0 0135.55-5.386l-.033.973a94.939 94.939 0 00-34.455 5.074 84.152 84.152 0 014.194 2.837l-.007-.024a96.108 96.108 0 012.36-.65l.25.942c-.546.142-1.09.29-1.633.442a84.27 84.27 0 012.91 2.262l-.614.757zm-18.008-5.26a82.634 82.634 0 00-37.438-7.388l-.034-.972a83.603 83.603 0 0137.877 7.473l-.405.886zm13.317 7.629a83.12 83.12 0 00-5.461-3.53l.496-.837a84.103 84.103 0 015.525 3.57l-.56.797zm-13.921-3.41a82.632 82.632 0 00-36.833-7.114l-.034-.973a83.599 83.599 0 0137.265 7.199l-.398.889zm45.607-5.443a94.895 94.895 0 00-19.394 1.25l-.164-.96a95.866 95.866 0 0119.592-1.262l-.034.972zm-80.05 3.17c-.782.007-1.564.026-2.346.056l-.034-.972a83.24 83.24 0 012.374-.058l.006.974zm16.967 1.591a82.566 82.566 0 00-11.528-1.466l.057-.971c3.915.22 7.812.714 11.664 1.483l-.193.954zm55.77.87c-3.644.14-7.28.49-10.889 1.048l-.151-.962a95.895 95.895 0 0111-1.059l.04.973z" fill="#fff"/><path d="M47.947 20.44l-.142.141.142-.14zm-.705 0l.142.141-.142-.14zm3.113 2.427l-.142.14.142-.14zm0 .71l-.142-.14.142.14zm-.705 0l.142-.14-.142.14zm-2.408-2.426l.142-.14-.142.14zM35.385 64.122v-.2.2zm-.798 0v.2-.2zm-3.45-3.313v-.2a.2.2 0 00-.2.2h.2zm3.45.564l-.132.15a.2.2 0 00.332-.15h-.2zm0-.982h.2a.2.2 0 00-.054-.136l-.146.136zm.13-5.409l.136.146-.136-.146zm.269-.252l.136-.146a.2.2 0 00-.273 0l.137.146zm.269.252l.136-.146-.136.146zm.13 5.41l-.146-.137a.2.2 0 00-.054.136h.2zm0 .98h-.2a.2.2 0 00.332.15l-.132-.15zm3.45-.563h.2a.2.2 0 00-.2-.2v.2zm-.797.817h.2a.2.2 0 00-.2-.2v.2zm-2.653 1.68h-.2c0 .11.09.2.2.2v-.2zm0-.161h-.2.2zm-.4-7.262l.156-.126a.2.2 0 00-.31 0l.155.126zm0 3.739l-.154.126a.2.2 0 00.31 0l-.155-.126zm-3.051 2.004v-.2a.2.2 0 00-.2.2h.2zm2.653 1.68v.2a.2.2 0 00.2-.2h-.2zm18.626.816v-.2.2zm-.797 0v.2-.2zm-3.451-3.313v-.2a.2.2 0 00-.2.2h.2zm3.45.564l-.131.15a.2.2 0 00.332-.15h-.2zm0-.982h.2a.2.2 0 00-.053-.136l-.146.136zm.13-5.409l.137.146-.137-.146zm.27-.252l.136-.146a.2.2 0 00-.273 0l.136.146zm.269.252l.136-.146-.136.146zm.13 5.41l-.147-.137a.2.2 0 00-.054.136h.2zm0 .98h-.2a.2.2 0 00.331.15l-.132-.15zm3.45-.563h.2a.2.2 0 00-.2-.2v.2zm-.798.817h.2a.2.2 0 00-.2-.2v.2zm-2.653 1.68h-.2c0 .11.09.2.2.2v-.2zm0-.161h-.2.2zm-.399-7.262l.155-.126a.2.2 0 00-.31 0l.155.126zm0 3.739l-.155.126a.2.2 0 00.31 0l-.155-.126zm-3.051 2.004v-.2a.2.2 0 00-.2.2h.2zm2.653 1.68v.2a.2.2 0 00.2-.2h-.2zm20.247.816v-.2.2zm-.797 0v.2-.2zm-3.451-3.313v-.2a.2.2 0 00-.2.2h.2zm3.45.564l-.131.15a.2.2 0 00.332-.15h-.2zm0-.982h.2a.2.2 0 00-.053-.136l-.146.136zm.13-5.409l.137.146-.137-.146zm.27-.252l.136-.146a.2.2 0 00-.273 0l.136.146zm.268.252l.137-.146-.137.146zm.13 5.41l-.146-.137a.2.2 0 00-.054.136h.2zm0 .98h-.2a.2.2 0 00.332.15l-.132-.15zm3.45-.563h.2a.2.2 0 00-.2-.2v.2zm-.797.817h.2a.2.2 0 00-.2-.2v.2zm-2.653 1.68h-.2c0 .11.09.2.2.2v-.2zm0-.161h-.2.2zm-.399-7.262l.155-.126a.2.2 0 00-.31 0l.155.126zm0 3.739l-.155.126a.2.2 0 00.31 0l-.155-.126zm-3.052 2.004v-.2a.2.2 0 00-.2.2h.2zm2.654 1.68v.2a.2.2 0 00.2-.2h-.2zm19.436.816v-.2.2zm-.797 0v.2-.2zm-3.45-3.313v-.2a.2.2 0 00-.2.2h.2zm3.45.564l-.132.15a.2.2 0 00.332-.15h-.2zm0-.982h.2a.2.2 0 00-.054-.136l-.146.136zm.13-5.409l.136.146-.136-.146zm.269-.252l.136-.146a.2.2 0 00-.273 0l.137.146zm.269.252l.136-.146-.136.146zm.13 5.41l-.147-.137a.2.2 0 00-.053.136h.2zm0 .98h-.2a.2.2 0 00.332.15l-.133-.15zm3.45-.563h.2a.2.2 0 00-.2-.2v.2zm-.797.817h.2a.2.2 0 00-.2-.2v.2zm-2.654 1.68h-.2c0 .11.09.2.2.2v-.2zm0-.161h-.2.2zm-.398-7.262l.155-.126a.2.2 0 00-.31 0l.155.126zm0 3.739l-.155.126a.2.2 0 00.31 0l-.155-.126zm-3.052 2.004v-.2a.2.2 0 00-.2.2h.2zm2.653 1.68v.2a.2.2 0 00.2-.2h-.2zm-8.522 12.25v-.2.2zm3.45-3.313h.2a.2.2 0 00-.2-.2v.2zm-3.45.563h-.2a.2.2 0 00.332.15l-.132-.15zm0-.981l-.146-.137a.2.2 0 00-.054.137h.2zm-.13-5.41l.137-.145-.137.146zm-.269-.251l.137-.146a.2.2 0 00-.274 0l.137.146zm-.269.252l.137.146-.137-.146zm-.13 5.409h.2a.2.2 0 00-.054-.137l-.146.137zm0 .981l-.132.15a.2.2 0 00.332-.15h-.2zm-3.45-.563v-.2a.2.2 0 00-.2.2h.2zm3.45 3.313v.2-.2zm3.451-2.496h.2a.2.2 0 00-.2-.2v.2zm-2.653 1.518h-.2.2zm0 .16h-.2c0 .111.09.2.2.2v-.2zm-.399-7.421l.155-.127a.2.2 0 00-.31 0l.155.127zm0 3.739l-.155.126a.2.2 0 00.31 0l-.155-.127zm-.399 3.683v.2a.2.2 0 00.2-.2h-.2zm-2.653-1.68v-.2a.2.2 0 00-.2.2h.2zm-15.999 2.497v-.2.2zm3.45-3.313h.2a.2.2 0 00-.2-.2v.2zm-3.45.563h-.2a.2.2 0 00.332.15l-.132-.15zm0-.981l-.146-.137a.2.2 0 00-.054.137h.2zm-.13-5.41l.137-.145-.137.146zm-.269-.251l.137-.146a.2.2 0 00-.273 0l.136.146zm-.269.252l.137.146-.137-.146zm-.13 5.409h.2a.2.2 0 00-.053-.137l-.146.137zm0 .981l-.131.15a.2.2 0 00.332-.15h-.2zm-3.45-.563v-.2a.2.2 0 00-.2.2h.2zm3.45 3.313v.2-.2zm3.451-2.496h.2a.2.2 0 00-.2-.2v.2zm-2.653 1.518h-.2.2zm0 .16h-.2c0 .111.09.2.2.2v-.2zm-.399-7.421l.155-.127a.2.2 0 00-.31 0l.155.127zm0 3.739l-.155.126a.2.2 0 00.31 0l-.155-.127zm-.398 3.683v.2a.2.2 0 00.2-.2h-.2zm-2.654-1.68v-.2a.2.2 0 00-.2.2h.2zm-14.378 2.497v-.2.2zm3.45-3.313h.2a.2.2 0 00-.2-.2v.2zm-3.45.563h-.2a.2.2 0 00.332.15l-.132-.15zm0-.981l-.146-.137a.2.2 0 00-.054.137h.2zm-.13-5.41l.137-.145-.137.146zm-.269-.251l.137-.146a.2.2 0 00-.273 0l.136.146zm-.269.252l-.136-.146.136.146zm-.13 5.409h.2a.2.2 0 00-.053-.137l-.146.137zm0 .981l-.131.15a.2.2 0 00.331-.15h-.2zm-3.45-.563v-.2a.2.2 0 00-.2.2h.2zm3.45 3.313v.2-.2zm3.451-2.496h.2a.2.2 0 00-.2-.2v.2zm-2.653 1.518h-.2.2zm0 .16h-.2c0 .111.09.2.2.2v-.2zm-.399-7.421l.155-.127a.2.2 0 00-.31 0l.155.127zm0 3.739l-.155.126a.2.2 0 00.31 0l-.155-.127zm-.398 3.683v.2a.2.2 0 00.2-.2h-.2zm-2.654-1.68v-.2a.2.2 0 00-.2.2h.2zm-23.697-8.937v-.2.2zm-.798 0v.2-.2zm-3.45-3.313v-.2a.2.2 0 00-.2.2h.2zm3.45.564l-.132.15a.2.2 0 00.332-.15h-.2zm0-.981h.2a.2.2 0 00-.054-.137l-.146.136zm.13-5.41l-.137-.146.137.146zm.269-.252l.137-.146a.2.2 0 00-.274 0l.137.146zm.269.252l.137-.146-.137.146zm.13 5.41l-.146-.137a.2.2 0 00-.054.136h.2zm0 .98h-.2a.2.2 0 00.332.15l-.132-.15zm3.45-.563h.2a.2.2 0 00-.2-.2v.2zm-.797.817h.2a.2.2 0 00-.2-.2v.2zm-2.653 1.68h-.2c0 .11.09.2.2.2v-.2zm0-.161h-.2.2zm-.4-7.262l.156-.126a.2.2 0 00-.31 0l.155.126zm0 3.739l-.154.126a.2.2 0 00.31 0l-.155-.126zm-3.051 2.004v-.2a.2.2 0 00-.2.2h.2zm2.653 1.68v.2a.2.2 0 00.2-.2h-.2zm10.117 12.25v-.2.2zm3.45-3.313h.2a.2.2 0 00-.2-.2v.2zm-3.45.563h-.2a.2.2 0 00.332.15l-.132-.15zm0-.981l-.146-.137a.2.2 0 00-.054.137h.2zm-.13-5.41l.137-.145-.137.146zm-.269-.251l.137-.146a.2.2 0 00-.273 0l.136.146zm-.269.252l-.136-.146.136.146zm-.13 5.409h.2a.2.2 0 00-.053-.137l-.146.137zm0 .981l-.131.15a.2.2 0 00.332-.15h-.2zm-3.45-.563v-.2a.2.2 0 00-.2.2h.2zm3.45 3.313v.2-.2zm3.451-2.496h.2a.2.2 0 00-.2-.2v.2zm-2.653 1.518h-.2.2zm0 .16h-.2c0 .111.09.2.2.2v-.2zm-.399-7.421l.155-.127a.2.2 0 00-.31 0l.155.127zm0 3.739l-.154.126a.2.2 0 00.31 0l-.156-.127zm-.398 3.683v.2a.2.2 0 00.2-.2h-.2zm-2.654-1.68v-.2a.2.2 0 00-.2.2h.2zm34.687-40.955l.142-.14-.142.14zm0-.71l.142.14-.142-.14zm2.407 3.136l.142-.14-.142.14zm.705 0l-.142-.14.142.14zm0-.71l-.142.14.142-.14zm-2.407-2.426l-.142.14.142-.14zM47.947 34.53l-.142-.14.142.14zm-.705 0l.142-.14-.142.14zm3.113-2.426l-.142-.14.142.14zm0-.71l-.142.14.142-.14zm-.705 0l.142.14-.142-.14zm-2.408 2.426l.142.14-.142-.14zm13.981-13.38l-.142.141.142-.14zm-.705 0l-.142-.14.142.14zm.705.711l-.142-.14.142.14zm-2.407 2.426l-.142-.14.142.14zm-.705 0l.142-.14-.142.14zm0-.71l.142.14-.142-.14zM56.062 33.25l-.185.076.185-.076zm.27-.657l-.077-.184.077.184zm.112 1.585l-.185.076.185-.076zm.651.272l-.077-.185.077.185zm.27-.657l.185-.076-.185.077zm-.381-.928l.185-.076-.185.076zm-4.58-11.142l.185-.076-.185.076zm-.382-.929l.185-.076-.185.076zm.112 1.585l-.077-.184.077.184zm-.652-.272l-.184.076.184-.076zm-.381-.928l-.185.076.185-.076zm.27-.657l-.077-.184.077.184zm-3.777 9.19l.077.185-.077-.185zm.921-.384l-.077-.185.077.184zm-1.19 1.04l-.186.077.185-.076zm.65.273l-.077-.185.078.184zm.922-.385l-.077-.185.077.185zm.27-.657l.185-.076-.185.076zm10.783-3.955l.077.185-.077-.185zm.921-.384l-.077-.185.077.185zm-1.572.112l-.185.076.185-.076zm.27-.656l.077.184-.078-.184zm.92-.385l-.076-.184.077.184zm-9.388 9.463l-.184-.077.184.077zm.382-.929l.185.076-.185-.076zm-.112 1.585l-.077.184.077-.184zm.652-.272l.185.076-.185-.076zm.381-.928l.185.076-.185-.076zm-.27-.657l.078-.184-.078.184zm4.849-10.486l-.185-.076.185.076zm.382-.928l.184.076-.184-.076zm-1.034 1.2l-.077.185.078-.185zm-.27-.656l-.184-.076.185.076zm.382-.929l-.185-.076.185.076zm.652-.272l.077-.184-.077.184zm-9.12 3.81l.078-.185-.077.184zm.922.384l-.077.185.077-.185zm-1.573-.113l-.185-.076.185.076zm.27.657l-.077.184.077-.184zm.921.384l-.077.185.077-.185zm.652-.271l.185.075-.185-.076zm11.704 4.34l-.077.184.077-.185zm-.92-.386l.076-.184-.077.184zm1.19 1.042l.185.076-.185-.076zm-.651.271l-.077.185.077-.184zm-.922-.384l-.076.184.077-.184zm-.27-.657l-.184-.076.185.076zM12.18 39.84l-.2.008a.2.2 0 00.208.193l-.008-.2zm55.403 18.535l-.126.155a.2.2 0 00.281-.03l-.155-.126zM12.146 38.867l-.007-.2a.2.2 0 00-.193.207l.2-.007zm40.339 8.645l-.09.18a.2.2 0 00.273-.26l-.183.08zm-.204-.462l-.08-.183a.2.2 0 00-.103.263l.183-.08zM94.458 39l.2.007a.2.2 0 00-.193-.207l-.007.2zm-.033.972l-.007.2a.2.2 0 00.207-.193l-.2-.007zm-41.394 7.813l-.08-.183a.2.2 0 00-.01.362l.09-.179zm6.03 3.362l-.105.17a.2.2 0 00.171.018l-.066-.188zm35.55-5.386l.2.007a.2.2 0 00-.192-.206l-.007.2zm-.033.973l-.008.2a.2.2 0 00.208-.193l-.2-.007zm-34.455 5.074l-.065-.189a.2.2 0 00-.042.358l.107-.169zm4.194 2.837l-.117.162a.2.2 0 00.31-.218l-.193.056zm-.007-.024l-.055-.192a.2.2 0 00-.137.248l.192-.056zm2.36-.65l.194-.051a.2.2 0 00-.244-.142l.05.193zm.25.942l.05.193a.2.2 0 00.143-.244l-.194.05zm-1.633.442l-.053-.192a.2.2 0 00-.066.353l.12-.16zm2.91 2.262l.155.126a.2.2 0 00-.03-.281l-.125.155zm-56.06-11.891l-.2.007a.2.2 0 00.208.193l-.008-.2zm37.438 7.387l-.083.182a.2.2 0 00.265-.099l-.182-.083zm-37.471-8.36l-.008-.2a.2.2 0 00-.192.208l.2-.007zm37.876 7.474l.182.083a.2.2 0 00-.1-.265l-.082.182zm7.45 4.987l-.171-.102a.2.2 0 00.07.274l.102-.172zm5.462 3.529l-.115.163a.2.2 0 00.279-.049l-.164-.114zm-4.965-4.367l.102-.173a.2.2 0 00-.274.07l.172.102zm5.525 3.57l.164.114a.2.2 0 00-.05-.278l-.114.163zm-51.314-9.727l-.2.007a.2.2 0 00.207.193l-.007-.2zm36.833 7.115l-.081.182a.2.2 0 00.264-.1l-.183-.082zm-36.867-8.088l-.008-.2a.2.2 0 00-.192.207l.2-.007zm37.265 7.199l.182.081a.2.2 0 00-.101-.264l-.081.183zm25.815-3.306l-.197.034a.2.2 0 00.23.163l-.033-.197zm19.394-1.249l-.008.2a.2.2 0 00.208-.193l-.2-.007zm-19.558.29l-.033-.198a.2.2 0 00-.164.231l.197-.034zm19.592-1.262l.2.007a.2.2 0 00-.193-.207l-.007.2zm-82.43 4.198l-.2.007a.2.2 0 00.207.193l-.007-.2zm2.346-.056l.002.2a.2.2 0 00.198-.202l-.2.002zm-2.38-.916l-.008-.2a.2.2 0 00-.192.206l.2-.006zm2.374-.058h.2a.2.2 0 00-.202-.2l.002.2zm5.445 1.1l-.2-.013a.2.2 0 00.189.212l.01-.2zm11.528 1.465l-.039.196a.2.2 0 00.235-.156l-.196-.04zm-11.47-2.437l.01-.2a.2.2 0 00-.21.188l.2.012zm11.663 1.483l.196.04a.2.2 0 00-.157-.236l-.04.196zm44.688 2.872l-.198.031a.2.2 0 00.229.167l-.03-.198zm10.89-1.048l.007.2a.2.2 0 00.193-.208l-.2.008zm-11.041.086l-.031-.197a.2.2 0 00-.167.228l.198-.03zm11-1.059l.2-.008a.2.2 0 00-.207-.191l.007.2zM54.931 21.456v-2.043h-.4v2.043h.4zm-.698.703a.7.7 0 00.698-.703h-.4a.3.3 0 01-.298.303v.4zm-.699-.703a.7.7 0 00.699.703v-.4a.3.3 0 01-.299-.303h-.4zm0-2.043v2.043h.4v-2.043h-.4zm.699-.703a.7.7 0 00-.699.703h.4a.3.3 0 01.299-.303v-.4zm.698.703a.7.7 0 00-.698-.703v.4a.3.3 0 01.298.303h.4zm-6.842.887a.696.696 0 00-.989 0l.284.281a.296.296 0 01.421 0l.284-.281zm2.408 2.426L48.089 20.3l-.284.281 2.408 2.427.284-.282zm0 .992a.705.705 0 000-.992l-.284.282a.305.305 0 010 .428l.284.282zm-.99 0a.696.696 0 00.99 0l-.284-.282a.296.296 0 01-.422 0l-.283.282zM47.1 21.292l2.408 2.426.283-.282-2.407-2.426-.284.282zm0-.992a.705.705 0 000 .992l.284-.282a.305.305 0 010-.429L47.1 20.3zm2.445 7.187c0 2.603 2.101 4.722 4.687 4.722v-.4c-2.362 0-4.287-1.938-4.287-4.322h-.4zm4.687-4.722c-2.586 0-4.687 2.12-4.687 4.722h.4c0-2.384 1.925-4.322 4.287-4.322v-.4zm4.688 4.722c0-2.602-2.102-4.722-4.688-4.722v.4c2.363 0 4.288 1.938 4.288 4.322h.4zm-4.688 4.722c2.587 0 4.688-2.12 4.688-4.722h-.4c0 2.385-1.925 4.322-4.288 4.322v.4zm0-8.04c1.813 0 3.29 1.488 3.29 3.318h.4c0-2.048-1.653-3.717-3.69-3.717v.4zm-3.29 3.318c0-1.83 1.478-3.317 3.29-3.317v-.4c-2.036 0-3.69 1.669-3.69 3.717h.4zm3.29 3.317c-1.812 0-3.29-1.487-3.29-3.317h-.4c0 2.048 1.654 3.717 3.69 3.717v-.4zm3.29-3.317c0 1.83-1.477 3.317-3.29 3.317v.4c2.037 0 3.69-1.669 3.69-3.717h-.4zM35.385 64.322h1.17v-.4h-1.17v.4zm-.798 0h.798v-.4h-.798v.4zm-1.17 0h1.17v-.4h-1.17v.4zm-2.48-2.535c0 1.393 1.107 2.535 2.48 2.535v-.4c-1.143 0-2.08-.953-2.08-2.135h-.4zm0-.978v.978h.4v-.978h-.4zm2.167-.2h-1.968v.4h1.968v-.4zm1.615.613a2.439 2.439 0 00-1.615-.613v.4c.515 0 .986.193 1.351.514l.264-.3zm-.332-.83v.98h.4v-.98h-.4zm-1.18-2.64c0 1.336.896 2.415 1.234 2.776l.292-.273c-.327-.35-1.127-1.33-1.127-2.503h-.4zm1.373-2.916a4.984 4.984 0 00-.706.87c-.332.511-.668 1.23-.668 2.046h.4c0-.709.293-1.35.603-1.83.31-.477.624-.775.644-.794l-.273-.292zm.27-.252l-.27.252.273.292.27-.252-.274-.292zm.541.252l-.269-.252-.273.292.27.252.273-.292zm1.374 2.916c0-.816-.335-1.535-.667-2.047a4.984 4.984 0 00-.706-.869l-.274.292c.02.019.335.317.644.794.31.48.603 1.121.603 1.83h.4zm-1.234 2.776c.337-.361 1.234-1.44 1.234-2.776h-.4c0 1.173-.8 2.153-1.127 2.503l.293.273zm.054.845v-.982h-.4v.982h.4zm1.282-.764c-.617 0-1.181.232-1.614.613l.264.3c.364-.32.836-.513 1.35-.513v-.4zm1.968 0h-1.968v.4h1.968v-.4zm.2 1.178v-.978h-.4v.978h.4zm-2.48 2.535c1.372 0 2.48-1.142 2.48-2.535h-.4c0 1.181-.938 2.135-2.08 2.135v.4zm1.483-2.896h-1.17v.4h1.17v-.4zm.2.36v-.16h-.4v.16h.4zm-1.683 1.72c.932 0 1.683-.776 1.683-1.72h-.4c0 .732-.58 1.32-1.283 1.32v.4zm-1.17 0h1.17v-.4h-1.17v.4zm-.2-.361v.16h.4v-.16h-.4zm1.682-1.719c-.932 0-1.682.775-1.682 1.719h.4c0-.732.58-1.319 1.282-1.319v-.4zm-.9-3.674c0-.853-.508-1.605-.826-1.995l-.31.253c.305.374.737 1.034.737 1.742h.4zm-.826 1.996c.318-.39.827-1.142.827-1.995h-.4c0 .708-.432 1.368-.737 1.742l.31.253zm-1.137-1.995c0 .853.509 1.606.827 1.995l.31-.252c-.306-.375-.737-1.035-.737-1.744h-.4zm.827-1.996c-.318.39-.827 1.142-.827 1.995h.4c0-.708.432-1.368.737-1.742l-.31-.253zm-3.097 6.03c0 .943.75 1.718 1.682 1.718v-.4c-.702 0-1.282-.587-1.282-1.318h-.4zm0-.16v.16h.4v-.16h-.4zm1.37-.2h-1.17v.4h1.17v-.4zm1.683 1.718c0-.944-.75-1.719-1.683-1.719v.4c.703 0 1.283.587 1.283 1.319h.4zm0 .16v-.16h-.4v.16h.4zm-1.37.2h1.17v-.4h-1.17v.4zm19.796.817h1.17v-.4h-1.17v.4zm-.797 0h.797v-.4h-.797v.4zm-1.17 0h1.17v-.4h-1.17v.4zm-2.481-2.535c0 1.393 1.108 2.535 2.48 2.535v-.4c-1.142 0-2.08-.953-2.08-2.135h-.4zm0-.978v.978h.4v-.978h-.4zm2.168-.2h-1.968v.4h1.968v-.4zm1.615.613a2.439 2.439 0 00-1.615-.613v.4c.515 0 .986.193 1.35.514l.265-.3zm-.332-.83v.98h.4v-.98h-.4zm-1.181-2.64c0 1.336.897 2.415 1.235 2.776l.292-.273c-.327-.35-1.127-1.33-1.127-2.503h-.4zm1.374-2.916a4.98 4.98 0 00-.707.87c-.332.511-.667 1.23-.667 2.046h.4c0-.709.293-1.35.603-1.83.309-.477.624-.775.644-.794l-.273-.292zm.269-.252l-.27.252.274.292.27-.252-.274-.292zm.542.252l-.269-.252-.273.292.269.252.273-.292zm1.374 2.916c0-.816-.335-1.535-.667-2.047a4.98 4.98 0 00-.707-.869l-.273.292c.02.019.335.317.644.794.31.48.603 1.121.603 1.83h.4zm-1.235 2.776c.338-.361 1.235-1.44 1.235-2.776h-.4c0 1.173-.8 2.153-1.127 2.503l.292.273zm.054.845v-.982h-.4v.982h.4zm1.283-.764a2.44 2.44 0 00-1.615.613l.264.3a2.04 2.04 0 011.35-.513v-.4zm1.968 0h-1.968v.4h1.968v-.4zm.2 1.178v-.978h-.4v.978h.4zm-2.48 2.535c1.372 0 2.48-1.142 2.48-2.535h-.4c0 1.181-.938 2.135-2.08 2.135v.4zm1.482-2.896h-1.17v.4h1.17v-.4zm.2.36v-.16h-.4v.16h.4zm-1.682 1.72c.932 0 1.682-.776 1.682-1.72h-.4c0 .732-.58 1.32-1.282 1.32v.4zm-1.17 0h1.17v-.4h-1.17v.4zm-.2-.361v.16h.4v-.16h-.4zm1.682-1.719c-.933 0-1.683.775-1.683 1.719h.4c0-.732.58-1.319 1.283-1.319v-.4zm-.9-3.674c0-.853-.509-1.605-.827-1.995l-.31.253c.306.374.738 1.034.738 1.742h.4zm-.827 1.996c.318-.39.828-1.142.828-1.995h-.4c0 .708-.432 1.368-.738 1.742l.31.253zm-1.137-1.995c0 .853.51 1.606.827 1.995l.31-.252c-.305-.375-.737-1.035-.737-1.744h-.4zm.827-1.996c-.317.39-.827 1.142-.827 1.995h.4c0-.708.432-1.368.737-1.742l-.31-.253zm-3.096 6.03c0 .943.75 1.718 1.682 1.718v-.4c-.703 0-1.282-.587-1.282-1.318h-.4zm0-.16v.16h.4v-.16h-.4zm1.37-.2h-1.17v.4h1.17v-.4zm1.683 1.718c0-.944-.75-1.719-1.683-1.719v.4c.703 0 1.283.587 1.283 1.319h.4zm0 .16v-.16h-.4v.16h.4zm-1.37.2h1.17v-.4h-1.17v.4zm21.417.817h1.17v-.4h-1.17v.4zm-.797 0h.797v-.4h-.797v.4zm-1.171 0h1.17v-.4h-1.17v.4zm-2.48-2.535c0 1.393 1.108 2.535 2.48 2.535v-.4c-1.142 0-2.08-.953-2.08-2.135h-.4zm0-.978v.978h.4v-.978h-.4zm2.168-.2h-1.968v.4h1.968v-.4zm1.615.613a2.439 2.439 0 00-1.615-.613v.4c.514 0 .986.193 1.35.514l.265-.3zm-.332-.83v.98h.4v-.98h-.4zm-1.181-2.64c0 1.336.897 2.415 1.235 2.776l.292-.273c-.328-.35-1.127-1.33-1.127-2.503h-.4zm1.374-2.916a4.98 4.98 0 00-.707.87c-.332.511-.667 1.23-.667 2.046h.4c0-.709.293-1.35.603-1.83.309-.477.624-.775.644-.794l-.273-.292zm.269-.252l-.27.252.274.292.269-.252-.273-.292zm.542.252l-.269-.252-.273.292.269.252.273-.292zm1.374 2.916c0-.816-.335-1.535-.667-2.047a4.98 4.98 0 00-.707-.869l-.273.292c.02.019.335.317.644.794.31.48.603 1.121.603 1.83h.4zm-1.235 2.776c.338-.361 1.235-1.44 1.235-2.776h-.4c0 1.173-.8 2.153-1.127 2.503l.292.273zm.054.845v-.982h-.4v.982h.4zm1.283-.764a2.44 2.44 0 00-1.615.613l.264.3a2.04 2.04 0 011.35-.513v-.4zm1.968 0h-1.968v.4h1.968v-.4zm.2 1.178v-.978h-.4v.978h.4zm-2.48 2.535c1.372 0 2.48-1.142 2.48-2.535h-.4c0 1.181-.938 2.135-2.08 2.135v.4zm1.482-2.896h-1.17v.4h1.17v-.4zm.2.36v-.16h-.4v.16h.4zm-1.682 1.72c.932 0 1.682-.776 1.682-1.72h-.4c0 .732-.58 1.32-1.282 1.32v.4zm-1.17 0h1.17v-.4h-1.17v.4zm-.2-.361v.16h.4v-.16h-.4zm1.682-1.719c-.933 0-1.683.775-1.683 1.719h.4c0-.732.58-1.319 1.283-1.319v-.4zm-.9-3.674c0-.853-.509-1.605-.827-1.995l-.31.253c.306.374.738 1.034.738 1.742h.4zm-.827 1.996c.318-.39.828-1.142.828-1.995h-.4c0 .708-.432 1.368-.738 1.742l.31.253zm-1.137-1.995c0 .853.51 1.606.827 1.995l.31-.252c-.305-.375-.737-1.035-.737-1.744h-.4zm.827-1.996c-.317.39-.827 1.142-.827 1.995h.4c0-.708.432-1.368.737-1.742l-.31-.253zm-3.097 6.03c0 .943.75 1.718 1.683 1.718v-.4c-.703 0-1.283-.587-1.283-1.318h-.4zm0-.16v.16h.4v-.16h-.4zm1.371-.2h-1.17v.4h1.17v-.4zm1.683 1.718c0-.944-.75-1.719-1.683-1.719v.4c.703 0 1.283.587 1.283 1.319h.4zm0 .16v-.16h-.4v.16h.4zm-1.371.2h1.17v-.4h-1.17v.4zm20.608.817h1.17v-.4h-1.17v.4zm-.798 0h.797v-.4h-.797v.4zm-1.17 0h1.17v-.4h-1.17v.4zm-2.48-2.535c0 1.393 1.107 2.535 2.48 2.535v-.4c-1.143 0-2.08-.953-2.08-2.135h-.4zm0-.978v.978h.4v-.978h-.4zm2.167-.2h-1.968v.4h1.968v-.4zm1.615.613a2.439 2.439 0 00-1.615-.613v.4c.515 0 .986.193 1.35.514l.265-.3zm-.332-.83v.98h.4v-.98h-.4zm-1.18-2.64c0 1.336.896 2.415 1.234 2.776l.292-.273c-.327-.35-1.127-1.33-1.127-2.503h-.4zm1.373-2.916a4.98 4.98 0 00-.707.87c-.331.511-.667 1.23-.667 2.046h.4c0-.709.293-1.35.603-1.83.31-.477.624-.775.644-.794l-.273-.292zm.269-.252l-.269.252.273.292.27-.252-.274-.292zm.542.252l-.269-.252-.273.292.27.252.272-.292zm1.374 2.916c0-.816-.335-1.535-.667-2.047a4.986 4.986 0 00-.707-.869l-.273.292c.02.019.335.317.644.794.31.48.603 1.121.603 1.83h.4zm-1.235 2.776c.338-.361 1.235-1.44 1.235-2.776h-.4c0 1.173-.8 2.153-1.127 2.503l.292.273zm.055.845v-.982h-.4v.982h.4zm1.282-.764c-.617 0-1.181.232-1.614.613l.263.3c.365-.32.837-.513 1.351-.513v-.4zm1.968 0h-1.968v.4h1.968v-.4zm.2 1.178v-.978h-.4v.978h.4zm-2.48 2.535c1.372 0 2.48-1.142 2.48-2.535h-.4c0 1.181-.938 2.135-2.08 2.135v.4zm1.483-2.896h-1.171v.4h1.17v-.4zm.2.36v-.16h-.4v.16h.4zm-1.683 1.72c.933 0 1.683-.776 1.683-1.72h-.4c0 .732-.58 1.32-1.283 1.32v.4zm-1.17 0h1.17v-.4h-1.17v.4zm-.2-.361v.16h.4v-.16h-.4zm1.682-1.719c-.932 0-1.682.775-1.683 1.719h.4c0-.732.58-1.319 1.283-1.319v-.4zm-.9-3.674c0-.853-.508-1.605-.826-1.995l-.31.253c.305.374.737 1.034.737 1.742h.4zm-.826 1.996c.317-.39.827-1.142.827-1.995h-.4c0 .708-.432 1.368-.737 1.742l.31.253zm-1.137-1.995c0 .853.509 1.606.827 1.995l.31-.252c-.306-.375-.737-1.035-.737-1.744h-.4zm.827-1.996c-.318.39-.827 1.142-.827 1.995h.4c0-.708.431-1.368.737-1.742l-.31-.253zm-3.097 6.03c0 .943.75 1.718 1.682 1.718v-.4c-.702 0-1.282-.587-1.282-1.318h-.4zm0-.16v.16h.4v-.16h-.4zm1.37-.2h-1.17v.4h1.17v-.4zm1.683 1.718c0-.944-.75-1.719-1.683-1.719v.4c.703 0 1.283.587 1.283 1.319h.4zm0 .16v-.16h-.4v.16h.4zm-1.37.2h1.17v-.4h-1.17v.4zm-6.182 11.85h-1.17v.4h1.17v-.4zm2.08-2.135c0 1.182-.937 2.136-2.08 2.136v.4c1.373 0 2.48-1.142 2.48-2.536h-.4zm0-.977v.977h.4v-.977h-.4zm-1.767.2h1.968v-.4h-1.968v.4zm-1.351.513c.364-.32.836-.513 1.35-.513v-.4c-.617 0-1.18.232-1.614.613l.264.3zm-.332-1.131v.981h.4v-.981h-.4zm1.18-2.639c0 1.172-.799 2.153-1.126 2.502l.292.274c.338-.361 1.235-1.44 1.235-2.776h-.4zm-1.247-2.624c.02.018.336.317.645.794.31.479.603 1.12.603 1.83h.4c0-.817-.336-1.535-.668-2.047a4.984 4.984 0 00-.706-.87l-.274.293zm-.269-.252l.27.252.273-.292-.27-.252-.273.292zm.005.252l.269-.252-.274-.292-.269.252.274.292zm-1.248 2.624c0-.71.294-1.351.604-1.83a4.51 4.51 0 01.644-.794l-.274-.292a4.988 4.988 0 00-.706.869c-.332.512-.667 1.23-.667 2.047h.4zm1.127 2.502c-.327-.35-1.127-1.33-1.127-2.502h-.4c0 1.336.897 2.415 1.235 2.776l.292-.274zm.054 1.118v-.981h-.4v.981h.4zm-1.682-.363c.514 0 .986.193 1.35.513l.264-.3a2.439 2.439 0 00-1.614-.613v.4zm-1.968 0h1.968v-.4h-1.968v.4zm.2.777v-.977h-.4v.977h.4zm2.08 2.136c-1.142 0-2.08-.954-2.08-2.136h-.4c0 1.394 1.108 2.536 2.48 2.536v-.4zm1.17 0h-1.17v.4h1.17v-.4zm.798 0h-.798v.4h.798v-.4zm1.482-2.096h1.171v-.4h-1.17v.4zm-1.282 1.318c0-.731.58-1.318 1.282-1.318v-.4c-.932 0-1.682.775-1.682 1.718h.4zm0 .16v-.16h-.4v.16h.4zm.97-.2h-1.17v.4h1.17v-.4zm1.283-1.318c0 .732-.58 1.319-1.283 1.319v.4c.933 0 1.683-.775 1.683-1.719h-.4zm0-.16v.16h.4v-.16h-.4zm-3.007-5.617c.305.374.737 1.034.737 1.743h.4c0-.854-.509-1.606-.827-1.996l-.31.253zm-.427 1.743c0-.709.432-1.369.737-1.743l-.31-.253c-.318.39-.827 1.142-.827 1.996h.4zm.737 1.743c-.305-.374-.737-1.034-.737-1.743h-.4c0 .854.51 1.606.827 1.996l.31-.253zm.427-1.743c0 .709-.432 1.369-.737 1.743l.31.253c.318-.39.827-1.142.827-1.996h-.4zm-2.151 5.353c-.703 0-1.283-.587-1.283-1.319h-.4c0 .944.75 1.719 1.683 1.719v-.4zm1.17 0h-1.17v.4h1.17v-.4zm-.2.04v.16h.4v-.16h-.4zm-1.282-1.32c.702 0 1.282.588 1.282 1.32h.4c0-.944-.75-1.72-1.682-1.72v.4zm-1.17 0h1.17v-.4h-1.17v.4zm.2-.039v-.16h-.4v.16h.4zm-15.03 2.136h-1.17v.4h1.17v-.4zm2.08-2.136c0 1.182-.937 2.136-2.08 2.136v.4c1.373 0 2.48-1.142 2.48-2.536h-.4zm0-.977v.977h.4v-.977h-.4zm-1.767.2h1.968v-.4h-1.968v.4zm-1.35.513c.364-.32.835-.513 1.35-.513v-.4a2.44 2.44 0 00-1.615.613l.264.3zm-.333-1.131v.981h.4v-.981h-.4zm1.181-2.639c0 1.172-.8 2.153-1.127 2.502l.292.274c.338-.361 1.235-1.44 1.235-2.776h-.4zm-1.247-2.624c.02.018.335.317.644.794.31.479.603 1.12.603 1.83h.4c0-.817-.336-1.535-.667-2.047a4.984 4.984 0 00-.707-.87l-.273.293zm-.27-.252l.27.252.273-.292-.269-.252-.273.292zm.005.252l.27-.252-.274-.292-.27.252.274.292zm-1.247 2.624c0-.71.293-1.351.603-1.83.309-.477.624-.776.644-.794l-.273-.292a4.988 4.988 0 00-.707.869c-.332.512-.667 1.23-.667 2.047h.4zm1.127 2.502c-.328-.35-1.127-1.33-1.127-2.502h-.4c0 1.336.897 2.415 1.235 2.776l.292-.274zm.054 1.118v-.981h-.4v.981h.4zm-1.683-.363c.514 0 .986.193 1.35.513l.265-.3a2.439 2.439 0 00-1.615-.613v.4zm-1.968 0h1.968v-.4h-1.968v.4zm.2.777v-.977h-.4v.977h.4zm2.08 2.136c-1.142 0-2.08-.954-2.08-2.136h-.4c0 1.394 1.108 2.536 2.48 2.536v-.4zm1.17 0h-1.17v.4h1.17v-.4zm.798 0h-.797v.4h.797v-.4zm1.483-2.096h1.17v-.4h-1.17v.4zm-1.283 1.318c0-.731.58-1.318 1.283-1.318v-.4c-.933 0-1.683.775-1.683 1.718h.4zm0 .16v-.16h-.4v.16h.4zm.97-.2h-1.17v.4h1.17v-.4zm1.283-1.318c0 .732-.58 1.319-1.282 1.319v.4c.932 0 1.682-.775 1.682-1.719h-.4zm0-.16v.16h.4v-.16h-.4zm-3.007-5.617c.306.374.738 1.034.738 1.743h.4c0-.854-.51-1.606-.828-1.996l-.31.253zm-.427 1.743c0-.709.432-1.369.737-1.743l-.31-.253c-.317.39-.827 1.142-.827 1.996h.4zm.737 1.743c-.305-.374-.737-1.034-.737-1.743h-.4c0 .854.51 1.606.827 1.996l.31-.253zm.428-1.743c0 .709-.432 1.369-.738 1.743l.31.253c.318-.39.828-1.142.828-1.996h-.4zm-2.152 5.353c-.703 0-1.283-.587-1.283-1.319h-.4c0 .944.75 1.719 1.683 1.719v-.4zm1.17 0h-1.17v.4h1.17v-.4zm-.2.04v.16h.4v-.16h-.4zm-1.282-1.32c.703 0 1.283.588 1.283 1.32h.4c0-.944-.75-1.72-1.683-1.72v.4zm-1.17 0h1.17v-.4h-1.17v.4zm.2-.039v-.16h-.4v.16h.4zm-13.408 2.136h-1.171v.4h1.17v-.4zm2.08-2.136c0 1.182-.938 2.136-2.08 2.136v.4c1.372 0 2.48-1.142 2.48-2.536h-.4zm0-.977v.977h.4v-.977h-.4zm-1.768.2h1.968v-.4h-1.968v.4zm-1.35.513c.364-.32.835-.513 1.35-.513v-.4a2.44 2.44 0 00-1.615.613l.264.3zm-.333-1.131v.981h.4v-.981h-.4zm1.18-2.639c0 1.172-.799 2.153-1.126 2.502l.292.274c.338-.361 1.235-1.44 1.235-2.776h-.4zm-1.246-2.624c.02.018.335.317.644.794.31.479.603 1.12.603 1.83h.4c0-.817-.336-1.535-.668-2.047a4.98 4.98 0 00-.706-.87l-.273.293zm-.27-.252l.27.252.273-.292-.27-.252-.272.292zm.005.252l.269-.252-.273-.292-.27.252.274.292zm-1.247 2.624c0-.71.293-1.351.603-1.83.309-.477.624-.776.644-.794l-.273-.292a4.988 4.988 0 00-.707.869c-.332.512-.667 1.23-.667 2.047h.4zm1.127 2.502c-.328-.35-1.127-1.33-1.127-2.502h-.4c0 1.336.897 2.415 1.234 2.776l.293-.274zm.053 1.118v-.981h-.4v.981h.4zm-1.682-.363c.514 0 .986.193 1.35.513l.265-.3a2.439 2.439 0 00-1.615-.613v.4zm-1.968 0h1.968v-.4h-1.968v.4zm.2.777v-.977h-.4v.977h.4zm2.08 2.136c-1.142 0-2.08-.954-2.08-2.136h-.4c0 1.394 1.108 2.536 2.48 2.536v-.4zm1.17 0h-1.17v.4h1.17v-.4zm.798 0h-.797v.4h.797v-.4zm1.483-2.096h1.17v-.4h-1.17v.4zm-1.283 1.318c0-.731.58-1.318 1.283-1.318v-.4c-.933 0-1.683.775-1.683 1.718h.4zm0 .16v-.16h-.4v.16h.4zm.97-.2h-1.17v.4h1.17v-.4zm1.283-1.318c0 .732-.58 1.319-1.282 1.319v.4c.932 0 1.682-.775 1.682-1.719h-.4zm0-.16v.16h.4v-.16h-.4zm-3.007-5.617c.306.374.737 1.034.737 1.743h.4c0-.854-.509-1.606-.827-1.996l-.31.253zm-.427 1.743c0-.709.432-1.369.737-1.743l-.31-.253c-.317.39-.827 1.142-.827 1.996h.4zm.737 1.743c-.305-.374-.737-1.034-.737-1.743h-.4c0 .854.51 1.606.827 1.996l.31-.253zm.427-1.743c0 .709-.432 1.369-.737 1.743l.31.253c.318-.39.827-1.142.827-1.996h-.4zm-2.151 5.353c-.703 0-1.283-.587-1.283-1.319h-.4c0 .944.75 1.719 1.683 1.719v-.4zm1.17 0h-1.17v.4h1.17v-.4zm-.2.04v.16h.4v-.16h-.4zm-1.282-1.32c.703 0 1.282.588 1.282 1.32h.4c0-.944-.75-1.72-1.682-1.72v.4zm-1.17 0h1.17v-.4h-1.17v.4zm.2-.039v-.16h-.4v.16h.4zm-23.898-8.898h1.17v-.4h-1.17v.4zm-.798 0h.798v-.4h-.798v.4zm-1.17 0h1.17v-.4h-1.17v.4zm-2.48-2.535c0 1.393 1.107 2.535 2.48 2.535v-.4c-1.143 0-2.08-.953-2.08-2.135h-.4zm0-.978v.978h.4v-.978h-.4zm2.167-.2h-1.968v.4h1.968v-.4zm1.615.613a2.438 2.438 0 00-1.615-.613v.4c.515 0 .987.193 1.351.514l.264-.3zm-.332-.83v.98h.4v-.98h-.4zm-1.18-2.64c0 1.336.896 2.415 1.234 2.776l.292-.273c-.327-.35-1.127-1.33-1.127-2.502h-.4zm1.373-2.916a4.985 4.985 0 00-.706.87c-.332.512-.668 1.23-.668 2.047h.4c0-.71.293-1.352.603-1.83.31-.477.625-.776.645-.795l-.274-.292zm.27-.252l-.27.252.273.292.27-.252-.274-.292zm.542.252l-.27-.252-.273.292.27.252.273-.292zm1.373 2.917c0-.817-.335-1.535-.667-2.048a4.985 4.985 0 00-.706-.869l-.274.292c.02.019.335.318.644.795.31.478.604 1.12.604 1.83h.4zm-1.234 2.775c.337-.361 1.234-1.44 1.234-2.775h-.4c0 1.172-.8 2.152-1.126 2.502l.292.273zm.054.845v-.982h-.4v.982h.4zm1.282-.764c-.617 0-1.18.232-1.614.613l.264.3c.364-.32.836-.513 1.35-.513v-.4zm1.968 0h-1.968v.4h1.968v-.4zm.2 1.178v-.978h-.4v.978h.4zm-2.48 2.535c1.372 0 2.48-1.142 2.48-2.535h-.4c0 1.181-.938 2.135-2.08 2.135v.4zm1.483-2.896h-1.17v.4h1.17v-.4zm.2.36v-.16h-.4v.16h.4zm-1.683 1.72c.933 0 1.683-.776 1.683-1.72h-.4c0 .732-.58 1.32-1.283 1.32v.4zm-1.17 0h1.17v-.4h-1.17v.4zm-.2-.361v.16h.4v-.16h-.4zm1.682-1.719c-.932 0-1.682.775-1.682 1.719h.4c0-.732.58-1.319 1.282-1.319v-.4zm-.899-3.673c0-.854-.51-1.606-.827-1.996l-.31.253c.305.374.737 1.034.737 1.743h.4zm-.827 1.995c.318-.39.827-1.142.827-1.995h-.4c0 .708-.432 1.368-.737 1.742l.31.253zm-1.137-1.995c0 .853.509 1.606.827 1.995l.31-.252c-.306-.375-.737-1.035-.737-1.743h-.4zm.827-1.996c-.318.39-.827 1.142-.827 1.996h.4c0-.71.432-1.37.737-1.743l-.31-.253zm-3.097 6.03c0 .943.75 1.718 1.683 1.718v-.4c-.703 0-1.283-.587-1.283-1.318h-.4zm0-.16v.16h.4v-.16h-.4zm1.37-.2h-1.17v.4h1.17v-.4zm1.683 1.718c0-.944-.75-1.719-1.682-1.719v.4c.702 0 1.282.587 1.282 1.319h.4zm0 .16v-.16h-.4v.16h.4zm-1.37.2h1.17v-.4h-1.17v.4zm12.458 11.85h-1.17v.4h1.17v-.4zm2.08-2.135c0 1.182-.938 2.136-2.08 2.136v.4c1.372 0 2.48-1.142 2.48-2.536h-.4zm0-.977v.977h.4v-.977h-.4zm-1.768.2h1.968v-.4h-1.968v.4zm-1.35.513c.364-.32.835-.513 1.35-.513v-.4a2.44 2.44 0 00-1.615.613l.264.3zm-.333-1.131v.981h.4v-.981h-.4zm1.181-2.639c0 1.172-.8 2.153-1.127 2.502l.292.274c.338-.361 1.235-1.44 1.235-2.776h-.4zm-1.247-2.624c.02.018.335.317.644.794.31.479.603 1.12.603 1.83h.4c0-.817-.335-1.535-.667-2.047a4.98 4.98 0 00-.707-.87l-.273.293zm-.27-.252l.27.252.273-.292-.269-.252-.273.292zm.005.252l.27-.252-.274-.292-.27.252.274.292zm-1.247 2.624c0-.71.293-1.351.603-1.83.309-.477.624-.776.644-.794l-.273-.292a4.978 4.978 0 00-.707.869c-.332.512-.667 1.23-.667 2.047h.4zm1.127 2.502c-.327-.35-1.127-1.33-1.127-2.502h-.4c0 1.336.897 2.415 1.235 2.776l.292-.274zm.054 1.118v-.981h-.4v.981h.4zm-1.683-.363c.515 0 .986.193 1.35.513l.265-.3a2.439 2.439 0 00-1.615-.613v.4zm-1.968 0h1.968v-.4h-1.968v.4zm.2.777v-.977h-.4v.977h.4zm2.08 2.136c-1.142 0-2.08-.954-2.08-2.136h-.4c0 1.394 1.108 2.536 2.48 2.536v-.4zm1.17 0h-1.17v.4h1.17v-.4zm.798 0h-.797v.4h.797v-.4zm1.483-2.096h1.17v-.4h-1.17v.4zm-1.283 1.318c0-.731.58-1.318 1.283-1.318v-.4c-.933 0-1.683.775-1.683 1.718h.4zm0 .16v-.16h-.4v.16h.4zm.97-.2h-1.17v.4h1.17v-.4zm1.283-1.318c0 .732-.58 1.319-1.282 1.319v.4c.932 0 1.682-.775 1.682-1.719h-.4zm0-.16v.16h.4v-.16h-.4zm-3.007-5.617c.306.374.738 1.034.738 1.743h.4c0-.854-.51-1.606-.828-1.996l-.31.253zm-.427 1.743c0-.709.432-1.369.737-1.743l-.31-.253c-.317.39-.827 1.142-.827 1.996h.4zm.737 1.743c-.305-.374-.737-1.034-.737-1.743h-.4c0 .854.51 1.606.828 1.996l.31-.253zm.428-1.743c0 .709-.432 1.369-.738 1.743l.31.253c.318-.39.828-1.142.828-1.996h-.4zm-2.152 5.353c-.703 0-1.282-.587-1.282-1.319h-.4c0 .944.75 1.719 1.682 1.719v-.4zm1.17 0h-1.17v.4h1.17v-.4zm-.2.04v.16h.4v-.16h-.4zm-1.282-1.32c.703 0 1.283.588 1.283 1.32h.4c0-.944-.75-1.72-1.683-1.72v.4zm-1.17 0h1.17v-.4h-1.17v.4zm.2-.039v-.16h-.4v.16h.4zm34.628-41.257a.305.305 0 010-.428l-.284-.282a.705.705 0 000 .992l.284-.282zm2.407 2.426l-2.407-2.426-.284.282 2.407 2.426.284-.282zm.421 0a.296.296 0 01-.42 0l-.285.282a.696.696 0 00.99 0l-.285-.282zm0-.428a.305.305 0 010 .428l.284.282a.705.705 0 000-.992l-.284.282zm-2.407-2.426l2.407 2.426.284-.282-2.407-2.426-.284.282zm-.421 0a.296.296 0 01.421 0l.284-.282a.696.696 0 00-.99 0l.285.282zm-10.448 2.854a.296.296 0 01-.42 0l-.285.282a.696.696 0 00.99 0l-.285-.282zm2.408-2.426l-2.408 2.426.284.282 2.408-2.426-.284-.282zm0-.428a.305.305 0 010 .428l.284.282a.705.705 0 000-.992l-.284.282zm-.422 0a.296.296 0 01.422 0l.284-.282a.696.696 0 00-.99 0l.285.282zm-2.407 2.426l2.407-2.426-.283-.282-2.408 2.426.284.282zm0 .428a.305.305 0 010-.428l-.284-.282a.705.705 0 000 .992l.284-.282zM61.365 20.3a.696.696 0 00-.989 0l.284.282a.296.296 0 01.421 0l.284-.281zm0 .993a.705.705 0 000-.992l-.284.281a.305.305 0 010 .43l.284.281zm-2.407 2.426l2.407-2.426-.284-.282-2.407 2.426.284.282zm-.99 0a.696.696 0 00.99 0l-.284-.282a.296.296 0 01-.421 0l-.284.282zm0-.992a.705.705 0 000 .992l.285-.282a.305.305 0 010-.428l-.284-.282zm2.408-2.426l-2.407 2.426.284.282 2.407-2.427-.284-.281zm-4.129 12.874a.304.304 0 01.162-.396l-.154-.37a.704.704 0 00-.378.918l.37-.152zm.382.928l-.382-.928-.37.152.382.928.37-.152zm.39.163a.297.297 0 01-.39-.163l-.37.152c.147.358.555.53.913.38l-.154-.369zm.161-.395a.304.304 0 01-.162.395l.154.37a.704.704 0 00.378-.918l-.37.153zm-.381-.929l.381.928.37-.152-.381-.928-.37.152zm-.39-.163a.297.297 0 01.39.163l.37-.152a.697.697 0 00-.914-.38l.154.369zm-3.82-11.131l-.382-.929-.37.152.382.929.37-.152zm-.378.917a.704.704 0 00.378-.917l-.37.152a.304.304 0 01-.162.396l.154.369zm-.913-.38c.146.357.555.53.913.38l-.154-.37a.297.297 0 01-.39-.163l-.37.152zm-.382-.93l.382.93.37-.153-.382-.928-.37.152zm.378-.916a.704.704 0 00-.378.917l.37-.152a.304.304 0 01.162-.396l-.154-.37zm.913.38a.697.697 0 00-.913-.38l.154.369a.297.297 0 01.39.163l.37-.152zm-4.536 9.179l.921-.385-.154-.37-.921.386.154.369zm-.162.396a.304.304 0 01.162-.396l-.154-.37a.704.704 0 00-.378.918l.37-.152zm.39.163a.297.297 0 01-.39-.163l-.37.152c.147.357.555.53.914.38l-.154-.37zm.92-.385l-.92.385.154.369.92-.384-.153-.37zm.163-.396a.304.304 0 01-.162.396l.154.37a.704.704 0 00.378-.918l-.37.152zm-.39-.163a.297.297 0 01.39.163l.37-.152a.697.697 0 00-.914-.38l.154.37zm11.435-3.683l.922-.385-.155-.369-.92.385.153.369zm-.913-.38c.147.357.555.53.913.38l-.154-.37a.297.297 0 01-.39-.163l-.37.152zm.378-.918a.704.704 0 00-.378.918l.37-.152a.304.304 0 01.162-.396l-.154-.37zm.92-.384l-.92.384.154.37.92-.385-.153-.37zm.914.38a.697.697 0 00-.913-.38l.154.369a.297.297 0 01.39.163l.37-.152zm-.377.917a.704.704 0 00.377-.917l-.37.152a.304.304 0 01-.162.396l.155.37zm-9.663 8.426l.382-.929-.37-.152-.382.928.37.153zm.162.395a.304.304 0 01-.162-.395l-.37-.153a.704.704 0 00.378.918l.154-.37zm.39-.163a.297.297 0 01-.39.163l-.154.37c.36.15.767-.024.914-.38l-.37-.153zm.381-.928l-.381.928.37.152.381-.928-.37-.152zm-.162-.396c.152.063.226.24.162.396l.37.152a.704.704 0 00-.377-.917l-.155.369zm-.389.163a.297.297 0 01.39-.163l.154-.37a.697.697 0 00-.914.381l.37.152zm5.5-10.758l.382-.928-.37-.152-.382.928.37.152zm-.913.38a.696.696 0 00.913-.38l-.37-.152a.297.297 0 01-.39.164l-.154.369zm-.378-.916a.704.704 0 00.377.917l.154-.37a.304.304 0 01-.161-.395l-.37-.152zm.381-.929l-.381.929.37.152.381-.929-.37-.152zm.914-.38a.697.697 0 00-.914.38l.37.152a.297.297 0 01.39-.163l.154-.37zm.378.917a.704.704 0 00-.378-.917l-.154.369c.152.063.225.24.161.396l.37.152zm-9.651 3.261l.92.385.155-.37-.921-.384-.154.369zm-.39.163a.297.297 0 01.39-.163l.154-.37a.697.697 0 00-.914.381l.37.152zm.162.396a.304.304 0 01-.162-.396l-.37-.152a.704.704 0 00.378.917l.154-.369zm.921.385l-.921-.385-.154.37.921.384.154-.37zm.39-.163a.297.297 0 01-.39.163l-.154.369c.36.15.767-.024.914-.38l-.37-.152zm-.162-.396c.152.063.226.24.162.396l.37.151a.704.704 0 00-.378-.917l-.154.37zm12.129 4.627l-.922-.385-.154.37.921.384.155-.37zm.377.917a.704.704 0 00-.377-.918l-.155.37c.152.063.226.24.162.396l.37.152zm-.913.38a.697.697 0 00.913-.38l-.37-.152a.297.297 0 01-.39.163l-.153.37zm-.921-.384l.92.384.155-.37-.921-.384-.154.37zm-.378-.918a.704.704 0 00.378.918l.154-.37a.304.304 0 01-.162-.396l-.37-.152zm.913-.38a.697.697 0 00-.913.38l.37.152a.297.297 0 01.39-.163l.153-.37zm-6.093 6.415v-2.043h-.4v2.043h.4zm.299.303a.3.3 0 01-.299-.303h-.4a.7.7 0 00.699.703v-.4zm.298-.303a.3.3 0 01-.298.303v.4a.7.7 0 00.698-.703h-.4zm0-2.043v2.043h.4v-2.043h-.4zm-.298-.303a.3.3 0 01.298.303h.4a.7.7 0 00-.698-.703v.4zm-.299.303a.3.3 0 01.299-.303v-.4a.7.7 0 00-.699.703h.4zm-7.712-5.726a.3.3 0 01-.299-.302h-.4a.7.7 0 00.7.702v-.4zm2.028 0h-2.028v.4h2.028v-.4zm.298-.302a.3.3 0 01-.298.302v.4a.7.7 0 00.698-.702h-.4zm-.298-.302a.3.3 0 01.298.302h.4a.7.7 0 00-.698-.702v.4zm-2.028 0h2.028v-.4h-2.028v.4zm-.299.302a.3.3 0 01.3-.302v-.4a.7.7 0 00-.7.702h.4zm16.32-.702h-2.027v.4h2.028v-.4zm.7.702a.7.7 0 00-.7-.702v.4a.3.3 0 01.3.302h.4zm-.7.702a.7.7 0 00.7-.702h-.4a.3.3 0 01-.3.302v.4zm-2.027 0h2.028v-.4h-2.028v.4zm-.698-.702a.7.7 0 00.698.702v-.4a.3.3 0 01-.298-.302h-.4zm.698-.702a.7.7 0 00-.698.702h.4a.3.3 0 01.298-.302v-.4zM12.188 40.04c20.033-.768 39.666 5.8 55.269 18.489l.252-.31c-15.678-12.75-35.406-19.35-55.537-18.579l.016.4zm-.242-1.166l.034.973.4-.014-.034-.972-.4.013zm40.628 8.459a83.817 83.817 0 00-40.435-8.665l.015.4a83.416 83.416 0 0140.242 8.623l.178-.358zm-.476-.203l.204.463.366-.162-.204-.462-.366.161zm42.367-8.33a96.142 96.142 0 00-42.264 8.067l.16.366a95.742 95.742 0 0142.09-8.033l.014-.4zm.16 1.179l.033-.972-.4-.014-.033.972.4.014zm-41.515 7.99a94.771 94.771 0 0141.308-7.797l.014-.4a95.173 95.173 0 00-41.481 7.83l.16.367zm6.055 3.007a84.156 84.156 0 00-6.044-3.37l-.18.358a83.774 83.774 0 016.015 3.353l.21-.341zm35.454-5.414a96.108 96.108 0 00-35.624 5.396l.132.377a95.709 95.709 0 0135.477-5.374l.015-.4zm.159 1.179l.034-.973-.4-.014-.034.973.4.014zm-34.59 5.256a94.738 94.738 0 0134.382-5.063l.016-.4a95.137 95.137 0 00-34.528 5.085l.13.378zm4.246 2.486a84.253 84.253 0 00-4.204-2.844l-.214.338a84.53 84.53 0 014.184 2.83l.234-.324zm-.316.194l.007.024.384-.112-.007-.024-.384.112zm2.502-.9c-.79.207-1.58.425-2.365.652l.11.384a96.355 96.355 0 012.357-.649l-.102-.386zm.493 1.085l-.249-.942-.386.102.248.942.387-.102zm-1.771.686c.541-.152 1.084-.3 1.628-.442l-.101-.387c-.546.143-1.092.29-1.635.444l.108.385zm2.98 1.914a84.448 84.448 0 00-2.915-2.267l-.239.32c.982.73 1.95 1.482 2.902 2.257l.253-.31zm-.584 1.037l.614-.756-.31-.252-.614.757.31.252zM12.145 45.926a82.435 82.435 0 0137.347 7.37l.166-.365a82.836 82.836 0 00-37.528-7.405l.015.4zm-.241-1.166l.034.973.4-.014-.035-.972-.4.014zm38.159 7.285a83.802 83.802 0 00-37.967-7.491l.015.4a83.403 83.403 0 0137.786 7.455l.166-.364zm-.306 1.151l.405-.886-.364-.166-.405.886.364.166zm7.572 4.19a82.898 82.898 0 015.448 3.52l.23-.327a83.302 83.302 0 00-5.474-3.537l-.204.344zm.426-1.112l-.496.838.344.204.496-.839-.344-.203zm5.812 3.508a84.27 84.27 0 00-5.538-3.579l-.204.345a83.907 83.907 0 015.512 3.56l.23-.326zm-.511 1.075l.56-.797-.328-.23-.56.798.328.23zM12.146 50.42a82.433 82.433 0 0136.743 7.097l.163-.365A82.832 82.832 0 0012.13 50.02l.015.4zm-.242-1.166l.034.973.4-.014-.034-.973-.4.014zm37.546 7.009a83.8 83.8 0 00-37.354-7.215l.015.4a83.4 83.4 0 0137.176 7.18l.163-.365zm-.296 1.153l.397-.889-.365-.163-.398.89.366.162zm26.063-4.079A94.688 94.688 0 0194.57 52.09l.015-.4a95.095 95.095 0 00-19.434 1.252l.066.394zm-.394-1.123l.164.96.394-.068-.164-.96-.394.068zm19.796-1.495a96.058 96.058 0 00-19.632 1.264l.066.395a95.66 95.66 0 0119.551-1.26l.015-.399zm.159 1.18l.033-.973-.4-.014-.033.972.4.014zm-82.589 3.418c.78-.03 1.561-.049 2.341-.056l-.003-.4a82.81 82.81 0 00-2.353.056l.015.4zm-.241-1.166l.034.973.4-.014-.034-.972-.4.014zm2.572-.264c-.793.008-1.586.027-2.38.058l.015.4c.79-.03 1.58-.05 2.37-.058l-.005-.4zm.208 1.172l-.006-.973-.4.003.006.973.4-.003zm5.228.327a82.54 82.54 0 0111.5 1.462l.078-.392a82.782 82.782 0 00-11.556-1.47l-.022.4zm-.131-1.183l-.058.971.4.024.057-.972-.4-.023zM31.727 55.5a83.756 83.756 0 00-11.692-1.487l-.022.4a83.12 83.12 0 0111.636 1.479l.078-.392zm-.036 1.19l.193-.955-.392-.079-.193.955.392.079zm44.716 2.076a94.689 94.689 0 0110.866-1.046l-.015-.4c-3.652.14-7.296.49-10.912 1.05l.06.396zm-.38-1.129l.151.962.396-.062-.152-.962-.395.062zm11.19-1.29c-3.689.142-7.37.496-11.023 1.062l.061.395a95.655 95.655 0 0110.978-1.057l-.015-.4zm.249 1.165l-.04-.973-.4.017.04.972.4-.017z" fill="#fff"/></svg>