<svg width="109" height="108" viewBox="0 0 109 108" fill="none" xmlns="http://www.w3.org/2000/svg">
<path d="M62.4286 16.3814C74.0834 18.5607 87.4221 8.25791 97.1226 14.9493C106.651 21.5217 106.16 35.5849 106.789 46.9815C107.411 58.2405 107.422 70.292 100.682 79.4335C94.1123 88.3447 82.0004 90.2044 71.7011 94.5719C61.0342 99.0952 50.3308 109.551 39.5191 105.37C28.5188 101.116 28.0507 86.0669 22.8305 75.6739C19.074 68.1949 15.7786 61.1126 13.2865 53.1432C9.91542 42.3628 1.3458 31.4128 5.72997 20.9877C10.1341 10.5153 22.7641 4.13662 34.2895 3.20027C44.9113 2.33733 51.9594 14.4238 62.4286 16.3814Z" fill="#E0E9F4"></path>
<path d="M57.7362 1.67129C68.1421 1.42584 77.7066 7.46658 85.2361 14.505C92.4947 21.2902 95.5316 30.7272 98.7696 40.0285C102.386 50.4162 110.539 61.9534 105.092 71.5445C99.5667 81.2736 84.0822 78.0759 74.1178 83.4345C64.8742 88.4055 59.9248 101.459 49.3793 101.506C38.8493 101.552 32.0911 90.8328 24.5314 83.6541C17.4731 76.9515 10.3547 70.3497 7.02844 61.2892C3.39723 51.3979 -0.040791 39.842 5.05034 30.5887C10.0719 21.4619 22.8442 20.8275 32.079 15.7588C40.8468 10.9466 47.6883 1.9083 57.7362 1.67129Z" fill="#3CA582"></path>
<path fill-rule="evenodd" clip-rule="evenodd" d="M54.7313 19.4127V21.456C54.7313 21.7335 54.5081 21.9585 54.2327 21.9585C53.9574 21.9585 53.7341 21.7335 53.7341 21.456V19.4127C53.7341 19.1352 53.9574 18.9103 54.2327 18.9103C54.5081 18.9103 54.7313 19.1352 54.7313 19.4127ZM47.2422 20.4407C47.4369 20.2444 47.7526 20.2444 47.9473 20.4407L50.3547 22.8667C50.5494 23.0629 50.5494 23.381 50.3547 23.5773C50.1599 23.7735 49.8442 23.7735 49.6496 23.5773L47.2422 21.1512C47.0474 20.955 47.0474 20.6369 47.2422 20.4407ZM54.2323 32.0091C51.758 32.0091 49.745 29.9805 49.745 27.487C49.745 24.9935 51.758 22.9649 54.2323 22.9649C56.7066 22.9649 58.7196 24.9935 58.7196 27.487C58.7196 29.9805 56.7066 32.0091 54.2323 32.0091ZM57.7224 27.487C57.7224 25.5476 56.1568 23.9698 54.2323 23.9698C52.3079 23.9698 50.7422 25.5476 50.7422 27.487C50.7422 29.4264 52.3079 31.0042 54.2323 31.0042C56.1568 31.0042 57.7224 29.4264 57.7224 27.487ZM36.5551 64.1221H35.3846L34.587 64.1221H33.4165C32.1592 64.1221 31.1364 63.0744 31.1364 61.7867V60.8093H33.1044C33.6702 60.8093 34.1881 61.0219 34.587 61.3726V60.3914C34.2546 60.0361 33.4062 59.0063 33.4062 57.7525C33.4062 56.2265 34.6632 55.0322 34.7168 54.9821L34.9858 54.7302L35.2548 54.9821C35.3083 55.0321 36.5654 56.2264 36.5654 57.7525C36.5654 59.0063 35.717 60.036 35.3846 60.3914V61.3725C35.7836 61.0218 36.3014 60.8092 36.8672 60.8092H38.8352V61.7867C38.8352 63.0744 37.8124 64.1221 36.5551 64.1221ZM36.8671 61.6261H38.0377V61.7867C38.0377 62.624 37.3726 63.3052 36.5551 63.3052H35.3845V63.1446C35.3845 62.3073 36.0496 61.6261 36.8671 61.6261ZM34.9857 55.8832C35.2974 56.2652 35.7679 56.9714 35.7679 57.7525C35.7679 58.5338 35.2972 59.2401 34.9858 59.6219C34.6741 59.2399 34.2037 58.5337 34.2037 57.7525C34.2037 56.9713 34.6743 56.265 34.9857 55.8832ZM33.4164 63.3052C32.5989 63.3052 31.9338 62.624 31.9338 61.7867V61.6261H33.1044C33.9219 61.6261 34.587 62.3073 34.587 63.1446V63.3052H33.4164ZM54.3837 64.1221H53.2132L52.4157 64.1221H51.2451C49.9879 64.1221 48.965 63.0744 48.965 61.7867V60.8093H50.9331C51.4988 60.8093 52.0167 61.0219 52.4157 61.3726V60.3914C52.0832 60.0361 51.2348 59.0063 51.2348 57.7525C51.2348 56.2265 52.4919 55.0322 52.5454 54.9821L52.8144 54.7302L53.0835 54.9821C53.137 55.0321 54.3941 56.2264 54.3941 57.7525C54.3941 59.0063 53.5457 60.036 53.2132 60.3914V61.3725C53.6122 61.0218 54.1301 60.8092 54.6958 60.8092H56.6639V61.7867C56.6639 63.0744 55.641 64.1221 54.3837 64.1221ZM54.6957 61.6261H55.8663V61.7867C55.8663 62.624 55.2012 63.3052 54.3837 63.3052H53.2132V63.1446C53.2132 62.3073 53.8783 61.6261 54.6957 61.6261ZM52.8144 55.8832C53.126 56.2652 53.5965 56.9714 53.5965 57.7525C53.5965 58.5338 53.1259 59.2401 52.8144 59.6219C52.5028 59.2399 52.0323 58.5337 52.0323 57.7525C52.0323 56.9713 52.5029 56.265 52.8144 55.8832ZM51.2451 63.3052C50.4276 63.3052 49.7625 62.624 49.7625 61.7867V61.6261H50.933C51.7506 61.6261 52.4156 62.3073 52.4156 63.1446V63.3052H51.2451ZM73.8337 64.1221H72.6631L71.8656 64.1221H70.695C69.4378 64.1221 68.4149 63.0744 68.4149 61.7867V60.8093H70.383C70.9488 60.8093 71.4666 61.0219 71.8656 61.3726V60.3914C71.5331 60.0361 70.6847 59.0063 70.6847 57.7525C70.6847 56.2265 71.9418 55.0322 71.9953 54.9821L72.2643 54.7302L72.5334 54.9821C72.5869 55.0321 73.844 56.2264 73.844 57.7525C73.844 59.0063 72.9956 60.036 72.6631 60.3914V61.3725C73.0621 61.0218 73.58 60.8092 74.1457 60.8092H76.1138V61.7867C76.1138 63.0744 75.091 64.1221 73.8337 64.1221ZM74.1457 61.6261H75.3162V61.7867C75.3162 62.624 74.6512 63.3052 73.8336 63.3052H72.6631V63.1446C72.6631 62.3073 73.3282 61.6261 74.1457 61.6261ZM72.2643 55.8832C72.5759 56.2652 73.0465 56.9714 73.0465 57.7525C73.0465 58.5338 72.5758 59.2401 72.2643 59.6219C71.9527 59.2399 71.4822 58.5337 71.4822 57.7525C71.4822 56.9713 71.9529 56.265 72.2643 55.8832ZM70.695 63.3052C69.8775 63.3052 69.2124 62.624 69.2124 61.7867V61.6261H70.383C71.2005 61.6261 71.8656 62.3073 71.8656 63.1446V63.3052H70.695ZM92.473 64.1221H91.3025L90.505 64.1221H89.3344C88.0771 64.1221 87.0543 63.0744 87.0543 61.7867V60.8093H89.0224C89.5881 60.8093 90.106 61.0219 90.505 61.3726V60.3914C90.1725 60.0361 89.3241 59.0063 89.3241 57.7525C89.3241 56.2265 90.5812 55.0322 90.6347 54.9821L90.9037 54.7302L91.1728 54.9821C91.2263 55.0321 92.4834 56.2264 92.4834 57.7525C92.4834 59.0063 91.635 60.036 91.3025 60.3914V61.3725C91.7015 61.0218 92.2193 60.8092 92.7851 60.8092H94.7532V61.7867C94.7532 63.0744 93.7303 64.1221 92.473 64.1221ZM92.785 61.6261H93.9556V61.7867C93.9556 62.624 93.2905 63.3052 92.473 63.3052H91.3024V63.1446C91.3025 62.3073 91.9676 61.6261 92.785 61.6261ZM90.9037 55.8832C91.2153 56.2652 91.6858 56.9714 91.6858 57.7525C91.6858 58.5338 91.2152 59.2401 90.9037 59.6219C90.5921 59.2399 90.1216 58.5337 90.1216 57.7525C90.1216 56.9713 90.5922 56.265 90.9037 55.8832ZM89.3344 63.3052C88.5169 63.3052 87.8518 62.624 87.8518 61.7867V61.6261H89.0223C89.8399 61.6261 90.5049 62.3073 90.5049 63.1446V63.3052H89.3344ZM81.9829 75.5557H83.1534C84.4107 75.5557 85.4335 74.508 85.4335 73.2203V72.2429H83.4655C82.8997 72.2429 82.3819 72.4555 81.9829 72.8062V71.825C82.3153 71.4696 83.1637 70.44 83.1637 69.1862C83.1637 67.6601 81.9066 66.4658 81.8531 66.4157L81.5841 66.1638L81.3151 66.4157C81.2615 66.4658 80.0045 67.6601 80.0045 69.1862C80.0045 70.44 80.8529 71.4697 81.1853 71.825V72.8062C80.7863 72.4555 80.2685 72.2429 79.7027 72.2429H77.7347V73.2203C77.7347 74.5081 78.7575 75.5557 80.0148 75.5557H81.1853L81.9829 75.5557ZM84.636 73.0597H83.4654C82.6479 73.0597 81.9828 73.7409 81.9828 74.5782V74.7388H83.1533C83.9709 74.7388 84.636 74.0576 84.636 73.2203V73.0597ZM82.3662 69.1862C82.3662 68.405 81.8957 67.6988 81.584 67.3168C81.2726 67.6986 80.8019 68.4049 80.8019 69.1862C80.8019 69.9674 81.2724 70.6735 81.5841 71.0555C81.8955 70.6737 82.3662 69.9674 82.3662 69.1862ZM78.5321 73.2203C78.5321 74.0576 79.1972 74.7388 80.0147 74.7388H81.1853V74.5782C81.1853 73.7409 80.5202 73.0597 79.7027 73.0597H78.5321V73.2203ZM62.5332 75.5557H63.7037C64.961 75.5557 65.9838 74.508 65.9838 73.2203V72.2429H64.0158C63.45 72.2429 62.9322 72.4555 62.5332 72.8062V71.825C62.8656 71.4696 63.714 70.44 63.714 69.1862C63.714 67.6601 62.4569 66.4658 62.4034 66.4157L62.1344 66.1638L61.8654 66.4157C61.8118 66.4658 60.5548 67.6601 60.5548 69.1862C60.5548 70.44 61.4032 71.4697 61.7356 71.825V72.8062C61.3367 72.4555 60.8188 72.2429 60.253 72.2429H58.285V73.2203C58.285 74.5081 59.3078 75.5557 60.5651 75.5557H61.7356L62.5332 75.5557ZM65.1863 73.0597H64.0157C63.1982 73.0597 62.5331 73.7409 62.5331 74.5782V74.7388H63.7036C64.5212 74.7388 65.1863 74.0576 65.1863 73.2203V73.0597ZM62.9165 69.1862C62.9165 68.405 62.446 67.6988 62.1343 67.3168C61.8229 67.6986 61.3522 68.4049 61.3522 69.1862C61.3522 69.9674 61.8227 70.6735 62.1344 71.0555C62.4458 70.6737 62.9165 69.9674 62.9165 69.1862ZM59.0824 73.2203C59.0824 74.0576 59.7475 74.7388 60.565 74.7388H61.7356V74.5782C61.7356 73.7409 61.0705 73.0597 60.253 73.0597H59.0824V73.2203ZM44.704 75.5557H45.8746C47.1319 75.5557 48.1547 74.508 48.1547 73.2203V72.2429H46.1866C45.6209 72.2429 45.1031 72.4555 44.704 72.8062V71.825C45.0365 71.4696 45.8849 70.44 45.8849 69.1862C45.8849 67.6601 44.6278 66.4658 44.5743 66.4157L44.3053 66.1638L44.0363 66.4157C43.9827 66.4658 42.7257 67.6601 42.7257 69.1862C42.7257 70.44 43.5741 71.4697 43.9065 71.825V72.8062C43.5075 72.4555 42.9897 72.2429 42.4239 72.2429H40.4559V73.2203C40.4559 74.5081 41.4787 75.5557 42.736 75.5557H43.9065L44.704 75.5557ZM47.3572 73.0597H46.1866C45.3691 73.0597 44.704 73.7409 44.704 74.5782V74.7388H45.8745C46.6921 74.7388 47.3572 74.0576 47.3572 73.2203V73.0597ZM45.0874 69.1862C45.0874 68.405 44.6169 67.6988 44.3052 67.3168C43.9938 67.6986 43.5231 68.4049 43.5231 69.1862C43.5231 69.9674 43.9936 70.6735 44.3053 71.0555C44.6167 70.6737 45.0874 69.9674 45.0874 69.1862ZM41.2533 73.2203C41.2533 74.0576 41.9184 74.7388 42.7359 74.7388H43.9065V74.5782C43.9065 73.7409 43.2414 73.0597 42.4239 73.0597H41.2533V73.2203ZM18.7262 64.1221H17.5556L16.7581 64.1221H15.5875C14.3303 64.1221 13.3074 63.0745 13.3074 61.7867V60.8093H15.2755C15.8413 60.8093 16.3591 61.0219 16.7581 61.3726V60.3915C16.4256 60.0361 15.5773 59.0064 15.5773 57.7526C15.5773 56.2265 16.8343 55.0322 16.8878 54.9821L17.1568 54.7303L17.4259 54.9821C17.4794 55.0322 18.7365 56.2265 18.7365 57.7526C18.7365 59.0064 17.8881 60.0361 17.5556 60.3914V61.3726C17.9546 61.0219 18.4725 60.8093 19.0382 60.8093H21.0063V61.7867C21.0063 63.0745 19.9835 64.1221 18.7262 64.1221ZM19.0382 61.6261H20.2087V61.7867C20.2087 62.6241 19.5437 63.3053 18.7261 63.3053H17.5556V63.1446C17.5556 62.3073 18.2207 61.6261 19.0382 61.6261ZM17.1568 55.8832C17.4684 56.2652 17.939 56.9714 17.939 57.7526C17.939 58.5338 17.4683 59.2401 17.1568 59.622C16.8452 59.2399 16.3747 58.5338 16.3747 57.7526C16.3747 56.9713 16.8454 56.265 17.1568 55.8832ZM15.5875 63.3053C14.77 63.3053 14.1049 62.6241 14.1049 61.7867V61.6261H15.2755C16.093 61.6261 16.7581 62.3073 16.7581 63.1446V63.3053H15.5875ZM26.8752 75.5557H28.0458C29.3031 75.5557 30.3259 74.508 30.3259 73.2203V72.2429H28.3578C27.7921 72.2429 27.2742 72.4555 26.8752 72.8062V71.825C27.2077 71.4696 28.0561 70.44 28.0561 69.1862C28.0561 67.6601 26.799 66.4658 26.7455 66.4157L26.4764 66.1638L26.2074 66.4157C26.1539 66.4658 24.8969 67.6601 24.8969 69.1862C24.8969 70.44 25.7452 71.4697 26.0777 71.825V72.8062C25.6787 72.4555 25.1609 72.2429 24.5951 72.2429H22.627V73.2203C22.627 74.5081 23.6499 75.5557 24.9071 75.5557H26.0777L26.8752 75.5557ZM29.5284 73.0597H28.3578C27.5403 73.0597 26.8752 73.7409 26.8752 74.5782V74.7388H28.0457C28.8633 74.7388 29.5284 74.0576 29.5284 73.2203V73.0597ZM27.2586 69.1862C27.2586 68.405 26.7881 67.6988 26.4764 67.3168C26.165 67.6986 25.6943 68.4049 25.6943 69.1862C25.6943 69.9674 26.1648 70.6735 26.4764 71.0555C26.7879 70.6737 27.2586 69.9674 27.2586 69.1862ZM23.4245 73.2203C23.4245 74.0576 24.0896 74.7388 24.9071 74.7388H26.0777V74.5782C26.0777 73.7409 25.4126 73.0597 24.5951 73.0597H23.4245V73.2203ZM58.1109 31.3937C57.9162 31.59 57.9162 31.9081 58.1109 32.1043L60.5183 34.5303C60.713 34.7266 61.0287 34.7266 61.2234 34.5303C61.4181 34.3341 61.4181 34.016 61.2234 33.8198L58.816 31.3937C58.6213 31.1975 58.3056 31.1975 58.1109 31.3937ZM47.2422 34.5303C47.4368 34.7265 47.7526 34.7266 47.9473 34.5303L50.3547 32.1043C50.5494 31.9081 50.5494 31.5899 50.3547 31.3937C50.16 31.1975 49.8443 31.1975 49.6496 31.3937L47.2422 33.8198C47.0474 34.016 47.0474 34.3341 47.2422 34.5303ZM60.5183 20.4407C60.713 20.2444 61.0287 20.2444 61.2234 20.4407C61.4181 20.6369 61.4181 20.955 61.2234 21.1512L58.816 23.5773C58.6213 23.7735 58.3056 23.7735 58.1109 23.5773C57.9162 23.381 57.9162 23.0629 58.1109 22.8667L60.5183 20.4407ZM56.3322 32.5932C56.0778 32.6993 55.957 32.9933 56.0624 33.2497L56.444 34.1781C56.5492 34.434 56.8407 34.5563 57.0954 34.45C57.3498 34.3438 57.4706 34.0499 57.3653 33.7935L56.9837 32.8651C56.8783 32.6087 56.5866 32.487 56.3322 32.5932ZM52.0222 20.7942L52.4037 21.7226C52.5091 21.979 52.3883 22.2729 52.1339 22.3791C51.8791 22.4855 51.5877 22.3632 51.4824 22.1072L51.1009 21.1788C50.9955 20.9224 51.1163 20.6285 51.3707 20.5223C51.6251 20.4161 51.9168 20.5378 52.0222 20.7942ZM48.5152 29.3275L47.5939 29.7121C47.3395 29.8182 47.2187 30.1122 47.3241 30.3686C47.4293 30.6245 47.7208 30.7468 47.9756 30.6405L48.8968 30.2559C49.1512 30.1498 49.272 29.8558 49.1667 29.5994C49.0613 29.3431 48.7696 29.2214 48.5152 29.3275ZM60.8714 25.2599L59.9502 25.6444C59.6954 25.7507 59.4039 25.6285 59.2987 25.3725C59.1933 25.1161 59.3141 24.8222 59.5685 24.716L60.4898 24.3314C60.7443 24.2253 61.0359 24.347 61.1413 24.6034C61.2466 24.8597 61.1258 25.1537 60.8714 25.2599ZM51.483 32.8651L51.1014 33.7935C50.9961 34.0499 51.1169 34.3438 51.3713 34.45C51.6267 34.5566 51.9178 34.4334 52.0227 34.178L52.4043 33.2497C52.5097 32.9933 52.3889 32.6994 52.1345 32.5932C51.88 32.487 51.5884 32.6087 51.483 32.8651ZM57.3645 21.1788L56.9829 22.1072C56.878 22.3625 56.5869 22.4857 56.3315 22.3791C56.0771 22.2729 55.9563 21.979 56.0616 21.7226L56.4432 20.7942C56.5486 20.5378 56.8403 20.4161 57.0947 20.5223C57.3491 20.6285 57.4699 20.9224 57.3645 21.1788ZM48.8968 24.716L47.9756 24.3314C47.7211 24.2253 47.4295 24.347 47.3241 24.6034C47.2187 24.8598 47.3395 25.1537 47.5939 25.2599L48.5152 25.6444C48.7706 25.751 49.0617 25.6278 49.1667 25.3725C49.272 25.1161 49.1512 24.8222 48.8968 24.716ZM59.9502 29.3275L60.8714 29.7121C61.1258 29.8183 61.2466 30.1122 61.1413 30.3686C61.0363 30.6239 60.7453 30.7471 60.4898 30.6405L59.5685 30.256C59.3141 30.1497 59.1933 29.8558 59.2987 29.5995C59.4041 29.3431 59.6958 29.2214 59.9502 29.3275ZM53.7341 33.515V35.5583C53.7341 35.8358 53.9574 36.0608 54.2327 36.0608C54.5081 36.0608 54.7313 35.8358 54.7313 35.5583V33.515C54.7313 33.2375 54.5081 33.0125 54.2327 33.0125C53.9574 33.0125 53.7341 33.2375 53.7341 33.515ZM45.7235 27.4869C45.7235 27.7644 45.9468 27.9894 46.2221 27.9894H48.2497C48.5251 27.9894 48.7483 27.7644 48.7483 27.4869C48.7483 27.2094 48.5251 26.9845 48.2497 26.9845H46.2221C45.9468 26.9845 45.7235 27.2094 45.7235 27.4869ZM60.2162 26.9845H62.2438C62.5192 26.9845 62.7424 27.2094 62.7424 27.4869C62.7424 27.7644 62.5192 27.9894 62.2438 27.9894H60.2162C59.9409 27.9894 59.7177 27.7644 59.7177 27.4869C59.7177 27.2094 59.9409 26.9845 60.2162 26.9845ZM67.583 58.3735C51.9425 45.6538 32.2622 39.0707 12.1801 39.8399L12.1462 38.8675C26.1927 38.3295 40.0442 41.3467 52.4847 47.5121L52.2811 47.0497C65.5626 41.2124 79.9774 38.461 94.4578 38.9998L94.425 39.9722C80.2208 39.4438 66.0798 42.1134 53.0306 47.7851C55.0816 48.8202 57.0936 49.9413 59.0609 51.1466C70.4714 47.1257 82.5305 45.2987 94.6117 45.7614L94.5778 46.7338C82.8787 46.2857 71.2004 48.0067 60.1232 51.8082C61.5462 52.7094 62.9449 53.6552 64.3173 54.6448L64.3103 54.6209C65.0948 54.3941 65.8818 54.1775 66.6709 53.971L66.9193 54.9126C66.3742 55.0552 65.8303 55.2027 65.2875 55.3551C66.2716 56.0863 67.2415 56.8404 68.1966 57.6171L67.583 58.3735ZM49.5751 53.1133C37.8947 47.7902 25.0849 45.23 12.1374 45.726L12.1035 44.7536C25.2032 44.2518 38.163 46.8421 49.9797 52.2273L49.5751 53.1133ZM62.8923 60.7425C61.1129 59.4916 59.2909 58.3149 57.4308 57.2138L57.9269 56.3755C59.8087 57.4895 61.6519 58.6799 63.4519 59.9453L62.8923 60.7425ZM48.971 57.3338C37.4332 52.1866 24.839 49.7324 12.1376 50.2189L12.1037 49.2465C24.9544 48.7542 37.6961 51.2373 49.3686 56.4446L48.971 57.3338ZM94.5777 51.8903C88.0784 51.6414 81.5804 52.0617 75.1838 53.1391L75.0197 52.1794C81.4815 51.0911 88.0459 50.6664 94.6116 50.9179L94.5777 51.8903ZM14.5284 55.0595C13.7463 55.0672 12.9639 55.086 12.1817 55.116L12.1478 54.1436C12.9393 54.1132 13.7308 54.0942 14.5221 54.0864L14.5284 55.0595ZM31.4952 56.6513C27.6878 55.8917 23.8356 55.4023 19.9668 55.1852L20.0243 54.2136C23.9385 54.4333 27.8359 54.9284 31.6879 55.6969L31.4952 56.6513ZM87.2658 57.5208C83.621 57.6604 79.9851 58.0102 76.3761 58.569L76.2246 57.6073C79.8705 57.0428 83.5434 56.6895 87.2254 56.5484L87.2658 57.5208Z" fill="white"></path>
<path d="M47.9473 20.4407L47.8053 20.5815L47.8053 20.5815L47.9473 20.4407ZM47.2422 20.4407L47.3841 20.5815L47.3841 20.5815L47.2422 20.4407ZM50.3547 22.8667L50.2127 23.0076L50.2127 23.0076L50.3547 22.8667ZM50.3547 23.5773L50.2127 23.4364L50.2127 23.4364L50.3547 23.5773ZM49.6496 23.5773L49.7915 23.4364L49.7915 23.4364L49.6496 23.5773ZM47.2422 21.1512L47.3841 21.0104L47.3841 21.0104L47.2422 21.1512ZM35.3846 64.1221L35.3846 63.9221L35.3846 63.9221L35.3846 64.1221ZM34.587 64.1221L34.587 64.3221L34.587 64.3221L34.587 64.1221ZM31.1364 60.8093V60.6093C31.0259 60.6093 30.9364 60.6988 30.9364 60.8093H31.1364ZM34.587 61.3726L34.455 61.5228C34.514 61.5746 34.5979 61.5872 34.6695 61.5548C34.741 61.5224 34.787 61.4511 34.787 61.3726H34.587ZM34.587 60.3914H34.787C34.787 60.3407 34.7677 60.2918 34.7331 60.2548L34.587 60.3914ZM34.7168 54.9821L34.8535 55.1281L34.8535 55.1281L34.7168 54.9821ZM34.9858 54.7302L35.1224 54.5842C35.0455 54.5122 34.926 54.5122 34.8491 54.5842L34.9858 54.7302ZM35.2548 54.9821L35.3915 54.8361L35.3915 54.836L35.2548 54.9821ZM35.3846 60.3914L35.2385 60.2548C35.2038 60.2918 35.1846 60.3406 35.1846 60.3914H35.3846ZM35.3846 61.3725H35.1846C35.1846 61.4511 35.2306 61.5224 35.3021 61.5547C35.3737 61.5871 35.4576 61.5746 35.5166 61.5227L35.3846 61.3725ZM38.8352 60.8092H39.0352C39.0352 60.6988 38.9457 60.6092 38.8352 60.6092V60.8092ZM38.0377 61.6261H38.2377C38.2377 61.5156 38.1481 61.4261 38.0377 61.4261V61.6261ZM35.3845 63.3052H35.1845C35.1845 63.4157 35.2741 63.5052 35.3845 63.5052V63.3052ZM35.3845 63.1446L35.1845 63.1446V63.1446H35.3845ZM34.9857 55.8832L35.1407 55.7568C35.1027 55.7102 35.0458 55.6832 34.9857 55.6832C34.9257 55.6832 34.8687 55.7102 34.8308 55.7568L34.9857 55.8832ZM34.9858 59.6219L34.8308 59.7483C34.8688 59.7949 34.9257 59.8219 34.9858 59.8219C35.0459 59.8219 35.1028 59.7949 35.1408 59.7483L34.9858 59.6219ZM31.9338 61.6261V61.4261C31.8234 61.4261 31.7338 61.5156 31.7338 61.6261H31.9338ZM34.587 63.3052V63.5052C34.6975 63.5052 34.787 63.4157 34.787 63.3052H34.587ZM53.2132 64.1221L53.2132 63.9221L53.2132 63.9221L53.2132 64.1221ZM52.4157 64.1221L52.4157 64.3221L52.4157 64.3221L52.4157 64.1221ZM48.965 60.8093V60.6093C48.8545 60.6093 48.765 60.6988 48.765 60.8093H48.965ZM52.4157 61.3726L52.2836 61.5228C52.3426 61.5746 52.4265 61.5872 52.4981 61.5548C52.5697 61.5224 52.6157 61.4511 52.6157 61.3726H52.4157ZM52.4157 60.3914H52.6157C52.6157 60.3407 52.5964 60.2918 52.5617 60.2548L52.4157 60.3914ZM52.5454 54.9821L52.6821 55.1281L52.6821 55.1281L52.5454 54.9821ZM52.8144 54.7302L52.9511 54.5842C52.8742 54.5122 52.7546 54.5122 52.6777 54.5842L52.8144 54.7302ZM53.0835 54.9821L53.2202 54.8361L53.2201 54.836L53.0835 54.9821ZM53.2132 60.3914L53.0672 60.2548C53.0325 60.2918 53.0132 60.3406 53.0132 60.3914H53.2132ZM53.2132 61.3725H53.0132C53.0132 61.4511 53.0592 61.5224 53.1308 61.5547C53.2023 61.5871 53.2862 61.5746 53.3452 61.5227L53.2132 61.3725ZM56.6639 60.8092H56.8639C56.8639 60.6988 56.7743 60.6092 56.6639 60.6092V60.8092ZM55.8663 61.6261H56.0663C56.0663 61.5156 55.9768 61.4261 55.8663 61.4261V61.6261ZM53.2132 63.3052H53.0132C53.0132 63.4157 53.1027 63.5052 53.2132 63.5052V63.3052ZM53.2132 63.1446L53.0132 63.1446V63.1446H53.2132ZM52.8144 55.8832L52.9694 55.7568C52.9314 55.7102 52.8745 55.6832 52.8144 55.6832C52.7543 55.6832 52.6974 55.7102 52.6594 55.7568L52.8144 55.8832ZM52.8144 59.6219L52.6594 59.7483C52.6974 59.7949 52.7543 59.8219 52.8144 59.8219C52.8745 59.8219 52.9314 59.7949 52.9694 59.7483L52.8144 59.6219ZM49.7625 61.6261V61.4261C49.652 61.4261 49.5625 61.5156 49.5625 61.6261H49.7625ZM52.4156 63.3052V63.5052C52.5261 63.5052 52.6156 63.4157 52.6156 63.3052H52.4156ZM72.6631 64.1221L72.6631 63.9221L72.6631 63.9221L72.6631 64.1221ZM71.8656 64.1221L71.8656 64.3221L71.8656 64.3221L71.8656 64.1221ZM68.4149 60.8093V60.6093C68.3045 60.6093 68.2149 60.6988 68.2149 60.8093H68.4149ZM71.8656 61.3726L71.7336 61.5228C71.7926 61.5746 71.8765 61.5872 71.948 61.5548C72.0196 61.5224 72.0656 61.4511 72.0656 61.3726H71.8656ZM71.8656 60.3914H72.0656C72.0656 60.3407 72.0463 60.2918 72.0116 60.2548L71.8656 60.3914ZM71.9953 54.9821L72.132 55.1281L72.132 55.1281L71.9953 54.9821ZM72.2643 54.7302L72.401 54.5842C72.3241 54.5122 72.2045 54.5122 72.1277 54.5842L72.2643 54.7302ZM72.5334 54.9821L72.6701 54.8361L72.6701 54.836L72.5334 54.9821ZM72.6631 60.3914L72.5171 60.2548C72.4824 60.2918 72.4631 60.3406 72.4631 60.3914H72.6631ZM72.6631 61.3725H72.4631C72.4631 61.4511 72.5091 61.5224 72.5807 61.5547C72.6523 61.5871 72.7362 61.5746 72.7952 61.5227L72.6631 61.3725ZM76.1138 60.8092H76.3138C76.3138 60.6988 76.2242 60.6092 76.1138 60.6092V60.8092ZM75.3162 61.6261H75.5162C75.5162 61.5156 75.4267 61.4261 75.3162 61.4261V61.6261ZM72.6631 63.3052H72.4631C72.4631 63.4157 72.5526 63.5052 72.6631 63.5052V63.3052ZM72.6631 63.1446L72.4631 63.1446V63.1446H72.6631ZM72.2643 55.8832L72.4193 55.7568C72.3813 55.7102 72.3244 55.6832 72.2643 55.6832C72.2042 55.6832 72.1473 55.7102 72.1093 55.7568L72.2643 55.8832ZM72.2643 59.6219L72.1094 59.7483C72.1473 59.7949 72.2043 59.8219 72.2643 59.8219C72.3244 59.8219 72.3813 59.7949 72.4193 59.7483L72.2643 59.6219ZM69.2124 61.6261V61.4261C69.102 61.4261 69.0124 61.5156 69.0124 61.6261H69.2124ZM71.8656 63.3052V63.5052C71.976 63.5052 72.0656 63.4157 72.0656 63.3052H71.8656ZM91.3025 64.1221L91.3025 63.9221L91.3025 63.9221L91.3025 64.1221ZM90.505 64.1221L90.505 64.3221L90.505 64.3221L90.505 64.1221ZM87.0543 60.8093V60.6093C86.9438 60.6093 86.8543 60.6988 86.8543 60.8093H87.0543ZM90.505 61.3726L90.3729 61.5228C90.4319 61.5746 90.5158 61.5872 90.5874 61.5548C90.659 61.5224 90.705 61.4511 90.705 61.3726H90.505ZM90.505 60.3914H90.705C90.705 60.3407 90.6857 60.2918 90.651 60.2548L90.505 60.3914ZM90.6347 54.9821L90.7714 55.1281L90.7714 55.1281L90.6347 54.9821ZM90.9037 54.7302L91.0404 54.5842C90.9635 54.5122 90.8439 54.5122 90.767 54.5842L90.9037 54.7302ZM91.1728 54.9821L91.3095 54.8361L91.3094 54.836L91.1728 54.9821ZM91.3025 60.3914L91.1564 60.2548C91.1218 60.2918 91.1025 60.3406 91.1025 60.3914H91.3025ZM91.3025 61.3725H91.1025C91.1025 61.4511 91.1485 61.5224 91.2201 61.5547C91.2916 61.5871 91.3755 61.5746 91.4345 61.5227L91.3025 61.3725ZM94.7532 60.8092H94.9532C94.9532 60.6988 94.8636 60.6092 94.7532 60.6092V60.8092ZM93.9556 61.6261H94.1556C94.1556 61.5156 94.0661 61.4261 93.9556 61.4261V61.6261ZM91.3024 63.3052H91.1024C91.1024 63.4157 91.192 63.5052 91.3024 63.5052V63.3052ZM91.3024 63.1446L91.1024 63.1446V63.1446H91.3024ZM90.9037 55.8832L91.0587 55.7568C91.0207 55.7102 90.9638 55.6832 90.9037 55.6832C90.8436 55.6832 90.7867 55.7102 90.7487 55.7568L90.9037 55.8832ZM90.9037 59.6219L90.7487 59.7483C90.7867 59.7949 90.8436 59.8219 90.9037 59.8219C90.9638 59.8219 91.0207 59.7949 91.0587 59.7483L90.9037 59.6219ZM87.8518 61.6261V61.4261C87.7413 61.4261 87.6518 61.5156 87.6518 61.6261H87.8518ZM90.5049 63.3052V63.5052C90.6154 63.5052 90.7049 63.4157 90.7049 63.3052H90.5049ZM81.9829 75.5557L81.9829 75.3557L81.9829 75.3557L81.9829 75.5557ZM85.4335 72.2429H85.6335C85.6335 72.1324 85.544 72.0429 85.4335 72.0429V72.2429ZM81.9829 72.8062H81.7829C81.7829 72.8847 81.8288 72.956 81.9004 72.9884C81.972 73.0208 82.0559 73.0082 82.1149 72.9564L81.9829 72.8062ZM81.9829 71.825L81.8368 71.6884C81.8021 71.7254 81.7829 71.7743 81.7829 71.825H81.9829ZM81.8531 66.4157L81.9898 66.2697L81.9898 66.2697L81.8531 66.4157ZM81.5841 66.1638L81.7207 66.0178C81.6438 65.9458 81.5243 65.9458 81.4474 66.0178L81.5841 66.1638ZM81.3151 66.4157L81.4517 66.5617L81.4517 66.5617L81.3151 66.4157ZM81.1853 71.825H81.3853C81.3853 71.7743 81.366 71.7255 81.3314 71.6884L81.1853 71.825ZM81.1853 72.8062L81.0533 72.9564C81.1123 73.0083 81.1962 73.0208 81.2678 72.9884C81.3393 72.956 81.3853 72.8847 81.3853 72.8062H81.1853ZM77.7347 72.2429V72.0429C77.6242 72.0429 77.5347 72.1324 77.5347 72.2429H77.7347ZM81.1853 75.5557L81.1853 75.7557L81.1853 75.7557L81.1853 75.5557ZM84.636 73.0597H84.836C84.836 72.9492 84.7464 72.8597 84.636 72.8597V73.0597ZM81.9828 74.5782L81.7828 74.5782V74.5782H81.9828ZM81.9828 74.7388H81.7828C81.7828 74.8493 81.8723 74.9388 81.9828 74.9388V74.7388ZM81.584 67.3168L81.739 67.1904C81.701 67.1438 81.6441 67.1168 81.584 67.1168C81.5239 67.1168 81.467 67.1438 81.4291 67.1904L81.584 67.3168ZM81.5841 71.0555L81.4291 71.182C81.4671 71.2285 81.524 71.2555 81.5841 71.2555C81.6442 71.2555 81.7011 71.2285 81.739 71.182L81.5841 71.0555ZM81.1853 74.7388V74.9388C81.2958 74.9388 81.3853 74.8493 81.3853 74.7388H81.1853ZM78.5321 73.0597V72.8597C78.4217 72.8597 78.3321 72.9492 78.3321 73.0597H78.5321ZM62.5332 75.5557L62.5332 75.3557L62.5331 75.3557L62.5332 75.5557ZM65.9838 72.2429H66.1838C66.1838 72.1324 66.0943 72.0429 65.9838 72.0429V72.2429ZM62.5332 72.8062H62.3332C62.3332 72.8847 62.3791 72.956 62.4507 72.9884C62.5223 73.0208 62.6062 73.0082 62.6652 72.9564L62.5332 72.8062ZM62.5332 71.825L62.3871 71.6884C62.3524 71.7254 62.3332 71.7743 62.3332 71.825H62.5332ZM62.4034 66.4157L62.5401 66.2697L62.5401 66.2697L62.4034 66.4157ZM62.1344 66.1638L62.271 66.0178C62.1941 65.9458 62.0746 65.9458 61.9977 66.0178L62.1344 66.1638ZM61.8654 66.4157L62.002 66.5617L62.002 66.5617L61.8654 66.4157ZM61.7356 71.825H61.9356C61.9356 71.7743 61.9163 71.7255 61.8817 71.6884L61.7356 71.825ZM61.7356 72.8062L61.6036 72.9564C61.6626 73.0083 61.7465 73.0208 61.8181 72.9884C61.8896 72.956 61.9356 72.8847 61.9356 72.8062H61.7356ZM58.285 72.2429V72.0429C58.1745 72.0429 58.085 72.1324 58.085 72.2429H58.285ZM61.7356 75.5557L61.7356 75.7557L61.7356 75.7557L61.7356 75.5557ZM65.1863 73.0597H65.3863C65.3863 72.9492 65.2967 72.8597 65.1863 72.8597V73.0597ZM62.5331 74.5782L62.3331 74.5782V74.5782H62.5331ZM62.5331 74.7388H62.3331C62.3331 74.8493 62.4226 74.9388 62.5331 74.9388V74.7388ZM62.1343 67.3168L62.2893 67.1904C62.2513 67.1438 62.1944 67.1168 62.1343 67.1168C62.0742 67.1168 62.0173 67.1438 61.9794 67.1904L62.1343 67.3168ZM62.1344 71.0555L61.9794 71.182C62.0174 71.2285 62.0743 71.2555 62.1344 71.2555C62.1945 71.2555 62.2514 71.2285 62.2893 71.182L62.1344 71.0555ZM61.7356 74.7388V74.9388C61.8461 74.9388 61.9356 74.8493 61.9356 74.7388H61.7356ZM59.0824 73.0597V72.8597C58.972 72.8597 58.8824 72.9492 58.8824 73.0597H59.0824ZM44.704 75.5557L44.704 75.3557L44.704 75.3557L44.704 75.5557ZM48.1547 72.2429H48.3547C48.3547 72.1324 48.2652 72.0429 48.1547 72.0429V72.2429ZM44.704 72.8062H44.504C44.504 72.8847 44.55 72.956 44.6216 72.9884C44.6932 73.0208 44.7771 73.0082 44.8361 72.9564L44.704 72.8062ZM44.704 71.825L44.558 71.6884C44.5233 71.7254 44.504 71.7743 44.504 71.825H44.704ZM44.5743 66.4157L44.711 66.2697L44.711 66.2697L44.5743 66.4157ZM44.3053 66.1638L44.4419 66.0178C44.365 65.9458 44.2455 65.9458 44.1686 66.0178L44.3053 66.1638ZM44.0363 66.4157L43.8996 66.2697L43.8996 66.2697L44.0363 66.4157ZM43.9065 71.825H44.1065C44.1065 71.7743 44.0872 71.7255 44.0526 71.6884L43.9065 71.825ZM43.9065 72.8062L43.7745 72.9564C43.8335 73.0083 43.9174 73.0208 43.989 72.9884C44.0605 72.956 44.1065 72.8847 44.1065 72.8062H43.9065ZM40.4559 72.2429V72.0429C40.3454 72.0429 40.2559 72.1324 40.2559 72.2429H40.4559ZM43.9065 75.5557L43.9065 75.7557L43.9065 75.7557L43.9065 75.5557ZM47.3572 73.0597H47.5572C47.5572 72.9492 47.4676 72.8597 47.3572 72.8597V73.0597ZM44.704 74.5782L44.504 74.5782V74.5782H44.704ZM44.704 74.7388H44.504C44.504 74.8493 44.5935 74.9388 44.704 74.9388V74.7388ZM44.3052 67.3168L44.4602 67.1904C44.4222 67.1438 44.3653 67.1168 44.3052 67.1168C44.2451 67.1168 44.1882 67.1438 44.1502 67.1904L44.3052 67.3168ZM44.3053 71.0555L44.1503 71.182C44.1883 71.2285 44.2452 71.2555 44.3053 71.2555C44.3653 71.2555 44.4223 71.2285 44.4602 71.182L44.3053 71.0555ZM43.9065 74.7388V74.9388C44.0169 74.9388 44.1065 74.8493 44.1065 74.7388H43.9065ZM41.2533 73.0597V72.8597C41.1429 72.8597 41.0533 72.9492 41.0533 73.0597H41.2533ZM17.5556 64.1221L17.5556 63.9221L17.5556 63.9221L17.5556 64.1221ZM16.7581 64.1221L16.7581 64.3221L16.7581 64.3221L16.7581 64.1221ZM13.3074 60.8093V60.6093C13.197 60.6093 13.1074 60.6989 13.1074 60.8093H13.3074ZM16.7581 61.3726L16.6261 61.5228C16.6851 61.5747 16.769 61.5872 16.8405 61.5548C16.9121 61.5224 16.9581 61.4512 16.9581 61.3726H16.7581ZM16.7581 60.3915H16.9581C16.9581 60.3407 16.9388 60.2919 16.9042 60.2548L16.7581 60.3915ZM16.8878 54.9821L16.7512 54.8361L16.7511 54.8361L16.8878 54.9821ZM17.1568 54.7303L17.2935 54.5842C17.2166 54.5123 17.0971 54.5123 17.0202 54.5843L17.1568 54.7303ZM17.4259 54.9821L17.5626 54.8361L17.5626 54.8361L17.4259 54.9821ZM17.5556 60.3914L17.4096 60.2548C17.3749 60.2919 17.3556 60.3407 17.3556 60.3914H17.5556ZM17.5556 61.3726H17.3556C17.3556 61.4511 17.4016 61.5224 17.4732 61.5548C17.5448 61.5872 17.6287 61.5747 17.6877 61.5228L17.5556 61.3726ZM21.0063 60.8093H21.2063C21.2063 60.6988 21.1168 60.6093 21.0063 60.6093V60.8093ZM20.2087 61.6261H20.4087C20.4087 61.5156 20.3192 61.4261 20.2087 61.4261V61.6261ZM17.5556 63.3053H17.3556C17.3556 63.4157 17.4451 63.5053 17.5556 63.5053V63.3053ZM17.5556 63.1446L17.3556 63.1446V63.1446H17.5556ZM17.1568 55.8832L17.3118 55.7568C17.2738 55.7102 17.2169 55.6832 17.1568 55.6832C17.0967 55.6832 17.0398 55.7102 17.0018 55.7568L17.1568 55.8832ZM17.1568 59.622L17.0019 59.7484C17.0398 59.7949 17.0968 59.822 17.1568 59.822C17.2169 59.822 17.2738 59.7949 17.3118 59.7484L17.1568 59.622ZM14.1049 61.6261V61.4261C13.9945 61.4261 13.9049 61.5156 13.9049 61.6261H14.1049ZM16.7581 63.3053V63.5053C16.8685 63.5053 16.9581 63.4157 16.9581 63.3053H16.7581ZM26.8752 75.5557L26.8752 75.3557L26.8752 75.3557L26.8752 75.5557ZM30.3259 72.2429H30.5259C30.5259 72.1324 30.4364 72.0429 30.3259 72.0429V72.2429ZM26.8752 72.8062H26.6752C26.6752 72.8847 26.7212 72.956 26.7928 72.9884C26.8644 73.0208 26.9483 73.0082 27.0073 72.9564L26.8752 72.8062ZM26.8752 71.825L26.7292 71.6884C26.6945 71.7254 26.6752 71.7743 26.6752 71.825H26.8752ZM26.7455 66.4157L26.8822 66.2697L26.8822 66.2697L26.7455 66.4157ZM26.4764 66.1638L26.6131 66.0178C26.5362 65.9458 26.4167 65.9458 26.3398 66.0178L26.4764 66.1638ZM26.2074 66.4157L26.0708 66.2697L26.0708 66.2697L26.2074 66.4157ZM26.0777 71.825H26.2777C26.2777 71.7743 26.2584 71.7255 26.2238 71.6884L26.0777 71.825ZM26.0777 72.8062L25.9457 72.9564C26.0047 73.0083 26.0886 73.0208 26.1601 72.9884C26.2317 72.956 26.2777 72.8847 26.2777 72.8062H26.0777ZM22.627 72.2429V72.0429C22.5166 72.0429 22.427 72.1324 22.427 72.2429H22.627ZM26.0777 75.5557L26.0777 75.7557L26.0777 75.7557L26.0777 75.5557ZM29.5284 73.0597H29.7284C29.7284 72.9492 29.6388 72.8597 29.5284 72.8597V73.0597ZM26.8752 74.5782L26.6752 74.5782V74.5782H26.8752ZM26.8752 74.7388H26.6752C26.6752 74.8493 26.7647 74.9388 26.8752 74.9388V74.7388ZM26.4764 67.3168L26.6314 67.1904C26.5934 67.1438 26.5365 67.1168 26.4764 67.1168C26.4163 67.1168 26.3594 67.1438 26.3214 67.1904L26.4764 67.3168ZM26.4764 71.0555L26.3215 71.182C26.3595 71.2285 26.4164 71.2555 26.4764 71.2555C26.5365 71.2555 26.5934 71.2285 26.6314 71.182L26.4764 71.0555ZM26.0777 74.7388V74.9388C26.1881 74.9388 26.2777 74.8493 26.2777 74.7388H26.0777ZM23.4245 73.0597V72.8597C23.3141 72.8597 23.2245 72.9492 23.2245 73.0597H23.4245ZM58.1109 32.1043L58.2529 31.9634L58.2529 31.9634L58.1109 32.1043ZM58.1109 31.3937L58.2529 31.5346L58.2529 31.5346L58.1109 31.3937ZM60.5183 34.5303L60.6603 34.3895L60.6603 34.3895L60.5183 34.5303ZM61.2234 34.5303L61.0814 34.3895L61.0814 34.3895L61.2234 34.5303ZM61.2234 33.8198L61.0814 33.9606L61.0814 33.9606L61.2234 33.8198ZM58.816 31.3937L58.674 31.5346L58.6741 31.5346L58.816 31.3937ZM47.9473 34.5303L47.8053 34.3894L47.8053 34.3895L47.9473 34.5303ZM47.2422 34.5303L47.3841 34.3895L47.3841 34.3894L47.2422 34.5303ZM50.3547 32.1043L50.2127 31.9634L50.2127 31.9634L50.3547 32.1043ZM50.3547 31.3937L50.2127 31.5346L50.2127 31.5346L50.3547 31.3937ZM49.6496 31.3937L49.7915 31.5346L49.7915 31.5346L49.6496 31.3937ZM47.2422 33.8198L47.3841 33.9606L47.3841 33.9606L47.2422 33.8198ZM61.2234 20.4407L61.0814 20.5815L61.0814 20.5815L61.2234 20.4407ZM60.5183 20.4407L60.3763 20.2998L60.3763 20.2998L60.5183 20.4407ZM61.2234 21.1512L61.0814 21.0104L61.0814 21.0104L61.2234 21.1512ZM58.816 23.5773L58.6741 23.4364L58.674 23.4364L58.816 23.5773ZM58.1109 23.5773L58.2529 23.4364L58.2529 23.4364L58.1109 23.5773ZM58.1109 22.8667L58.2529 23.0076L58.2529 23.0076L58.1109 22.8667ZM56.0624 33.2497L55.8774 33.3257L55.8774 33.3257L56.0624 33.2497ZM56.3322 32.5932L56.2552 32.4086L56.2552 32.4086L56.3322 32.5932ZM56.444 34.1781L56.259 34.2541L56.259 34.2541L56.444 34.1781ZM57.0954 34.45L57.0184 34.2654L57.0184 34.2654L57.0954 34.45ZM57.3653 33.7935L57.5503 33.7174L57.5503 33.7174L57.3653 33.7935ZM56.9837 32.8651L57.1687 32.789L57.1687 32.789L56.9837 32.8651ZM52.4037 21.7226L52.5887 21.6466L52.5887 21.6466L52.4037 21.7226ZM52.0222 20.7942L52.2071 20.7182L52.2071 20.7182L52.0222 20.7942ZM52.1339 22.3791L52.0569 22.1945L52.0569 22.1946L52.1339 22.3791ZM51.4824 22.1072L51.2975 22.1832L51.2975 22.1833L51.4824 22.1072ZM51.1009 21.1788L50.9159 21.2548L50.9159 21.2548L51.1009 21.1788ZM51.3707 20.5223L51.2937 20.3377L51.2937 20.3377L51.3707 20.5223ZM47.5939 29.7121L47.671 29.8966L47.671 29.8966L47.5939 29.7121ZM48.5152 29.3275L48.4382 29.1429L48.4382 29.1429L48.5152 29.3275ZM47.3241 30.3686L47.1391 30.4446L47.1391 30.4446L47.3241 30.3686ZM47.9756 30.6405L47.8985 30.4559L47.8985 30.4559L47.9756 30.6405ZM48.8968 30.2559L48.8198 30.0714L48.8198 30.0714L48.8968 30.2559ZM49.1667 29.5994L49.3516 29.5234L49.3516 29.5234L49.1667 29.5994ZM59.9502 25.6444L60.0272 25.829L60.0272 25.829L59.9502 25.6444ZM60.8714 25.2599L60.7944 25.0753L60.7944 25.0753L60.8714 25.2599ZM59.2987 25.3725L59.1137 25.4485L59.1137 25.4485L59.2987 25.3725ZM59.5685 24.716L59.6456 24.9005L59.6456 24.9005L59.5685 24.716ZM60.4898 24.3314L60.4128 24.1469L60.4128 24.1469L60.4898 24.3314ZM51.1014 33.7935L50.9165 33.7174L50.9165 33.7174L51.1014 33.7935ZM51.483 32.8651L51.668 32.9411L51.668 32.9411L51.483 32.8651ZM51.3713 34.45L51.2942 34.6345L51.2943 34.6346L51.3713 34.45ZM52.0227 34.178L52.2077 34.2541L52.2077 34.2541L52.0227 34.178ZM52.4043 33.2497L52.5893 33.3257L52.5893 33.3257L52.4043 33.2497ZM52.1345 32.5932L52.2115 32.4086L52.2115 32.4086L52.1345 32.5932ZM56.9829 22.1072L56.7979 22.0312L56.7979 22.0312L56.9829 22.1072ZM57.3645 21.1788L57.5495 21.2548L57.5495 21.2548L57.3645 21.1788ZM56.3315 22.3791L56.2544 22.5637L56.2545 22.5637L56.3315 22.3791ZM56.0616 21.7226L55.8766 21.6466L55.8766 21.6466L56.0616 21.7226ZM56.4432 20.7942L56.2582 20.7182L56.2582 20.7182L56.4432 20.7942ZM57.0947 20.5223L57.1717 20.3377L57.1717 20.3377L57.0947 20.5223ZM47.9756 24.3314L48.0526 24.1469L48.0526 24.1469L47.9756 24.3314ZM48.8968 24.716L48.8198 24.9006L48.8198 24.9006L48.8968 24.716ZM47.3241 24.6034L47.1391 24.5273L47.1391 24.5273L47.3241 24.6034ZM47.5939 25.2599L47.5169 25.4444L47.5169 25.4444L47.5939 25.2599ZM48.5152 25.6444L48.4382 25.829L48.4382 25.829L48.5152 25.6444ZM49.1667 25.3725L49.3516 25.4485L49.3516 25.4485L49.1667 25.3725ZM60.8714 29.7121L60.7944 29.8966L60.7944 29.8966L60.8714 29.7121ZM59.9502 29.3275L60.0272 29.143L60.0272 29.1429L59.9502 29.3275ZM61.1413 30.3686L61.3262 30.4446L61.3263 30.4446L61.1413 30.3686ZM60.4898 30.6405L60.4128 30.8251L60.4128 30.8251L60.4898 30.6405ZM59.5685 30.256L59.4915 30.4405L59.4915 30.4405L59.5685 30.256ZM59.2987 29.5995L59.1137 29.5234L59.1137 29.5234L59.2987 29.5995ZM12.1801 39.8399L11.9802 39.8468C11.982 39.9 12.005 39.9502 12.0439 39.9864C12.0829 40.0226 12.1346 40.0418 12.1877 40.0397L12.1801 39.8399ZM67.583 58.3735L67.4568 58.5286C67.498 58.5621 67.5508 58.5779 67.6036 58.5724C67.6564 58.5669 67.7049 58.5407 67.7383 58.4995L67.583 58.3735ZM12.1462 38.8675L12.1386 38.6676C12.0284 38.6719 11.9425 38.7643 11.9463 38.8744L12.1462 38.8675ZM52.4847 47.5121L52.3959 47.6913C52.4713 47.7286 52.5621 47.7148 52.6229 47.6566C52.6838 47.5985 52.7017 47.5085 52.6677 47.4314L52.4847 47.5121ZM52.2811 47.0497L52.2006 46.8666C52.152 46.888 52.1139 46.9277 52.0947 46.9772C52.0754 47.0267 52.0766 47.0818 52.098 47.1303L52.2811 47.0497ZM94.4578 38.9998L94.6576 39.0065C94.6614 38.8964 94.5753 38.804 94.4652 38.7999L94.4578 38.9998ZM94.425 39.9722L94.4175 40.1721C94.4706 40.1741 94.5224 40.1548 94.5613 40.1186C94.6002 40.0823 94.6231 40.0321 94.6248 39.979L94.425 39.9722ZM53.0306 47.7851L52.9509 47.6016C52.8797 47.6325 52.8329 47.7018 52.8307 47.7793C52.8285 47.8568 52.8712 47.9287 52.9405 47.9636L53.0306 47.7851ZM59.0609 51.1466L58.9565 51.3171C59.0078 51.3486 59.0706 51.3552 59.1274 51.3352L59.0609 51.1466ZM94.6117 45.7614L94.8116 45.7684C94.8154 45.6583 94.7294 45.5658 94.6193 45.5616L94.6117 45.7614ZM94.5778 46.7338L94.5702 46.9337C94.6233 46.9357 94.675 46.9165 94.714 46.8803C94.7529 46.8441 94.7758 46.7939 94.7777 46.7408L94.5778 46.7338ZM60.1232 51.8082L60.0583 51.6191C59.9855 51.644 59.9335 51.7085 59.9246 51.7849C59.9156 51.8613 59.9512 51.9361 60.0162 51.9772L60.1232 51.8082ZM64.3173 54.6448L64.2003 54.8071C64.2696 54.857 64.3629 54.8575 64.4326 54.8082C64.5024 54.759 64.5332 54.6709 64.5093 54.5889L64.3173 54.6448ZM64.3103 54.6209L64.2548 54.4288C64.2038 54.4435 64.1607 54.478 64.1351 54.5245C64.1095 54.571 64.1035 54.6258 64.1183 54.6768L64.3103 54.6209ZM66.6709 53.971L66.8643 53.92C66.8362 53.8134 66.727 53.7496 66.6203 53.7775L66.6709 53.971ZM66.9193 54.9126L66.9699 55.1061C67.0213 55.0927 67.0652 55.0593 67.092 55.0135C67.1188 54.9676 67.1262 54.913 67.1127 54.8616L66.9193 54.9126ZM65.2875 55.3551L65.2335 55.1625C65.16 55.1831 65.1047 55.2437 65.0908 55.3188C65.077 55.3938 65.107 55.4701 65.1682 55.5156L65.2875 55.3551ZM68.1966 57.6171L68.3519 57.7431C68.4215 57.6574 68.4084 57.5316 68.3228 57.4619L68.1966 57.6171ZM12.1374 45.726L11.9375 45.7329C11.9394 45.786 11.9623 45.8363 12.0012 45.8725C12.0402 45.9086 12.0919 45.9278 12.145 45.9258L12.1374 45.726ZM49.5751 53.1133L49.4922 53.2953C49.5926 53.3411 49.7112 53.2968 49.757 53.1964L49.5751 53.1133ZM12.1035 44.7536L12.0959 44.5537C11.9858 44.5579 11.8998 44.6504 11.9036 44.7605L12.1035 44.7536ZM49.9797 52.2273L50.1616 52.3104C50.1837 52.2621 50.1856 52.207 50.167 52.1573C50.1485 52.1076 50.1109 52.0673 50.0626 52.0453L49.9797 52.2273ZM57.4308 57.2138L57.2587 57.1119C57.2024 57.2069 57.2339 57.3296 57.3289 57.3859L57.4308 57.2138ZM62.8923 60.7425L62.7773 60.9061C62.8207 60.9366 62.8744 60.9486 62.9267 60.9395C62.979 60.9303 63.0255 60.9008 63.056 60.8574L62.8923 60.7425ZM57.9269 56.3755L58.0288 56.2034C57.9832 56.1764 57.9286 56.1686 57.8773 56.1818C57.8259 56.195 57.7818 56.228 57.7548 56.2737L57.9269 56.3755ZM63.4519 59.9453L63.6156 60.0602C63.679 59.9698 63.6572 59.8451 63.5669 59.7817L63.4519 59.9453ZM12.1376 50.2189L11.9377 50.2258C11.9396 50.279 11.9625 50.3292 12.0014 50.3654C12.0404 50.4015 12.0921 50.4207 12.1452 50.4187L12.1376 50.2189ZM48.971 57.3338L48.8895 57.5164C48.9904 57.5614 49.1086 57.5162 49.1536 57.4154L48.971 57.3338ZM12.1037 49.2465L12.0961 49.0466C11.986 49.0508 11.9 49.1433 11.9038 49.2534L12.1037 49.2465ZM49.3686 56.4446L49.5511 56.5262C49.5728 56.4778 49.5743 56.4227 49.5554 56.3731C49.5364 56.3235 49.4985 56.2835 49.45 56.2619L49.3686 56.4446ZM75.1838 53.1391L74.9867 53.1728C75.0053 53.2815 75.1083 53.3546 75.2171 53.3363L75.1838 53.1391ZM94.5777 51.8903L94.5701 52.0902C94.6232 52.0922 94.675 52.073 94.7139 52.0368C94.7528 52.0006 94.7758 51.9504 94.7776 51.8973L94.5777 51.8903ZM75.0197 52.1794L74.9865 51.9822C74.9341 51.991 74.8874 52.0204 74.8566 52.0637C74.8259 52.107 74.8136 52.1608 74.8226 52.2132L75.0197 52.1794ZM94.6116 50.9179L94.8115 50.9249C94.8153 50.8147 94.7294 50.7223 94.6193 50.7181L94.6116 50.9179ZM12.1817 55.116L11.9818 55.1229C11.9837 55.1761 12.0066 55.2263 12.0455 55.2625C12.0845 55.2986 12.1362 55.3178 12.1894 55.3158L12.1817 55.116ZM14.5284 55.0595L14.5304 55.2595C14.6406 55.2584 14.7291 55.1684 14.7284 55.0582L14.5284 55.0595ZM12.1478 54.1436L12.1402 53.9437C12.0301 53.9479 11.9441 54.0404 11.948 54.1505L12.1478 54.1436ZM14.5221 54.0864L14.7221 54.0851C14.7218 54.032 14.7003 53.9811 14.6624 53.9438C14.6245 53.9066 14.5733 53.8859 14.5202 53.8864L14.5221 54.0864ZM19.9668 55.1852L19.7671 55.1733C19.764 55.2264 19.7821 55.2785 19.8174 55.3182C19.8528 55.3579 19.9025 55.3819 19.9556 55.3849L19.9668 55.1852ZM31.4952 56.6513L31.456 56.8474C31.5642 56.869 31.6694 56.799 31.6912 56.6909L31.4952 56.6513ZM20.0243 54.2136L20.0355 54.0139C19.9255 54.0077 19.8312 54.0917 19.8247 54.2018L20.0243 54.2136ZM31.6879 55.6969L31.8839 55.7365C31.8944 55.6844 31.8838 55.6303 31.8544 55.586C31.8249 55.5418 31.7791 55.5111 31.727 55.5007L31.6879 55.6969ZM76.3761 58.569L76.1785 58.6001C76.1957 58.709 76.2977 58.7835 76.4067 58.7667L76.3761 58.569ZM87.2658 57.5208L87.2734 57.7207C87.3265 57.7186 87.3767 57.6956 87.4127 57.6565C87.4488 57.6174 87.4678 57.5656 87.4656 57.5125L87.2658 57.5208ZM76.2246 57.6073L76.194 57.4097C76.1415 57.4178 76.0944 57.4465 76.063 57.4894C76.0317 57.5323 76.0188 57.5859 76.027 57.6384L76.2246 57.6073ZM87.2254 56.5484L87.4253 56.5401C87.4207 56.43 87.3279 56.3444 87.2178 56.3486L87.2254 56.5484ZM54.9313 21.456V19.4127H54.5313V21.456H54.9313ZM54.2327 22.1585C54.62 22.1585 54.9313 21.8425 54.9313 21.456H54.5313C54.5313 21.6245 54.3962 21.7585 54.2327 21.7585V22.1585ZM53.5341 21.456C53.5341 21.8425 53.8455 22.1585 54.2327 22.1585V21.7585C54.0693 21.7585 53.9341 21.6245 53.9341 21.456H53.5341ZM53.5341 19.4127V21.456H53.9341V19.4127H53.5341ZM54.2327 18.7103C53.8455 18.7103 53.5341 19.0262 53.5341 19.4127H53.9341C53.9341 19.2442 54.0693 19.1103 54.2327 19.1103V18.7103ZM54.9313 19.4127C54.9313 19.0262 54.62 18.7103 54.2327 18.7103V19.1103C54.3962 19.1103 54.5313 19.2442 54.5313 19.4127H54.9313ZM48.0892 20.2998C47.8163 20.0247 47.3731 20.0247 47.1002 20.2998L47.3841 20.5815C47.5006 20.4641 47.6888 20.4642 47.8053 20.5815L48.0892 20.2998ZM50.4966 22.7258L48.0892 20.2998L47.8053 20.5815L50.2127 23.0076L50.4966 22.7258ZM50.4966 23.7181C50.7687 23.4439 50.7687 23 50.4966 22.7258L50.2127 23.0076C50.33 23.1258 50.33 23.3181 50.2127 23.4364L50.4966 23.7181ZM49.5076 23.7181C49.7805 23.9932 50.2237 23.9932 50.4966 23.7181L50.2127 23.4364C50.0962 23.5538 49.908 23.5538 49.7915 23.4364L49.5076 23.7181ZM47.1002 21.2921L49.5076 23.7181L49.7915 23.4364L47.3841 21.0104L47.1002 21.2921ZM47.1002 20.2998C46.8281 20.574 46.8281 21.0179 47.1002 21.2921L47.3841 21.0104C47.2668 20.8921 47.2668 20.6998 47.3841 20.5815L47.1002 20.2998ZM49.545 27.487C49.545 30.0895 51.6461 32.2091 54.2323 32.2091V31.8091C51.8699 31.8091 49.945 29.8715 49.945 27.487H49.545ZM54.2323 22.7649C51.6461 22.7649 49.545 24.8845 49.545 27.487H49.945C49.945 25.1025 51.8699 23.1649 54.2323 23.1649V22.7649ZM58.9196 27.487C58.9196 24.8845 56.8185 22.7649 54.2323 22.7649V23.1649C56.5947 23.1649 58.5196 25.1025 58.5196 27.487H58.9196ZM54.2323 32.2091C56.8185 32.2091 58.9196 30.0895 58.9196 27.487H58.5196C58.5196 29.8715 56.5947 31.8091 54.2323 31.8091V32.2091ZM54.2323 24.1698C56.0449 24.1698 57.5224 25.6566 57.5224 27.487H57.9224C57.9224 25.4387 56.2687 23.7698 54.2323 23.7698V24.1698ZM50.9422 27.487C50.9422 25.6566 52.4198 24.1698 54.2323 24.1698V23.7698C52.1959 23.7698 50.5422 25.4387 50.5422 27.487H50.9422ZM54.2323 30.8042C52.4198 30.8042 50.9422 29.3174 50.9422 27.487H50.5422C50.5422 29.5354 52.1959 31.2042 54.2323 31.2042V30.8042ZM57.5224 27.487C57.5224 29.3174 56.0449 30.8042 54.2323 30.8042V31.2042C56.2687 31.2042 57.9224 29.5354 57.9224 27.487H57.5224ZM35.3846 64.3221H36.5551V63.9221H35.3846V64.3221ZM34.587 64.3221L35.3846 64.3221L35.3846 63.9221L34.587 63.9221L34.587 64.3221ZM33.4165 64.3221H34.587V63.9221H33.4165V64.3221ZM30.9364 61.7867C30.9364 63.1804 32.0443 64.3221 33.4165 64.3221V63.9221C32.2742 63.9221 31.3364 62.9685 31.3364 61.7867H30.9364ZM30.9364 60.8093V61.7867H31.3364V60.8093H30.9364ZM33.1044 60.6093H31.1364V61.0093H33.1044V60.6093ZM34.7191 61.2223C34.2856 60.8414 33.7215 60.6093 33.1044 60.6093V61.0093C33.6189 61.0093 34.0905 61.2024 34.455 61.5228L34.7191 61.2223ZM34.387 60.3914V61.3726H34.787V60.3914H34.387ZM33.2062 57.7525C33.2062 59.088 34.1032 60.167 34.441 60.5281L34.7331 60.2548C34.4059 59.9051 33.6062 58.9247 33.6062 57.7525H33.2062ZM34.5801 54.8361C34.5466 54.8674 34.2065 55.191 33.8735 55.7051C33.5417 56.2175 33.2062 56.9358 33.2062 57.7525H33.6062C33.6062 57.0432 33.8992 56.4013 34.2093 55.9225C34.5183 55.4454 34.8334 55.1468 34.8535 55.1281L34.5801 54.8361ZM34.8491 54.5842L34.5801 54.8361L34.8535 55.1281L35.1225 54.8762L34.8491 54.5842ZM35.3915 54.836L35.1224 54.5842L34.8491 54.8762L35.1182 55.1281L35.3915 54.836ZM36.7654 57.7525C36.7654 56.9358 36.4299 56.2175 36.0981 55.7051C35.7651 55.191 35.425 54.8674 35.3915 54.8361L35.1181 55.1281C35.1381 55.1468 35.4533 55.4454 35.7623 55.9225C36.0724 56.4013 36.3654 57.0432 36.3654 57.7525H36.7654ZM35.5306 60.528C35.8684 60.167 36.7654 59.088 36.7654 57.7525H36.3654C36.3654 58.9247 35.5657 59.905 35.2385 60.2548L35.5306 60.528ZM35.5846 61.3725V60.3914H35.1846V61.3725H35.5846ZM36.8672 60.6092C36.2501 60.6092 35.686 60.8413 35.2525 61.2223L35.5166 61.5227C35.8812 61.2023 36.3527 61.0092 36.8672 61.0092V60.6092ZM38.8352 60.6092H36.8672V61.0092H38.8352V60.6092ZM39.0352 61.7867V60.8092H38.6352V61.7867H39.0352ZM36.5551 64.3221C37.9273 64.3221 39.0352 63.1803 39.0352 61.7867H38.6352C38.6352 62.9685 37.6974 63.9221 36.5551 63.9221V64.3221ZM38.0377 61.4261H36.8671V61.8261H38.0377V61.4261ZM38.2377 61.7867V61.6261H37.8377V61.7867H38.2377ZM36.5551 63.5052C37.4875 63.5052 38.2377 62.7299 38.2377 61.7867H37.8377C37.8377 62.5181 37.2576 63.1052 36.5551 63.1052V63.5052ZM35.3845 63.5052H36.5551V63.1052H35.3845V63.5052ZM35.1845 63.1446V63.3052H35.5845V63.1446H35.1845ZM36.8671 61.4261C35.9347 61.4261 35.1845 62.2013 35.1845 63.1446L35.5845 63.1446C35.5845 62.4132 36.1646 61.8261 36.8671 61.8261V61.4261ZM35.9679 57.7525C35.9679 56.8989 35.4587 56.1465 35.1407 55.7568L34.8308 56.0096C35.1361 56.3839 35.5679 57.0438 35.5679 57.7525H35.9679ZM35.1408 59.7483C35.4585 59.3588 35.9679 58.6062 35.9679 57.7525H35.5679C35.5679 58.4613 35.136 59.1214 34.8308 59.4955L35.1408 59.7483ZM34.0037 57.7525C34.0037 58.6062 34.5128 59.3586 34.8308 59.7483L35.1408 59.4955C34.8354 59.1212 34.4037 58.4613 34.4037 57.7525H34.0037ZM34.8308 55.7568C34.513 56.1463 34.0037 56.8988 34.0037 57.7525H34.4037C34.4037 57.0437 34.8356 56.3837 35.1407 56.0096L34.8308 55.7568ZM31.7338 61.7867C31.7338 62.7299 32.484 63.5052 33.4164 63.5052V63.1052C32.7139 63.1052 32.1338 62.5181 32.1338 61.7867H31.7338ZM31.7338 61.6261V61.7867H32.1338V61.6261H31.7338ZM33.1044 61.4261H31.9338V61.8261H33.1044V61.4261ZM34.787 63.1446C34.787 62.2013 34.0369 61.4261 33.1044 61.4261V61.8261C33.807 61.8261 34.387 62.4132 34.387 63.1446H34.787ZM34.787 63.3052V63.1446H34.387V63.3052H34.787ZM33.4164 63.5052H34.587V63.1052H33.4164V63.5052ZM53.2132 64.3221H54.3837V63.9221H53.2132V64.3221ZM52.4157 64.3221L53.2132 64.3221L53.2132 63.9221L52.4157 63.9221L52.4157 64.3221ZM51.2451 64.3221H52.4157V63.9221H51.2451V64.3221ZM48.765 61.7867C48.765 63.1804 49.8729 64.3221 51.2451 64.3221V63.9221C50.1028 63.9221 49.165 62.9685 49.165 61.7867H48.765ZM48.765 60.8093V61.7867H49.165V60.8093H48.765ZM50.9331 60.6093H48.965V61.0093H50.9331V60.6093ZM52.5477 61.2223C52.1143 60.8414 51.5501 60.6093 50.9331 60.6093V61.0093C51.4476 61.0093 51.9191 61.2024 52.2836 61.5228L52.5477 61.2223ZM52.2157 60.3914V61.3726H52.6157V60.3914H52.2157ZM51.0348 57.7525C51.0348 59.088 51.9319 60.167 52.2696 60.5281L52.5617 60.2548C52.2346 59.9051 51.4348 58.9247 51.4348 57.7525H51.0348ZM52.4087 54.8361C52.3752 54.8674 52.0351 55.191 51.7022 55.7051C51.3703 56.2175 51.0348 56.9358 51.0348 57.7525H51.4348C51.4348 57.0432 51.7279 56.4013 52.0379 55.9225C52.3469 55.4454 52.6621 55.1468 52.6821 55.1281L52.4087 54.8361ZM52.6777 54.5842L52.4087 54.8361L52.6821 55.1281L52.9511 54.8762L52.6777 54.5842ZM53.2201 54.836L52.9511 54.5842L52.6777 54.8762L52.9468 55.1281L53.2201 54.836ZM54.5941 57.7525C54.5941 56.9358 54.2586 56.2175 53.9267 55.7051C53.5938 55.191 53.2537 54.8674 53.2202 54.8361L52.9468 55.1281C52.9668 55.1468 53.282 55.4454 53.591 55.9225C53.901 56.4013 54.1941 57.0432 54.1941 57.7525H54.5941ZM53.3593 60.528C53.697 60.167 54.5941 59.088 54.5941 57.7525H54.1941C54.1941 58.9247 53.3943 59.905 53.0672 60.2548L53.3593 60.528ZM53.4132 61.3725V60.3914H53.0132V61.3725H53.4132ZM54.6958 60.6092C54.0788 60.6092 53.5146 60.8413 53.0812 61.2223L53.3452 61.5227C53.7098 61.2023 54.1813 61.0092 54.6958 61.0092V60.6092ZM56.6639 60.6092H54.6958V61.0092H56.6639V60.6092ZM56.8639 61.7867V60.8092H56.4639V61.7867H56.8639ZM54.3837 64.3221C55.756 64.3221 56.8639 63.1803 56.8639 61.7867H56.4639C56.4639 62.9685 55.5261 63.9221 54.3837 63.9221V64.3221ZM55.8663 61.4261H54.6957V61.8261H55.8663V61.4261ZM56.0663 61.7867V61.6261H55.6663V61.7867H56.0663ZM54.3837 63.5052C55.3162 63.5052 56.0663 62.7299 56.0663 61.7867H55.6663C55.6663 62.5181 55.0863 63.1052 54.3837 63.1052V63.5052ZM53.2132 63.5052H54.3837V63.1052H53.2132V63.5052ZM53.0132 63.1446V63.3052H53.4132V63.1446H53.0132ZM54.6957 61.4261C53.7633 61.4261 53.0132 62.2013 53.0132 63.1446L53.4132 63.1446C53.4132 62.4132 53.9932 61.8261 54.6957 61.8261V61.4261ZM53.7965 57.7525C53.7965 56.8989 53.2873 56.1465 52.9694 55.7568L52.6594 56.0096C52.9647 56.3839 53.3965 57.0438 53.3965 57.7525H53.7965ZM52.9694 59.7483C53.2872 59.3588 53.7965 58.6062 53.7965 57.7525H53.3965C53.3965 58.4613 52.9646 59.1214 52.6594 59.4955L52.9694 59.7483ZM51.8323 57.7525C51.8323 58.6062 52.3415 59.3586 52.6594 59.7483L52.9694 59.4955C52.6641 59.1212 52.2323 58.4613 52.2323 57.7525H51.8323ZM52.6594 55.7568C52.3417 56.1463 51.8323 56.8988 51.8323 57.7525H52.2323C52.2323 57.0437 52.6642 56.3837 52.9694 56.0096L52.6594 55.7568ZM49.5625 61.7867C49.5625 62.7299 50.3126 63.5052 51.2451 63.5052V63.1052C50.5425 63.1052 49.9625 62.5181 49.9625 61.7867H49.5625ZM49.5625 61.6261V61.7867H49.9625V61.6261H49.5625ZM50.933 61.4261H49.7625V61.8261H50.933V61.4261ZM52.6156 63.1446C52.6156 62.2013 51.8655 61.4261 50.933 61.4261V61.8261C51.6356 61.8261 52.2156 62.4132 52.2156 63.1446H52.6156ZM52.6156 63.3052V63.1446H52.2156V63.3052H52.6156ZM51.2451 63.5052H52.4156V63.1052H51.2451V63.5052ZM72.6631 64.3221H73.8337V63.9221H72.6631V64.3221ZM71.8656 64.3221L72.6631 64.3221L72.6631 63.9221L71.8656 63.9221L71.8656 64.3221ZM70.695 64.3221H71.8656V63.9221H70.695V64.3221ZM68.2149 61.7867C68.2149 63.1804 69.3228 64.3221 70.695 64.3221V63.9221C69.5527 63.9221 68.6149 62.9685 68.6149 61.7867H68.2149ZM68.2149 60.8093V61.7867H68.6149V60.8093H68.2149ZM70.383 60.6093H68.4149V61.0093H70.383V60.6093ZM71.9976 61.2223C71.5642 60.8414 71 60.6093 70.383 60.6093V61.0093C70.8975 61.0093 71.369 61.2024 71.7336 61.5228L71.9976 61.2223ZM71.6656 60.3914V61.3726H72.0656V60.3914H71.6656ZM70.4847 57.7525C70.4847 59.088 71.3818 60.167 71.7196 60.5281L72.0116 60.2548C71.6845 59.9051 70.8847 58.9247 70.8847 57.7525H70.4847ZM71.8586 54.8361C71.8251 54.8674 71.485 55.191 71.1521 55.7051C70.8202 56.2175 70.4847 56.9358 70.4847 57.7525H70.8847C70.8847 57.0432 71.1778 56.4013 71.4878 55.9225C71.7968 55.4454 72.112 55.1468 72.132 55.1281L71.8586 54.8361ZM72.1277 54.5842L71.8586 54.8361L72.132 55.1281L72.401 54.8762L72.1277 54.5842ZM72.6701 54.836L72.401 54.5842L72.1277 54.8762L72.3967 55.1281L72.6701 54.836ZM74.044 57.7525C74.044 56.9358 73.7085 56.2175 73.3766 55.7051C73.0437 55.191 72.7036 54.8674 72.6701 54.8361L72.3967 55.1281C72.4167 55.1468 72.7319 55.4454 73.0409 55.9225C73.351 56.4013 73.644 57.0432 73.644 57.7525H74.044ZM72.8092 60.528C73.1469 60.167 74.044 59.088 74.044 57.7525H73.644C73.644 58.9247 72.8443 59.905 72.5171 60.2548L72.8092 60.528ZM72.8631 61.3725V60.3914H72.4631V61.3725H72.8631ZM74.1457 60.6092C73.5287 60.6092 72.9645 60.8413 72.5311 61.2223L72.7952 61.5227C73.1597 61.2023 73.6312 61.0092 74.1457 61.0092V60.6092ZM76.1138 60.6092H74.1457V61.0092H76.1138V60.6092ZM76.3138 61.7867V60.8092H75.9138V61.7867H76.3138ZM73.8337 64.3221C75.2059 64.3221 76.3138 63.1803 76.3138 61.7867H75.9138C75.9138 62.9685 74.976 63.9221 73.8337 63.9221V64.3221ZM75.3162 61.4261H74.1457V61.8261H75.3162V61.4261ZM75.5162 61.7867V61.6261H75.1162V61.7867H75.5162ZM73.8336 63.5052C74.7661 63.5052 75.5162 62.7299 75.5162 61.7867H75.1162C75.1162 62.5181 74.5362 63.1052 73.8336 63.1052V63.5052ZM72.6631 63.5052H73.8336V63.1052H72.6631V63.5052ZM72.4631 63.1446V63.3052H72.8631V63.1446H72.4631ZM74.1457 61.4261C73.2132 61.4261 72.4631 62.2013 72.4631 63.1446L72.8631 63.1446C72.8631 62.4132 73.4431 61.8261 74.1457 61.8261V61.4261ZM73.2465 57.7525C73.2465 56.8989 72.7372 56.1465 72.4193 55.7568L72.1093 56.0096C72.4147 56.3839 72.8465 57.0438 72.8465 57.7525H73.2465ZM72.4193 59.7483C72.7371 59.3588 73.2465 58.6062 73.2465 57.7525H72.8465C72.8465 58.4613 72.4145 59.1214 72.1094 59.4955L72.4193 59.7483ZM71.2822 57.7525C71.2822 58.6062 71.7914 59.3586 72.1094 59.7483L72.4193 59.4955C72.114 59.1212 71.6822 58.4613 71.6822 57.7525H71.2822ZM72.1093 55.7568C71.7916 56.1463 71.2822 56.8988 71.2822 57.7525H71.6822C71.6822 57.0437 72.1142 56.3837 72.4193 56.0096L72.1093 55.7568ZM69.0124 61.7867C69.0124 62.7299 69.7625 63.5052 70.695 63.5052V63.1052C69.9924 63.1052 69.4124 62.5181 69.4124 61.7867H69.0124ZM69.0124 61.6261V61.7867H69.4124V61.6261H69.0124ZM70.383 61.4261H69.2124V61.8261H70.383V61.4261ZM72.0656 63.1446C72.0656 62.2013 71.3154 61.4261 70.383 61.4261V61.8261C71.0855 61.8261 71.6656 62.4132 71.6656 63.1446H72.0656ZM72.0656 63.3052V63.1446H71.6656V63.3052H72.0656ZM70.695 63.5052H71.8656V63.1052H70.695V63.5052ZM91.3025 64.3221H92.473V63.9221H91.3025V64.3221ZM90.505 64.3221L91.3025 64.3221L91.3025 63.9221L90.505 63.9221L90.505 64.3221ZM89.3344 64.3221H90.505V63.9221H89.3344V64.3221ZM86.8543 61.7867C86.8543 63.1804 87.9622 64.3221 89.3344 64.3221V63.9221C88.1921 63.9221 87.2543 62.9685 87.2543 61.7867H86.8543ZM86.8543 60.8093V61.7867H87.2543V60.8093H86.8543ZM89.0224 60.6093H87.0543V61.0093H89.0224V60.6093ZM90.637 61.2223C90.2036 60.8414 89.6394 60.6093 89.0224 60.6093V61.0093C89.5369 61.0093 90.0084 61.2024 90.3729 61.5228L90.637 61.2223ZM90.305 60.3914V61.3726H90.705V60.3914H90.305ZM89.1241 57.7525C89.1241 59.088 90.0212 60.167 90.3589 60.5281L90.651 60.2548C90.3239 59.9051 89.5241 58.9247 89.5241 57.7525H89.1241ZM90.498 54.8361C90.4645 54.8674 90.1244 55.191 89.7915 55.7051C89.4596 56.2175 89.1241 56.9358 89.1241 57.7525H89.5241C89.5241 57.0432 89.8172 56.4013 90.1272 55.9225C90.4362 55.4454 90.7514 55.1468 90.7714 55.1281L90.498 54.8361ZM90.767 54.5842L90.498 54.8361L90.7714 55.1281L91.0404 54.8762L90.767 54.5842ZM91.3094 54.836L91.0404 54.5842L90.767 54.8762L91.0361 55.1281L91.3094 54.836ZM92.6834 57.7525C92.6834 56.9358 92.3479 56.2175 92.016 55.7051C91.6831 55.191 91.3429 54.8674 91.3095 54.8361L91.0361 55.1281C91.0561 55.1468 91.3713 55.4454 91.6803 55.9225C91.9903 56.4013 92.2834 57.0432 92.2834 57.7525H92.6834ZM91.4485 60.528C91.7863 60.167 92.6834 59.088 92.6834 57.7525H92.2834C92.2834 58.9247 91.4836 59.905 91.1564 60.2548L91.4485 60.528ZM91.5025 61.3725V60.3914H91.1025V61.3725H91.5025ZM92.7851 60.6092C92.1681 60.6092 91.6039 60.8413 91.1705 61.2223L91.4345 61.5227C91.7991 61.2023 92.2706 61.0092 92.7851 61.0092V60.6092ZM94.7532 60.6092H92.7851V61.0092H94.7532V60.6092ZM94.9532 61.7867V60.8092H94.5532V61.7867H94.9532ZM92.473 64.3221C93.8453 64.3221 94.9532 63.1803 94.9532 61.7867H94.5532C94.5532 62.9685 93.6154 63.9221 92.473 63.9221V64.3221ZM93.9556 61.4261H92.785V61.8261H93.9556V61.4261ZM94.1556 61.7867V61.6261H93.7556V61.7867H94.1556ZM92.473 63.5052C93.4055 63.5052 94.1556 62.7299 94.1556 61.7867H93.7556C93.7556 62.5181 93.1756 63.1052 92.473 63.1052V63.5052ZM91.3024 63.5052H92.473V63.1052H91.3024V63.5052ZM91.1024 63.1446V63.3052H91.5024V63.1446H91.1024ZM92.785 61.4261C91.8526 61.4261 91.1025 62.2013 91.1024 63.1446L91.5024 63.1446C91.5025 62.4132 92.0825 61.8261 92.785 61.8261V61.4261ZM91.8858 57.7525C91.8858 56.8989 91.3766 56.1465 91.0587 55.7568L90.7487 56.0096C91.054 56.3839 91.4858 57.0438 91.4858 57.7525H91.8858ZM91.0587 59.7483C91.3765 59.3588 91.8858 58.6062 91.8858 57.7525H91.4858C91.4858 58.4613 91.0539 59.1214 90.7487 59.4955L91.0587 59.7483ZM89.9216 57.7525C89.9216 58.6062 90.4308 59.3586 90.7487 59.7483L91.0587 59.4955C90.7534 59.1212 90.3216 58.4613 90.3216 57.7525H89.9216ZM90.7487 55.7568C90.431 56.1463 89.9216 56.8988 89.9216 57.7525H90.3216C90.3216 57.0437 90.7535 56.3837 91.0587 56.0096L90.7487 55.7568ZM87.6518 61.7867C87.6518 62.7299 88.4019 63.5052 89.3344 63.5052V63.1052C88.6318 63.1052 88.0518 62.5181 88.0518 61.7867H87.6518ZM87.6518 61.6261V61.7867H88.0518V61.6261H87.6518ZM89.0223 61.4261H87.8518V61.8261H89.0223V61.4261ZM90.7049 63.1446C90.7049 62.2013 89.9548 61.4261 89.0223 61.4261V61.8261C89.7249 61.8261 90.3049 62.4132 90.3049 63.1446H90.7049ZM90.7049 63.3052V63.1446H90.3049V63.3052H90.7049ZM89.3344 63.5052H90.5049V63.1052H89.3344V63.5052ZM83.1534 75.3557H81.9829V75.7557H83.1534V75.3557ZM85.2335 73.2203C85.2335 74.4021 84.2957 75.3557 83.1534 75.3557V75.7557C84.5256 75.7557 85.6335 74.614 85.6335 73.2203H85.2335ZM85.2335 72.2429V73.2203H85.6335V72.2429H85.2335ZM83.4655 72.4429H85.4335V72.0429H83.4655V72.4429ZM82.1149 72.9564C82.4794 72.636 82.951 72.4429 83.4655 72.4429V72.0429C82.8484 72.0429 82.2843 72.275 81.8508 72.6559L82.1149 72.9564ZM81.7829 71.825V72.8062H82.1829V71.825H81.7829ZM82.9637 69.1862C82.9637 70.3583 82.164 71.3386 81.8368 71.6884L82.1289 71.9616C82.4667 71.6006 83.3637 70.5216 83.3637 69.1862H82.9637ZM81.7164 66.5617C81.7364 66.5804 82.0516 66.879 82.3606 67.3561C82.6707 67.8349 82.9637 68.4768 82.9637 69.1862H83.3637C83.3637 68.3694 83.0282 67.6511 82.6964 67.1387C82.3634 66.6246 82.0233 66.301 81.9898 66.2697L81.7164 66.5617ZM81.4474 66.3098L81.7164 66.5617L81.9898 66.2697L81.7207 66.0178L81.4474 66.3098ZM81.4517 66.5617L81.7207 66.3098L81.4474 66.0178L81.1784 66.2697L81.4517 66.5617ZM80.2045 69.1862C80.2045 68.4768 80.4975 67.8349 80.8076 67.3562C81.1165 66.879 81.4317 66.5804 81.4517 66.5617L81.1784 66.2697C81.1449 66.3011 80.8048 66.6246 80.4718 67.1387C80.14 67.6511 79.8045 68.3695 79.8045 69.1862H80.2045ZM81.3314 71.6884C81.0042 71.3387 80.2045 70.3583 80.2045 69.1862H79.8045C79.8045 70.5216 80.7015 71.6007 81.0393 71.9617L81.3314 71.6884ZM81.3853 72.8062V71.825H80.9853V72.8062H81.3853ZM79.7027 72.4429C80.2172 72.4429 80.6888 72.636 81.0533 72.9564L81.3174 72.656C80.8839 72.275 80.3197 72.0429 79.7027 72.0429V72.4429ZM77.7347 72.4429H79.7027V72.0429H77.7347V72.4429ZM77.9347 73.2203V72.2429H77.5347V73.2203H77.9347ZM80.0148 75.3557C78.8725 75.3557 77.9347 74.4022 77.9347 73.2203H77.5347C77.5347 74.614 78.6426 75.7557 80.0148 75.7557V75.3557ZM81.1853 75.3557H80.0148V75.7557H81.1853V75.3557ZM81.9829 75.3557L81.1853 75.3557L81.1853 75.7557L81.9829 75.7557L81.9829 75.3557ZM83.4654 73.2597H84.636V72.8597H83.4654V73.2597ZM82.1828 74.5782C82.1828 73.8468 82.7629 73.2597 83.4654 73.2597V72.8597C82.533 72.8597 81.7828 73.635 81.7828 74.5782L82.1828 74.5782ZM82.1828 74.7388V74.5782H81.7828V74.7388H82.1828ZM83.1533 74.5388H81.9828V74.9388H83.1533V74.5388ZM84.436 73.2203C84.436 73.9517 83.8559 74.5388 83.1533 74.5388V74.9388C84.0858 74.9388 84.836 74.1636 84.836 73.2203H84.436ZM84.436 73.0597V73.2203H84.836V73.0597H84.436ZM81.4291 67.4432C81.7344 67.8175 82.1662 68.4774 82.1662 69.1862H82.5662C82.5662 68.3325 82.057 67.5801 81.739 67.1904L81.4291 67.4432ZM81.0019 69.1862C81.0019 68.4774 81.4339 67.8173 81.739 67.4432L81.4291 67.1904C81.1113 67.5799 80.6019 68.3325 80.6019 69.1862H81.0019ZM81.739 70.9291C81.4337 70.5548 81.0019 69.8949 81.0019 69.1862H80.6019C80.6019 70.0398 81.1111 70.7922 81.4291 71.182L81.739 70.9291ZM82.1662 69.1862C82.1662 69.895 81.7342 70.555 81.4291 70.9291L81.739 71.182C82.0568 70.7924 82.5662 70.0399 82.5662 69.1862H82.1662ZM80.0147 74.5388C79.3122 74.5388 78.7321 73.9517 78.7321 73.2203H78.3321C78.3321 74.1636 79.0823 74.9388 80.0147 74.9388V74.5388ZM81.1853 74.5388H80.0147V74.9388H81.1853V74.5388ZM80.9853 74.5782V74.7388H81.3853V74.5782H80.9853ZM79.7027 73.2597C80.4053 73.2597 80.9853 73.8468 80.9853 74.5782H81.3853C81.3853 73.635 80.6352 72.8597 79.7027 72.8597V73.2597ZM78.5321 73.2597H79.7027V72.8597H78.5321V73.2597ZM78.7321 73.2203V73.0597H78.3321V73.2203H78.7321ZM63.7037 75.3557H62.5332V75.7557H63.7037V75.3557ZM65.7838 73.2203C65.7838 74.4021 64.846 75.3557 63.7037 75.3557V75.7557C65.0759 75.7557 66.1838 74.614 66.1838 73.2203H65.7838ZM65.7838 72.2429V73.2203H66.1838V72.2429H65.7838ZM64.0158 72.4429H65.9838V72.0429H64.0158V72.4429ZM62.6652 72.9564C63.0297 72.636 63.5013 72.4429 64.0158 72.4429V72.0429C63.3987 72.0429 62.8346 72.275 62.4011 72.6559L62.6652 72.9564ZM62.3332 71.825V72.8062H62.7332V71.825H62.3332ZM63.514 69.1862C63.514 70.3583 62.7143 71.3386 62.3871 71.6884L62.6792 71.9616C63.017 71.6006 63.914 70.5216 63.914 69.1862H63.514ZM62.2667 66.5617C62.2867 66.5804 62.6019 66.879 62.9109 67.3561C63.221 67.8349 63.514 68.4768 63.514 69.1862H63.914C63.914 68.3694 63.5785 67.6511 63.2467 67.1387C62.9137 66.6246 62.5736 66.301 62.5401 66.2697L62.2667 66.5617ZM61.9977 66.3098L62.2667 66.5617L62.5401 66.2697L62.271 66.0178L61.9977 66.3098ZM62.002 66.5617L62.2711 66.3098L61.9977 66.0178L61.7287 66.2697L62.002 66.5617ZM60.7548 69.1862C60.7548 68.4768 61.0478 67.8349 61.3579 67.3562C61.6668 66.879 61.982 66.5804 62.002 66.5617L61.7287 66.2697C61.6952 66.3011 61.3551 66.6246 61.0221 67.1387C60.6903 67.6511 60.3548 68.3695 60.3548 69.1862H60.7548ZM61.8817 71.6884C61.5545 71.3387 60.7548 70.3583 60.7548 69.1862H60.3548C60.3548 70.5216 61.2518 71.6007 61.5896 71.9617L61.8817 71.6884ZM61.9356 72.8062V71.825H61.5356V72.8062H61.9356ZM60.253 72.4429C60.7675 72.4429 61.2391 72.636 61.6036 72.9564L61.8677 72.656C61.4342 72.275 60.87 72.0429 60.253 72.0429V72.4429ZM58.285 72.4429H60.253V72.0429H58.285V72.4429ZM58.485 73.2203V72.2429H58.085V73.2203H58.485ZM60.5651 75.3557C59.4228 75.3557 58.485 74.4022 58.485 73.2203H58.085C58.085 74.614 59.1929 75.7557 60.5651 75.7557V75.3557ZM61.7356 75.3557H60.5651V75.7557H61.7356V75.3557ZM62.5331 75.3557L61.7356 75.3557L61.7356 75.7557L62.5332 75.7557L62.5331 75.3557ZM64.0157 73.2597H65.1863V72.8597H64.0157V73.2597ZM62.7331 74.5782C62.7331 73.8468 63.3132 73.2597 64.0157 73.2597V72.8597C63.0833 72.8597 62.3331 73.635 62.3331 74.5782L62.7331 74.5782ZM62.7331 74.7388V74.5782H62.3331V74.7388H62.7331ZM63.7036 74.5388H62.5331V74.9388H63.7036V74.5388ZM64.9863 73.2203C64.9863 73.9517 64.4062 74.5388 63.7036 74.5388V74.9388C64.6361 74.9388 65.3863 74.1636 65.3863 73.2203H64.9863ZM64.9863 73.0597V73.2203H65.3863V73.0597H64.9863ZM61.9794 67.4432C62.2847 67.8175 62.7165 68.4774 62.7165 69.1862H63.1165C63.1165 68.3325 62.6073 67.5801 62.2893 67.1904L61.9794 67.4432ZM61.5522 69.1862C61.5522 68.4774 61.9842 67.8173 62.2893 67.4432L61.9794 67.1904C61.6616 67.5799 61.1522 68.3325 61.1522 69.1862H61.5522ZM62.2893 70.9291C61.984 70.5548 61.5522 69.8949 61.5522 69.1862H61.1522C61.1522 70.0398 61.6614 70.7922 61.9794 71.182L62.2893 70.9291ZM62.7165 69.1862C62.7165 69.895 62.2845 70.555 61.9794 70.9291L62.2893 71.182C62.6071 70.7924 63.1165 70.0399 63.1165 69.1862H62.7165ZM60.565 74.5388C59.8625 74.5388 59.2824 73.9517 59.2824 73.2203H58.8824C58.8824 74.1636 59.6326 74.9388 60.565 74.9388V74.5388ZM61.7356 74.5388H60.565V74.9388H61.7356V74.5388ZM61.5356 74.5782V74.7388H61.9356V74.5782H61.5356ZM60.253 73.2597C60.9556 73.2597 61.5356 73.8468 61.5356 74.5782H61.9356C61.9356 73.635 61.1855 72.8597 60.253 72.8597V73.2597ZM59.0824 73.2597H60.253V72.8597H59.0824V73.2597ZM59.2824 73.2203V73.0597H58.8824V73.2203H59.2824ZM45.8746 75.3557H44.704V75.7557H45.8746V75.3557ZM47.9547 73.2203C47.9547 74.4021 47.0169 75.3557 45.8746 75.3557V75.7557C47.2468 75.7557 48.3547 74.614 48.3547 73.2203H47.9547ZM47.9547 72.2429V73.2203H48.3547V72.2429H47.9547ZM46.1866 72.4429H48.1547V72.0429H46.1866V72.4429ZM44.8361 72.9564C45.2006 72.636 45.6722 72.4429 46.1866 72.4429V72.0429C45.5696 72.0429 45.0055 72.275 44.572 72.6559L44.8361 72.9564ZM44.504 71.825V72.8062H44.904V71.825H44.504ZM45.6849 69.1862C45.6849 70.3583 44.8852 71.3386 44.558 71.6884L44.8501 71.9616C45.1878 71.6006 46.0849 70.5216 46.0849 69.1862H45.6849ZM44.4376 66.5617C44.4576 66.5804 44.7728 66.879 45.0818 67.3561C45.3919 67.8349 45.6849 68.4768 45.6849 69.1862H46.0849C46.0849 68.3694 45.7494 67.6511 45.4175 67.1387C45.0846 66.6246 44.7445 66.301 44.711 66.2697L44.4376 66.5617ZM44.1686 66.3098L44.4376 66.5617L44.711 66.2697L44.4419 66.0178L44.1686 66.3098ZM44.1729 66.5617L44.4419 66.3098L44.1686 66.0178L43.8996 66.2697L44.1729 66.5617ZM42.9257 69.1862C42.9257 68.4768 43.2187 67.8349 43.5288 67.3562C43.8377 66.879 44.1529 66.5804 44.1729 66.5617L43.8996 66.2697C43.8661 66.3011 43.526 66.6246 43.193 67.1387C42.8612 67.6511 42.5257 68.3695 42.5257 69.1862H42.9257ZM44.0526 71.6884C43.7254 71.3387 42.9257 70.3583 42.9257 69.1862H42.5257C42.5257 70.5216 43.4227 71.6007 43.7605 71.9617L44.0526 71.6884ZM44.1065 72.8062V71.825H43.7065V72.8062H44.1065ZM42.4239 72.4429C42.9384 72.4429 43.41 72.636 43.7745 72.9564L44.0386 72.656C43.6051 72.275 43.0409 72.0429 42.4239 72.0429V72.4429ZM40.4559 72.4429H42.4239V72.0429H40.4559V72.4429ZM40.6559 73.2203V72.2429H40.2559V73.2203H40.6559ZM42.736 75.3557C41.5936 75.3557 40.6559 74.4022 40.6559 73.2203H40.2559C40.2559 74.614 41.3638 75.7557 42.736 75.7557V75.3557ZM43.9065 75.3557H42.736V75.7557H43.9065V75.3557ZM44.704 75.3557L43.9065 75.3557L43.9065 75.7557L44.7041 75.7557L44.704 75.3557ZM46.1866 73.2597H47.3572V72.8597H46.1866V73.2597ZM44.904 74.5782C44.904 73.8468 45.4841 73.2597 46.1866 73.2597V72.8597C45.2542 72.8597 44.504 73.635 44.504 74.5782L44.904 74.5782ZM44.904 74.7388V74.5782H44.504V74.7388H44.904ZM45.8745 74.5388H44.704V74.9388H45.8745V74.5388ZM47.1572 73.2203C47.1572 73.9517 46.5771 74.5388 45.8745 74.5388V74.9388C46.807 74.9388 47.5572 74.1636 47.5572 73.2203H47.1572ZM47.1572 73.0597V73.2203H47.5572V73.0597H47.1572ZM44.1503 67.4432C44.4556 67.8175 44.8874 68.4774 44.8874 69.1862H45.2874C45.2874 68.3325 44.7781 67.5801 44.4602 67.1904L44.1503 67.4432ZM43.7231 69.1862C43.7231 68.4774 44.1551 67.8173 44.4602 67.4432L44.1502 67.1904C43.8325 67.5799 43.3231 68.3325 43.3231 69.1862H43.7231ZM44.4602 70.9291C44.1549 70.5548 43.7231 69.8949 43.7231 69.1862H43.3231C43.3231 70.0398 43.8323 70.7922 44.1503 71.182L44.4602 70.9291ZM44.8874 69.1862C44.8874 69.895 44.4554 70.555 44.1503 70.9291L44.4602 71.182C44.778 70.7924 45.2874 70.0399 45.2874 69.1862H44.8874ZM42.7359 74.5388C42.0334 74.5388 41.4533 73.9517 41.4533 73.2203H41.0533C41.0533 74.1636 41.8035 74.9388 42.7359 74.9388V74.5388ZM43.9065 74.5388H42.7359V74.9388H43.9065V74.5388ZM43.7065 74.5782V74.7388H44.1065V74.5782H43.7065ZM42.4239 73.2597C43.1265 73.2597 43.7065 73.8468 43.7065 74.5782H44.1065C44.1065 73.635 43.3564 72.8597 42.4239 72.8597V73.2597ZM41.2533 73.2597H42.4239V72.8597H41.2533V73.2597ZM41.4533 73.2203V73.0597H41.0533V73.2203H41.4533ZM17.5556 64.3221H18.7262V63.9221H17.5556V64.3221ZM16.7581 64.3221L17.5556 64.3221L17.5556 63.9221L16.7581 63.9221L16.7581 64.3221ZM15.5875 64.3221H16.7581V63.9221H15.5875V64.3221ZM13.1074 61.7867C13.1074 63.1804 14.2153 64.3221 15.5875 64.3221V63.9221C14.4452 63.9221 13.5074 62.9686 13.5074 61.7867H13.1074ZM13.1074 60.8093V61.7867H13.5074V60.8093H13.1074ZM15.2755 60.6093H13.3074V61.0093H15.2755V60.6093ZM16.8901 61.2224C16.4567 60.8414 15.8925 60.6093 15.2755 60.6093V61.0093C15.79 61.0093 16.2615 61.2024 16.6261 61.5228L16.8901 61.2224ZM16.5581 60.3915V61.3726H16.9581V60.3915H16.5581ZM15.3773 57.7526C15.3773 59.088 16.2743 60.1671 16.6121 60.5281L16.9042 60.2548C16.577 59.9051 15.7773 58.9248 15.7773 57.7526H15.3773ZM16.7511 54.8361C16.7176 54.8675 16.3775 55.191 16.0446 55.7051C15.7127 56.2176 15.3773 56.9359 15.3773 57.7526H15.7773C15.7773 57.0432 16.0703 56.4013 16.3803 55.9226C16.6893 55.4455 17.0045 55.1468 17.0245 55.1281L16.7511 54.8361ZM17.0202 54.5843L16.7512 54.8361L17.0245 55.1281L17.2935 54.8763L17.0202 54.5843ZM17.5626 54.8361L17.2935 54.5842L17.0202 54.8763L17.2892 55.1281L17.5626 54.8361ZM18.9365 57.7526C18.9365 56.9359 18.601 56.2175 18.2691 55.7051C17.9362 55.191 17.5961 54.8675 17.5626 54.8361L17.2892 55.1281C17.3092 55.1468 17.6244 55.4455 17.9334 55.9226C18.2435 56.4013 18.5365 57.0432 18.5365 57.7526H18.9365ZM17.7017 60.5281C18.0394 60.167 18.9365 59.088 18.9365 57.7526H18.5365C18.5365 58.9248 17.7368 59.9051 17.4096 60.2548L17.7017 60.5281ZM17.7556 61.3726V60.3914H17.3556V61.3726H17.7556ZM19.0382 60.6093C18.4212 60.6093 17.8571 60.8414 17.4236 61.2224L17.6877 61.5228C18.0522 61.2024 18.5237 61.0093 19.0382 61.0093V60.6093ZM21.0063 60.6093H19.0382V61.0093H21.0063V60.6093ZM21.2063 61.7867V60.8093H20.8063V61.7867H21.2063ZM18.7262 64.3221C20.0984 64.3221 21.2063 63.1804 21.2063 61.7867H20.8063C20.8063 62.9685 19.8685 63.9221 18.7262 63.9221V64.3221ZM20.2087 61.4261H19.0382V61.8261H20.2087V61.4261ZM20.4087 61.7867V61.6261H20.0087V61.7867H20.4087ZM18.7261 63.5053C19.6586 63.5053 20.4087 62.73 20.4087 61.7867H20.0087C20.0087 62.5181 19.4287 63.1053 18.7261 63.1053V63.5053ZM17.5556 63.5053H18.7261V63.1053H17.5556V63.5053ZM17.3556 63.1446V63.3053H17.7556V63.1446H17.3556ZM19.0382 61.4261C18.1057 61.4261 17.3556 62.2014 17.3556 63.1446L17.7556 63.1446C17.7556 62.4132 18.3356 61.8261 19.0382 61.8261V61.4261ZM18.139 57.7526C18.139 56.899 17.6297 56.1466 17.3118 55.7568L17.0018 56.0096C17.3072 56.3839 17.739 57.0439 17.739 57.7526H18.139ZM17.3118 59.7484C17.6296 59.3588 18.139 58.6063 18.139 57.7526H17.739C17.739 58.4614 17.307 59.1214 17.0019 59.4955L17.3118 59.7484ZM16.1747 57.7526C16.1747 58.6062 16.6839 59.3586 17.0019 59.7484L17.3118 59.4955C17.0065 59.1213 16.5747 58.4613 16.5747 57.7526H16.1747ZM17.0018 55.7568C16.6841 56.1463 16.1747 56.8989 16.1747 57.7526H16.5747C16.5747 57.0438 17.0067 56.3837 17.3118 56.0096L17.0018 55.7568ZM13.9049 61.7867C13.9049 62.73 14.6551 63.5053 15.5875 63.5053V63.1053C14.8849 63.1053 14.3049 62.5182 14.3049 61.7867H13.9049ZM13.9049 61.6261V61.7867H14.3049V61.6261H13.9049ZM15.2755 61.4261H14.1049V61.8261H15.2755V61.4261ZM16.9581 63.1446C16.9581 62.2014 16.2079 61.4261 15.2755 61.4261V61.8261C15.978 61.8261 16.5581 62.4132 16.5581 63.1446H16.9581ZM16.9581 63.3053V63.1446H16.5581V63.3053H16.9581ZM15.5875 63.5053H16.7581V63.1053H15.5875V63.5053ZM28.0458 75.3557H26.8752V75.7557H28.0458V75.3557ZM30.1259 73.2203C30.1259 74.4021 29.1881 75.3557 28.0458 75.3557V75.7557C29.418 75.7557 30.5259 74.614 30.5259 73.2203H30.1259ZM30.1259 72.2429V73.2203H30.5259V72.2429H30.1259ZM28.3578 72.4429H30.3259V72.0429H28.3578V72.4429ZM27.0073 72.9564C27.3718 72.636 27.8433 72.4429 28.3578 72.4429V72.0429C27.7408 72.0429 27.1767 72.275 26.7432 72.6559L27.0073 72.9564ZM26.6752 71.825V72.8062H27.0752V71.825H26.6752ZM27.8561 69.1862C27.8561 70.3583 27.0564 71.3386 26.7292 71.6884L27.0213 71.9616C27.359 71.6006 28.2561 70.5216 28.2561 69.1862H27.8561ZM26.6088 66.5617C26.6288 66.5804 26.944 66.879 27.253 67.3561C27.5631 67.8349 27.8561 68.4768 27.8561 69.1862H28.2561C28.2561 68.3694 27.9206 67.6511 27.5887 67.1387C27.2558 66.6246 26.9157 66.301 26.8822 66.2697L26.6088 66.5617ZM26.3398 66.3098L26.6088 66.5617L26.8822 66.2697L26.6131 66.0178L26.3398 66.3098ZM26.3441 66.5617L26.6131 66.3098L26.3398 66.0178L26.0708 66.2697L26.3441 66.5617ZM25.0969 69.1862C25.0969 68.4768 25.3899 67.8349 25.7 67.3562C26.0089 66.879 26.3241 66.5804 26.3441 66.5617L26.0708 66.2697C26.0372 66.3011 25.6971 66.6246 25.3642 67.1387C25.0324 67.6511 24.6969 68.3695 24.6969 69.1862H25.0969ZM26.2238 71.6884C25.8966 71.3387 25.0969 70.3583 25.0969 69.1862H24.6969C24.6969 70.5216 25.5939 71.6007 25.9317 71.9617L26.2238 71.6884ZM26.2777 72.8062V71.825H25.8777V72.8062H26.2777ZM24.5951 72.4429C25.1096 72.4429 25.5811 72.636 25.9457 72.9564L26.2098 72.656C25.7763 72.275 25.2121 72.0429 24.5951 72.0429V72.4429ZM22.627 72.4429H24.5951V72.0429H22.627V72.4429ZM22.827 73.2203V72.2429H22.427V73.2203H22.827ZM24.9071 75.3557C23.7648 75.3557 22.827 74.4022 22.827 73.2203H22.427C22.427 74.614 23.5349 75.7557 24.9071 75.7557V75.3557ZM26.0777 75.3557H24.9071V75.7557H26.0777V75.3557ZM26.8752 75.3557L26.0777 75.3557L26.0777 75.7557L26.8752 75.7557L26.8752 75.3557ZM28.3578 73.2597H29.5284V72.8597H28.3578V73.2597ZM27.0752 74.5782C27.0752 73.8468 27.6552 73.2597 28.3578 73.2597V72.8597C27.4254 72.8597 26.6752 73.635 26.6752 74.5782L27.0752 74.5782ZM27.0752 74.7388V74.5782H26.6752V74.7388H27.0752ZM28.0457 74.5388H26.8752V74.9388H28.0457V74.5388ZM29.3284 73.2203C29.3284 73.9517 28.7483 74.5388 28.0457 74.5388V74.9388C28.9782 74.9388 29.7284 74.1636 29.7284 73.2203H29.3284ZM29.3284 73.0597V73.2203H29.7284V73.0597H29.3284ZM26.3214 67.4432C26.6268 67.8175 27.0586 68.4774 27.0586 69.1862H27.4586C27.4586 68.3325 26.9493 67.5801 26.6314 67.1904L26.3214 67.4432ZM25.8943 69.1862C25.8943 68.4774 26.3263 67.8173 26.6314 67.4432L26.3214 67.1904C26.0037 67.5799 25.4943 68.3325 25.4943 69.1862H25.8943ZM26.6314 70.9291C26.3261 70.5548 25.8943 69.8949 25.8943 69.1862H25.4943C25.4943 70.0398 26.0035 70.7922 26.3215 71.182L26.6314 70.9291ZM27.0586 69.1862C27.0586 69.895 26.6266 70.555 26.3215 70.9291L26.6314 71.182C26.9492 70.7924 27.4586 70.0399 27.4586 69.1862H27.0586ZM24.9071 74.5388C24.2045 74.5388 23.6245 73.9517 23.6245 73.2203H23.2245C23.2245 74.1636 23.9747 74.9388 24.9071 74.9388V74.5388ZM26.0777 74.5388H24.9071V74.9388H26.0777V74.5388ZM25.8777 74.5782V74.7388H26.2777V74.5782H25.8777ZM24.5951 73.2597C25.2977 73.2597 25.8777 73.8468 25.8777 74.5782H26.2777C26.2777 73.635 25.5275 72.8597 24.5951 72.8597V73.2597ZM23.4245 73.2597H24.5951V72.8597H23.4245V73.2597ZM23.6245 73.2203V73.0597H23.2245V73.2203H23.6245ZM58.2529 31.9634C58.1355 31.8452 58.1355 31.6529 58.2529 31.5346L57.9689 31.2529C57.6969 31.5271 57.6969 31.971 57.9689 32.2452L58.2529 31.9634ZM60.6603 34.3895L58.2529 31.9634L57.9689 32.2452L60.3763 34.6712L60.6603 34.3895ZM61.0814 34.3895C60.965 34.5069 60.7767 34.5069 60.6603 34.3895L60.3763 34.6712C60.6492 34.9463 61.0924 34.9463 61.3654 34.6712L61.0814 34.3895ZM61.0814 33.9606C61.1988 34.0789 61.1988 34.2712 61.0814 34.3895L61.3654 34.6712C61.6375 34.397 61.6375 33.9531 61.3654 33.6789L61.0814 33.9606ZM58.6741 31.5346L61.0814 33.9606L61.3654 33.6789L58.958 31.2529L58.6741 31.5346ZM58.2529 31.5346C58.3693 31.4172 58.5575 31.4172 58.674 31.5346L58.958 31.2529C58.6851 30.9778 58.2418 30.9778 57.9689 31.2529L58.2529 31.5346ZM47.8053 34.3895C47.6888 34.5069 47.5006 34.5068 47.3841 34.3895L47.1002 34.6712C47.3731 34.9463 47.8163 34.9463 48.0892 34.6712L47.8053 34.3895ZM50.2127 31.9634L47.8053 34.3894L48.0892 34.6712L50.4966 32.2452L50.2127 31.9634ZM50.2127 31.5346C50.33 31.6528 50.33 31.8452 50.2127 31.9634L50.4966 32.2452C50.7687 31.971 50.7687 31.527 50.4966 31.2528L50.2127 31.5346ZM49.7915 31.5346C49.908 31.4172 50.0962 31.4172 50.2127 31.5346L50.4966 31.2528C50.2237 30.9778 49.7805 30.9778 49.5076 31.2528L49.7915 31.5346ZM47.3841 33.9606L49.7915 31.5346L49.5076 31.2528L47.1002 33.6789L47.3841 33.9606ZM47.3841 34.3894C47.2668 34.2712 47.2668 34.0789 47.3841 33.9606L47.1002 33.6789C46.8281 33.9531 46.8281 34.397 47.1002 34.6712L47.3841 34.3894ZM61.3654 20.2998C61.0925 20.0247 60.6493 20.0247 60.3763 20.2998L60.6603 20.5815C60.7768 20.4641 60.965 20.4642 61.0814 20.5815L61.3654 20.2998ZM61.3654 21.2921C61.6375 21.0179 61.6375 20.574 61.3654 20.2998L61.0814 20.5815C61.1988 20.6998 61.1988 20.8921 61.0814 21.0104L61.3654 21.2921ZM58.958 23.7181L61.3654 21.2921L61.0814 21.0104L58.6741 23.4364L58.958 23.7181ZM57.9689 23.7181C58.2418 23.9932 58.685 23.9932 58.958 23.7181L58.674 23.4364C58.5576 23.5538 58.3694 23.5538 58.2529 23.4364L57.9689 23.7181ZM57.9689 22.7258C57.6969 23 57.6969 23.4439 57.9689 23.7181L58.2529 23.4364C58.1355 23.3181 58.1355 23.1258 58.2529 23.0076L57.9689 22.7258ZM60.3763 20.2998L57.9689 22.7258L58.2529 23.0076L60.6603 20.5815L60.3763 20.2998ZM56.2474 33.1736C56.1834 33.018 56.2573 32.8411 56.4093 32.7777L56.2552 32.4086C55.8983 32.5575 55.7306 32.9685 55.8774 33.3257L56.2474 33.1736ZM56.629 34.102L56.2474 33.1736L55.8774 33.3257L56.259 34.2541L56.629 34.102ZM57.0184 34.2654C56.8671 34.3286 56.6925 34.2566 56.6289 34.102L56.259 34.2541C56.4059 34.6115 56.8142 34.7841 57.1725 34.6345L57.0184 34.2654ZM57.1803 33.8695C57.2442 34.0251 57.1703 34.202 57.0184 34.2654L57.1725 34.6345C57.5294 34.4856 57.6971 34.0746 57.5503 33.7174L57.1803 33.8695ZM56.7987 32.9411L57.1803 33.8695L57.5503 33.7174L57.1687 32.789L56.7987 32.9411ZM56.4092 32.7777C56.5604 32.7147 56.7351 32.7863 56.7987 32.9411L57.1687 32.789C57.0215 32.431 56.6129 32.2593 56.2552 32.4086L56.4092 32.7777ZM52.5887 21.6466L52.2071 20.7182L51.8372 20.8702L52.2188 21.7986L52.5887 21.6466ZM52.2109 22.5637C52.5679 22.4147 52.7355 22.0038 52.5887 21.6466L52.2188 21.7986C52.2827 21.9542 52.2088 22.1311 52.0569 22.1945L52.2109 22.5637ZM51.2975 22.1833C51.4444 22.5406 51.8527 22.7132 52.2109 22.5637L52.0569 22.1946C51.9056 22.2577 51.731 22.1858 51.6674 22.0311L51.2975 22.1833ZM50.9159 21.2548L51.2975 22.1832L51.6674 22.0312L51.2858 21.1028L50.9159 21.2548ZM51.2937 20.3377C50.9367 20.4867 50.7691 20.8976 50.9159 21.2548L51.2858 21.1028C51.2219 20.9472 51.2958 20.7703 51.4477 20.7069L51.2937 20.3377ZM52.2071 20.7182C52.06 20.3602 51.6513 20.1885 51.2937 20.3377L51.4477 20.7069C51.5989 20.6438 51.7735 20.7155 51.8372 20.8703L52.2071 20.7182ZM47.671 29.8966L48.5922 29.5121L48.4382 29.1429L47.5169 29.5275L47.671 29.8966ZM47.5091 30.2925C47.4451 30.1369 47.5191 29.96 47.671 29.8966L47.5169 29.5275C47.16 29.6764 46.9923 30.0874 47.1391 30.4446L47.5091 30.2925ZM47.8985 30.4559C47.7472 30.5191 47.5726 30.4471 47.5091 30.2925L47.1391 30.4446C47.286 30.802 47.6943 30.9746 48.0526 30.825L47.8985 30.4559ZM48.8198 30.0714L47.8985 30.4559L48.0526 30.825L48.9739 30.4405L48.8198 30.0714ZM48.9817 29.6755C49.0456 29.831 48.9717 30.008 48.8198 30.0714L48.9739 30.4405C49.3308 30.2915 49.4984 29.8806 49.3516 29.5234L48.9817 29.6755ZM48.5922 29.5121C48.7434 29.449 48.9181 29.5208 48.9817 29.6755L49.3516 29.5234C49.2045 29.1654 48.7959 28.9938 48.4382 29.1429L48.5922 29.5121ZM60.0272 25.829L60.9485 25.4444L60.7944 25.0753L59.8731 25.4598L60.0272 25.829ZM59.1137 25.4485C59.2607 25.8059 59.669 25.9785 60.0272 25.829L59.8731 25.4598C59.7218 25.523 59.5472 25.451 59.4837 25.2964L59.1137 25.4485ZM59.4915 24.5314C59.1346 24.6804 58.9669 25.0913 59.1137 25.4485L59.4837 25.2965C59.4198 25.1409 59.4937 24.9639 59.6456 24.9005L59.4915 24.5314ZM60.4128 24.1469L59.4915 24.5314L59.6456 24.9005L60.5669 24.516L60.4128 24.1469ZM61.3263 24.5273C61.1791 24.1693 60.7705 23.9976 60.4128 24.1469L60.5668 24.516C60.718 24.4529 60.8927 24.5246 60.9563 24.6794L61.3263 24.5273ZM60.9485 25.4444C61.3054 25.2955 61.4731 24.8845 61.3263 24.5273L60.9563 24.6794C61.0202 24.835 60.9463 25.0119 60.7944 25.0753L60.9485 25.4444ZM51.2864 33.8695L51.668 32.9411L51.298 32.789L50.9165 33.7174L51.2864 33.8695ZM51.4483 34.2654C51.2964 34.202 51.2225 34.0251 51.2864 33.8695L50.9165 33.7174C50.7697 34.0746 50.9373 34.4855 51.2942 34.6345L51.4483 34.2654ZM51.8378 34.102C51.7743 34.2563 51.6 34.3287 51.4483 34.2654L51.2943 34.6346C51.6535 34.7844 52.0612 34.6105 52.2077 34.2541L51.8378 34.102ZM52.2193 33.1736L51.8378 34.102L52.2077 34.2541L52.5893 33.3257L52.2193 33.1736ZM52.0574 32.7777C52.2094 32.8411 52.2833 33.0181 52.2193 33.1736L52.5893 33.3257C52.7361 32.9685 52.5684 32.5576 52.2115 32.4086L52.0574 32.7777ZM51.668 32.9411C51.7316 32.7864 51.9063 32.7146 52.0575 32.7777L52.2115 32.4086C51.8538 32.2594 51.4452 32.431 51.298 32.7891L51.668 32.9411ZM57.1679 22.1832L57.5495 21.2548L57.1795 21.1028L56.7979 22.0312L57.1679 22.1832ZM56.2545 22.5637C56.6137 22.7136 57.0214 22.5397 57.1679 22.1832L56.7979 22.0312C56.7346 22.1854 56.5602 22.2578 56.4085 22.1945L56.2545 22.5637ZM55.8766 21.6466C55.7298 22.0038 55.8975 22.4147 56.2544 22.5637L56.4085 22.1946C56.2566 22.1311 56.1827 21.9542 56.2466 21.7986L55.8766 21.6466ZM56.2582 20.7182L55.8766 21.6466L56.2466 21.7986L56.6282 20.8703L56.2582 20.7182ZM57.1717 20.3377C56.814 20.1885 56.4054 20.3602 56.2582 20.7182L56.6282 20.8703C56.6918 20.7155 56.8665 20.6438 57.0177 20.7069L57.1717 20.3377ZM57.5495 21.2548C57.6963 20.8976 57.5286 20.4867 57.1717 20.3377L57.0176 20.7069C57.1696 20.7703 57.2435 20.9472 57.1795 21.1028L57.5495 21.2548ZM47.8985 24.516L48.8198 24.9006L48.9739 24.5314L48.0526 24.1469L47.8985 24.516ZM47.5091 24.6794C47.5727 24.5246 47.7474 24.4529 47.8985 24.516L48.0526 24.1469C47.6949 23.9976 47.2863 24.1694 47.1391 24.5273L47.5091 24.6794ZM47.671 25.0753C47.519 25.0119 47.4452 24.835 47.5091 24.6794L47.1391 24.5273C46.9923 24.8845 47.16 25.2954 47.5169 25.4444L47.671 25.0753ZM48.5922 25.4599L47.671 25.0753L47.5169 25.4444L48.4382 25.829L48.5922 25.4599ZM48.9817 25.2965C48.9183 25.4507 48.7439 25.5231 48.5922 25.4598L48.4382 25.829C48.7974 25.9789 49.2051 25.8049 49.3516 25.4485L48.9817 25.2965ZM48.8198 24.9006C48.9717 24.964 49.0456 25.1409 48.9817 25.2965L49.3516 25.4485C49.4984 25.0913 49.3308 24.6804 48.9739 24.5314L48.8198 24.9006ZM60.9485 29.5275L60.0272 29.143L59.8731 29.5121L60.7944 29.8966L60.9485 29.5275ZM61.3263 30.4446C61.4731 30.0874 61.3054 29.6765 60.9485 29.5275L60.7944 29.8966C60.9463 29.96 61.0202 30.137 60.9563 30.2925L61.3263 30.4446ZM60.4128 30.8251C60.772 30.975 61.1797 30.801 61.3262 30.4446L60.9563 30.2925C60.8929 30.4468 60.7185 30.5192 60.5668 30.4559L60.4128 30.8251ZM59.4915 30.4405L60.4128 30.8251L60.5669 30.4559L59.6456 30.0714L59.4915 30.4405ZM59.1137 29.5234C58.9669 29.8806 59.1346 30.2915 59.4915 30.4405L59.6456 30.0714C59.4937 30.008 59.4198 29.831 59.4837 29.6755L59.1137 29.5234ZM60.0272 29.1429C59.6695 28.9937 59.2609 29.1654 59.1137 29.5234L59.4837 29.6755C59.5473 29.5207 59.722 29.449 59.8732 29.5121L60.0272 29.1429ZM53.9341 35.5583V33.515H53.5341V35.5583H53.9341ZM54.2327 35.8608C54.0693 35.8608 53.9341 35.7268 53.9341 35.5583H53.5341C53.5341 35.9448 53.8455 36.2608 54.2327 36.2608V35.8608ZM54.5313 35.5583C54.5313 35.7268 54.3962 35.8608 54.2327 35.8608V36.2608C54.62 36.2608 54.9313 35.9448 54.9313 35.5583H54.5313ZM54.5313 33.515V35.5583H54.9313V33.515H54.5313ZM54.2327 33.2125C54.3962 33.2125 54.5313 33.3465 54.5313 33.515H54.9313C54.9313 33.1285 54.62 32.8125 54.2327 32.8125V33.2125ZM53.9341 33.515C53.9341 33.3465 54.0693 33.2125 54.2327 33.2125V32.8125C53.8455 32.8125 53.5341 33.1285 53.5341 33.515H53.9341ZM46.2221 27.7894C46.0587 27.7894 45.9235 27.6554 45.9235 27.4869H45.5235C45.5235 27.8734 45.8348 28.1894 46.2221 28.1894V27.7894ZM48.2497 27.7894H46.2221V28.1894H48.2497V27.7894ZM48.5483 27.4869C48.5483 27.6554 48.4132 27.7894 48.2497 27.7894V28.1894C48.637 28.1894 48.9483 27.8734 48.9483 27.4869H48.5483ZM48.2497 27.1845C48.4132 27.1845 48.5483 27.3184 48.5483 27.4869H48.9483C48.9483 27.1004 48.637 26.7845 48.2497 26.7845V27.1845ZM46.2221 27.1845H48.2497V26.7845H46.2221V27.1845ZM45.9235 27.4869C45.9235 27.3184 46.0587 27.1845 46.2221 27.1845V26.7845C45.8348 26.7845 45.5235 27.1004 45.5235 27.4869H45.9235ZM62.2438 26.7845H60.2162V27.1845H62.2438V26.7845ZM62.9424 27.4869C62.9424 27.1004 62.6311 26.7845 62.2438 26.7845V27.1845C62.4073 27.1845 62.5424 27.3184 62.5424 27.4869H62.9424ZM62.2438 28.1894C62.6311 28.1894 62.9424 27.8734 62.9424 27.4869H62.5424C62.5424 27.6554 62.4073 27.7894 62.2438 27.7894V28.1894ZM60.2162 28.1894H62.2438V27.7894H60.2162V28.1894ZM59.5177 27.4869C59.5177 27.8734 59.829 28.1894 60.2162 28.1894V27.7894C60.0528 27.7894 59.9177 27.6554 59.9177 27.4869H59.5177ZM60.2162 26.7845C59.829 26.7845 59.5177 27.1004 59.5177 27.4869H59.9177C59.9177 27.3184 60.0528 27.1845 60.2162 27.1845V26.7845ZM12.1877 40.0397C32.2211 39.2724 51.8539 45.8395 67.4568 58.5286L67.7092 58.2183C52.0312 45.4681 32.3033 38.869 12.1724 39.64L12.1877 40.0397ZM11.9463 38.8744L11.9802 39.8468L12.38 39.8329L12.3461 38.8605L11.9463 38.8744ZM52.5735 47.3328C40.1033 41.1528 26.2187 38.1283 12.1386 38.6676L12.1539 39.0673C26.1667 38.5306 39.9851 41.5406 52.3959 47.6913L52.5735 47.3328ZM52.098 47.1303L52.3017 47.5927L52.6677 47.4314L52.4641 46.9691L52.098 47.1303ZM94.4652 38.7999C79.9546 38.2601 65.5097 41.0171 52.2006 46.8666L52.3615 47.2328C65.6154 41.4076 80.0002 38.662 94.4503 39.1996L94.4652 38.7999ZM94.6248 39.979L94.6576 39.0065L94.2579 38.993L94.2251 39.9655L94.6248 39.979ZM53.1103 47.9685C66.1321 42.3087 80.2433 39.6447 94.4175 40.1721L94.4324 39.7724C80.1982 39.2428 66.0275 41.9181 52.9509 47.6016L53.1103 47.9685ZM59.1654 50.976C57.1934 49.7679 55.1766 48.6441 53.1207 47.6065L52.9405 47.9636C54.9866 48.9963 56.9938 50.1147 58.9565 51.3171L59.1654 50.976ZM94.6193 45.5616C82.5129 45.0978 70.4287 46.9287 58.9945 50.9579L59.1274 51.3352C70.5141 47.3227 82.548 45.4995 94.604 45.9613L94.6193 45.5616ZM94.7777 46.7408L94.8116 45.7684L94.4118 45.7545L94.3779 46.7268L94.7777 46.7408ZM60.1881 51.9974C71.242 48.2039 82.8958 46.4865 94.5702 46.9337L94.5855 46.534C82.8617 46.0849 71.1588 47.8096 60.0583 51.6191L60.1881 51.9974ZM64.4343 54.4826C63.0587 53.4906 61.6566 52.5426 60.2302 51.6393L60.0162 51.9772C61.4358 52.8763 62.8312 53.8198 64.2003 54.8071L64.4343 54.4826ZM64.1183 54.6768L64.1253 54.7007L64.5093 54.5889L64.5024 54.565L64.1183 54.6768ZM66.6203 53.7775C65.8295 53.9845 65.0409 54.2015 64.2548 54.4288L64.3659 54.813C65.1487 54.5868 65.934 54.3706 66.7216 54.1645L66.6203 53.7775ZM67.1127 54.8616L66.8643 53.92L66.4776 54.022L66.7259 54.9636L67.1127 54.8616ZM65.3416 55.5476C65.8832 55.3956 66.426 55.2484 66.9699 55.1061L66.8686 54.7191C66.3225 54.862 65.7774 55.0098 65.2335 55.1625L65.3416 55.5476ZM68.3228 57.4619C67.3655 56.6834 66.3932 55.9275 65.4068 55.1946L65.1682 55.5156C66.15 56.2451 67.1176 56.9974 68.0704 57.7723L68.3228 57.4619ZM67.7383 58.4995L68.3519 57.7431L68.0413 57.4911L67.4277 58.2475L67.7383 58.4995ZM12.145 45.9258C25.0612 45.4311 37.8399 47.985 49.4922 53.2953L49.6581 52.9313C37.9494 47.5953 25.1086 45.029 12.1297 45.5261L12.145 45.9258ZM11.9036 44.7605L11.9375 45.7329L12.3373 45.719L12.3034 44.7466L11.9036 44.7605ZM50.0626 52.0453C38.2177 46.6472 25.2269 44.0507 12.0959 44.5537L12.1112 44.9534C25.1795 44.4529 38.1082 47.0369 49.8967 52.4093L50.0626 52.0453ZM49.757 53.1964L50.1616 52.3104L49.7978 52.1442L49.3932 53.0302L49.757 53.1964ZM57.3289 57.3859C59.1845 58.4843 61.0022 59.6582 62.7773 60.9061L63.0073 60.5789C61.2237 59.325 59.3972 58.1454 57.5327 57.0417L57.3289 57.3859ZM57.7548 56.2737L57.2587 57.1119L57.6029 57.3156L58.099 56.4774L57.7548 56.2737ZM63.5669 59.7817C61.7626 58.5132 59.915 57.32 58.0288 56.2034L57.825 56.5476C59.7023 57.6589 61.5411 58.8465 63.3369 60.1089L63.5669 59.7817ZM63.056 60.8574L63.6156 60.0602L63.2882 59.8304L62.7286 60.6276L63.056 60.8574ZM12.1452 50.4187C24.8159 49.9334 37.3796 52.3817 48.8895 57.5164L49.0525 57.1511C37.4868 51.9915 24.8622 49.5313 12.1299 50.019L12.1452 50.4187ZM11.9038 49.2534L11.9377 50.2258L12.3375 50.2119L12.3036 49.2395L11.9038 49.2534ZM49.45 56.2619C37.7497 51.0423 24.9776 48.5532 12.0961 49.0466L12.1114 49.4463C24.9313 48.9553 37.6425 51.4324 49.2871 56.6272L49.45 56.2619ZM49.1536 57.4154L49.5511 56.5262L49.186 56.3629L48.7884 57.2521L49.1536 57.4154ZM75.2171 53.3363C81.6001 52.2612 88.0845 51.8417 94.5701 52.0902L94.5854 51.6904C88.0724 51.441 81.5607 51.8622 75.1506 52.9419L75.2171 53.3363ZM74.8226 52.2132L74.9867 53.1728L75.381 53.1054L75.2169 52.1457L74.8226 52.2132ZM94.6193 50.7181C88.0398 50.466 81.4617 50.8916 74.9865 51.9822L75.0529 52.3767C81.5012 51.2906 88.0519 50.8668 94.604 51.1178L94.6193 50.7181ZM94.7776 51.8973L94.8115 50.9249L94.4117 50.9109L94.3779 51.8833L94.7776 51.8973ZM12.1894 55.3158C12.9697 55.2859 13.7501 55.2671 14.5304 55.2595L14.5265 54.8595C13.7424 54.8672 12.9582 54.8861 12.174 54.9161L12.1894 55.3158ZM11.948 54.1505L11.9818 55.1229L12.3816 55.109L12.3477 54.1366L11.948 54.1505ZM14.5202 53.8864C13.7269 53.8942 12.9335 53.9133 12.1402 53.9437L12.1555 54.3434C12.945 54.3132 13.7346 54.2942 14.5241 54.2864L14.5202 53.8864ZM14.7284 55.0582L14.7221 54.0851L14.3221 54.0877L14.3284 55.0608L14.7284 55.0582ZM19.9556 55.3849C23.815 55.6015 27.6579 56.0897 31.456 56.8474L31.5343 56.4551C27.7177 55.6938 23.8562 55.2031 19.978 54.9855L19.9556 55.3849ZM19.8247 54.2018L19.7671 55.1733L20.1664 55.197L20.224 54.2254L19.8247 54.2018ZM31.727 55.5007C27.8659 54.7305 23.9591 54.2341 20.0355 54.0139L20.0131 54.4133C23.918 54.6324 27.806 55.1264 31.6487 55.893L31.727 55.5007ZM31.6912 56.6909L31.8839 55.7365L31.4918 55.6573L31.2991 56.6117L31.6912 56.6909ZM76.4067 58.7667C80.0081 58.209 83.6363 57.86 87.2734 57.7207L87.2581 57.321C83.6056 57.4609 79.9621 57.8114 76.3455 58.3714L76.4067 58.7667ZM76.027 57.6384L76.1785 58.6001L76.5736 58.5379L76.4222 57.5762L76.027 57.6384ZM87.2178 56.3486C83.5281 56.4899 79.8475 56.8439 76.194 57.4097L76.2552 57.805C79.8935 57.2416 83.5588 56.889 87.2331 56.7483L87.2178 56.3486ZM87.4656 57.5125L87.4253 56.5401L87.0256 56.5567L87.0659 57.5291L87.4656 57.5125Z" fill="white"></path>
</svg>