<svg width="109" height="108" fill="none" xmlns="http://www.w3.org/2000/svg"><path d="M72.266 17.327c7.478 4.153 9.659 13.354 14.841 20.158 6.269 8.23 19.291 13.51 18.667 23.836-.619 10.241-14.297 13.662-21.382 21.084-6.778 7.1-9.458 19.972-19.17 21.395-9.788 1.433-15.976-10.46-24.787-14.958-8.094-4.131-18.288-3.641-24.55-10.226C8.737 71.102 2.05 60.81 4.105 50.646c2.044-10.109 13.819-14.324 21.68-21 6.593-5.598 12.152-12.613 20.512-14.83 8.617-2.283 18.175-1.818 25.968 2.51z" fill="#E0E9F4"/><path d="M64.94 4.177c11.633.864 26.21 2.497 31.641 12.822 5.606 10.657-6.452 22.558-6.699 34.597-.19 9.255 8.636 17.85 5.446 26.54-3.276 8.921-13.137 13.21-21.617 17.504-8.724 4.418-17.865 7.849-27.635 7.434-10.98-.467-24.177-.992-30.597-9.911-6.43-8.93 1.14-21.232.28-32.202-.796-10.156-8.777-19.87-5.104-29.373 3.775-9.765 14.534-14.479 23.88-19.198 9.606-4.85 19.672-9.01 30.404-8.213z" fill="#3CA582"/><path fill-rule="evenodd" clip-rule="evenodd" d="M56.575 29.1l-.18-.04-.038-.189c-.011-.054-.26-1.34.387-2.017.647-.678 1.874-.417 1.926-.405l.18.04.038.188c.011.054.26 1.34-.387 2.017-.361.379-.903.464-1.32.464-.331 0-.583-.053-.606-.059zm1.79-2.103c-.349-.04-.929-.033-1.222.275-.294.307-.3.914-.263 1.28.348.04.929.032 1.222-.276.294-.307.3-.914.263-1.28zm4.252 1.705c-.03-.046-.72-1.14-1.636-1.14-.915 0-1.607 1.094-1.636 1.14l-.1.161.1.162c.03.047.72 1.14 1.636 1.14.915 0 1.607-1.093 1.636-1.14l.1-.162-.1-.16zm-1.636.872c-.415 0-.83-.425-1.05-.71.22-.287.635-.71 1.05-.71.415 0 .83.424 1.05.71-.22.286-.635.71-1.05.71zm-4.837 2.155l-.18.04a3.057 3.057 0 01-.605.058c-.418 0-.96-.086-1.321-.464-.647-.678-.398-1.963-.387-2.017l.038-.189.18-.04c.052-.011 1.279-.272 1.926.406.647.677.398 1.963.387 2.017l-.038.189zm-.748-1.788c-.293-.308-.873-.315-1.222-.275-.038.364-.03.972.263 1.28.293.306.873.314 1.222.274.038-.365.03-.972-.263-1.28zm-1.082 2.855l.18-.04c.052-.011 1.28-.272 1.926.406.648.678.398 1.963.387 2.017l-.037.189-.18.04a3.065 3.065 0 01-.606.058c-.418 0-.96-.086-1.321-.464-.647-.678-.398-1.963-.387-2.017l.038-.189zm.748 1.788c.295.31.874.316 1.222.276.038-.365.031-.973-.262-1.28-.294-.308-.874-.315-1.223-.275-.038.364-.03.972.263 1.28zM24.903 64.09a1.51 1.51 0 01-.126-1.313c.338-.92 1.429-1.235 2.17-.627.352.29.547.726.534 1.195l-.095 3.47c.1.316.207.626.32.93l.13-1.995c.064-.984 1.017-1.621 1.896-1.268.848.34 1.155 1.408.666 2.177l-.005.007-.003.005c-.02.034-.044.066-.87 1.17l-1.136 1.519a21.41 21.41 0 001.2 2.204l-.046-1.047a.378.378 0 01.35-.403.375.375 0 01.384.367l.046 1.04 1.129-1.928a.713.713 0 00-.197-.942c-.385-.27-.903-.05-1.013.406a.367.367 0 01-.446.28c-.741-.196.138-1.877 1.439-1.526.153.041.297.108.428.2.628.437.81 1.309.416 1.984l-1.65 2.82a23.623 23.623 0 001.782 2.184l-.417-2.266c-.178-.968.587-1.84 1.524-1.733.936.106 1.507 1.128 1.135 2.034l-1.231 3.002a27.658 27.658 0 005.366 4.04.395.395 0 01.128.55.358.358 0 01-.483.123 28.536 28.536 0 01-5.576-4.199l-3.24.49c-.932.14-1.727-.701-1.582-1.676.145-.975 1.148-1.523 1.994-1.091l1.312.668a23.854 23.854 0 01-1.363-1.736L26.54 73.2c-.449 0-.859-.218-1.125-.596-.559-.793-.226-1.925.663-2.252a1.333 1.333 0 011.25.171l1.32.94a22.159 22.159 0 01-.942-1.798l-3.22-.39c-.936-.113-1.499-1.14-1.12-2.043.378-.904 1.48-1.165 2.194-.522l1.463 1.32a16.182 16.182 0 01-.225-.644 5.033 5.033 0 00-.091-.265c-.097-.246-.236-.473-.813-1.412l-.001-.001-.001-.002c-.243-.395-.563-.916-.99-1.618zm3.653 11.393c-.069.462.308.862.75.795l2.14-.323-1.944-.99c-.401-.205-.877.055-.946.518zm4.052-3.41a.714.714 0 00-.097.515l.409 2.221.852-2.079c.317-.77-.716-1.36-1.164-.657zm-6.067.359l2.161.002-1.787-1.272a.632.632 0 00-.593-.081c-.693.254-.53 1.35.22 1.35zm.177-3.66l-1.637-1.477a.646.646 0 00-.985.14c-.278.437-.015 1.018.476 1.078l2.146.26zm3.154-3.108c-.197-.742-1.252-.645-1.303.138l-.146 2.257 1.332-1.781a.714.714 0 00.117-.614zm-3.188-.08l.063-2.26c.019-.695-.849-.985-1.215-.409a.72.72 0 00-.009.762l1.161 1.908zm48.213.923c1.482.694 3.52 1.804 4.113 3.425.506 1.386-.454 3.325-1.565 3.86.039.983-.074 2.187-.46 3.66.59-.765 1.298-1.462 2.141-1.997-.056-1.211.65-2.791 1.792-3.248 1.548-.62 3.697.232 5.18.925.153.072.222.261.153.422-.663 1.552-1.723 3.687-3.27 4.306-.655.262-1.437.148-2.123-.173-.74-.346-1.367-.934-1.602-1.557-1.627 1.111-2.693 2.889-3.368 4.468a.3.3 0 01-.402.16.325.325 0 01-.154-.42c1.201-2.813 1.544-4.876 1.507-6.38-.523.055-1.134-.065-1.69-.325-.686-.32-1.288-.856-1.538-1.54-.591-1.622.221-3.873.884-5.425a.3.3 0 01.402-.16zm3.543 3.653c.346.946-.294 2.397-1.05 2.935a6.75 6.75 0 00-.969-2.793l-.017-.03-.015-.025a1.426 1.426 0 01-.102-.191.3.3 0 00-.393-.184.324.324 0 00-.176.412c.03.082.095.198.184.35.27.46.752 1.283.897 2.688-.907.107-2.277-.523-2.618-1.457-.478-1.309.157-3.216.746-4.643 1.348.651 3.036 1.63 3.513 2.938zm4.248 4.88a6.18 6.18 0 00-2.897.762l.005.016.005.017a1.3 1.3 0 00.018.05c.328.901 1.936 1.782 2.943 1.379 1.25-.5 2.184-2.267 2.806-3.68-1.362-.616-3.184-1.281-4.433-.781-.764.305-1.315 1.4-1.394 2.305a6.8 6.8 0 012.935-.707c.167-.003.334.135.337.312.003.176-.103.32-.27.325l-.055.001zM58.03 33.29l.155-.105c.044-.03 1.088-.755 1.088-1.713 0-.959-1.044-1.683-1.088-1.713l-.154-.106-.155.106c-.044.03-1.088.754-1.088 1.713 0 .958 1.044 1.682 1.088 1.713l.154.105zm-.678-1.818c0-.435.405-.87.678-1.1.274.23.679.665.679 1.1 0 .434-.405.87-.678 1.099-.274-.23-.679-.665-.679-1.1zm1.968 2.397c-.915 0-1.607 1.094-1.636 1.14l-.1.162.1.16c.029.047.72 1.14 1.636 1.14.915 0 1.607-1.093 1.636-1.14l.1-.16-.1-.162c-.03-.046-.721-1.14-1.636-1.14zm0 2.012c-.415 0-.831-.425-1.05-.711.218-.286.632-.71 1.05-.71.415 0 .83.425 1.05.71-.219.287-.633.71-1.05.71zm3.175-5.169l-.18-.04c-.052-.01-1.28-.272-1.927.406s-.398 1.963-.387 2.017l.038.189.18.04c.023.005.276.058.606.058.417 0 .96-.086 1.32-.464.648-.677.399-1.963.388-2.017l-.038-.189zm-.748 1.788c-.294.308-.875.315-1.223.275-.038-.364-.032-.97.263-1.28.294-.307.874-.314 1.222-.274.038.365.031.972-.262 1.28zm-22.975 5.223c1.671-.59 1.706-2.766 1.706-2.857a.235.235 0 00-.04-.133c-.05-.076-1.254-1.814-2.925-1.223a4.22 4.22 0 00-1.276.747 5.014 5.014 0 00.261-1.55c0-1.91-1.893-2.618-1.973-2.647a.189.189 0 00-.13 0c-.08.029-1.973.738-1.973 2.658a5.05 5.05 0 00.261 1.55 4.236 4.236 0 00-1.28-.758c-1.669-.59-2.871 1.147-2.92 1.223a.234.234 0 00-.04.133c0 .09.034 2.267 1.705 2.857.178.06.359.108.542.143-.585.349-1.477 1.096-1.477 2.414.005.529.094 1.053.26 1.55a4.232 4.232 0 00-1.28-.757c-1.668-.592-2.87 1.147-2.92 1.222a.234.234 0 00-.04.133c0 .09.034 2.268 1.705 2.857.465.159.95.23 1.437.21a4.453 4.453 0 00-1.05 1.085c-1.025 1.54.1 3.296.166 3.4l.002.002c.024.04.061.069.104.082a3.33 3.33 0 001.004.15c1.447 0 2.242-.94 2.65-2.436.417 1.504 1.208 2.436 2.649 2.436.34.001.677-.05 1.003-.153a.187.187 0 00.103-.081c.052-.076 1.2-1.856.168-3.402a4.531 4.531 0 00-1.048-1.085c.486.02.972-.05 1.437-.208 1.377-.486 1.643-2.05 1.694-2.636a3.33 3.33 0 00.855-.15.188.188 0 00.104-.082c.051-.075 1.2-1.855.167-3.401a4.536 4.536 0 00-1.047-1.085c.486.02.972-.05 1.436-.209zm-1.608 4.484c.35-.005.636-.072.76-.106.18-.308.893-1.683.131-2.822a4.597 4.597 0 00-1.708-1.461 7.556 7.556 0 01-1.296-.392l1.243 1.869c.05.063.063.152.033.23a.206.206 0 01-.173.135.2.2 0 01-.19-.108l-.437-.655c-.865-1.293-.901-1.347-.917-1.341h-.002s-.003.003-.005.003c-.048 1.118.082 2.402.582 3.4 1.026.097 1.764.962 1.98 1.248zm-2.44-1.238a5.718 5.718 0 01-.264-.753 5.29 5.29 0 01-.341.93 4.1 4.1 0 01.184-.073c.144-.051.284-.085.42-.104zm-1.396.617c.061-.068.12-.143.174-.225a5.118 5.118 0 00.754-2.237 9.356 9.356 0 01-.059-1.441L33.11 39.31c.11.279.179.597.179.959a5.01 5.01 0 01-.261 1.55 4.46 4.46 0 01.3-.233zm-.435-2.702l.545-.815c.49-.73.523-.78.513-.792l-.002-.002-.002-.001v-.001l-.002-.001v-.001a6.883 6.883 0 00-1.813.808c.263.196.542.461.76.805zm1.567-8.374c.31.133 1.63.786 1.63 2.199 0 1.277-.665 2.604-1.402 3.591h-.011c-.016-.005-.016-.072-.014-.944v-.001l.001-1.539c0-.122-.091-.221-.204-.221-.112 0-.204.099-.204.221v2.308a8.692 8.692 0 00-.829-1.132 5.217 5.217 0 01-.597-2.283c0-1.409 1.32-2.064 1.63-2.2zm-4.186 6.792c-1.233-.443-1.4-2.005-1.426-2.365.204-.28 1.19-1.442 2.427-1.006 1.12.396 2.075 1.49 2.71 2.562l-.002.006-.001.004c-.007.012-.058-.006-.67-.223-.322-.115-.8-.284-1.507-.533-.105-.033-.216.031-.25.144-.034.113.02.236.123.277l2.02.713a7.512 7.512 0 00-1.25.512 4.159 4.159 0 01-2.174-.091zm4.186-.164c-.112 0-.204-.1-.204-.222s.092-.221.204-.221c.113 0 .204.1.204.221 0 .123-.091.222-.204.222zm.61-.186v-.004c-.001-.016.05-.034.73-.273l1.44-.507c.103-.041.157-.163.123-.277-.034-.113-.144-.177-.25-.144l-2.019.704c.275-.38.52-.786.734-1.211a4.534 4.534 0 011.811-1.318c1.223-.443 2.215.727 2.428 1.006-.02.363-.184 1.929-1.427 2.365-1.11.405-2.468.13-3.568-.335a.027.027 0 00-.002-.006zm-2.189 3.319c0-1.413-1.32-2.066-1.63-2.2-.31.136-1.63.791-1.63 2.2a5.21 5.21 0 00.596 2.283c.305.352.583.73.83 1.132v-2.308c0-.122.091-.221.204-.221.112 0 .204.099.204.221l-.002 1.54c-.001.873-.001.94.014.944h.012c.738-.987 1.402-2.313 1.402-3.591zM25.639 42.5c.027.36.194 1.922 1.427 2.365a4.158 4.158 0 002.174.09 7.47 7.47 0 011.25-.51l-2.02-.714c-.103-.041-.157-.163-.123-.276.034-.114.144-.177.25-.145l1.506.533c.612.217.663.235.67.223l.001-.002v-.002l.001-.002c0-.002.001-.003.002-.003-.636-1.072-1.59-2.166-2.71-2.563-1.238-.436-2.224.727-2.428 1.006zm2.148 7.164c.324.088 1.747.4 2.507-.74a5.118 5.118 0 00.754-2.236 9.344 9.344 0 01-.06-1.442l-1.248 1.869a.192.192 0 01-.274.036.234.234 0 01-.057-.293l.821-1.226c.49-.73.523-.779.513-.791l-.002-.002-.005-.005c-1.131.323-2.395.985-3.08 2.008-.761 1.139-.048 2.514.131 2.822zm3.26-5.184c0 .122.092.221.205.221.112 0 .204-.1.204-.221 0-.123-.092-.222-.204-.222-.113 0-.204.1-.204.222zm3.67 5.184c.178-.308.892-1.683.13-2.822a4.597 4.597 0 00-1.708-1.461 7.544 7.544 0 01-1.296-.392l1.243 1.869c.05.064.063.153.033.23a.206.206 0 01-.174.135.2.2 0 01-.19-.108l-.437-.654v-.001c-.864-1.292-.9-1.347-.916-1.341l-.002.001h-.001l-.002.001h-.003c-.055 1.276.123 2.767.816 3.803.76 1.14 2.182.828 2.506.74zM31.86 44.51v.005l.002.006c1.1.465 2.458.74 3.568.334 1.244-.436 1.407-2.002 1.427-2.365-.212-.28-1.204-1.448-2.427-1.005a4.532 4.532 0 00-1.812 1.317 8.88 8.88 0 01-.734 1.212l2.02-.705c.105-.032.216.031.25.145.034.113-.02.235-.124.276l-1.44.508c-.68.239-.73.257-.73.273zm30.56 6.84a.41.41 0 01-.401.42H48.38a.411.411 0 01-.402-.42c0-.231.18-.42.401-.42h13.64c.222 0 .402.189.402.42zm-12.437 4.622c0 .232-.18.42-.401.42h-1.204a.411.411 0 01-.401-.42c0-.232.18-.42.401-.42h1.204c.221 0 .4.188.4.42zm3.21 4.201c0-.232.18-.42.4-.42h1.204a.41.41 0 01.401.42.41.41 0 01-.4.42h-1.204a.411.411 0 01-.402-.42zm2.005-4.201a.41.41 0 01-.4.42h-3.611a.411.411 0 01-.402-.42c0-.232.18-.42.401-.42h3.611a.41.41 0 01.401.42zm-7.221 4.201c0-.232.18-.42.401-.42h3.61c.222 0 .402.188.402.42 0 .232-.18.42-.401.42h-3.61a.411.411 0 01-.402-.42zm0 5.042c0-.232.18-.42.401-.42h5.617c.221 0 .401.188.401.42 0 .232-.18.42-.401.42h-5.617a.411.411 0 01-.401-.42zm7.623-5.882c0-2.552 1.975-4.621 4.413-4.621 2.437 0 4.413 2.069 4.413 4.621 0 2.552-1.976 4.621-4.413 4.621a4.23 4.23 0 01-1.806-.403v4.43l1.723-1.803a.388.388 0 01.567 0l1.722 1.804v-3.397c0-.233.18-.42.401-.42.222 0 .402.188.402.42v4.41a.42.42 0 01-.248.389.388.388 0 01-.437-.091l-2.124-2.224-2.123 2.224a.388.388 0 01-.437.091.42.42 0 01-.248-.388v-5.934a4.687 4.687 0 01-1.805-3.729zm4.413-3.781c-1.994 0-3.611 1.693-3.611 3.781s1.617 3.781 3.61 3.781c1.995 0 3.611-1.693 3.611-3.781s-1.616-3.781-3.61-3.781zM43.966 47.57c0-2.089 1.617-3.782 3.61-3.782h16.45c1.994 0 3.61 1.693 3.61 3.782v26.467c0 2.089-1.616 3.782-3.61 3.782H47.978c-3.767 0-6.82-3.198-6.82-7.143v-.21c0-.232.18-.42.4-.42.222 0 .402.188.402.42v.21c0 3.48 2.694 6.302 6.018 6.302H60.79a7.513 7.513 0 01-1.704-1.338c-1.158-1.212-1.954-2.828-2.067-4.544H44.367a.411.411 0 01-.401-.42c0-.076.02-.148.054-.21a.433.433 0 01-.054-.21V47.571zm.802 22.686h12.638a.41.41 0 01.401.42c0 1.61.718 3.189 1.846 4.37 1.127 1.18 2.634 1.932 4.172 1.932h.2c1.552 0 2.81-1.317 2.81-2.94V47.57c0-1.625-1.258-2.941-2.81-2.941H47.578c-1.551 0-2.809 1.316-2.809 2.94v22.687zm31.97-32.973c.413-.348.724-.832.913-1.176.316-.578.61-1.358.484-1.814a.45.45 0 00-.217-.294c-.463-.248-1.165.536-1.62 1.369l-.002.004c-.249-.893-.747-1.773-1.26-1.609-.512.164-.484 1.195-.241 2.089l-.004-.002c-.803-.43-1.787-.674-2.05-.194a.489.489 0 00-.033.374c.125.456.766.937 1.323 1.235.332.178.838.4 1.36.449a.21.21 0 00.085-.01.233.233 0 00.158-.197.22.22 0 00-.194-.248c-.476-.045-.957-.27-1.201-.4-.794-.426-1.112-.868-1.114-.987.088-.064.638-.054 1.458.385.177.094.344.198.498.31.08.057.189.052.266-.014a.237.237 0 00.064-.27 4.592 4.592 0 01-.19-.552c-.245-.89-.146-1.45-.064-1.53.11.019.476.43.72 1.32.053.191.094.384.12.574a.217.217 0 00.19.188.225.225 0 00.23-.144c.073-.184.16-.37.26-.553.46-.837.91-1.172 1.03-1.177.056.107.01.662-.437 1.48-.138.252-.427.724-.804 1.041a.236.236 0 00-.037.322.212.212 0 00.308.03zm2.053 4.56l-1.483.474a.213.213 0 01-.27-.15.235.235 0 01.15-.286l1.483-.475c.03-.01.06-.012.09-.009l-.013-.047c-.473-1.718-.92-2.646-1.41-2.919-.315-.176-.646-.07-1.066.067h-.003l-.185.06h-.002c-.42.134-.752.239-.928.572-.271.517-.178 1.557.295 3.276.508 1.847 1.394 4.225 2.256 6.058 1.17 2.488 1.834 3.031 2.022 2.971l.12.438c-.221.07-.896.286-2.535-3.2-.873-1.855-1.769-4.262-2.283-6.133-.514-1.867-.593-2.985-.256-3.624.263-.501.734-.65 1.19-.795l.002-.001h.002l.18-.058h.001l.003-.002c.455-.146.925-.298 1.4-.033.604.337 1.103 1.321 1.617 3.189.515 1.87.98 4.415 1.188 6.483.389 3.886-.286 4.102-.507 4.173l-.12-.437c.187-.06.47-.907.192-3.68a33.44 33.44 0 00-.08-.723.22.22 0 01-.038.016l-1.097.35a.213.213 0 01-.27-.15.235.235 0 01.15-.285l1.097-.352a.212.212 0 01.103-.007 45.007 45.007 0 00-.353-2.211.22.22 0 01-.056.026l-1.37.439a.213.213 0 01-.27-.15.235.235 0 01.15-.286l1.37-.439a.211.211 0 01.096-.008 38.4 38.4 0 00-.486-2.175.223.223 0 01-.076.042z" fill="#fff"/><path d="M56.395 29.06l-.196.04.025.127.128.028.043-.195zm.18.04l.043-.196-.043.195zm-.218-.229l-.196.04.196-.04zm.387-2.017l.144.138-.144-.138zm1.926-.405l-.043.195.043-.195zm.18.04l.196-.04-.025-.128-.128-.028-.043.195zm.038.188l.196-.04-.196.04zm-.387 2.017l-.145-.138.145.138zm-1.358-1.422l-.145-.138.145.138zm1.222-.275l.199-.021-.017-.16-.16-.018-.022.199zM56.88 28.55l-.199.021.017.16.16.018.022-.199zm1.222-.275l-.144-.138.144.138zm4.515.426l.17-.106-.17.106zm-3.272 0l-.17-.106.17.106zm-.1.161l-.17-.105-.066.105.066.106.17-.106zm.1.162l-.17.106.17-.106zm3.272 0l.17.106-.17-.106zm.1-.162l.17.106.066-.106-.066-.105-.17.105zm-2.786 0l-.158-.121-.094.122.094.121.158-.121zm2.1 0l.158.122.094-.122-.094-.121-.158.121zm-6.067 2.905l-.043-.195.043.195zm.18-.04l.043.196.128-.028.025-.128-.196-.04zm-.785.1v-.2.2zm-1.321-.465l.145-.138-.145.138zm-.387-2.017l-.196-.04.196.04zm.038-.189l-.043-.195-.128.028-.025.128.196.04zm.18-.04l.043.196-.043-.196zm1.926.406l-.144.138.144-.138zm.387 2.017l.196.04-.196-.04zm-2.008-1.874l-.022-.2-.16.02-.017.159.2.02zm1.222.274l-.144.139.144-.139zm-.96 1.005l.145-.138-.144.138zm1.223.275l.023.199.16-.018.016-.16-.2-.02zm-1.165 1.537l.043.195-.043-.195zm-.18.04l-.043-.196-.127.028-.026.128.196.04zm2.106.365l.145-.138-.145.138zm.387 2.017l-.196-.04.196.04zm-.037.189l.043.195.127-.028.026-.128-.196-.04zm-.18.04l.042.195-.042-.196zm-1.927-.406l.145-.138-.145.138zm-.387-2.017l-.196-.04.196.04zm2.008 1.875l.023.199.16-.02.016-.159-.199-.02zm-1.222-.276l-.145.138.145-.138zm.96-1.005l.144-.138-.144.139zm-1.223-.274l-.022-.2-.16.02-.017.159.2.02zM24.777 62.776l.188.07-.188-.07zm.126 1.313l.171-.104-.17.104zm2.044-1.94l.127-.154-.128.154zm.534 1.195l.2.006-.2-.006zm-.095 3.47l-.2-.006-.001.034.01.032.19-.06zm.32.93l-.187.07.387-.057-.2-.013zm.13-1.995l-.2-.013.2.013zm1.896-1.268l.075-.186-.075.186zm.666 2.177l-.169-.108v.001l.169.107zm-.005.007l-.17-.106v.001l.17.105zm-.003.005l.17.106-.17-.106zm-.87 1.17l-.16-.12.16.12zm-1.136 1.519l-.16-.12-.072.096.051.109.181-.085zm1.2 2.204l-.17.106.403.648-.033-.763-.2.009zm-.046-1.047l-.2.009.2-.01zm.35-.403l.01.2-.01-.2zm.384.367l.2-.009-.2.01zm.046 1.04l-.2.01.03.677.343-.585-.173-.101zm1.129-1.928l.173.1-.173-.1zm-.197-.942l-.114.164.114-.164zm-1.013.406l.195.047-.195-.047zm-.446.28l-.051.193.05-.193zm1.439-1.526l.052-.194-.052.194zm.428.2l.114-.165-.114.164zm.416 1.984l.172.1-.172-.1zm-1.65 2.82l-.174-.1-.065.112.076.105.162-.117zm1.782 2.184l-.147.135.47.51-.126-.681-.197.036zm-.417-2.266l.197-.036-.197.036zM33.313 71l.022-.2-.022.2zm1.135 2.034l-.185-.076.185.076zm-1.231 3.002l-.185-.076-.052.126.097.094.14-.144zm5.366 4.04l-.1.172.1-.173zm.128.55l-.169-.107.17.107zm-.483.123l.1-.173-.1.173zm-5.576-4.199l.14-.143-.072-.07-.098.016.03.197zm-3.24.49l-.03-.198.03.198zm-1.582-1.676l-.198-.03.198.03zm1.994-1.091l-.09.178.09-.178zm1.312.668l-.09.178.242-.308-.152.13zm-1.363-1.736l.162-.116-.06-.084h-.102v.2zM26.54 73.2v.2-.2zm-1.125-.596l-.163.115.163-.115zm.663-2.252l.069.188-.07-.188zm1.25.171l-.117.163.116-.163zm1.32.94l-.117.163.289-.264-.173.1zm-.942-1.798l.181-.084-.047-.1-.11-.014-.024.198zm-3.22-.39l-.024.199.024-.199zm-1.12-2.043l.184.077-.184-.077zm2.194-.522l.134-.148-.134.148zm1.463 1.32l-.134.15.322-.219-.188.07zm-.225-.644l-.19.062.19-.062zm-.091-.265l.186-.073-.186.073zm-.813-1.412l.17-.105-.17.105zm-.001-.001l-.17.104.17-.104zm-.001-.002l.17-.105-.17.105zm3.414 10.57l.03.198-.03-.198zm-.75-.795l-.199-.03.198.03zm2.888.472l.03.198.616-.093-.555-.283-.09.178zm-1.942-.99l.09-.178-.09.178zm3.008-2.377l.196-.037-.196.037zm.097-.516l-.168-.107.168.108zm.312 2.737l-.197.036.123.67.259-.63-.185-.076zm.852-2.079l-.185-.076.185.076zm-5.07-.296v.2h.627l-.511-.363-.116.163zm-2.16-.002v.2-.2zm.373-1.27l-.116.163.116-.163zm-.593-.081l.07.188-.07-.188zm-1.24-3.785l.133-.149-.134.148zm1.636 1.477l-.024.198.627.076-.47-.423-.133.149zm-2.622-1.339l-.168-.107.168.107zm.476 1.079l.024-.199-.024.199zm3.997-2.71l-.2-.014.2.013zm1.303-.14l.193-.05-.194.05zm-1.45 2.396l-.199-.012-.044.672.404-.54-.16-.12zm1.332-1.781l.16.12-.16-.12zm-3.007-2.955l-.2-.005.2.005zm-.063 2.262l-.17.104.352.579.018-.678-.2-.005zm-1.152-2.67l.168.108-.168-.108zm-.009.762l.171-.104-.17.104zM79.01 69.93l-.188.069.188-.069zm-4.113-3.425l.085-.18-.085.18zm2.548 7.286l-.087-.18-.118.056.005.131.2-.007zm-.46 3.66l-.193-.051.352.172-.158-.122zm2.141-1.998l.108.17.098-.063-.006-.116-.2.01zm1.792-3.248l.074.186-.074-.186zm5.18.925l-.086.182.085-.181zm.153.422l-.184-.079.184.079zm-3.27 4.306l.074.186-.074-.186zm-2.123-.173l.085-.181-.085.181zm-1.602-1.557l.188-.07-.09-.238-.21.143.112.165zm-3.368 4.468l-.184-.078.184.078zm-.402.16l.085-.18-.085.18zm-.154-.42l.184.078-.184-.079zm1.507-6.38l.2-.005-.005-.217-.216.023.021.199zm-1.69-.325l-.084.181.084-.18zm-1.538-1.54l-.188.068.188-.069zm.884-5.425l.184.079-.184-.079zm2.894 6.427l-.198.025.04.333.275-.195-.117-.163zm1.051-2.935l-.188.069.188-.069zm-2.019.141l.173-.1-.172.1zm-.017-.03l.172-.1v-.001l-.172.102zm-.015-.024l.172-.102-.172.102zm-.102-.191l-.188.068v.002l.188-.07zm-.393-.184l-.075-.186.075.186zm-.176.412l-.188.068.188-.069zm.184.35l-.172.102.172-.101zm.897 2.688l.024.199.196-.023-.02-.196-.2.02zm-2.618-1.457l.188-.069-.188.069zm.746-4.643l.087-.18-.19-.092-.081.196.184.076zm4.864 8.58l-.096-.176-.14.078.044.154.192-.056zm2.897-.763l.004.2h.002l-.007-.2zm-2.892.779l-.192.056.001.003.191-.059zm.005.017l-.19.059v.001l.19-.06zm.018.05l-.188.07.188-.07zm2.943 1.379l-.074-.186.074.186zm2.806-3.68l.183.082.08-.182-.18-.081-.083.182zm-4.433-.781l.074.186-.075-.186zm-1.394 2.305l-.199-.017-.031.355.32-.159-.09-.179zm2.935-.707l-.003-.2h-.001l.004.2zm.337.312l-.2.004.2-.004zm-.27.325l-.005-.2h-.002l.006.2zm-24.558-41.85l.112.165-.112-.165zm-.154.105l-.113.165.113.077.112-.077-.112-.165zm.154-3.531l.112-.165-.112.165zm-.154-.106l.112-.165-.112-.077-.113.077.113.165zm-.155.106l-.112-.166.112.166zm0 3.426l-.112.165.112-.165zm.154-2.813l.13-.152-.13-.109-.128.109.129.152zm0 2.199l-.128.153.129.108.128-.108-.128-.153zm-.346 2.438l-.17-.106.17.106zm-.1.162l-.17-.106-.066.105.066.106.17-.105zm.1.16l-.17.107.17-.106zm3.272 0l.17.107-.17-.106zm.1-.16l.17.105.066-.105-.066-.106-.17.105zm-.1-.162l-.17.106.17-.106zm-2.686.161l-.16-.121-.092.121.093.122.159-.122zm2.1 0l.159.122.093-.121-.093-.122-.16.122zm1.945-4.497l.043-.196-.043.196zm.18.04l.196-.04-.026-.128-.127-.028-.043.195zm-2.107.365l.145.138-.145-.138zm-.387 2.017l-.196.04.196-.04zm.038.189l-.196.04.026.127.127.028.043-.195zm.18.04l.043-.196-.043.196zm1.927-.406l-.145-.138.145.138zm.387-2.017l.196-.04-.196.04zm-2.009 1.874l-.199.021.017.16.16.018.022-.199zm1.223-.275l-.145-.138.145.138zm-.96-1.004l-.144-.138.144.138zm1.222-.275l.2-.02-.017-.16-.16-.019-.023.199zm-23.237 6.502l.065.189h.002l-.067-.19zm1.665-2.99l-.167.109.003.004.164-.113zm-2.924-1.223l-.067-.188h-.002l.069.188zm-1.276.747l-.19-.064-.229.681.549-.465-.13-.152zm.261-1.55l.2.001v-.002h-.2zm-1.973-2.647l-.069.188h.001l.068-.188zm-.13 0l.068.188-.068-.188zm-1.973 2.658h-.2v.002l.2-.002zm.261 1.55l-.13.152.55.472-.23-.688-.19.064zm-1.28-.758l.07-.187-.003-.001-.067.188zm-2.92 1.223l.165.113.003-.004-.168-.11zm1.665 2.99l-.067.188h.002l.065-.188zm.542.143l.102.172.453-.27-.517-.098-.038.196zm-1.477 2.414h-.2v.002l.2-.002zm.26 1.55l-.13.152.551.472-.23-.688-.19.064zm-1.28-.757l.07-.188h-.002l-.067.188zm-2.92 1.222l.165.114.003-.005-.168-.109zm1.665 2.99l-.066.188h.002l.064-.188zm1.437.21l.118.162.533-.388-.659.026.008.2zm-1.05 1.085l-.164-.113-.002.002.167.111zm.166 3.4l.169-.108-.169.108zm.002.002l.17-.105-.002-.003-.168.108zm.104.082l.06-.191h-.002l-.058.19zm1.004.15v-.2.2zm2.65-2.436l.192-.053-.194-.7-.191.7.193.053zm2.649 2.436v-.2.2zm1.003-.153l-.059-.19h-.001l.06.19zm.103-.081l-.165-.113-.005.008.17.105zm.168-3.402l.166-.111-.002-.002-.164.113zm-1.048-1.085l.008-.2-.654-.027.528.388.118-.161zm1.437-.208l.064.19.002-.002-.066-.188zm1.694-2.636l-.009-.2-.175.008-.016.175.2.017zm.855-.15l-.058-.191h-.002l.06.191zm.104-.082l-.166-.112-.004.008.17.104zm.167-3.401l.166-.111-.001-.003-.165.114zm-1.047-1.085l.008-.2-.655-.027.528.388.119-.161zm.589 4.17l.052.193.08-.022.04-.07-.172-.101zm-.76.106l-.16.12.06.081.102-.001-.003-.2zm.89-2.928l.166-.111-.003-.005-.163.116zm-1.708-1.461l.088-.18-.022-.011-.025-.005-.04.196zm-1.296-.392l.075-.186-.599-.241.358.538.166-.111zm1.243 1.869l-.166.11.004.007.005.007.157-.124zm.033.23l.187.071-.187-.072zm-.173.135l-.015-.2.015.2zm-.19-.108l.176-.096-.005-.008-.005-.008-.166.112zm-.437-.655l-.167.111.167-.11zm-.917-1.341l-.07-.187-.011.004-.01.005.091.178zm-.002 0l-.091-.177-.01.005.101.173zm-.005.003v-.2h-.192l-.008.191.2.009zm.582 3.4l-.179.09.05.099.11.01.02-.2zm-.725-.743l.193-.053-.195-.7-.19.7.192.053zm.263.753l.028.198.26-.036-.105-.242-.183.08zm-.604.176l-.18-.087-.234.48.492-.209-.078-.184zm.184-.072l-.066-.189h-.002l.068.189zm-.8.288l.166.111.003-.005-.17-.106zm-.175.225l.115.163.018-.012.015-.017-.148-.134zm.928-2.462l.2.02.002-.022-.003-.021-.199.023zm-.059-1.441l.2.007.026-.705-.392.587.166.11zm-1.087 1.627l-.166-.112-.059.088.039.097.186-.074zm.179.959l.2.002v-.002h-.2zm-.261 1.55l-.19-.064-.23.681.549-.465-.13-.152zm.41-3.75l.166.112-.166-.112zm-.545.815l-.17.107.165.26.17-.256-.165-.11zm1.058-1.607l.158-.122-.01-.013-.012-.011-.136.146zm-.002-.002l.136-.147-.01-.008-.126.155zm-.002-.001l-.137.145.005.005.005.005.127-.155zm0-.001l-.151.132.006.007.007.006.137-.145zm-.002-.001l-.165.112.007.01.008.01.15-.132zm0-.001l.165-.112-.08-.12-.14.04.055.192zm-1.813.808l-.109-.168-.242.157.231.172.12-.16zm2.328-7.57l.08-.183-.08-.034-.08.034.08.184zm.228 5.791l-.043.196.126.027.077-.103-.16-.12zm-.003 0l.043-.196-.02-.004h-.022l-.001.2zm-.004 0l-.01.2h.009l.001-.2zm-.004 0l-.054.192.021.006.022.001.01-.2zm-.014-.944h.2-.2zm0-.001h-.2.2zm-.407.769l-.17.105.37.6v-.705h-.2zm-.829-1.132l-.177.093.01.02.016.018.151-.131zm-.597-2.283h-.2v.006l.2-.006zm-3.982 2.227l-.162-.117-.043.059.005.073.2-.014zm1.426 2.366l-.067.188.007.002.06-.19zm1.001-3.37l.067-.19-.067.19zm2.71 2.561l.164.116.075-.106-.067-.112-.172.102zm-.002.006l.19.065.003-.01.002-.01-.195-.045zm-.001.004l.17.106.012-.02.007-.021-.19-.065zm-.67-.223l.066-.189-.066.189zm-1.507-.533l.066-.189-.007-.002-.06.191zm-.127.42l-.074.187.008.002.067-.188zm2.02.714l.059.191.579-.178-.571-.202-.067.189zm-1.25.512l.045.195.025-.006.023-.012-.092-.177zm2.622-.445l-.2.008v.018l.004.018.196-.044zm0 .004l-.195.044.002.008.002.008.191-.06zm.73-.277l-.066-.188.066.188zm0 0l.066.19-.066-.19zm1.44-.507l.067.189.007-.003-.074-.186zm-.126-.42l-.06-.192-.006.002.066.19zm-2.02.703l-.162-.117-.372.515.6-.209-.066-.189zm.734-1.211l-.154-.129-.015.018-.01.021.179.09zm1.811-1.318l-.068-.188-.005.002.073.186zm2.428 1.006l.2.01.003-.073-.044-.058-.16.12zm-1.427 2.365l-.066-.189-.003.001.069.188zm-3.568-.335h-.2v.133l.122.052.078-.185zm-3.821 1.114l.079-.184-.08-.034-.08.035.08.183zm-1.63 2.199h-.2v.006l.2-.006zm.596 2.283l-.176.094.01.02.015.017.151-.13zm.83 1.132l-.17.105.37.6v-.705h-.2zm.406-.768h-.2.2zm.014.944l-.053.193.021.005.022.002.01-.2zm.005 0l-.01.2h.02l-.01-.2zm.007 0l-.078.185.144.061.094-.125-.16-.12zm-4.414 1.002l-.068.188.008.003.06-.191zM25.639 42.5l-.161-.118-.044.06.006.072.2-.014zm3.601 2.456l.044.195.026-.006.022-.012-.092-.177zm1.25-.512l.058.191.58-.178-.572-.201-.067.188zm-2.02-.713l-.074.186.007.003.067-.189zm-.123-.276l-.192-.058.192.058zm.25-.145l.066-.189-.008-.002-.059.191zm1.506.533l.069-.188h-.002l-.067.188zm0 0l-.068.188h.003l.065-.188zm0 0l.069-.188-.003-.001-.066.189zm0 0l-.068.188h.002l.067-.188zm.67.223l.17.106.008-.013.006-.014-.184-.079zm.001-.002l.184.08.006-.015.004-.015-.194-.05zm0-.002l-.191-.057-.002.008.194.05zm.001-.002l-.188-.07-.003.012.191.057zm.002-.003l.163.115.075-.106-.066-.111-.172.102zm-2.71-2.563l.066-.188-.067.188zm2.227 7.43l.166.111.003-.004-.17-.107zm-2.507.74l-.173.1.042.071.079.022.052-.193zm3.26-2.977l.2.02.002-.022-.002-.021-.2.023zm-.058-1.441l.2.007.025-.704-.391.586.166.11zm-1.25 1.869l.158.124.005-.006.004-.007-.166-.111zm-.273.036l-.123.158.123-.158zm-.057-.293l-.166-.111-.005.007-.004.008.175.096zm.821-1.226l.166.111-.166-.11zm0 0l-.165-.113-.001.002.166.111zm0 0l.165.113.001-.002-.166-.111zm.513-.791l.158-.123-.008-.01-.008-.008-.142.14zm-.002-.002l.142-.14-.008-.009-.009-.007-.125.156zm0 0l.124-.157-.125.156zm-.005-.005l.172-.102-.078-.133-.149.043.055.192zm-3.08 2.008l.167.112-.166-.111zm7.19 0l.167-.11-.004-.006-.163.117zm-.13 2.822l.053.193.079-.022.04-.07-.172-.101zM33.14 45.38l.088-.18-.023-.01-.025-.006-.04.196zm-1.296-.392l.074-.186-.598-.24.357.537.167-.111zm1.243 1.869l-.167.11.005.007.005.007.157-.124zm.033.23l.187.072-.187-.072zm-.174.135l-.015-.2.015.2zm-.19-.108l.176-.096-.004-.008-.005-.007-.166.11zm-.437-.654l-.166.111.166-.111zm0 0l.167-.111-.167.11zm0 0l-.166.11.166-.11zm0 0l.166-.112v-.002l-.166.113zm0-.001l-.166.111v.002l.166-.113zm-.916-1.341l-.071-.187-.01.004-.01.005.09.178zm-.002.001l-.092-.178-.008.005.1.173zm-.001 0l.083.182.009-.004.007-.004-.1-.173zm-.002.001l.035.197.025-.004.024-.011-.084-.182zm-.003 0l-.034-.196-.159.028-.006.16.2.009zm.816 3.803l.166-.11-.166.11zm-.348-4.408l-.195.043.002.008.002.008.19-.06zm-.001-.005l-.2.008v.019l.005.017.195-.044zm.002.01h-.2v.133l.122.052.078-.184zm3.568.335l-.066-.189-.002.001.068.188zm1.427-2.365l.2.011.004-.073-.045-.06-.16.122zm-2.427-1.005l-.068-.189-.005.002.073.187zm-1.812 1.317l-.153-.128-.015.018-.01.02.178.09zm-.734 1.212l-.162-.117-.371.514.6-.209-.067-.189zm2.02-.705l-.06-.19-.006.002.066.188zm.25.145l-.192.057.192-.057zm-.124.276l.067.189.008-.003-.075-.186zm-1.44.508l-.066-.19v.001l.067.189zm0 0l.067.188-.066-.188zm25.617 19.313l.086-.18-.286-.135v.315h.2zm0 4.43h-.2v.5l.345-.361-.145-.138zm1.723-1.803l.144.138-.144-.138zm.567 0l-.145.138.145-.138zm1.722 1.804l-.144.138.344.36v-.498h-.2zm.555 1.402l.08.183-.08-.183zm-.437-.091l.145-.138-.145.138zm-2.124-2.224l.145-.138-.145-.151-.144.151.144.138zm-2.123 2.224l.145.138-.145-.138zm-.437.091l-.08.183.08-.183zm-.248-6.322h.2v-.099l-.078-.06-.122.159zm3.384 13.916v.2h.755l-.656-.374-.099.174zm-1.704-1.338l.144-.139-.144.139zm-2.067-4.544l.2-.013-.013-.187h-.187v.2zm-13-.63l.176.097.053-.097-.053-.096-.175.096zm.75-.21h-.2v.2h.2v-.2zm32.88-34.148l-.176-.096.176.096zm-.913 1.176l-.13-.153.13.153zm1.397-2.99l-.193.053.193-.053zM77.918 34l-.094.177.094-.177zm-1.62 1.369l-.176-.096-.001.002.177.094zm-.002.004l-.193.053.135.484.234-.444-.176-.093zm-1.26-1.609l-.06-.19.06.19zm-.241 2.089l-.097.175.414.23-.124-.458-.193.053zm-.004-.002l.097-.175-.002-.002-.095.177zm-2.05-.194l.176.096-.176-.096zm-.033.374l.192-.053-.192.053zm1.323 1.235l-.094.177.094-.177zm1.36.449l.02-.2h-.001l-.019.2zm.085-.01l.06.19-.06-.19zm.158-.197l-.199-.022.199.022zm-.194-.248l-.018.199.018-.2zm-1.201-.4l-.094.175.094-.176zm-1.114-.987l-.118-.161-.084.061.002.104.2-.004zm1.458.385l-.094.176.094-.176zm.498.31l-.117.162.117-.162zm.266-.014l-.13-.152.13.151zm.064-.27l.184-.077-.184.077zm-.19-.552l.193-.053-.193.053zm-.064-1.53l.034-.197-.1-.017-.073.07.14.144zm.72 1.32l-.192.053.192-.053zm.12.574l.199-.028-.198.028zm.19.188l-.02.2.02-.2zm.23-.144l.186.074-.186-.074zm.26-.553l.176.097-.175-.096zm1.03-1.177l.178-.092-.059-.114-.127.006.008.2zm-.437 1.48l.176.095-.176-.096zm-.804 1.041l.129.154-.129-.154zm-.037.322l-.158.122.158-.122zm.88 5.065l-.062-.19.061.19zm1.482-.475l.06.19-.06-.19zm-1.754.324l.193-.053-.193.053zm.151-.285l-.06-.191.06.19zm1.483-.475l-.061-.19.06.19zm.09-.009l-.024.199.296.035-.08-.287-.192.053zm-.013-.047l.193-.053-.193.053zm-1.41-2.919l.098-.174-.097.174zm-1.066.067l.061.19-.061-.19zm-.002 0l-.061-.19h-.001l.062.19zm-.001 0l.06.191h.002l-.062-.19zm-.185.06l.06.19h.001l-.06-.19zm-.002 0l-.06-.19.06.19zm-.928.572l-.177-.093.177.093zm.295 3.276l-.193.053.193-.053zm2.256 6.058l-.181.085.18-.085zm2.022 2.971l.193-.053-.056-.2-.198.063.06.19zm.12.438l.061.19.183-.058-.051-.185-.193.053zm-2.535-3.2l.18-.085-.18.085zm-2.283-6.133l.193-.052-.193.053zm-.256-3.624l.177.093-.177-.093zm1.19-.795l-.061-.19.06.19zm.002-.001l.06.19h.002l-.062-.19zm.002 0l-.061-.19h-.001l.062.19zm.18-.058l.06.19h.002l-.062-.19zm.001 0l-.061-.19h-.001l.062.19zm.003-.002l.062.19-.062-.19zm1.4-.033l-.098.174.097-.174zm1.617 3.189l-.193.053.193-.053zm1.188 6.483l-.2.02.2-.02zm-.507 4.173l-.193.053.055.201.199-.063-.061-.19zm-.12-.437l-.062-.19-.182.058.05.185.193-.053zm.192-3.68l.199-.02-.199.02zm-.08-.723l.198-.024-.035-.29-.258.138.095.176zm-.038.016l-.06-.19.06.19zm-1.097.35l.061.191-.06-.19zm-.27-.15l.192-.053-.193.053zm.15-.285l-.06-.191.06.19zm1.097-.352l-.06-.19.06.19zm.103-.007l-.036.197.27.05-.036-.273-.198.026zm-.353-2.211l.196-.037-.055-.298-.253.168.112.167zm-.056.026l.06.191-.06-.19zm-1.37.439l.061.19-.06-.19zm-.27-.15l.192-.054-.193.053zm.15-.286l.061.19-.06-.19zm1.37-.439l.06.19-.06-.19zm.096-.008l-.03.198.28.042-.053-.278-.197.038zm-.486-2.175l.194-.05-.08-.31-.243.207.13.153zM56.352 29.255l.18.04.086-.39-.18-.04-.086.39zm-.191-.344l.038.188.392-.079-.038-.188-.392.079zm.438-2.195c-.374.392-.477.943-.495 1.372-.018.435.05.788.057.823l.392-.08a3.358 3.358 0 01-.05-.726c.017-.397.112-.827.385-1.113l-.289-.276zm2.114-.463a3.292 3.292 0 00-.792-.06c-.414.019-.946.129-1.322.523l.29.276c.27-.284.676-.382 1.05-.4.37-.016.67.048.688.052l.086-.39zm.18.04l-.18-.04-.086.39.18.04.086-.39zm.191.344l-.038-.188-.392.079.038.188.392-.079zm-.438 2.195c.374-.392.477-.943.495-1.372a3.74 3.74 0 00-.057-.823l-.392.08c.004.019.066.336.05.727-.017.396-.112.826-.386 1.112l.29.276zm-1.465.526c.433 0 1.046-.087 1.465-.526l-.29-.276c-.303.318-.774.402-1.175.402v.4zm-.65-.063c.031.007.3.063.65.063v-.4c-.311 0-.548-.05-.563-.054l-.086.39zm.756-1.885c.104-.108.271-.176.477-.208.202-.032.415-.025.578-.007l.045-.397a2.637 2.637 0 00-.685.009c-.244.038-.514.127-.704.327l.29.276zm-.208 1.12a2.598 2.598 0 01.006-.612c.032-.22.098-.399.202-.508l-.289-.276c-.189.197-.273.475-.309.727a2.992 2.992 0 00-.008.711l.398-.041zm.879-.392c-.103.108-.271.176-.477.208a2.236 2.236 0 01-.578.007l-.045.397c.185.021.436.03.685-.008.244-.039.514-.128.704-.328l-.29-.276zm.208-1.12c.018.171.025.397-.006.612-.032.22-.098.399-.202.508l.289.276c.189-.197.273-.475.309-.728.037-.256.028-.517.008-.71l-.398.041zm2.815.744c.38 0 .733.23 1.012.497.274.263.444.532.454.549l.34-.212a3.56 3.56 0 00-.517-.626c-.303-.29-.753-.608-1.289-.608v.4zm-1.466 1.046c.01-.017.18-.286.454-.549.279-.267.633-.497 1.012-.497v-.4c-.536 0-.986.318-1.289.608a3.552 3.552 0 00-.517.626l.34.212zm-.1.161l.1-.161-.34-.212-.1.162.34.211zm.1-.05l-.1-.161-.34.211.1.162.34-.212zm1.466 1.046c-.38 0-.733-.23-1.012-.497a3.165 3.165 0 01-.454-.549l-.34.212c.019.03.21.33.517.626.303.29.753.608 1.289.608v-.4zm1.466-1.046a3.17 3.17 0 01-.454.549c-.279.267-.633.497-1.012.497v.4c.536 0 .986-.317 1.289-.608.308-.296.498-.597.517-.626l-.34-.212zm.1-.161l-.1.161.34.212.1-.162-.34-.211zm-.1.05l.1.161.34-.211-.1-.162-.34.212zm-2.674.177c.116.152.286.343.487.5.197.152.448.289.721.289v-.4c-.142 0-.306-.075-.476-.206a2.412 2.412 0 01-.415-.426l-.317.243zm1.208-1.032c-.273 0-.523.137-.72.29a2.733 2.733 0 00-.488.499l.317.243a2.43 2.43 0 01.415-.426c.17-.13.334-.206.476-.206v-.4zm1.208.789a2.814 2.814 0 00-.487-.499c-.197-.153-.448-.29-.721-.29v.4c.142 0 .306.075.476.206.165.128.312.292.415.426l.317-.243zm-1.208 1.032c.273 0 .523-.137.72-.29.201-.155.372-.347.488-.499l-.317-.243a2.42 2.42 0 01-.415.426c-.17.131-.334.206-.476.206v.4zm-4.974 2.19l.18-.04-.086-.39-.18.039.086.39zm-.648.063c.35 0 .618-.057.648-.063l-.086-.391a2.87 2.87 0 01-.563.054v.4zm-1.466-.526c.42.44 1.032.526 1.465.526v-.4c-.4 0-.872-.084-1.175-.402l-.29.276zm-.438-2.195a3.747 3.747 0 00-.057.823c.018.43.121.98.495 1.372l.29-.276c-.273-.286-.37-.716-.386-1.113a3.35 3.35 0 01.05-.727l-.392-.079zm.038-.188l-.038.188.392.08.038-.19-.392-.078zm.333-.196l-.18.04.086.39.18-.04-.086-.39zm2.114.463c-.376-.394-.908-.504-1.322-.523a3.292 3.292 0 00-.792.06l.086.39c.018-.003.318-.068.688-.05.374.017.78.115 1.05.399l.29-.276zm.438 2.194c.007-.034.075-.387.057-.822-.018-.43-.12-.98-.495-1.372l-.29.276c.274.286.37.716.386 1.112a3.37 3.37 0 01-.05.728l.392.078zm-.038.189l.038-.189-.392-.078-.038.188.392.079zm-2.143-1.904c.163-.018.376-.025.578.006.206.033.374.1.477.209l.289-.277c-.19-.199-.46-.288-.704-.327-.248-.039-.5-.03-.685-.008l.045.397zm.384.943c-.104-.11-.17-.289-.202-.508a2.602 2.602 0 01-.006-.613l-.398-.041c-.02.193-.028.453.008.71.036.253.12.53.31.728l.288-.276zm1.055.214a2.237 2.237 0 01-.578-.006c-.206-.032-.373-.1-.477-.208l-.289.276c.19.2.46.29.704.327.248.04.5.03.685.009l-.045-.398zm-.384-.942c.104.109.17.288.202.508.03.215.024.44.006.613l.398.04c.02-.192.029-.452-.008-.71-.036-.252-.12-.53-.31-.728l-.288.277zm-.801 2.482l-.18.04.086.39.18-.04-.086-.39zm2.114.463c-.376-.394-.908-.504-1.322-.523a3.287 3.287 0 00-.792.06l.086.39c.018-.003.318-.067.688-.05.374.017.78.115 1.05.399l.29-.276zm.439 2.194a3.74 3.74 0 00.056-.822c-.017-.43-.12-.98-.495-1.372l-.29.276c.274.286.37.716.386 1.113.016.39-.046.707-.05.727l.393.078zm-.038.19l.038-.19-.393-.078-.037.188.392.08zm-.334.195l.18-.04-.085-.39-.18.039.086.39zm-.648.063c.35 0 .618-.056.648-.063l-.086-.391a2.856 2.856 0 01-.562.054v.4zm-1.466-.526c.42.44 1.032.526 1.466.526v-.4c-.402 0-.873-.084-1.176-.402l-.29.276zm-.438-2.195a3.74 3.74 0 00-.057.823c.018.43.121.98.495 1.372l.29-.276c-.273-.286-.369-.716-.386-1.113-.016-.39.046-.707.05-.727l-.392-.079zm.038-.188l-.038.188.392.08.038-.19-.392-.078zm2.143 1.904a2.215 2.215 0 01-.577-.005c-.205-.033-.373-.1-.477-.21l-.29.276c.191.2.46.29.705.329.249.039.5.029.685.008l-.046-.398zm-.384-.943c.104.109.17.289.202.508.03.215.024.441.006.613l.398.041c.02-.192.029-.453-.008-.71-.036-.253-.12-.53-.309-.729l-.29.277zm-1.055-.215c.163-.018.376-.025.578.007.206.032.374.1.477.208l.29-.277c-.191-.199-.46-.288-.705-.327-.248-.038-.5-.03-.685-.008l.045.397zm.385.943c-.105-.11-.171-.289-.203-.508a2.603 2.603 0 01-.006-.613l-.398-.041c-.02.193-.028.453.008.71.037.253.12.53.31.728l.289-.276zM24.59 62.707a1.71 1.71 0 00.143 1.486l.341-.208a1.31 1.31 0 01-.109-1.14l-.375-.138zm2.483-.712c-.852-.7-2.1-.331-2.483.712l.375.138c.293-.798 1.226-1.058 1.855-.541l.253-.31zm.608 1.355a1.68 1.68 0 00-.608-1.355l-.253.309c.303.25.473.625.462 1.035l.4.01zm-.095 3.47l.095-3.47-.4-.011-.095 3.47.4.01zm.308.855a20.684 20.684 0 01-.318-.922l-.38.121c.1.32.209.633.323.94l.375-.14zm-.258-1.94l-.13 1.996.4.026.13-1.995-.4-.026zm2.171-1.44c-1.017-.408-2.099.334-2.17 1.44l.398.027c.056-.86.881-1.394 1.623-1.096l.149-.371zm.76 2.47c.552-.868.211-2.08-.76-2.47l-.15.371c.725.29.999 1.214.572 1.884l.338.215zm-.004.007l.005-.008-.34-.213-.004.008.339.213zm-.003.004l.003-.005-.34-.21-.003.004.34.21zm-.88 1.184c.82-1.096.853-1.14.88-1.184l-.34-.211c-.015.024-.028.043-.86 1.155l.32.24zm-1.136 1.519l1.136-1.52-.32-.239-1.136 1.519.32.24zm1.21 1.978a21.229 21.229 0 01-1.189-2.183l-.362.17c.369.784.776 1.525 1.211 2.225l.34-.212zm-.416-.932l.046 1.047.4-.018-.047-1.047-.4.018zm.54-.611a.578.578 0 00-.54.61l.4-.017c-.005-.111.075-.19.16-.194l-.02-.4zm.594.557a.575.575 0 00-.594-.557l.02.4c.083-.005.17.065.174.175l.4-.018zm.046 1.04l-.046-1.04-.4.018.046 1.04.4-.017zm.756-2.02l-1.129 1.929.346.202 1.129-1.93-.346-.201zm-.138-.677c.21.146.275.443.138.677l.346.201a.913.913 0 00-.255-1.206l-.229.328zm-.704.29c.08-.332.444-.472.704-.29l.229-.328c-.51-.356-1.183-.058-1.322.524l.389.093zm-.692.425a.567.567 0 00.692-.426l-.39-.093c-.025.105-.12.153-.2.132l-.102.387zm1.542-1.913c-.752-.202-1.375.187-1.7.635-.16.222-.264.48-.262.716a.61.61 0 00.102.347c.074.106.184.18.318.215l.102-.387a.148.148 0 01-.091-.056.214.214 0 01-.03-.122c-.002-.124.057-.3.186-.479.255-.354.722-.63 1.27-.482l.105-.387zm.49.23a1.573 1.573 0 00-.49-.23l-.105.387c.132.035.255.092.367.17l.228-.328zm.474 2.249c.446-.762.243-1.75-.474-2.25l-.228.328c.54.377.701 1.132.357 1.72l.345.202zm-1.65 2.82l1.65-2.82-.345-.202-1.65 2.82.345.202zm1.757 1.948a23.409 23.409 0 01-1.768-2.166l-.324.234a23.836 23.836 0 001.798 2.203l.294-.271zm-.76-2.094l.416 2.265.394-.072-.417-2.266-.394.073zm1.742-1.97c-1.082-.122-1.943.882-1.743 1.97l.394-.073c-.157-.85.514-1.588 1.304-1.499l.045-.397zm1.298 2.31c.418-1.018-.218-2.187-1.298-2.31l-.045.398c.794.09 1.299.966.973 1.76l.37.152zM33.4 76.111l1.232-3.002-.37-.152-1.231 3.002.37.152zm5.282 3.79a27.46 27.46 0 01-5.327-4.01l-.279.288a27.857 27.857 0 005.406 4.068l.2-.346zm.197.831a.595.595 0 00-.197-.831l-.2.346c.086.05.12.175.06.27l.337.215zm-.752.19a.558.558 0 00.752-.19l-.338-.214a.158.158 0 01-.214.057l-.2.347zm-5.615-4.23a28.74 28.74 0 005.615 4.23l.2-.347a28.336 28.336 0 01-5.537-4.169l-.278.287zm-3.071.545l3.24-.49-.06-.395-3.24.49.06.395zm-1.81-1.903c-.163 1.094.731 2.066 1.81 1.903l-.06-.396c-.786.119-1.482-.594-1.354-1.448l-.396-.06zm2.283-1.24c-.979-.5-2.12.141-2.283 1.24l.396.059c.127-.851.99-1.307 1.705-.943l.182-.356zm1.312.668l-1.312-.668-.182.356 1.312.668.182-.356zM29.61 73.32c.427.599.885 1.183 1.375 1.75l.303-.26a23.644 23.644 0 01-1.353-1.722l-.325.232zm-3.07.08l3.232.003v-.4l-3.231-.002v.4zm-1.287-.68c.302.43.772.68 1.288.68V73c-.381 0-.731-.183-.961-.51l-.327.23zm.757-2.554c-1.02.374-1.388 1.66-.757 2.554l.327-.23c-.488-.692-.19-1.67.568-1.949l-.138-.375zm1.434.195a1.534 1.534 0 00-1.434-.195l.138.375c.36-.132.747-.08 1.064.146l.232-.326zm1.32.94l-1.32-.94-.232.326 1.32.94.232-.326zm-1.238-1.55c.287.617.604 1.222.95 1.813l.345-.201c-.34-.582-.65-1.175-.933-1.781l-.362.169zm-3.063-.276l3.22.39.048-.397-3.22-.39-.048.397zm-1.28-2.32c-.426 1.016.201 2.19 1.28 2.32l.048-.397c-.793-.096-1.291-.977-.96-1.768l-.369-.154zm2.512-.592c-.82-.74-2.084-.433-2.513.593l.37.154c.326-.782 1.268-.998 1.875-.45l.268-.297zm1.463 1.32l-1.463-1.32-.268.297 1.463 1.32.268-.297zm-.549-.434c.049.147.113.344.228.652l.375-.139c-.112-.301-.175-.493-.223-.638l-.38.125zm-.088-.254c.029.072.053.147.088.254l.38-.125c-.034-.104-.062-.19-.095-.275l-.373.146zm-.797-1.38c.583.948.71 1.155.797 1.38l.373-.146c-.105-.267-.258-.515-.829-1.444l-.34.21zm0-.001l.341-.209v-.001l-.341.21zm-.002-.002l.002.001.34-.209v-.002l-.341.21zm-.99-1.619c.427.702.748 1.223.99 1.619l.341-.21c-.242-.395-.562-.916-.989-1.617l-.341.208zm4.545 11.886c-.296.045-.574-.225-.523-.568l-.396-.059c-.086.582.39 1.112.979 1.023l-.06-.396zm2.139-.323l-2.139.323.06.396 2.138-.323-.06-.396zm-2.004-.614l1.943.99.181-.356-1.943-.99-.181.356zm-.658.37c.05-.34.388-.508.658-.37l.181-.356c-.533-.272-1.147.08-1.235.666l.396.06zm3.953-2.962a.514.514 0 01.07-.371l-.337-.215a.914.914 0 00-.126.659l.393-.073zm.41 2.222l-.41-2.222-.393.073.409 2.221.393-.072zm.47-2.119l-.853 2.08.37.151.853-2.079-.37-.152zm-.81-.474a.444.444 0 01.286-.214c.102-.02.215 0 .315.056.2.114.324.353.21.632l.37.152a.885.885 0 00-.382-1.131.856.856 0 00-.592-.1.842.842 0 00-.544.39l.337.215zm-4.075.054l-2.16-.002v.4l2.16.002v-.4zm-1.903-.91l1.787 1.273.232-.326-1.787-1.272-.232.326zm-.408-.055a.433.433 0 01.408.056l.232-.326a.833.833 0 00-.778-.106l.138.376zm.15.963c-.255 0-.417-.18-.453-.411-.036-.234.065-.465.303-.552l-.138-.376c-.455.167-.619.61-.56.99.06.38.353.748.848.749v-.4zm-1.594-4.788l1.637 1.477.268-.297-1.637-1.477-.268.297zm-.682.098a.446.446 0 01.682-.098l.268-.297a.846.846 0 00-1.287.18l.337.215zm.33.772c-.332-.04-.535-.449-.33-.772l-.337-.215c-.351.552-.028 1.306.62 1.384l.048-.397zm2.147.26l-2.146-.26-.049.397 2.147.26.048-.397zm2.027-2.759a.46.46 0 01.91-.1l.386-.102c-.256-.965-1.63-.828-1.695.176l.399.026zm-.147 2.258l.147-2.258-.4-.026-.146 2.258.4.025zm.972-1.915l-1.332 1.782.32.24 1.333-1.782-.32-.24zm.084-.443a.514.514 0 01-.084.443l.32.24a.915.915 0 00.15-.785l-.386.102zm-3.131-2.397l-.063 2.261.4.011.063-2.261-.4-.011zm-.847-.295a.433.433 0 01.52-.19.48.48 0 01.327.485l.4.01a.879.879 0 00-.6-.875.832.832 0 00-.984.355l.337.215zm-.006.55a.52.52 0 01.006-.55l-.337-.215a.92.92 0 00-.01.973l.341-.208zm1.161 1.908l-1.16-1.908-.343.208 1.162 1.908.341-.208zm52.343 4.382c-.316-.863-1.01-1.575-1.792-2.152-.785-.579-1.68-1.036-2.424-1.385l-.17.362c.738.346 1.604.79 2.356 1.345.756.557 1.377 1.21 1.654 1.968l.376-.138zm-1.666 4.11c.612-.296 1.158-.96 1.485-1.712.328-.754.457-1.64.18-2.398l-.375.138c.23.629.131 1.404-.172 2.1-.303.698-.793 1.271-1.292 1.512l.174.36zm-.353 3.53c.39-1.49.505-2.714.466-3.718l-.4.015c.038.96-.072 2.145-.453 3.602l.387.101zm1.84-2.217c-.867.55-1.59 1.265-2.192 2.044l.317.245c.58-.751 1.27-1.431 2.09-1.95l-.215-.339zm1.824-3.264c-.63.251-1.122.805-1.448 1.434-.326.631-.498 1.364-.468 2.009l.4-.02c-.027-.566.126-1.23.424-1.805.298-.577.73-1.042 1.24-1.247l-.148-.371zm5.339.93c-.745-.35-1.667-.742-2.603-.969-.932-.226-1.905-.294-2.736.039l.149.371c.718-.287 1.593-.24 2.493-.021.897.217 1.79.596 2.527.942l.17-.363zm.253.68a.525.525 0 00-.253-.68l-.17.362c.051.023.084.095.055.161l.368.157zm-3.38 4.414c.83-.332 1.51-1.06 2.059-1.878.552-.82.988-1.756 1.32-2.536l-.367-.157c-.33.773-.755 1.68-1.285 2.47-.533.793-1.157 1.442-1.876 1.73l.149.371zm-2.282-.178c.717.336 1.559.466 2.282.178l-.149-.371c-.586.233-1.308.138-1.963-.169l-.17.362zM79.07 76.2c.26.686.934 1.307 1.704 1.667l.17-.362c-.708-.331-1.288-.887-1.5-1.446l-.374.141zm-2.997 4.476c.668-1.565 1.715-3.302 3.297-4.381l-.225-.33c-1.673 1.141-2.759 2.96-3.44 4.554l.368.157zm-.67.263a.5.5 0 00.67-.263l-.368-.157c-.026.061-.087.079-.133.057l-.17.363zm-.253-.681a.525.525 0 00.252.68l.17-.362c-.05-.023-.083-.095-.055-.161l-.367-.157zm1.49-6.296c.036 1.468-.298 3.503-1.49 6.296l.367.157c1.21-2.832 1.56-4.924 1.523-6.463l-.4.01zm-1.574-.148c.582.272 1.229.401 1.795.342l-.042-.398c-.48.05-1.055-.06-1.584-.307l-.17.363zm-1.642-1.654c.274.749.924 1.318 1.642 1.654l.17-.363c-.656-.306-1.21-.808-1.436-1.428l-.376.137zm.888-5.571c-.333.78-.708 1.743-.924 2.721-.215.974-.279 1.987.036 2.85l.376-.137c-.277-.758-.23-1.682-.021-2.627.208-.94.57-1.878.9-2.65l-.367-.157zm.67-.264a.5.5 0 00-.67.264l.368.157c.026-.063.088-.08.133-.059l.17-.362zm2.525 6.932c.418-.298.788-.832 1.009-1.405.22-.572.309-1.225.113-1.761l-.376.137c.15.41.092.955-.11 1.48-.203.523-.531.983-.868 1.223l.231.326zm-1.257-2.855c.28.479.77 1.314.942 2.716l.397-.048a6.954 6.954 0 00-.994-2.87l-.345.202zm-.017-.03l.017.03.345-.203-.017-.03-.346.203zm-.015-.025l.015.025.344-.203-.014-.025-.345.203zm-.117-.222c.025.068.074.15.117.222l.344-.203a1.338 1.338 0 01-.087-.16l-.374.14zm-.132-.069c.046-.018.108.003.131.067l.376-.137a.5.5 0 00-.655-.301l.148.371zm-.062.158c-.025-.069.011-.137.062-.158l-.148-.371a.524.524 0 00-.29.666l.376-.137zm.169.319a2.482 2.482 0 01-.17-.32l-.374.139c.037.102.112.234.199.383l.345-.203zm.923 2.768a6.369 6.369 0 00-.923-2.769l-.345.203c.264.45.73 1.244.87 2.607l.398-.041zm-3.005-1.369c.194.532.669.954 1.192 1.228.524.275 1.134.42 1.638.36l-.047-.397c-.404.047-.932-.07-1.405-.317-.474-.248-.855-.608-1.002-1.01l-.376.136zm.75-4.787c-.297.717-.608 1.564-.785 2.4-.175.833-.223 1.68.035 2.387l.376-.137c-.22-.602-.19-1.362-.02-2.167.17-.801.47-1.621.763-2.33l-.37-.153zm3.885 2.946c-.258-.708-.835-1.308-1.498-1.807-.665-.501-1.437-.915-2.115-1.243l-.175.36c.67.324 1.415.725 2.05 1.203.638.48 1.143 1.023 1.362 1.624l.376-.137zm1.26 5.885a5.98 5.98 0 012.803-.738l-.007-.4a6.381 6.381 0 00-2.989.787l.193.35zm.1-.215l-.005-.016-.383.112.004.016.384-.112zm.005.014l-.005-.017-.383.118.005.017.383-.118zm.014.041a.984.984 0 01-.015-.042l-.381.12.02.06.376-.138zm2.681 1.26c-.428.172-1.018.078-1.563-.193-.545-.27-.979-.684-1.118-1.067l-.376.137c.189.518.723.995 1.316 1.289.593.294 1.31.438 1.89.206l-.149-.371zm2.697-3.573c-.31.702-.693 1.484-1.15 2.15-.46.669-.977 1.196-1.547 1.424l.148.371c.68-.271 1.254-.878 1.73-1.57.477-.696.872-1.504 1.185-2.213l-.366-.162zm-4.176-.515c.569-.228 1.288-.197 2.055-.02.763.177 1.544.491 2.221.798l.165-.364c-.685-.31-1.495-.638-2.296-.823-.796-.184-1.613-.235-2.294.037l.149.372zm-1.269 2.136c.038-.422.186-.894.415-1.295.231-.404.53-.712.854-.841l-.149-.372c-.44.176-.797.569-1.052 1.015a3.683 3.683 0 00-.466 1.459l.398.034zm2.732-.924a6.998 6.998 0 00-3.02.728l.178.358a6.598 6.598 0 012.85-.686l-.008-.4zm.541.508c-.005-.301-.278-.513-.54-.508l.006.4c.072-.001.133.063.134.116l.4-.008zm-.466.529c.31-.008.47-.277.466-.529l-.4.008a.152.152 0 01-.027.098.058.058 0 01-.048.023l.009.4zm-.053.001l.054-.001-.012-.4-.054.001.011.4zM58.073 33.021l-.154.105.225.33.154-.105-.225-.33zm1.001-1.548c0 .408-.224.782-.478 1.073a3.095 3.095 0 01-.523.475l.225.33c.03-.02.317-.22.6-.542.278-.319.576-.786.576-1.336h-.4zm-1.001-1.548c.015.01.272.188.523.475.254.29.478.665.478 1.073h.4c0-.551-.298-1.018-.577-1.336a3.477 3.477 0 00-.599-.542l-.225.33zm-.154-.105l.154.105.225-.33-.154-.106-.225.33zm.071.105l.154-.105-.225-.33-.154.105.225.33zm-1.001 1.548c0-.408.224-.783.478-1.073a3.03 3.03 0 01.523-.475l-.225-.33a3.48 3.48 0 00-.6.542c-.278.318-.576.785-.576 1.336h.4zm1.001 1.548a3.092 3.092 0 01-.523-.475c-.254-.29-.478-.665-.478-1.073h-.4c0 .55.298 1.017.577 1.336.282.323.57.522.599.542l.225-.33zm.154.105l-.154-.105-.225.33.154.105.225-.33zm-.241-2.905c-.145.122-.328.3-.477.51-.146.207-.273.465-.273.742h.4c0-.158.075-.334.2-.511.123-.174.28-.328.407-.436l-.257-.305zm1.007 1.252c0-.277-.127-.535-.273-.742a2.815 2.815 0 00-.477-.51l-.257.305c.128.108.284.262.407.436.125.177.2.353.2.51h.4zm-.75 1.252c.146-.122.328-.3.477-.51.145-.207.273-.466.273-.742h-.4c0 .158-.075.334-.2.51-.123.174-.28.328-.407.436l.257.306zm-1.007-1.252c0 .277.127.535.273.741.149.21.331.389.477.511l.257-.306a2.424 2.424 0 01-.407-.435c-.125-.177-.2-.354-.2-.511h-.4zm.702 3.643c.01-.017.18-.286.454-.549.279-.267.632-.497 1.012-.497v-.4c-.536 0-.986.317-1.289.608a3.558 3.558 0 00-.517.626l.34.212zm-.1.161l.1-.161-.34-.212-.1.162.34.211zm.1-.05l-.1-.161-.34.211.1.162.34-.212zm1.466 1.046c-.38 0-.733-.23-1.012-.497a3.168 3.168 0 01-.454-.549l-.34.212c.019.03.209.33.517.626.303.29.753.608 1.289.608v-.4zm1.466-1.046c-.01.017-.18.286-.454.549-.28.267-.633.497-1.012.497v.4c.535 0 .985-.318 1.288-.608a3.58 3.58 0 00.517-.626l-.34-.212zm.1-.161l-.1.161.34.212.1-.162-.34-.211zm-.1.05l.1.161.34-.211-.1-.162-.34.212zM59.32 34.07c.38 0 .733.23 1.012.497.273.263.443.532.454.549l.34-.212a3.556 3.556 0 00-.518-.626c-.303-.29-.753-.608-1.288-.608v.4zm-1.209 1.223c.116.151.287.343.488.499.197.152.448.29.72.29v-.4c-.142 0-.306-.075-.475-.206a2.417 2.417 0 01-.416-.427l-.317.244zm1.209-1.032c-.274 0-.525.137-.722.29a2.758 2.758 0 00-.487.499l.318.242c.102-.134.248-.297.413-.425.17-.13.334-.206.478-.206v-.4zm1.209.79a2.814 2.814 0 00-.488-.5c-.197-.153-.448-.29-.721-.29v.4c.142 0 .306.075.476.206.165.129.312.292.415.427l.317-.244zm-1.21 1.03c.274 0 .526-.136.723-.289.2-.155.37-.347.487-.499l-.318-.242a2.388 2.388 0 01-.414.425c-.169.13-.333.206-.477.206v.4zm2.953-5.212l.18.04.086-.391-.18-.04-.086.391zm-1.739.348c.271-.284.677-.382 1.05-.4a2.9 2.9 0 01.689.052l.086-.39a3.293 3.293 0 00-.792-.06c-.414.018-.946.128-1.322.522l.289.276zm-.336 1.84a3.358 3.358 0 01-.05-.727c.017-.397.113-.827.386-1.113l-.29-.276c-.373.392-.477.943-.495 1.372-.018.435.05.788.057.823l.392-.08zm.038.188l-.038-.188-.392.079.038.188.392-.078zm.027-.116l-.18-.04-.086.391.18.04.086-.39zm.563.054c-.31 0-.547-.05-.563-.054l-.086.39c.031.008.299.064.649.064v-.4zm1.176-.402c-.303.318-.775.402-1.176.402v.4c.434 0 1.046-.087 1.465-.526l-.289-.276zm.336-1.84c.004.02.066.337.05.728-.017.396-.113.826-.386 1.112l.29.276c.374-.392.477-.943.495-1.372a3.748 3.748 0 00-.057-.822l-.392.078zm-.038-.188l.038.188.392-.078-.038-.19-.392.08zm-1.797 2.222c.185.021.436.03.685-.008.245-.039.514-.128.704-.327l-.289-.277c-.103.108-.27.176-.477.209a2.242 2.242 0 01-.578.006l-.046.397zm.14-1.616c-.19.198-.273.476-.31.729a2.968 2.968 0 00-.007.71l.398-.043a2.572 2.572 0 01.006-.61c.03-.22.098-.4.203-.51l-.29-.276zm1.39-.336a2.642 2.642 0 00-.685.009c-.245.038-.514.127-.704.327l.289.276c.103-.108.27-.176.477-.208.202-.032.415-.025.578-.006l.045-.398zm-.14 1.617c.188-.198.272-.476.308-.728.037-.257.028-.518.008-.71l-.398.04a2.58 2.58 0 01-.006.613c-.031.22-.097.399-.202.508l.29.277zm-21.614 2.227c0 .034-.008.576-.215 1.176s-.602 1.226-1.357 1.492l.133.377c.916-.323 1.374-1.08 1.602-1.738a4.42 4.42 0 00.237-1.307h-.4zm-.005-.02a.044.044 0 01.005.02h.4a.434.434 0 00-.076-.247l-.33.227zM37.58 33.7c.75-.266 1.4-.013 1.887.335a3.565 3.565 0 01.785.782l.013.018a.249.249 0 00.003.006l.001.001.336-.217a3.928 3.928 0 00-.905-.915c-.546-.392-1.334-.713-2.254-.387l.134.377zm-1.213.71a4.02 4.02 0 011.215-.71l-.138-.376a4.422 4.422 0 00-1.336.781l.259.305zm-.069-1.704a4.808 4.808 0 01-.25 1.488l.379.128a5.214 5.214 0 00.271-1.613l-.4-.004zm-1.84-2.457c.028.01.495.185.952.581.454.394.888.998.888 1.878h.4c0-1.03-.513-1.735-1.025-2.18a3.742 3.742 0 00-1.08-.655l-.136.376zm.006 0h-.008l.138-.376a.389.389 0 00-.268 0l.138.376zm-1.842 2.47c0-.886.434-1.492.888-1.888a3.34 3.34 0 01.953-.582l-.136-.376a3.73 3.73 0 00-1.08.657c-.512.446-1.025 1.154-1.025 2.189h.4zm.25 1.486a4.842 4.842 0 01-.25-1.489l-.4.005a5.23 5.23 0 00.272 1.611l.379-.127zm-1.538-.506c.44.163.852.407 1.219.722l.26-.304a4.434 4.434 0 00-1.34-.793l-.14.375zm-2.683 1.144l.001-.002.004-.006.012-.018a3.488 3.488 0 01.206-.257c.14-.156.336-.35.578-.525.486-.348 1.134-.6 1.885-.335l.133-.377c-.919-.326-1.706-.005-2.251.387-.543.39-.872.865-.904.915l.336.218zm-.009.024c0-.009.003-.016.006-.02l-.33-.227a.434.434 0 00-.076.247h.4zm1.572 2.668c-.754-.266-1.15-.892-1.357-1.492a4.045 4.045 0 01-.215-1.176h-.4c0 .056.01.648.238 1.307.227.658.685 1.415 1.601 1.738l.133-.377zm.514.136a3.774 3.774 0 01-.515-.137l-.13.379c.187.064.377.114.57.15l.075-.392zm-1.315 2.61c0-1.213.818-1.908 1.38-2.242l-.205-.344c-.61.363-1.575 1.163-1.575 2.586h.4zm.25 1.486a4.842 4.842 0 01-.25-1.488l-.4.004c.006.55.097 1.095.271 1.612l.38-.128zm-1.539-.506c.44.164.853.407 1.22.722l.26-.304a4.434 4.434 0 00-1.34-.793l-.14.375zm-2.683 1.144l.002-.002.003-.006a3.559 3.559 0 01.796-.8c.486-.348 1.135-.6 1.885-.335l.134-.377c-.92-.325-1.706-.004-2.252.387-.542.39-.871.866-.903.915l.335.218zm-.008.024c0-.009.002-.015.005-.02l-.33-.227a.435.435 0 00-.075.247h.4zm1.572 2.668c-.755-.266-1.15-.892-1.357-1.492a4.042 4.042 0 01-.215-1.176h-.4c0 .056.01.648.237 1.307.228.659.686 1.415 1.602 1.738l.133-.377zm1.362.2a3.741 3.741 0 01-1.364-.2l-.13.378c.488.167.999.242 1.51.22l-.016-.399zm-.876 1.397a4.258 4.258 0 011.002-1.036l-.236-.324a4.656 4.656 0 00-1.096 1.134l.33.226zm.169 3.179a3.933 3.933 0 01-.467-1.102c-.153-.613-.172-1.373.3-2.079l-.334-.222c-.555.833-.523 1.721-.354 2.398.17.676.48 1.162.518 1.22l.337-.215zm.001.002l-.001-.002-.337.216.001.002.337-.216zm-.006-.002c.007.003.009.006.008.005l-.34.21c.048.078.123.14.215.168l.117-.383zm.945.142a3.123 3.123 0 01-.944-.141l-.119.382a3.52 3.52 0 001.065.16l-.002-.4zm2.458-2.288c-.199.728-.486 1.3-.882 1.688-.39.383-.9.6-1.575.6v.4c.772 0 1.384-.253 1.855-.714.465-.457.779-1.103.988-1.87l-.386-.104zm2.842 2.288c-.672 0-1.179-.215-1.568-.597-.396-.387-.685-.959-.889-1.692l-.385.107c.214.77.529 1.416.994 1.871.47.46 1.08.711 1.848.711v-.4zm.943-.143a3.12 3.12 0 01-.943.143v.4c.36.001.717-.053 1.062-.162l-.12-.381zm-.007.004s.001-.003.008-.005l.117.383a.387.387 0 00.216-.169l-.34-.21zm.171-3.186c.474.71.452 1.476.296 2.092a3.875 3.875 0 01-.462 1.087l.331.224c.033-.049.346-.534.518-1.213.173-.68.21-1.575-.35-2.412l-.333.222zm-1-1.035c.385.282.723.633 1.002 1.037l.33-.226a4.731 4.731 0 00-1.095-1.133l-.236.322zm1.492-.559a3.76 3.76 0 01-1.365.198l-.016.4a4.161 4.161 0 001.51-.219l-.13-.379zm1.558-2.463c-.024.281-.1.793-.331 1.288-.23.493-.607.956-1.23 1.176l.133.377c.755-.266 1.2-.827 1.46-1.384a4.36 4.36 0 00.367-1.423l-.399-.034zm.995-.324a3.07 3.07 0 01-.804.141l.017.4a3.51 3.51 0 00.907-.159l-.12-.382zm-.006.005s.001-.003.008-.005l.117.383a.388.388 0 00.215-.169l-.34-.21zm.17-3.186c.475.709.453 1.476.296 2.092a3.872 3.872 0 01-.462 1.086l.332.224c.032-.048.346-.534.518-1.212.173-.68.209-1.576-.35-2.412l-.333.222zm-.999-1.035c.384.282.723.632 1.001 1.037l.33-.227a4.731 4.731 0 00-1.094-1.133l-.237.323zm1.491-.559c-.441.15-.903.217-1.364.198l-.017.4a4.162 4.162 0 001.51-.22l-.129-.378zm-.836 4.375a2.949 2.949 0 01-.71.099l.005.4c.372-.006.676-.077.81-.113l-.105-.386zm.017-2.517c.341.51.357 1.077.258 1.571-.1.494-.311.894-.395 1.038l.346.201c.095-.163.33-.605.441-1.16.112-.556.103-1.244-.318-1.873l-.332.223zm-1.63-1.394c.64.314 1.2.793 1.633 1.399l.326-.233a4.797 4.797 0 00-1.783-1.525l-.176.36zm-1.282-.386c.432.174.877.309 1.33.403l.08-.392a7.355 7.355 0 01-1.261-.382l-.15.371zm1.484 1.573l-1.243-1.869-.333.221 1.243 1.87.333-.222zm.053.412a.437.437 0 00-.063-.425l-.314.248c.005.006.009.02.004.033l.373.144zm-.346.263a.405.405 0 00.346-.263l-.373-.144a.022.022 0 01-.006.01s0-.002.004-.002l.03.4zm-.38-.212a.4.4 0 00.38.212l-.03-.399a.01.01 0 01.006.001s-.002 0-.004-.005l-.351.191zm-.428-.639l.438.655.332-.223-.437-.654-.333.223zm-.679-1.265a.195.195 0 01-.19-.03c-.014-.012-.02-.02-.01-.009.014.019.044.06.104.148.119.174.343.51.775 1.157l.333-.223c-.432-.646-.658-.984-.778-1.16a3.817 3.817 0 00-.119-.168.34.34 0 00-.05-.053.204.204 0 00-.207-.036l.142.374zm.019-.008l.002-.001-.183-.356-.002.001.183.356zm-.097.024a.195.195 0 00.08-.017.265.265 0 00.017-.007l.005-.003.002-.001.001-.001h.001l-.1-.173-.102-.173h.002l.002-.002c.002 0 .003-.002.005-.003a.16.16 0 01.013-.006c.005-.002.034-.014.074-.014v.4zm.76 3.11c-.477-.954-.608-2.199-.56-3.302l-.4-.017c-.049 1.134.081 2.457.603 3.498l.358-.179zm1.96 1.217a4.064 4.064 0 00-.722-.732c-.357-.278-.833-.541-1.397-.594l-.038.398c.462.044.868.261 1.19.512.32.25.547.523.649.657l.319-.24zm-3.055-1.816c.077.277.167.538.272.78l.367-.16a5.526 5.526 0 01-.254-.727l-.386.107zm.03.963c.143-.291.26-.615.355-.964l-.386-.106c-.09.33-.198.63-.328.895l.36.175zm-.063-.348c-.065.024-.13.05-.194.076l.156.368a3.82 3.82 0 01.175-.069l-.137-.375zm.46-.114c-.15.021-.302.058-.458.113l.133.377a1.94 1.94 0 01.38-.094l-.054-.396zm-1.359.48c-.05.074-.102.14-.157.201l.297.268c.068-.075.133-.158.193-.248l-.333-.222zm.721-2.146a4.918 4.918 0 01-.724 2.15l.339.212a5.317 5.317 0 00.783-2.324l-.398-.038zm-.06-1.43a9.79 9.79 0 00.06 1.473l.398-.047a9.158 9.158 0 01-.058-1.411l-.4-.015zm-.72 1.746l1.087-1.627-.333-.223-1.087 1.627.332.223zm.212.848c0-.388-.073-.731-.193-1.033l-.372.147c.102.256.165.55.165.886h.4zm-.272 1.614a5.208 5.208 0 00.271-1.612l-.4-.004a4.811 4.811 0 01-.25 1.488l.38.128zm-.005-.46a4.526 4.526 0 00-.314.243l.259.305a4.28 4.28 0 01.286-.221l-.23-.327zm.06-3.465l-.546.815.333.222.545-.814-.332-.223zm.521-.558a.192.192 0 01-.036-.16c.006-.023.014-.036.01-.03a1.536 1.536 0 01-.053.085c-.067.104-.196.297-.442.663l.332.223c.245-.365.377-.561.446-.668a2.27 2.27 0 00.071-.116.279.279 0 00.026-.067.208.208 0 00-.038-.175l-.316.245zm.02.022l.003.002.271-.293-.002-.003-.272.294zm.008.006l.001.002.254-.31h-.002l-.254.308zm-.012-.01l.276-.29h-.001l-.275.29zm-.014-.014l.302-.263h-.001l-.301.263zm-.016-.021l.332-.223v-.001l-.332.224zm-1.539.864a6.68 6.68 0 011.76-.784l-.11-.385a7.077 7.077 0 00-1.867.833l.217.336zm.822.53a3.261 3.261 0 00-.81-.858l-.24.32c.25.186.51.434.712.752l.337-.214zm3.228-6.068c0-.776-.364-1.341-.76-1.724a3.44 3.44 0 00-.99-.66l-.159.368c.144.062.527.247.872.58.342.33.638.798.638 1.436h.4zm-1.44 3.71c.749-1.003 1.443-2.371 1.443-3.711h-.4c0 1.215-.637 2.5-1.364 3.472l.32.24zm-.206.075h.003l.085-.39h-.002l-.086.39zm.038.005h.004l.002-.4h-.004l-.002.4zm-.014 0h.005l.02-.4h-.004l-.02.4zm-.203-1.145c-.001.435-.002.672 0 .8.001.063.003.108.006.139.001.013.005.04.016.07a.208.208 0 00.138.128l.107-.385a.192.192 0 01.129.116c.008.021.008.036.008.029a1.435 1.435 0 01-.004-.102 71.716 71.716 0 010-.794h-.4zm0 0h.4-.4zm.001-1.539l-.001 1.538h.4l.001-1.538h-.4zm-.004-.022a.01.01 0 01-.004 0h.001c.003.004.007.01.007.022h.4c0-.217-.165-.422-.404-.422v.4zm-.004.022c0-.011.005-.018.007-.021l.001-.001a.01.01 0 01-.004 0v-.4c-.238 0-.404.205-.404.422h.4zm0 2.308v-2.308h-.4v2.308h.4zm-1.18-1.001c.297.343.568.713.81 1.105l.34-.21a8.897 8.897 0 00-.848-1.157l-.302.262zm-.646-2.408c.025.832.237 1.646.62 2.37l.354-.187a5.017 5.017 0 01-.574-2.195l-.4.012zm1.75-2.389a3.484 3.484 0 00-.99.662c-.396.382-.76.947-.76 1.72h.4c0-.634.296-1.101.638-1.433.345-.333.728-.52.872-.582l-.16-.367zm-5.732 4.625c.014.189.065.693.275 1.213.211.519.593 1.078 1.284 1.326l.135-.377c-.543-.194-.86-.638-1.048-1.1a3.751 3.751 0 01-.247-1.091l-.399.03zm2.694-1.209c-.697-.245-1.318-.036-1.775.255-.456.289-.77.67-.88.822l.322.236a3.06 3.06 0 01.772-.72c.396-.252.887-.406 1.427-.215l.134-.378zm2.815 2.65c-.644-1.086-1.628-2.23-2.815-2.65l-.134.378c1.055.373 1.978 1.417 2.605 2.475l.344-.204zm-.174.107l.195.045v.003a.186.186 0 01-.029.062l-.327-.231a.173.173 0 00-.028.057.373.373 0 00-.004.012l-.001.004v.003l.194.045zm.188.069l.001-.004-.378-.13-.002.004.38.13zm-.926-.1c.305.108.473.168.565.199.044.014.08.026.106.032.011.002.04.008.072.006a.207.207 0 00.164-.096l-.34-.212a.194.194 0 01.19-.089H34l-.014-.005a47.199 47.199 0 01-.608-.212l-.133.377zm-1.507-.532l1.507.532.133-.377-1.507-.533-.133.378zm.009.013c.002-.01.006-.011.006-.011h-.007l.118-.382a.401.401 0 00-.5.278l.383.115zm.006.033c.002 0-.002 0-.005-.007a.038.038 0 01-.001-.026l-.383-.115a.427.427 0 00.24.52l.149-.372zm2.012.71l-2.02-.713-.133.377 2.02.714.133-.378zm-1.224.878a7.31 7.31 0 011.216-.498l-.118-.382c-.44.135-.87.31-1.282.525l.184.355zm-2.327-.078a4.36 4.36 0 002.279.096l-.088-.39a3.96 3.96 0 01-2.07-.087l-.12.381zm3.842-.576c0 .217.166.422.404.422v-.4h.004c.001.001 0 .001 0 0a.03.03 0 01-.008-.022h-.4zm.404-.421c-.238 0-.404.205-.404.421h.4c0-.01.005-.018.007-.02l.001-.002a.01.01 0 01-.004 0v-.4zm.404.421c0-.216-.165-.421-.404-.421v.4a.01.01 0 01-.004-.001l.001.001a.03.03 0 01.007.021h.4zm-.404.422c.239 0 .404-.205.404-.422h-.4a.03.03 0 01-.007.021l-.001.002.004-.001v.4zm.414-.346l.001.004.39-.087v-.004l-.39.087zm.86-.505a53.77 53.77 0 00-.624.221 1.263 1.263 0 00-.111.046.264.264 0 00-.062.041.208.208 0 00-.067.161l.4-.016a.192.192 0 01-.086.167l-.005.004h-.002.001l.004-.002.014-.006.053-.02c.096-.036.276-.099.617-.219l-.132-.377zm0 0l.132.377-.132-.377zm1.44-.508c-.66.234-1.12.395-1.44.508l.133.377c.32-.113.78-.274 1.44-.508l-.134-.377zm-.002-.03a.038.038 0 01-.002.026c-.003.008-.006.008-.004.007l.148.372a.427.427 0 00.24-.52l-.382.115zm0-.01h-.004l-.003-.001s.004.002.007.01l.383-.114a.401.401 0 00-.5-.278l.118.382zm-2.012.701l2.02-.704-.132-.378-2.02.705.132.377zm.489-1.49a8.669 8.669 0 01-.717 1.184l.324.234c.281-.39.532-.804.75-1.238l-.357-.18zm1.917-1.414a4.734 4.734 0 00-1.892 1.375l.307.257c.476-.568 1.07-1 1.732-1.26l-.147-.372zm2.66 1.07a3.613 3.613 0 00-.887-.82c-.458-.292-1.077-.502-1.768-.252l.136.376c.533-.192 1.02-.04 1.418.213.399.254.683.595.782.726l.319-.242zm-1.52 2.676c.696-.245 1.08-.803 1.291-1.324a4.01 4.01 0 00.27-1.22l-.4-.022c-.01.172-.054.63-.24 1.092-.188.462-.506.904-1.053 1.096l.132.378zm-3.712-.34c1.118.473 2.533.77 3.715.339l-.138-.376c-1.04.38-2.339.127-3.422-.33l-.155.368zm.076-.19l-.19.06v-.001l-.001-.001v-.003l-.003-.006c0-.001-.004-.019-.004-.043h.4c0-.026-.006-.046-.006-.05a.28.28 0 00-.004-.013v-.002l-.192.06zm-3.898 1.304c.143.061.526.246.871.58.342.33.638.798.638 1.435h.4c0-.776-.364-1.341-.76-1.723a3.438 3.438 0 00-.992-.66l-.157.368zm-1.352 2.015c0-.635.296-1.102.638-1.433.345-.334.728-.52.873-.583l-.16-.367a3.485 3.485 0 00-.99.662c-.396.383-.76.947-.76 1.72h.4zm.574 2.19a5.017 5.017 0 01-.574-2.196l-.4.012a5.43 5.43 0 00.62 2.37l.354-.186zm.823 1.12a8.882 8.882 0 00-.848-1.158l-.303.262c.298.344.569.713.81 1.106l.341-.21zm-.37-2.203v2.308h.4v-2.308h-.4zm.404-.421a.412.412 0 00-.404.421h.4a.03.03 0 01.007-.021c.001-.001.002-.002 0-.001h-.003v-.4zm.404.421c0-.217-.166-.421-.404-.421v.4l-.005-.001.002.001c.002.003.007.01.007.021h.4zm-.002 1.54l.002-1.54h-.4l-.002 1.54h.4zm-.132.751a.192.192 0 01.128.116c.008.021.009.037.008.03a1.495 1.495 0 01-.003-.102 47.945 47.945 0 010-.794h-.4c-.002.434-.002.671 0 .8 0 .061.002.106.005.137a.276.276 0 00.016.07.208.208 0 00.139.129l.107-.386zm-.04-.007h-.003l-.021.4h.004l.02-.4zm.076.017c-.05-.021-.094-.017-.095-.017l.02.4c.002 0-.037.004-.081-.015l.156-.368zm1.124-3.408c0 1.215-.636 2.5-1.362 3.472l.32.24c.75-1.003 1.442-2.372 1.442-3.712h-.4zm-5.549 4.405c-.542-.195-.86-.638-1.047-1.1a3.744 3.744 0 01-.247-1.092l-.4.03c.015.188.065.693.276 1.212.21.52.593 1.078 1.283 1.326l.135-.376zm2.063.084a3.96 3.96 0 01-2.07-.087l-.12.382a4.36 4.36 0 002.278.095l-.088-.39zm1.235-.508c-.44.135-.87.311-1.283.525l.184.355c.392-.203.799-.37 1.216-.498l-.117-.382zm-2.028-.333l2.02.713.133-.377-2.02-.714-.133.378zm-.248-.523a.427.427 0 00.24.52l.15-.372c.001.001-.002 0-.005-.007a.038.038 0 01-.002-.026l-.383-.115zm.5-.278a.401.401 0 00-.5.278l.383.115c.003-.009.007-.011.007-.011h-.008l.119-.382zm1.515.535l-1.507-.532-.133.377 1.506.532.134-.377zm.002 0l-.137.377.137-.376zm-.003 0l-.131.378.131-.378zm.003 0l-.137.377.137-.376zm.431.307a.194.194 0 01.184-.09h.004l-.013-.004a2.072 2.072 0 01-.05-.016l-.558-.197-.133.377c.304.108.472.168.565.199.043.015.079.026.106.032.01.002.039.008.072.007a.206.206 0 00.163-.097l-.34-.211zm-.013.024v.002l.367.158v-.001l-.367-.159zm-.01.028v.002l.388.099v-.002l-.387-.099zm.004-.011v.003l.382.115v-.003l-.382-.115zm.03-.06a.208.208 0 00-.026.048l.375.138a.185.185 0 01-.023.044l-.326-.23zM28 41.681c1.054.374 1.977 1.418 2.605 2.477l.344-.204c-.644-1.086-1.629-2.23-2.816-2.65l-.133.378zm-2.2.936a3.06 3.06 0 01.773-.72c.395-.252.886-.406 1.427-.215l.133-.377c-.696-.246-1.317-.037-1.775.254-.455.29-.77.67-.88.822l.323.236zm4.327 6.195c-.338.508-.821.694-1.272.743a2.866 2.866 0 01-1.015-.085l-.105.386c.172.047.637.154 1.164.097.531-.058 1.14-.286 1.561-.919l-.333-.222zm.722-2.144a4.919 4.919 0 01-.724 2.149l.338.213a5.318 5.318 0 00.784-2.325l-.398-.037zm-.06-1.43c-.018.491.002.984.06 1.472l.398-.047a9.157 9.157 0 01-.058-1.41l-.4-.015zm-.883 1.987l1.25-1.869-.333-.222-1.25 1.869.333.222zm-.563.083c.176.137.42.1.554-.07l-.315-.248-.002.002h.008c.001 0 .002 0 0 0l-.245.316zm-.11-.547a.434.434 0 00.11.547l.246-.316a.027.027 0 01-.007-.015.038.038 0 01.003-.024l-.351-.192zm.831-1.241c-.194.288-.459.684-.82 1.226l.332.222.82-1.226-.332-.222zm0 0l.333.222-.333-.222zm.002-.002l.33.226-.33-.226zm.519-.556a.192.192 0 01-.036-.16c.005-.022.013-.036.01-.03a1.455 1.455 0 01-.053.085c-.067.103-.196.296-.442.663l.332.222c.245-.364.377-.56.446-.667a1.65 1.65 0 00.07-.116.28.28 0 00.027-.067.208.208 0 00-.038-.175l-.316.245zm.014.017l.002.001.284-.281-.002-.002-.284.282zm.016.014l.001.001.25-.312-.25.311zm-.051-.058c.016.026.034.043.038.047a.197.197 0 00.014.012l.124-.157.124-.157.001.001.001.001.003.002a.172.172 0 01.007.006c.001.002.018.017.032.041l-.344.204zm-2.741 2.018c.647-.968 1.859-1.61 2.968-1.928l-.11-.384c-1.153.33-2.468 1.01-3.19 2.09l.332.222zm.137 2.61a3.568 3.568 0 01-.395-1.039c-.1-.493-.083-1.061.258-1.571l-.332-.223c-.421.629-.43 1.317-.318 1.873.111.555.346.997.441 1.16l.346-.2zm3.292-5.063h.003a.032.032 0 01-.007-.021h-.4c0 .216.165.421.404.421v-.4zm.004-.021a.031.031 0 01-.007.02l-.002.002.005-.001v.4c.238 0 .404-.205.404-.421h-.4zm-.004-.022h-.005.002c.002.003.007.01.007.022h.4c0-.217-.166-.422-.404-.422v.4zm-.004.022c0-.012.004-.019.007-.022.001-.001.002-.001 0 0h-.003v-.4c-.239 0-.404.205-.404.422h.4zm3.432 2.474c.342.51.358 1.078.258 1.571-.1.495-.31.894-.395 1.038l.346.202c.095-.164.33-.606.441-1.161.112-.556.104-1.244-.317-1.873l-.333.223zm-1.63-1.394c.64.314 1.201.794 1.634 1.399l.325-.233a4.795 4.795 0 00-1.782-1.525l-.176.36zm-1.282-.386c.432.175.877.31 1.33.403l.081-.392a7.347 7.347 0 01-1.262-.382l-.15.371zm1.484 1.573l-1.243-1.869-.333.222 1.243 1.869.333-.222zm.053.413a.437.437 0 00-.062-.426l-.314.248c.005.006.008.02.003.034l.373.144zm-.345.262c.16-.012.29-.12.346-.262l-.374-.144a.02.02 0 01-.005.008h.003l.03.398zm-.38-.211a.4.4 0 00.38.211l-.03-.398a.01.01 0 01.005 0l-.004-.005-.351.192zm-.428-.639l.437.654.333-.222-.437-.654-.333.222zm0 0l.333-.222-.333.222zm0 0l.333-.222-.333.221zm0 0l.332-.222-.332.221zm0-.001l.332-.221-.333.221zm0 .002l.331-.226-.33.225zm-.68-1.267a.195.195 0 01-.19-.03c-.014-.012-.02-.02-.01-.009.015.019.044.06.105.148.118.174.342.51.774 1.156l.333-.222a186.02 186.02 0 00-.777-1.16 3.71 3.71 0 00-.12-.168.343.343 0 00-.05-.053.205.205 0 00-.207-.036l.143.374zm.02-.008l.001-.001-.183-.356-.002.001.183.356zm.006-.004h.001l-.199-.347.198.347zm-.017.009h.001l-.167-.364h-.001l.167.364zm-.052.016h.003l-.07-.395h-.002l.069.395zm.947 3.494c-.658-.983-.836-2.422-.782-3.683l-.4-.017c-.055 1.29.12 2.833.85 3.922l.332-.222zm2.287.658a2.86 2.86 0 01-1.015.085c-.45-.049-.934-.235-1.272-.743l-.333.222c.422.633 1.03.861 1.562.919.527.057.99-.05 1.164-.097l-.106-.386zm-2.606-5v-.003l-.391.087v.004l.391-.087zm.006.05a.22.22 0 00-.006-.05.167.167 0 00-.003-.01v-.004h-.001v-.001l-.191.06-.191.06v-.003l-.001-.002a.174.174 0 01-.007-.049h.4zm3.3.147c-1.04.38-2.34.127-3.422-.33l-.156.368c1.118.472 2.534.769 3.715.338l-.137-.376zm1.295-2.188a3.61 3.61 0 01-.24 1.091c-.187.462-.506.904-1.053 1.096l.133.378c.696-.245 1.08-.803 1.29-1.324a4.01 4.01 0 00.27-1.219l-.4-.022zm-2.16-.806c.533-.193 1.021-.04 1.418.212.4.254.683.595.783.726l.318-.242a3.612 3.612 0 00-.886-.821c-.458-.291-1.078-.502-1.768-.252l.136.377zm-1.726 1.258c.476-.569 1.07-1 1.732-1.26l-.146-.373a4.731 4.731 0 00-1.892 1.376l.306.257zm-.724 1.2c.28-.39.532-.805.75-1.24l-.358-.179a8.669 8.669 0 01-.717 1.184l.325.235zm1.791-1.01l-2.02.704.132.377 2.02-.704-.132-.378zm.507.275a.401.401 0 00-.5-.278l.118.382h-.008s.004.002.007.011l.383-.115zm-.24.52a.427.427 0 00.24-.52l-.383.115a.038.038 0 01-.001.026c-.004.008-.007.008-.005.007l.149.372zm-1.448.51l1.44-.507-.133-.378c-.66.234-1.12.395-1.44.508l.133.377zm0 0l-.133-.377.134.377zm-.597.077a.192.192 0 01-.09.17h-.002c.002 0 .003 0 .004-.002.004 0 .008-.003.015-.005l.053-.02c.096-.036.276-.1.617-.22l-.133-.377c-.338.119-.524.184-.624.221a1.262 1.262 0 00-.111.046.262.262 0 00-.062.041.208.208 0 00-.067.161l.4-.015zm29.959 7.468a.61.61 0 00.6-.62h-.4c0 .13-.098.22-.2.22v.4zm-13.64 0h13.64v-.4H48.38v.4zm-.602-.62c0 .333.26.62.601.62v-.4c-.102 0-.201-.09-.201-.22h-.4zm.601-.62a.61.61 0 00-.601.62h.4c0-.13.099-.22.201-.22v-.4zm13.64 0H48.38v.4h13.64v-.4zm.602.62a.61.61 0 00-.601-.62v.4c.102 0 .2.09.2.22h.4zm-13.038 5.241c.34 0 .6-.286.6-.62h-.4c0 .13-.098.22-.2.22v.4zm-1.204 0h1.204v-.4h-1.204v.4zm-.601-.62c0 .334.26.62.601.62v-.4c-.102 0-.201-.09-.201-.22h-.4zm.601-.62a.61.61 0 00-.601.62h.4c0-.13.099-.22.201-.22v-.4zm1.204 0h-1.204v.4h1.204v-.4zm.6.62a.61.61 0 00-.6-.62v.4c.102 0 .2.09.2.22h.4zm3.412 3.581a.61.61 0 00-.602.62h.4c0-.13.1-.22.202-.22v-.4zm1.203 0h-1.203v.4h1.203v-.4zm.601.62a.61.61 0 00-.6-.62v.4c.102 0 .2.09.2.22h.4zm-.6.62a.61.61 0 00.6-.62H55c0 .13-.098.22-.2.22v.4zm-1.204 0h1.203v-.4h-1.203v.4zm-.602-.62c0 .334.261.62.602.62v-.4c-.103 0-.202-.09-.202-.22h-.4zm1.805-3.58a.61.61 0 00.601-.621H55c0 .13-.098.22-.2.22v.4zm-3.61 0h3.61v-.4h-3.61v.4zm-.602-.621c0 .334.26.62.602.62v-.4c-.103 0-.202-.09-.202-.22h-.4zm.602-.62a.61.61 0 00-.602.62h.4c0-.13.099-.22.202-.22v-.4zm3.61 0h-3.61v.4h3.61v-.4zm.601.62a.61.61 0 00-.6-.62v.4c.102 0 .2.09.2.22h.4zm-7.02 3.581a.61.61 0 00-.601.62h.4c0-.13.099-.22.201-.22v-.4zm3.61 0h-3.61v.4h3.61v-.4zm.602.62a.61.61 0 00-.601-.62v.4c.102 0 .201.09.201.22h.4zm-.601.62a.61.61 0 00.601-.62h-.4c0 .13-.099.22-.201.22v.4zm-3.61 0h3.61v-.4h-3.61v.4zm-.602-.62c0 .334.26.62.601.62v-.4c-.102 0-.201-.09-.201-.22h-.4zm.601 4.422a.611.611 0 00-.601.62h.4c0-.13.099-.22.201-.22v-.4zm5.617 0h-5.617v.4h5.617v-.4zm.601.62a.61.61 0 00-.601-.62v.4c.102 0 .201.09.201.22h.4zm-.601.62a.61.61 0 00.601-.62h-.4c0 .13-.099.22-.201.22v.4zm-5.617 0h5.617v-.4h-5.617v.4zm-.601-.62c0 .334.26.62.601.62v-.4c-.102 0-.201-.09-.201-.22h-.4zm12.236-10.703c-2.557 0-4.613 2.167-4.613 4.821h.4c0-2.45 1.895-4.421 4.213-4.421v-.4zm4.613 4.821c0-2.654-2.057-4.821-4.613-4.821v.4c2.318 0 4.213 1.97 4.213 4.421h.4zm-4.613 4.821c2.556 0 4.613-2.167 4.613-4.821h-.4c0 2.45-1.895 4.421-4.213 4.421v.4zm-1.89-.422a4.429 4.429 0 001.89.422v-.4a4.03 4.03 0 01-1.72-.384l-.17.362zm.284 4.25v-4.43h-.4v4.43h.4zm1.378-1.942l-1.722 1.803.289.277 1.722-1.804-.289-.276zm.857 0a.589.589 0 00-.857 0l.29.276a.189.189 0 01.277 0l.29-.276zm1.722 1.803l-1.722-1.803-.29.276 1.723 1.804.289-.276zm-.345-3.258v3.397h.4v-3.397h-.4zm.601-.62a.611.611 0 00-.6.62h.4c0-.13.098-.22.2-.22v-.4zm.602.62a.61.61 0 00-.602-.62v.4c.103 0 .202.09.202.22h.4zm0 4.41v-4.41h-.4v4.41h.4zm-.368.573a.62.62 0 00.368-.572h-.4a.221.221 0 01-.127.204l.159.368zm-.662-.137c.172.18.433.236.662.136l-.16-.367a.188.188 0 01-.212-.045l-.29.276zm-2.123-2.224l2.123 2.224.29-.276-2.124-2.224-.29.276zm-1.834 2.224l2.123-2.224-.29-.276-2.123 2.224.29.276zm-.662.136c.229.1.49.043.662-.136l-.29-.276a.188.188 0 01-.213.045l-.159.368zm-.368-.571a.62.62 0 00.368.572l.16-.368a.22.22 0 01-.128-.204h-.4zm0-5.934v5.934h.4v-5.934h-.4zm-1.805-3.729c0 1.593.74 3.009 1.883 3.887l.244-.317c-1.046-.803-1.727-2.102-1.727-3.57h-.4zm1.202 0c0-1.987 1.536-3.581 3.41-3.581v-.4c-2.112 0-3.81 1.791-3.81 3.981h.4zm3.41 3.581c-1.874 0-3.41-1.594-3.41-3.581h-.4c0 2.19 1.697 3.981 3.81 3.981v-.4zm3.412-3.581c0 1.987-1.536 3.581-3.411 3.581v.4c2.113 0 3.81-1.791 3.81-3.981h-.4zm-3.411-3.581c1.875 0 3.41 1.594 3.41 3.581h.4c0-2.19-1.697-3.981-3.81-3.981v.4zM47.577 43.59c-2.113 0-3.811 1.79-3.811 3.98h.4c0-1.986 1.536-3.58 3.41-3.58v-.4zm16.449 0h-16.45v.4h16.45v-.4zm3.81 3.98c0-2.19-1.697-3.98-3.81-3.98v.4c1.875 0 3.41 1.594 3.41 3.58h.4zm0 26.468V47.571h-.4v26.467h.4zm-3.81 3.981c2.113 0 3.81-1.79 3.81-3.98h-.4c0 1.986-1.535 3.58-3.41 3.58v.4zm-16.048 0h16.048v-.4H47.978v.4zm-7.02-7.342c0 4.046 3.134 7.342 7.02 7.342v-.4c-3.648 0-6.62-3.099-6.62-6.942h-.4zm0-.21v.21h.4v-.21h-.4zm.6-.62a.61.61 0 00-.6.62h.4c0-.13.098-.22.2-.22v-.4zm.602.62a.61.61 0 00-.601-.62v.4c.102 0 .201.09.201.22h.4zm0 .21v-.21h-.4v.21h.4zm5.818 6.102c-3.205 0-5.818-2.723-5.818-6.102h-.4c0 3.582 2.775 6.502 6.218 6.502v-.4zm12.812 0H47.978v.4H60.79v-.4zm-1.85-1a7.714 7.714 0 001.75 1.374l.199-.348a7.31 7.31 0 01-1.659-1.303l-.29.277zm-2.12-4.668c.116 1.767.936 3.426 2.12 4.668l.29-.276c-1.129-1.183-1.902-2.756-2.012-4.419l-.399.027zm-12.453.186H57.02v-.4H44.367v.4zm-.601-.62c0 .334.26.62.601.62v-.4c-.102 0-.201-.09-.201-.22h-.4zm.079-.306a.633.633 0 00-.079.306h.4c0-.042.01-.08.029-.113l-.35-.193zm-.079-.114c0 .111.028.216.079.307l.35-.193a.234.234 0 01-.029-.114h-.4zm0-22.686v22.686h.4V47.571h-.4zm13.64 22.486H44.768v.4h12.638v-.4zm.601.62a.61.61 0 00-.601-.62v.4c.102 0 .201.09.201.22h.4zm1.79 4.231c-1.097-1.149-1.79-2.679-1.79-4.23h-.4c0 1.668.743 3.294 1.901 4.507l.29-.277zm4.028 1.871c-1.473 0-2.93-.721-4.028-1.87l-.289.276c1.158 1.212 2.714 1.994 4.317 1.994v-.4zm.2 0h-.2v.4h.2v-.4zm2.61-2.74c0 1.522-1.177 2.74-2.61 2.74v.4c1.67 0 3.01-1.415 3.01-3.14h-.4zm0-26.468v26.467h.4V47.571h-.4zm-2.61-2.741c1.433 0 2.61 1.218 2.61 2.74h.4c0-1.725-1.34-3.14-3.01-3.14v.4zm-16.448 0h16.449v-.4h-16.45v.4zm-2.609 2.74c0-1.522 1.177-2.74 2.609-2.74v-.4c-1.67 0-3.009 1.415-3.009 3.14h.4zm0 22.687V47.571h-.4v22.686h.4zm32.507-34.245c-.184.336-.48.794-.866 1.119l.257.306c.442-.372.767-.88.96-1.233l-.35-.192zm.468-1.665c.047.172.019.435-.076.75a4.944 4.944 0 01-.392.915l.351.192c.163-.298.322-.65.424-.991.1-.333.156-.688.078-.972l-.386.106zm-.12-.17c.031.016.088.057.12.17l.385-.106a.65.65 0 00-.316-.417l-.188.353zm-1.35 1.288c.222-.405.499-.79.768-1.039.135-.125.258-.207.363-.246.1-.038.168-.03.22-.003l.188-.353a.652.652 0 00-.549-.019 1.564 1.564 0 00-.494.328c-.311.288-.613.712-.847 1.14l.351.192zm0 0l.002-.003-.354-.187-.002.004.353.187zm-1.375-1.51c.062-.02.13-.013.214.038.09.053.189.151.29.295.202.286.38.705.5 1.138l.386-.107c-.127-.46-.322-.926-.56-1.262a1.423 1.423 0 00-.41-.408.648.648 0 00-.542-.075l.122.38zm-.11 1.845c-.118-.433-.18-.891-.156-1.252.012-.18.046-.324.096-.426.049-.098.106-.147.17-.167l-.122-.381a.69.69 0 00-.407.372 1.562 1.562 0 00-.136.575c-.029.42.044.924.169 1.384l.386-.105zm-.294.226l.004.002.194-.35-.004-.002-.194.35zm-1.777-.273c.064-.118.248-.196.618-.142.349.05.773.208 1.162.416l.189-.353c-.415-.221-.884-.4-1.294-.46-.388-.055-.828-.015-1.026.347l.35.192zm-.017.225a.29.29 0 01.017-.225l-.351-.192a.688.688 0 00-.051.523l.385-.106zm1.226 1.112a4.356 4.356 0 01-.787-.533c-.237-.207-.392-.41-.439-.579l-.385.106c.078.286.307.552.56.774.26.227.573.43.862.585l.189-.353zm1.284.425c-.484-.044-.961-.252-1.284-.425l-.189.353c.341.182.874.419 1.436.47l.037-.397zm.005 0a.01.01 0 01-.005 0l-.038.399a.411.411 0 00.165-.018l-.122-.381zm.02-.029c-.002.017-.013.027-.02.029l.122.38a.433.433 0 00.296-.366l-.398-.043zm-.013-.027c.002 0 .005 0 .008.005a.03.03 0 01.005.022l.398.043a.42.42 0 00-.374-.468l-.037.398zm-1.277-.424c.25.134.759.376 1.277.424l.037-.398c-.436-.041-.887-.25-1.126-.378l-.188.352zm-1.22-1.158c0 .053.017.1.032.135a.775.775 0 00.064.116c.052.078.126.169.223.265.194.194.488.422.9.642l.19-.352a3.462 3.462 0 01-.808-.573 1.336 1.336 0 01-.17-.202.392.392 0 01-.032-.055c-.006-.014 0-.006 0 .016l-.4.008zm1.753.204a3.884 3.884 0 00-1.06-.4 1.698 1.698 0 00-.347-.036.738.738 0 00-.131.012.338.338 0 00-.133.055l.236.323c-.024.017-.04.017-.024.015a.339.339 0 01.059-.005c.06-.002.148.005.263.028.23.045.553.15.948.361l.189-.352zm.52.324a4.578 4.578 0 00-.52-.324l-.189.353c.17.09.329.19.475.296l.234-.325zm.018-.003a.019.019 0 01-.011.005c-.003 0-.005 0-.007-.002l-.234.325c.158.114.369.1.513-.025l-.26-.303zm.01-.041a.035.035 0 01.002.022.037.037 0 01-.012.019l.261.303a.437.437 0 00.118-.498l-.369.154zm-.198-.576c.055.2.122.393.198.576l.37-.154a4.376 4.376 0 01-.182-.528l-.386.106zm-.01-1.726a.351.351 0 00-.077.12.79.79 0 00-.038.128 1.83 1.83 0 00-.036.353 4.06 4.06 0 00.161 1.125l.386-.106a3.666 3.666 0 01-.147-1.012 1.44 1.44 0 01.027-.275.391.391 0 01.018-.062c.006-.016.004-.003-.015.016l-.279-.287zm1.052 1.41a3.939 3.939 0 00-.434-1.04 1.699 1.699 0 00-.211-.277.724.724 0 00-.1-.088.333.333 0 00-.135-.059l-.066.394c-.03-.005-.042-.016-.03-.008a.333.333 0 01.044.04c.041.042.097.111.16.21.123.199.269.506.387.934l.385-.106zm.126.599a4.913 4.913 0 00-.126-.599l-.385.106c.05.183.089.368.115.55l.396-.057zm.013.018a.01.01 0 01-.007-.004.025.025 0 01-.006-.014l-.396.056a.417.417 0 00.367.36l.041-.398zm.022-.02c-.007.018-.02.02-.023.02l-.041.397a.425.425 0 00.436-.27l-.371-.147zm.271-.575a5.14 5.14 0 00-.27.575l.371.148a4.76 4.76 0 01.25-.53l-.35-.192zM77.7 34.21a.368.368 0 00-.135.036.806.806 0 00-.116.067 1.84 1.84 0 00-.271.234c-.2.203-.438.512-.675.945l.351.192a3.95 3.95 0 01.61-.858c.085-.087.157-.146.21-.182a.413.413 0 01.058-.035c.015-.007.008 0-.015 0l-.017-.399zm-.253 1.775a4.38 4.38 0 00.426-1.055c.033-.137.05-.255.053-.35a.842.842 0 00-.003-.133.38.38 0 00-.037-.13l-.355.185c-.01-.018-.008-.025-.005-.008a.458.458 0 010 .069 1.51 1.51 0 01-.042.274 3.937 3.937 0 01-.388.956l.35.192zm-.85 1.1c.406-.343.709-.842.85-1.1l-.351-.192c-.136.248-.41.693-.758.986l.258.305zm-.008.046a.03.03 0 01-.005-.022.037.037 0 01.012-.025l-.258-.305a.436.436 0 00-.066.596l.317-.244zm.02 0a.02.02 0 01-.007.004l-.005.001a.01.01 0 01-.004-.001l-.004-.004-.317.244c.146.19.415.214.596.062l-.259-.306zm.761 5.377l1.483-.474-.122-.381-1.483.474.122.381zm-.525-.288a.413.413 0 00.525.288l-.122-.38h-.005l-.003-.001a.02.02 0 01-.009-.013l-.386.106zm.283-.529a.435.435 0 00-.282.53l.385-.107a.038.038 0 01.004-.027.028.028 0 01.015-.015l-.122-.381zm1.483-.474l-1.483.474.122.381 1.483-.474-.122-.381zm.175-.017a.411.411 0 00-.175.017l.122.38h.005l.048-.397zm-.23.204l.013.047.386-.106-.013-.047-.386.106zm-1.314-2.797c.189.105.4.358.628.83.225.465.451 1.113.686 1.967l.386-.106c-.238-.864-.472-1.539-.712-2.035-.236-.49-.493-.838-.793-1.005l-.195.349zm-.908.082c.444-.143.683-.208.908-.082l.195-.35c-.406-.226-.829-.077-1.226.052l.123.38zm-.002 0h.002l-.123-.38h-.001l.122.38zm0 0h.001l-.124-.38h-.002l.125.38zm-.186.06l.185-.059-.122-.38-.185.058.122.381zm-.002.001h.001l-.12-.382h-.002l.12.382zm-.812.474c.131-.248.371-.334.812-.474l-.121-.381c-.402.127-.824.25-1.045.67l.354.185zm.311 3.13c-.235-.855-.373-1.531-.42-2.054-.048-.528.001-.87.11-1.075l-.355-.187c-.163.31-.203.747-.154 1.298.05.557.196 1.26.433 2.124l.386-.106zm2.244 6.026c-.858-1.823-1.739-4.19-2.244-6.026l-.386.106c.512 1.859 1.401 4.247 2.268 6.09l.362-.17zm1.78 2.866c.034-.011.051 0 .036-.006a.36.36 0 01-.085-.052 2.186 2.186 0 01-.374-.403c-.324-.424-.775-1.167-1.357-2.405l-.362.17c.587 1.25 1.053 2.022 1.401 2.478.174.227.323.382.45.478a.736.736 0 00.19.11.343.343 0 00.223.01l-.122-.38zm.374.575l-.12-.438-.386.106.12.438.386-.106zm-2.91-3.062c.823 1.748 1.414 2.595 1.845 2.995.218.203.406.302.574.336.171.035.296-.006.36-.026l-.123-.38a.278.278 0 01-.158.014c-.073-.015-.197-.066-.38-.237-.372-.345-.938-1.133-1.755-2.872l-.362.17zm-2.294-6.164c.518 1.882 1.418 4.3 2.295 6.164l.362-.17c-.868-1.846-1.76-4.242-2.271-6.1l-.386.106zm-.24-3.772c-.194.367-.257.85-.214 1.46.044.611.196 1.372.454 2.312l.386-.106c-.256-.929-.4-1.661-.44-2.235-.041-.576.024-.972.168-1.244l-.354-.187zm1.306-.892c-.446.142-1 .31-1.306.892l.354.187c.22-.419.607-.55 1.073-.697l-.121-.382zm.003 0h-.003l.12.382.004-.001-.121-.382zm0 0h-.002l.124.38h.001l-.123-.38zm.18-.059l-.18.058.123.381.18-.058-.122-.38zm0 0l.124.38h.002l-.125-.38zm.005 0h-.003l.123.38h.003l-.123-.38zm1.558-.02c-.561-.312-1.117-.123-1.558.02l.123.38c.469-.152.853-.266 1.24-.05l.195-.35zm1.713 3.312c-.258-.94-.516-1.667-.79-2.206-.271-.537-.57-.908-.923-1.105l-.195.35c.252.14.505.43.762.936.256.504.505 1.202.76 2.13l.386-.105zm1.194 6.516c-.208-2.079-.676-4.634-1.194-6.516l-.386.106c.512 1.858.976 4.392 1.182 6.45l.398-.04zm-.645 4.384c.064-.021.186-.06.31-.187.119-.123.225-.312.304-.608.158-.585.226-1.64.03-3.59l-.397.04c.194 1.939.119 2.934-.019 3.446-.068.254-.148.374-.205.433a.303.303 0 01-.145.085l.122.38zm-.374-.575l.12.437.385-.106-.12-.437-.386.106zm.186-3.713c.138 1.38.136 2.27.078 2.816-.028.275-.07.454-.11.564a.428.428 0 01-.05.1c-.012.017-.005 0 .027-.01l.122.38a.354.354 0 00.174-.134.808.808 0 00.101-.197c.057-.153.104-.37.134-.66.062-.586.061-1.506-.078-2.899l-.398.04zm-.08-.719c.03.245.057.485.08.719l.398-.04a33.7 33.7 0 00-.081-.727l-.397.048zm.222.182a.423.423 0 00.071-.03l-.189-.352a.027.027 0 01-.004.001l.122.381zm-1.097.351l1.097-.35-.122-.382-1.097.351.122.381zm-.525-.288a.413.413 0 00.525.288l-.122-.38h-.005l-.003-.001c-.003-.001-.007-.005-.009-.013l-.386.106zm.283-.529a.436.436 0 00-.283.53l.386-.107a.038.038 0 01.003-.027.028.028 0 01.016-.015l-.122-.381zm1.097-.351l-1.097.351.122.381 1.097-.351-.122-.381zm.2-.013a.41.41 0 00-.2.013l.122.38h.006l.072-.393zm-.586-1.979c.136.736.256 1.483.352 2.202l.396-.053a44.961 44.961 0 00-.355-2.222l-.393.073zm.202.181a.42.42 0 00.105-.05l-.222-.334a.022.022 0 01-.005.003l.122.381zm-1.37.438l1.37-.438-.122-.38-1.37.437.122.381zm-.525-.288a.413.413 0 00.525.288l-.122-.38h-.005l-.003-.001c-.003-.001-.007-.005-.009-.013l-.386.106zm.283-.529a.435.435 0 00-.283.53l.386-.107a.037.037 0 01.003-.027.028.028 0 01.016-.015l-.122-.38zm1.37-.438l-1.37.438.122.381 1.37-.438-.122-.381zm.187-.015a.411.411 0 00-.187.015l.122.38h.005l.06-.395zm-.71-1.929c.172.668.336 1.405.484 2.165l.392-.077a38.208 38.208 0 00-.488-2.187l-.387.1zm.179.184a.42.42 0 00.145-.081l-.26-.305a.024.024 0 01-.007.005l.122.38z" fill="#fff"/></svg>