<svg width="204" height="34" fill="none" xmlns="http://www.w3.org/2000/svg"><path fill-rule="evenodd" clip-rule="evenodd" d="M15.481 33.12c8.55 0 15.482-7.217 15.482-16.12C30.963 8.097 24.032.88 15.48.88 6.931.88 0 8.097 0 17c0 8.903 6.931 16.12 15.481 16.12zm0-4.606c6.107 0 11.058-5.155 11.058-11.514 0-6.359-4.95-11.514-11.058-11.514C9.374 5.486 4.423 10.64 4.423 17c0 6.36 4.95 11.514 11.058 11.514z" fill="url(#paint0_linear)"/><path d="M52.35 26.25l-4.236-7.219h-4.478v7.22H39.81V7.228h9.122a7.743 7.743 0 015.043 1.474 5.04 5.04 0 011.37 1.88 5.24 5.24 0 01.4 2.322 5.619 5.619 0 01-1.106 3.455 5.086 5.086 0 01-2.942 1.911l4.932 7.99-4.28-.01zm-.454-13.183c0-1.831-1.106-2.74-3.317-2.74h-4.943v5.607h4.998a3.526 3.526 0 002.433-.749c.28-.267.5-.596.643-.962a2.77 2.77 0 00.186-1.156zM60.3 26.224V7.213h3.826v19.01H60.3zm23.598-5.174a5.09 5.09 0 01-.472 2.405 4.87 4.87 0 01-1.53 1.867 9.642 9.642 0 01-5.839 1.486 10.021 10.021 0 01-5.529-1.302 5.783 5.783 0 01-1.678-1.682 6.043 6.043 0 01-.887-2.244l3.727-.656c.087.449.261.874.512 1.25.251.377.573.696.947.938.93.506 1.972.74 3.019.679 2.665 0 4.003-.84 4.003-2.533a2.015 2.015 0 00-.487-1.313 3.493 3.493 0 00-1.304-.875 21.229 21.229 0 00-3.207-.852 27.819 27.819 0 01-2.853-.806 7.477 7.477 0 01-1.449-.714 3.996 3.996 0 01-1.106-.99 4.12 4.12 0 01-.707-1.359 5.572 5.572 0 01-.255-1.796 4.765 4.765 0 01.467-2.228 4.557 4.557 0 011.435-1.721 9.042 9.042 0 015.408-1.37 9.508 9.508 0 015.109 1.15A5.217 5.217 0 0182.7 9.966c.38.629.63 1.334.733 2.07l-3.749.483a2.977 2.977 0 00-1.105-1.842 4.284 4.284 0 00-2.51-.622c-2.312 0-3.473.76-3.473 2.303-.018.44.115.873.376 1.22.302.354.681.627 1.106.795.958.36 1.941.64 2.941.84 1.281.242 2.54.6 3.76 1.072.66.265 1.267.656 1.792 1.151.443.44.79.974 1.017 1.566.244.669.364 1.38.354 2.095l-.044-.046zm3.871 5.174V7.213h3.826v19.01h-3.826zm19.561.011l-7.973-14.646c.14 1.146.221 2.299.243 3.454v11.215h-3.406V7.213h4.424l8.061 14.762a32.74 32.74 0 01-.243-3.65V7.213h3.317v19.022h-4.423zm16.709-2.557a9.356 9.356 0 002.886-.45 5.686 5.686 0 002.212-1.15v-2.649h-4.424v-2.936h7.962v7a9.895 9.895 0 01-3.782 2.43 13.69 13.69 0 01-4.887.887 8.8 8.8 0 01-3.686-.547 9.073 9.073 0 01-3.17-2.033 10.136 10.136 0 01-1.893-3.396 10.446 10.446 0 01-.496-3.892 10.052 10.052 0 01.498-3.855 9.777 9.777 0 011.913-3.342 9.314 9.314 0 013.221-1.99 9.044 9.044 0 013.712-.52c4.28 0 7.011 1.658 8.172 4.952l-3.516 1.15a4.395 4.395 0 00-1.792-2.187 5.408 5.408 0 00-2.864-.737 4.947 4.947 0 00-2.235.364 5.117 5.117 0 00-1.867 1.329 7.536 7.536 0 00-1.394 4.87 7.703 7.703 0 001.438 4.998 5.075 5.075 0 001.842 1.36 4.886 4.886 0 002.227.39l-.077-.046zm26.86-2.685a5.085 5.085 0 01-.467 2.402 4.872 4.872 0 01-1.523 1.87 9.644 9.644 0 01-5.839 1.485 10.08 10.08 0 01-5.529-1.301 5.878 5.878 0 01-1.673-1.687 6.111 6.111 0 01-.892-2.24l3.693-.633c.093.448.272.873.524 1.248.253.376.574.695.947.94a5.583 5.583 0 003.019.68c2.665 0 4.003-.841 4.003-2.534a1.974 1.974 0 00-.465-1.335 3.534 3.534 0 00-1.294-.876 21.193 21.193 0 00-3.206-.852 26.203 26.203 0 01-2.798-.748 7.489 7.489 0 01-1.449-.714 4.06 4.06 0 01-1.106-.99 4.343 4.343 0 01-.707-1.359 5.897 5.897 0 01-.255-1.796 4.697 4.697 0 01.444-2.227 4.489 4.489 0 011.425-1.723 9.043 9.043 0 015.408-1.37 9.44 9.44 0 015.097 1.152c.595.412 1.099.95 1.48 1.579a5.42 5.42 0 01.732 2.07l-3.704.53a3.068 3.068 0 00-1.162-1.842 4.28 4.28 0 00-2.51-.622c-2.311 0-3.472.76-3.472 2.303-.017.439.112.87.365 1.22a2.91 2.91 0 001.106.795c.959.356 1.942.637 2.941.84 1.285.243 2.546.601 3.771 1.072.66.266 1.267.656 1.791 1.151.44.443.786.976 1.018 1.566.235.671.351 1.381.343 2.096l-.056-.15zm11.058-10.705v15.936h-3.826V10.288h-5.894V7.213h15.625v3.075h-5.905zm18.899 15.947l-1.648-4.87h-6.956l-1.625 4.87h-3.826l6.635-19.022h4.5l6.635 19.022h-3.715zm-5.098-16.12l-.078.288c-.088.334-.199.702-.309 1.151-.111.45-.874 2.683-2.212 6.828h5.242l-1.792-5.47-.564-1.83-.265-.933-.022-.034zm23.907 16.135l-4.235-7.219h-4.423v7.22h-3.826V7.229h9.112a7.7 7.7 0 015.031 1.474 5.018 5.018 0 011.378 1.877 5.22 5.22 0 01.402 2.326 5.56 5.56 0 01-1.105 3.454 5.022 5.022 0 01-2.942 1.911L204 26.262l-4.335-.011zm-.453-13.183c0-1.831-1.106-2.74-3.373-2.74h-4.888v5.607h4.999a3.493 3.493 0 002.421-.749c.283-.266.505-.594.65-.96a2.77 2.77 0 00.191-1.158z" fill="#282B2E"/><defs><linearGradient id="paint0_linear" x1="4.976" y1="30.241" x2="34.793" y2="3.809" gradientUnits="userSpaceOnUse"><stop stop-color="#62348A"/><stop offset=".109" stop-color="#A1217D"/><stop offset=".235" stop-color="#EB3E2D"/><stop offset=".46" stop-color="#FFE400"/><stop offset=".662" stop-color="#3DB138"/><stop offset=".895" stop-color="#009FCA"/><stop offset="1" stop-color="#185AA3"/></linearGradient></defs></svg>