<svg width="240" height="36" fill="none" xmlns="http://www.w3.org/2000/svg"><path fill-rule="evenodd" clip-rule="evenodd" d="M18.86 35.555c10.003 0 18.11-7.835 18.11-17.5S28.864.555 18.86.555C8.86.555.752 8.39.752 18.055s8.108 17.5 18.11 17.5zm.001-5c7.144 0 12.936-5.596 12.936-12.5s-5.792-12.5-12.936-12.5-12.935 5.596-12.935 12.5 5.791 12.5 12.935 12.5z" fill="url(#paint0_linear)"/><path d="M61.988 28.093l-4.954-7.837h-5.24v7.837H47.32V7.444h10.672a9.566 9.566 0 015.898 1.6 5.51 5.51 0 011.602 2.042c.36.793.52 1.657.468 2.521a5.808 5.808 0 01-1.293 3.75 6.007 6.007 0 01-3.441 2.075l5.77 8.675-5.007-.013zm-.53-14.312c0-1.988-1.294-2.975-3.881-2.975h-5.782v6.088h5.847a4.348 4.348 0 002.845-.813c.328-.29.585-.647.753-1.044.168-.398.242-.827.218-1.256zm9.831 14.283V7.427h4.476v20.637h-4.476zm27.604-5.616c.047.902-.143 1.8-.552 2.61a5.392 5.392 0 01-1.79 2.028 11.965 11.965 0 01-6.83 1.612c-2.25.12-4.49-.37-6.467-1.412a6.543 6.543 0 01-1.964-1.827 6.297 6.297 0 01-1.038-2.436l4.36-.712c.102.487.306.95.6 1.358.293.408.67.754 1.107 1.017a6.99 6.99 0 003.532.737c3.117 0 4.683-.912 4.683-2.75a2.098 2.098 0 00-.57-1.425 4.12 4.12 0 00-1.526-.95 26.39 26.39 0 00-3.751-.925 34.564 34.564 0 01-3.338-.875 9.04 9.04 0 01-1.694-.775 4.58 4.58 0 01-1.294-1.075 4.369 4.369 0 01-.828-1.475 5.646 5.646 0 01-.297-1.95 4.86 4.86 0 01.545-2.418 5.055 5.055 0 011.68-1.87 11.22 11.22 0 016.325-1.487c2.072-.112 4.138.32 5.976 1.25a5.86 5.86 0 011.73 1.716 5.67 5.67 0 01.858 2.247l-4.386.525a3.2 3.2 0 00-1.293-2 5.32 5.32 0 00-2.937-.675c-2.703 0-4.061.825-4.061 2.5-.022.478.134.948.44 1.325.352.384.796.68 1.293.862 1.12.39 2.271.696 3.44.913a26.76 26.76 0 014.399 1.162 6.781 6.781 0 012.096 1.25 4.82 4.82 0 011.19 1.7c.285.727.425 1.499.413 2.275l-.051-.05zm4.528 5.616V7.427h4.476v20.637h-4.476zm22.881.013l-9.326-15.9a34.35 34.35 0 01.284 3.75v12.175h-3.984V7.427h5.174l9.431 16.025a33.254 33.254 0 01-.285-3.963V7.427h3.881v20.65h-5.175zM145.85 25.3a11.723 11.723 0 003.376-.487 6.827 6.827 0 002.587-1.25v-2.875h-5.174v-3.187h9.314v7.6a11.718 11.718 0 01-4.424 2.637 17.132 17.132 0 01-5.718.963 11.023 11.023 0 01-4.311-.594 10.752 10.752 0 01-3.709-2.206 10.807 10.807 0 01-2.213-3.688 10.551 10.551 0 01-.581-4.225c-.1-1.419.098-2.842.582-4.185a10.463 10.463 0 012.238-3.627 11.07 11.07 0 013.768-2.16 11.342 11.342 0 014.343-.565c5.006 0 8.201 1.8 9.559 5.375l-4.113 1.25a4.868 4.868 0 00-2.096-2.375 6.714 6.714 0 00-3.35-.8 6.194 6.194 0 00-2.615.394 6.014 6.014 0 00-2.184 1.443 7.755 7.755 0 00-1.63 5.288 7.937 7.937 0 001.681 5.425 5.929 5.929 0 002.156 1.476 6.107 6.107 0 002.605.424l-.091-.05zm31.42-2.914c.049.9-.139 1.797-.547 2.608a5.393 5.393 0 01-1.781 2.03 11.966 11.966 0 01-6.83 1.612 12.535 12.535 0 01-6.468-1.413 6.624 6.624 0 01-1.957-1.831 6.384 6.384 0 01-1.044-2.431l4.32-.688c.11.487.318.947.613 1.355a3.83 3.83 0 001.108 1.02 6.947 6.947 0 003.531.738c3.118 0 4.683-.913 4.683-2.75a2.047 2.047 0 00-.544-1.45 4.168 4.168 0 00-1.513-.95 26.423 26.423 0 00-3.751-.925 32.586 32.586 0 01-3.273-.813 9.05 9.05 0 01-1.695-.775 4.645 4.645 0 01-2.121-2.55 5.986 5.986 0 01-.298-1.95 4.793 4.793 0 01.519-2.417 4.976 4.976 0 011.668-1.87 11.217 11.217 0 016.325-1.488c2.068-.113 4.13.319 5.963 1.25a5.833 5.833 0 011.732 1.715 5.64 5.64 0 01.856 2.248l-4.334.575a3.305 3.305 0 00-1.358-2 5.321 5.321 0 00-2.937-.675c-2.703 0-4.061.825-4.061 2.5-.02.476.131.944.427 1.325a3.4 3.4 0 001.293.862c1.122.387 2.272.692 3.441.913 1.502.263 2.978.652 4.411 1.162a6.794 6.794 0 012.096 1.25 5 5 0 011.19 1.7c.274.73.41 1.5.401 2.275l-.065-.162zm12.937-11.622v17.3h-4.476v-17.3h-6.894V7.427h18.278v3.337h-6.908zm22.106 17.313l-1.927-5.288h-8.137l-1.901 5.288h-4.476l7.761-20.65h5.265l7.761 20.65h-4.346zm-5.963-17.5l-.091.312c-.103.363-.233.763-.362 1.25-.129.488-1.022 2.913-2.587 7.413h6.131l-2.095-5.938-.66-1.987-.31-1.013-.026-.037zm27.967 17.517l-4.955-7.838h-5.174v7.838h-4.476V7.444h10.659a9.513 9.513 0 015.886 1.6 5.487 5.487 0 011.612 2.038 5.31 5.31 0 01.471 2.524 5.744 5.744 0 01-1.294 3.75 5.929 5.929 0 01-3.441 2.075l5.783 8.675-5.071-.012zm-.531-14.313c0-1.987-1.293-2.975-3.945-2.975h-5.717v6.088h5.846a4.307 4.307 0 002.833-.813c.331-.288.59-.645.76-1.043.17-.397.246-.827.223-1.257z" fill="#fff"/><defs><linearGradient id="paint0_linear" x1="6.572" y1="32.43" x2="39.142" y2="1.317" gradientUnits="userSpaceOnUse"><stop stop-color="#62348A"/><stop offset=".109" stop-color="#A1217D"/><stop offset=".235" stop-color="#EB3E2D"/><stop offset=".46" stop-color="#FFE400"/><stop offset=".662" stop-color="#3DB138"/><stop offset=".895" stop-color="#009FCA"/><stop offset="1" stop-color="#185AA3"/></linearGradient></defs></svg>